<?xml version="1.0" encoding="UTF-8" standalone="no"?><svg xmlns="http://www.w3.org/2000/svg" xmlns:xlink="http://www.w3.org/1999/xlink" contentScriptType="application/ecmascript" contentStyleType="text/css" height="487px" preserveAspectRatio="none" style="width:142px;height:487px;" version="1.1" viewBox="0 0 142 487" width="142px" zoomAndPan="magnify"><defs><filter height="300%" id="fotv5xv3z1b42" width="300%" x="-1" y="-1"><feGaussianBlur result="blurOut" stdDeviation="2.0"/><feColorMatrix in="blurOut" result="blurOut2" type="matrix" values="0 0 0 0 0 0 0 0 0 0 0 0 0 0 0 0 0 0 .4 0"/><feOffset dx="4.0" dy="4.0" in="blurOut2" result="blurOut3"/><feBlend in="SourceGraphic" in2="blurOut3" mode="normal"/></filter></defs><g><!--entity App--><polygon fill="#FEFECE" filter="url(#fotv5xv3z1b42)" points="10.5,8,43.5,8,50.5,30.2969,115.5,30.2969,115.5,79.8906,10.5,79.8906,10.5,8" style="stroke: #000000; stroke-width: 1.5;"/><line style="stroke: #000000; stroke-width: 1.5;" x1="10.5" x2="50.5" y1="30.2969" y2="30.2969"/><text fill="#A80036" font-family="sans-serif" font-size="14" lengthAdjust="spacingAndGlyphs" textLength="27" x="14.5" y="23.9951">App</text><text fill="#A80036" font-family="sans-serif" font-size="14" lengthAdjust="spacingAndGlyphs" textLength="50" x="20.5" y="50.292">«layer»</text><text fill="#A80036" font-family="sans-serif" font-size="14" lengthAdjust="spacingAndGlyphs" textLength="75" x="20.5" y="66.5889">Application</text><!--entity BS--><polygon fill="#FEFECE" filter="url(#fotv5xv3z1b42)" points="16,140,41,140,48,162.2969,110,162.2969,110,228.1875,16,228.1875,16,140" style="stroke: #000000; stroke-width: 1.5;"/><line style="stroke: #000000; stroke-width: 1.5;" x1="16" x2="48" y1="162.2969" y2="162.2969"/><text fill="#A80036" font-family="sans-serif" font-size="14" lengthAdjust="spacingAndGlyphs" textLength="19" x="20" y="155.9951">BS</text><text fill="#A80036" font-family="sans-serif" font-size="14" lengthAdjust="spacingAndGlyphs" textLength="50" x="26" y="182.292">«layer»</text><text fill="#A80036" font-family="sans-serif" font-size="14" lengthAdjust="spacingAndGlyphs" textLength="64" x="26" y="198.5889">Business</text><text fill="#A80036" font-family="sans-serif" font-size="14" lengthAdjust="spacingAndGlyphs" textLength="58" x="26" y="214.8857">Services</text><!--entity Mid--><polygon fill="#FEFECE" filter="url(#fotv5xv3z1b42)" points="9,288,39,288,46,310.2969,117,310.2969,117,359.8906,9,359.8906,9,288" style="stroke: #000000; stroke-width: 1.5;"/><line style="stroke: #000000; stroke-width: 1.5;" x1="9" x2="46" y1="310.2969" y2="310.2969"/><text fill="#A80036" font-family="sans-serif" font-size="14" lengthAdjust="spacingAndGlyphs" textLength="24" x="13" y="303.9951">Mid</text><text fill="#A80036" font-family="sans-serif" font-size="14" lengthAdjust="spacingAndGlyphs" textLength="50" x="19" y="330.292">«layer»</text><text fill="#A80036" font-family="sans-serif" font-size="14" lengthAdjust="spacingAndGlyphs" textLength="78" x="19" y="346.5889">Middleware</text><!--entity Base--><polygon fill="#FEFECE" filter="url(#fotv5xv3z1b42)" points="6,420,47,420,54,442.2969,120,442.2969,120,475.5938,6,475.5938,6,420" style="stroke: #000000; stroke-width: 1.5;"/><line style="stroke: #000000; stroke-width: 1.5;" x1="6" x2="54" y1="442.2969" y2="442.2969"/><text fill="#A80036" font-family="sans-serif" font-size="14" lengthAdjust="spacingAndGlyphs" textLength="35" x="10" y="435.9951">Base</text><text fill="#A80036" font-family="sans-serif" font-size="14" lengthAdjust="spacingAndGlyphs" textLength="84" x="16" y="462.292">Base Reuse</text><!--link App to BS--><path d="M63,80.0535 C63,96.7159 63,116.7642 63,134.7897 " fill="none" id="App-BS" style="stroke: #A80036; stroke-width: 1.0; stroke-dasharray: 7.0,7.0;"/><polygon fill="#A80036" points="63,139.8157,67,130.8157,63,134.8157,59,130.8157,63,139.8157" style="stroke: #A80036; stroke-width: 1.0;"/><!--link BS to Mid--><path d="M63,228.2969 C63,245.7205 63,265.6113 63,282.729 " fill="none" id="BS-Mid" style="stroke: #A80036; stroke-width: 1.0; stroke-dasharray: 7.0,7.0;"/><polygon fill="#A80036" points="63,287.9465,67,278.9465,63,282.9465,59,278.9465,63,287.9465" style="stroke: #A80036; stroke-width: 1.0;"/><!--link Mid to Base--><!--
@startuml
skinparam defaultFontColor #a80036

package "<<layer>>\nApplication" as App
package "<<layer>>\nBusiness\nServices" as BS
package "<<layer>>\nMiddleware" as Mid
package "Base Reuse" as Base

App ..> BS
BS ..> Mid
Mid .[hidden].> Base

@enduml

PlantUML version 1.2017.15(Mon Jul 03 16:45:34 UTC 2017)
(GPL source distribution)
Java Runtime: OpenJDK Runtime Environment
JVM: OpenJDK 64-Bit Server VM
Java Version: 1.8.0_265-b01
Operating System: Linux
OS Version: 5.4.0-1031-azure
Default Encoding: UTF-8
Language: en
Country: null
--></g></svg>