<?xml version="1.0" encoding="UTF-8" standalone="no"?><svg xmlns="http://www.w3.org/2000/svg" xmlns:xlink="http://www.w3.org/1999/xlink" contentScriptType="application/ecmascript" contentStyleType="text/css" height="372px" preserveAspectRatio="none" style="width:393px;height:372px;" version="1.1" viewBox="0 0 393 372" width="393px" zoomAndPan="magnify"><defs><filter height="300%" id="fn1az6qy2gcek" width="300%" x="-1" y="-1"><feGaussianBlur result="blurOut" stdDeviation="2.0"/><feColorMatrix in="blurOut" result="blurOut2" type="matrix" values="0 0 0 0 0 0 0 0 0 0 0 0 0 0 0 0 0 0 .4 0"/><feOffset dx="4.0" dy="4.0" in="blurOut2" result="blurOut3"/><feBlend in="SourceGraphic" in2="blurOut3" mode="normal"/></filter></defs><g><!--class ReviewForm--><rect fill="#FEFECE" filter="url(#fn1az6qy2gcek)" height="86.4141" id="ReviewForm" style="stroke: #A80036; stroke-width: 1.5;" width="144" x="6" y="8"/><ellipse cx="38.55" cy="24" fill="#ADD1B2" rx="11" ry="11" style="stroke: #A80036; stroke-width: 1.0;"/><path d="M41.5188,29.6406 Q40.9406,29.9375 40.3,30.0781 Q39.6594,30.2344 38.9563,30.2344 Q36.4563,30.2344 35.1281,28.5938 Q33.8156,26.9375 33.8156,23.8125 Q33.8156,20.6875 35.1281,19.0313 Q36.4563,17.375 38.9563,17.375 Q39.6594,17.375 40.3,17.5313 Q40.9563,17.6875 41.5188,17.9844 L41.5188,20.7031 Q40.8938,20.125 40.3,19.8594 Q39.7063,19.5781 39.0813,19.5781 Q37.7375,19.5781 37.05,20.6563 Q36.3625,21.7188 36.3625,23.8125 Q36.3625,25.9063 37.05,26.9844 Q37.7375,28.0469 39.0813,28.0469 Q39.7063,28.0469 40.3,27.7813 Q40.8938,27.5 41.5188,26.9219 L41.5188,29.6406 Z "/><text fill="#000000" font-family="sans-serif" font-size="12" lengthAdjust="spacingAndGlyphs" textLength="73" x="56.45" y="28.1543">ReviewForm</text><line style="stroke: #A80036; stroke-width: 1.5;" x1="7" x2="149" y1="40" y2="40"/><line style="stroke: #A80036; stroke-width: 1.5;" x1="7" x2="149" y1="48" y2="48"/><text fill="#000000" font-family="sans-serif" font-size="11" lengthAdjust="spacingAndGlyphs" textLength="122" x="12" y="62.2104">check proposal (uuid)</text><text fill="#000000" font-family="sans-serif" font-size="11" lengthAdjust="spacingAndGlyphs" textLength="126" x="12" y="75.0151">display proposal(uuid)</text><text fill="#000000" font-family="sans-serif" font-size="11" lengthAdjust="spacingAndGlyphs" textLength="132" x="12" y="87.8198">approve proposal(uuid)</text><!--class UpdateControl--><rect fill="#FEFECE" filter="url(#fn1az6qy2gcek)" height="73.6094" id="UpdateControl" style="stroke: #A80036; stroke-width: 1.5;" width="144" x="6" y="154"/><ellipse cx="30.45" cy="170" fill="#ADD1B2" rx="11" ry="11" style="stroke: #A80036; stroke-width: 1.0;"/><path d="M33.4188,175.6406 Q32.8406,175.9375 32.2,176.0781 Q31.5594,176.2344 30.8563,176.2344 Q28.3563,176.2344 27.0281,174.5938 Q25.7156,172.9375 25.7156,169.8125 Q25.7156,166.6875 27.0281,165.0313 Q28.3563,163.375 30.8563,163.375 Q31.5594,163.375 32.2,163.5313 Q32.8563,163.6875 33.4188,163.9844 L33.4188,166.7031 Q32.7938,166.125 32.2,165.8594 Q31.6063,165.5781 30.9813,165.5781 Q29.6375,165.5781 28.95,166.6563 Q28.2625,167.7188 28.2625,169.8125 Q28.2625,171.9063 28.95,172.9844 Q29.6375,174.0469 30.9813,174.0469 Q31.6063,174.0469 32.2,173.7813 Q32.7938,173.5 33.4188,172.9219 L33.4188,175.6406 Z "/><text fill="#000000" font-family="sans-serif" font-size="12" lengthAdjust="spacingAndGlyphs" textLength="91" x="46.55" y="174.1543">UpdateControl</text><line style="stroke: #A80036; stroke-width: 1.5;" x1="7" x2="149" y1="186" y2="186"/><line style="stroke: #A80036; stroke-width: 1.5;" x1="7" x2="149" y1="194" y2="194"/><text fill="#000000" font-family="sans-serif" font-size="11" lengthAdjust="spacingAndGlyphs" textLength="130" x="12" y="208.2104">request proposal(uuid)</text><text fill="#000000" font-family="sans-serif" font-size="11" lengthAdjust="spacingAndGlyphs" textLength="132" x="12" y="221.0151">approve proposal(uuid)</text><!--class ProposalCollection--><rect fill="#FEFECE" filter="url(#fn1az6qy2gcek)" height="73.6094" id="ProposalCollection" style="stroke: #A80036; stroke-width: 1.5;" width="197" x="82.5" y="288"/><ellipse cx="119.55" cy="304" fill="#ADD1B2" rx="11" ry="11" style="stroke: #A80036; stroke-width: 1.0;"/><path d="M122.5188,309.6406 Q121.9406,309.9375 121.3,310.0781 Q120.6594,310.2344 119.9563,310.2344 Q117.4563,310.2344 116.1281,308.5938 Q114.8156,306.9375 114.8156,303.8125 Q114.8156,300.6875 116.1281,299.0313 Q117.4563,297.375 119.9563,297.375 Q120.6594,297.375 121.3,297.5313 Q121.9563,297.6875 122.5188,297.9844 L122.5188,300.7031 Q121.8938,300.125 121.3,299.8594 Q120.7063,299.5781 120.0813,299.5781 Q118.7375,299.5781 118.05,300.6563 Q117.3625,301.7188 117.3625,303.8125 Q117.3625,305.9063 118.05,306.9844 Q118.7375,308.0469 120.0813,308.0469 Q120.7063,308.0469 121.3,307.7813 Q121.8938,307.5 122.5188,306.9219 L122.5188,309.6406 Z "/><text fill="#000000" font-family="sans-serif" font-size="12" lengthAdjust="spacingAndGlyphs" textLength="116" x="138.45" y="308.1543">ProposalCollection</text><line style="stroke: #A80036; stroke-width: 1.5;" x1="83.5" x2="278.5" y1="320" y2="320"/><line style="stroke: #A80036; stroke-width: 1.5;" x1="83.5" x2="278.5" y1="328" y2="328"/><text fill="#000000" font-family="sans-serif" font-size="11" lengthAdjust="spacingAndGlyphs" textLength="104" x="88.5" y="342.2104">get proposal(uuid)</text><text fill="#000000" font-family="sans-serif" font-size="11" lengthAdjust="spacingAndGlyphs" textLength="185" x="88.5" y="355.0151">change status to approved(uuid)</text><!--class IRDBConnector--><rect fill="#FEFECE" filter="url(#fn1az6qy2gcek)" height="66.7422" id="IRDBConnector" style="stroke: #A80036; stroke-width: 1.5;" width="197" x="185.5" y="157.5"/><ellipse cx="232.75" cy="176.4688" fill="#B4A7E5" rx="11" ry="11" style="stroke: #A80036; stroke-width: 1.0;"/><path d="M228.6719,172.2344 L228.6719,170.0781 L236.0625,170.0781 L236.0625,172.2344 L233.5938,172.2344 L233.5938,180.3125 L236.0625,180.3125 L236.0625,182.4688 L228.6719,182.4688 L228.6719,180.3125 L231.1406,180.3125 L231.1406,172.2344 L228.6719,172.2344 Z "/><text fill="#000000" font-family="sans-serif" font-size="12" font-style="italic" lengthAdjust="spacingAndGlyphs" textLength="70" x="265.25" y="173.6387">«interface»</text><text fill="#000000" font-family="sans-serif" font-size="12" font-style="italic" lengthAdjust="spacingAndGlyphs" textLength="94" x="253.25" y="187.6074">IRDBConnector</text><line style="stroke: #A80036; stroke-width: 1.5;" x1="186.5" x2="381.5" y1="195.4375" y2="195.4375"/><line style="stroke: #A80036; stroke-width: 1.5;" x1="186.5" x2="381.5" y1="203.4375" y2="203.4375"/><text fill="#000000" font-family="sans-serif" font-size="11" lengthAdjust="spacingAndGlyphs" textLength="185" x="191.5" y="217.6479">change status to approved(uuid)</text><!--link ReviewForm to UpdateControl--><path d="M78,94.147 C78,113.2685 78,135.5409 78,153.9032 " fill="none" id="ReviewForm-UpdateControl" style="stroke: #A80036; stroke-width: 1.0;"/><text fill="#000000" font-family="sans-serif" font-size="13" lengthAdjust="spacingAndGlyphs" textLength="23" x="53.0953" y="114.579">0..*</text><text fill="#000000" font-family="sans-serif" font-size="13" lengthAdjust="spacingAndGlyphs" textLength="8" x="69.2625" y="142.7958">1</text><!--link UpdateControl to ProposalCollection--><path d="M106.6912,228.3265 C120.9773,246.9122 138.1978,269.3155 152.4626,287.8737 " fill="none" id="UpdateControl-ProposalCollection" style="stroke: #A80036; stroke-width: 1.0;"/><text fill="#000000" font-family="sans-serif" font-size="13" lengthAdjust="spacingAndGlyphs" textLength="8" x="102.6264" y="247.5793">1</text><text fill="#000000" font-family="sans-serif" font-size="13" lengthAdjust="spacingAndGlyphs" textLength="8" x="138.6669" y="277.0382">1</text><!--link IRDBConnector to ProposalCollection--><path d="M258.0088,224.8139 C243.2291,244.0418 224.6995,268.1483 209.5203,287.8959 " fill="none" id="IRDBConnector-ProposalCollection" style="stroke: #A80036; stroke-width: 1.0;"/><text fill="#000000" font-family="sans-serif" font-size="13" lengthAdjust="spacingAndGlyphs" textLength="8" x="244.6666" y="244.2746">1</text><text fill="#000000" font-family="sans-serif" font-size="13" lengthAdjust="spacingAndGlyphs" textLength="8" x="205.888" y="277.0643">1</text><!--
@startuml
class ReviewForm {
   check proposal (uuid)
   display proposal(uuid)
   approve proposal(uuid)
}

class UpdateControl {
   request proposal(uuid)
   approve proposal(uuid)
}

class ProposalCollection {
   get proposal(uuid)
   change status to approved(uuid)
}

interface IRDBConnector <<interface>> {
   change status to approved(uuid)
}

ReviewForm "0..*" - - "1" UpdateControl
UpdateControl "1" - - "1" ProposalCollection
IRDBConnector "1" - - "1" ProposalCollection

@enduml

PlantUML version 1.2017.15(Mon Jul 03 16:45:34 UTC 2017)
(GPL source distribution)
Java Runtime: OpenJDK Runtime Environment
JVM: OpenJDK 64-Bit Server VM
Java Version: 1.8.0_265-b01
Operating System: Linux
OS Version: 5.4.0-1031-azure
Default Encoding: UTF-8
Language: en
Country: null
--></g></svg>