<?xml version="1.0" encoding="UTF-8" standalone="no"?><svg xmlns="http://www.w3.org/2000/svg" xmlns:xlink="http://www.w3.org/1999/xlink" contentScriptType="application/ecmascript" contentStyleType="text/css" height="397px" preserveAspectRatio="none" style="width:328px;height:397px;" version="1.1" viewBox="0 0 328 397" width="328px" zoomAndPan="magnify"><defs><filter height="300%" id="fcvjml27k3mxx" width="300%" x="-1" y="-1"><feGaussianBlur result="blurOut" stdDeviation="2.0"/><feColorMatrix in="blurOut" result="blurOut2" type="matrix" values="0 0 0 0 0 0 0 0 0 0 0 0 0 0 0 0 0 0 .4 0"/><feOffset dx="4.0" dy="4.0" in="blurOut2" result="blurOut3"/><feBlend in="SourceGraphic" in2="blurOut3" mode="normal"/></filter></defs><g><!--class pkg--><rect fill="#FEFECE" filter="url(#fcvjml27k3mxx)" height="86.4141" id="pkg" style="stroke: #A80036; stroke-width: 1.5;" width="86" x="86.5" y="8"/><ellipse cx="101.5" cy="24" fill="#ADD1B2" rx="11" ry="11" style="stroke: #A80036; stroke-width: 1.0;"/><path d="M105.6094,30 L97.8906,30 L97.8906,17.6094 L105.6094,17.6094 L105.6094,19.7656 L100.3438,19.7656 L100.3438,22.4375 L105.1094,22.4375 L105.1094,24.5938 L100.3438,24.5938 L100.3438,27.8438 L105.6094,27.8438 L105.6094,30 Z "/><text fill="#000000" font-family="sans-serif" font-size="12" lengthAdjust="spacingAndGlyphs" textLength="54" x="115.5" y="28.1543">package</text><line style="stroke: #A80036; stroke-width: 1.5;" x1="87.5" x2="171.5" y1="40" y2="40"/><text fill="#000000" font-family="sans-serif" font-size="11" lengthAdjust="spacingAndGlyphs" text-decoration="underline" textLength="45" x="92.5" y="54.2104">pkg:text</text><line style="stroke: #000000; stroke-width: 1.0;" x1="92.5" x2="137.5" y1="56.2104" y2="56.2104"/><text fill="#000000" font-family="sans-serif" font-size="11" lengthAdjust="spacingAndGlyphs" textLength="67" x="92.5" y="67.0151">version:text</text><text fill="#000000" font-family="sans-serif" font-size="11" lengthAdjust="spacingAndGlyphs" textLength="40" x="92.5" y="79.8198">url:text</text><line style="stroke: #A80036; stroke-width: 1.5;" x1="87.5" x2="171.5" y1="86.4141" y2="86.4141"/><!--class dp--><rect fill="#FEFECE" filter="url(#fcvjml27k3mxx)" height="73.6094" id="dp" style="stroke: #A80036; stroke-width: 1.5;" width="109" x="6" y="160"/><ellipse cx="21" cy="176" fill="#ADD1B2" rx="11" ry="11" style="stroke: #A80036; stroke-width: 1.0;"/><path d="M25.1094,182 L17.3906,182 L17.3906,169.6094 L25.1094,169.6094 L25.1094,171.7656 L19.8438,171.7656 L19.8438,174.4375 L24.6094,174.4375 L24.6094,176.5938 L19.8438,176.5938 L19.8438,179.8438 L25.1094,179.8438 L25.1094,182 Z "/><text fill="#000000" font-family="sans-serif" font-size="12" lengthAdjust="spacingAndGlyphs" textLength="77" x="35" y="180.1543">dependency</text><line style="stroke: #A80036; stroke-width: 1.5;" x1="7" x2="114" y1="192" y2="192"/><text fill="#000000" font-family="sans-serif" font-size="11" lengthAdjust="spacingAndGlyphs" text-decoration="underline" textLength="45" x="12" y="206.2104">pkg:text</text><line style="stroke: #000000; stroke-width: 1.0;" x1="12" x2="57" y1="208.2104" y2="208.2104"/><text fill="#000000" font-family="sans-serif" font-size="11" lengthAdjust="spacingAndGlyphs" textLength="95" x="12" y="219.0151">requirement:text</text><line style="stroke: #A80036; stroke-width: 1.5;" x1="7" x2="114" y1="225.6094" y2="225.6094"/><!--class pp--><rect fill="#FEFECE" filter="url(#fcvjml27k3mxx)" height="86.4141" id="pp" style="stroke: #A80036; stroke-width: 1.5;" width="89" x="154" y="300"/><ellipse cx="169.9" cy="316" fill="#ADD1B2" rx="11" ry="11" style="stroke: #A80036; stroke-width: 1.0;"/><path d="M174.0094,322 L166.2906,322 L166.2906,309.6094 L174.0094,309.6094 L174.0094,311.7656 L168.7438,311.7656 L168.7438,314.4375 L173.5094,314.4375 L173.5094,316.5938 L168.7438,316.5938 L168.7438,319.8438 L174.0094,319.8438 L174.0094,322 Z "/><text fill="#000000" font-family="sans-serif" font-size="12" lengthAdjust="spacingAndGlyphs" textLength="55" x="184.1" y="320.1543">proposal</text><line style="stroke: #A80036; stroke-width: 1.5;" x1="155" x2="242" y1="332" y2="332"/><text fill="#000000" font-family="sans-serif" font-size="11" lengthAdjust="spacingAndGlyphs" text-decoration="underline" textLength="49" x="160" y="346.2104">uuid:text</text><line style="stroke: #000000; stroke-width: 1.0;" x1="160" x2="209" y1="348.2104" y2="348.2104"/><text fill="#000000" font-family="sans-serif" font-size="11" lengthAdjust="spacingAndGlyphs" textLength="77" x="160" y="359.0151">proposer:text</text><text fill="#000000" font-family="sans-serif" font-size="11" lengthAdjust="spacingAndGlyphs" textLength="76" x="160" y="371.8198">conflict:BOOL</text><line style="stroke: #A80036; stroke-width: 1.5;" x1="155" x2="242" y1="378.4141" y2="378.4141"/><!--class whl--><rect fill="#FEFECE" filter="url(#fcvjml27k3mxx)" height="86.4141" id="whl" style="stroke: #A80036; stroke-width: 1.5;" width="97" x="150" y="154"/><ellipse cx="165" cy="170" fill="#ADD1B2" rx="11" ry="11" style="stroke: #A80036; stroke-width: 1.0;"/><path d="M169.1094,176 L161.3906,176 L161.3906,163.6094 L169.1094,163.6094 L169.1094,165.7656 L163.8438,165.7656 L163.8438,168.4375 L168.6094,168.4375 L168.6094,170.5938 L163.8438,170.5938 L163.8438,173.8438 L169.1094,173.8438 L169.1094,176 Z "/><text fill="#000000" font-family="sans-serif" font-size="12" lengthAdjust="spacingAndGlyphs" textLength="65" x="179" y="174.1543">whlupdate</text><line style="stroke: #A80036; stroke-width: 1.5;" x1="151" x2="246" y1="186" y2="186"/><text fill="#000000" font-family="sans-serif" font-size="11" lengthAdjust="spacingAndGlyphs" text-decoration="underline" textLength="49" x="156" y="200.2104">uuid:text</text><line style="stroke: #000000; stroke-width: 1.0;" x1="156" x2="205" y1="202.2104" y2="202.2104"/><text fill="#000000" font-family="sans-serif" font-size="11" lengthAdjust="spacingAndGlyphs" text-decoration="underline" textLength="45" x="156" y="213.0151">pkg:text</text><line style="stroke: #000000; stroke-width: 1.0;" x1="156" x2="201" y1="215.0151" y2="215.0151"/><text fill="#000000" font-family="sans-serif" font-size="11" lengthAdjust="spacingAndGlyphs" textLength="44" x="156" y="225.8198">whl:text</text><line style="stroke: #A80036; stroke-width: 1.5;" x1="151" x2="246" y1="232.4141" y2="232.4141"/><!--class acc--><rect fill="#FEFECE" filter="url(#fcvjml27k3mxx)" height="86.4141" id="acc" style="stroke: #A80036; stroke-width: 1.5;" width="109" x="208" y="8"/><ellipse cx="234.7" cy="24" fill="#ADD1B2" rx="11" ry="11" style="stroke: #A80036; stroke-width: 1.0;"/><path d="M238.8094,30 L231.0906,30 L231.0906,17.6094 L238.8094,17.6094 L238.8094,19.7656 L233.5438,19.7656 L233.5438,22.4375 L238.3094,22.4375 L238.3094,24.5938 L233.5438,24.5938 L233.5438,27.8438 L238.8094,27.8438 L238.8094,30 Z "/><text fill="#000000" font-family="sans-serif" font-size="12" lengthAdjust="spacingAndGlyphs" textLength="51" x="251.3" y="28.1543">account</text><line style="stroke: #A80036; stroke-width: 1.5;" x1="209" x2="316" y1="40" y2="40"/><text fill="#000000" font-family="sans-serif" font-size="11" lengthAdjust="spacingAndGlyphs" text-decoration="underline" textLength="83" x="214" y="54.2104">username:text</text><line style="stroke: #000000; stroke-width: 1.0;" x1="214" x2="297" y1="56.2104" y2="56.2104"/><text fill="#000000" font-family="sans-serif" font-size="11" lengthAdjust="spacingAndGlyphs" textLength="81" x="214" y="67.0151">password:text</text><text fill="#000000" font-family="sans-serif" font-size="11" lengthAdjust="spacingAndGlyphs" textLength="97" x="214" y="79.8198">maintainer:BOOL</text><line style="stroke: #A80036; stroke-width: 1.5;" x1="209" x2="316" y1="86.4141" y2="86.4141"/><!--link pkg to dp--><path d="M106.1136,100.4842 C98.0269,117.5952 89.0281,136.6361 81.1746,153.2536 " fill="none" id="pkg-dp" style="stroke: #A80036; stroke-width: 1.0;"/><line style="stroke: #A80036; stroke-width: 1.0;" x1="83.4381" x2="76.2052" y1="157.8257" y2="154.4074"/><line style="stroke: #A80036; stroke-width: 1.0;" x1="84.72" x2="77.487" y1="155.1133" y2="151.695"/><line style="stroke: #A80036; stroke-width: 1.0;" x1="81.5308" x2="78.1125" y1="152.5001" y2="159.733"/><line style="stroke: #A80036; stroke-width: 1.0;" x1="103.8453" x2="111.0782" y1="95.9225" y2="99.3408"/><line style="stroke: #A80036; stroke-width: 1.0;" x1="102.5634" x2="109.7963" y1="98.6348" y2="102.0532"/><line style="stroke: #A80036; stroke-width: 1.0;" x1="105.7526" x2="109.1709" y1="101.2481" y2="94.0152"/><!--link pkg to whl--><path d="M153.4505,101.678 C160.2857,116.1407 167.7321,131.8969 174.5663,146.3576 " fill="none" id="pkg-whl" style="stroke: #A80036; stroke-width: 1.0;"/><line style="stroke: #A80036; stroke-width: 1.0;" x1="179.9851" x2="172.7522" y1="148.4622" y2="151.8805"/><line style="stroke: #A80036; stroke-width: 1.0;" x1="178.7032" x2="171.4703" y1="145.7498" y2="149.1682"/><line style="stroke: #A80036; stroke-width: 1.0;" x1="174.6594" x2="178.0778" y1="146.5549" y2="153.7878"/><line style="stroke: #A80036; stroke-width: 1.0;" x1="153.2474" x2="144.4044" y1="101.2481" y2="96.5789"/><line style="stroke: #A80036; stroke-width: 1.0;" x1="153.2474" x2="155.2538" y1="101.2481" y2="91.4515"/><line style="stroke: #A80036; stroke-width: 1.0;" x1="153.2474" x2="149.8291" y1="101.2481" y2="94.0152"/><line style="stroke: #A80036; stroke-width: 1.0;" x1="150.4855" x2="157.7184" y1="104.7655" y2="101.3473"/><!--link whl to pp--><path d="M198.5,248.1374 C198.5,262.2333 198.5,277.5272 198.5,291.6358 " fill="none" id="whl-pp" style="stroke: #A80036; stroke-width: 1.0;"/><line style="stroke: #A80036; stroke-width: 1.0;" x1="198.5" x2="204.5" y1="291.7878" y2="299.7878"/><line style="stroke: #A80036; stroke-width: 1.0;" x1="198.5" x2="192.5" y1="291.7878" y2="299.7878"/><line style="stroke: #A80036; stroke-width: 1.0;" x1="198.5" x2="198.5" y1="291.7878" y2="299.7878"/><line style="stroke: #A80036; stroke-width: 1.0;" x1="202.5" x2="194.5" y1="289.7878" y2="289.7878"/><line style="stroke: #A80036; stroke-width: 1.0;" x1="194.5" x2="202.5" y1="244.0152" y2="244.0152"/><line style="stroke: #A80036; stroke-width: 1.0;" x1="194.5" x2="202.5" y1="247.0152" y2="247.0152"/><line style="stroke: #A80036; stroke-width: 1.0;" x1="198.5" x2="198.5" y1="248.0152" y2="240.0152"/><!--
@startuml
entity "package" as pkg{
 <u>pkg:text</u>
 version:text
 url:text
}
entity "dependency" as dp{
 <u>pkg:text</u>
 requirement:text
}
entity "proposal" as pp{
 <u>uuid:text</u>
 proposer:text
 conflict:BOOL
}
entity "whlupdate" as whl{
 <u>uuid:text</u>
 <u>pkg:text</u>
 whl:text
}
entity "account" as acc{
 <u>username:text</u>
 password:text
 maintainer:BOOL
}
pkg ||- -|| dp
pkg }|- -||whl
whl||- -|{pp

@enduml

PlantUML version 1.2017.15(Mon Jul 03 16:45:34 UTC 2017)
(GPL source distribution)
Java Runtime: OpenJDK Runtime Environment
JVM: OpenJDK 64-Bit Server VM
Java Version: 1.8.0_265-b01
Operating System: Linux
OS Version: 5.4.0-1031-azure
Default Encoding: UTF-8
Language: en
Country: null
--></g></svg>