<?xml version="1.0" encoding="UTF-8" standalone="no"?><svg xmlns="http://www.w3.org/2000/svg" xmlns:xlink="http://www.w3.org/1999/xlink" contentScriptType="application/ecmascript" contentStyleType="text/css" height="425px" preserveAspectRatio="none" style="width:692px;height:425px;" version="1.1" viewBox="0 0 692 425" width="692px" zoomAndPan="magnify"><defs><filter height="300%" id="ftfoxac8ai0up" width="300%" x="-1" y="-1"><feGaussianBlur result="blurOut" stdDeviation="2.0"/><feColorMatrix in="blurOut" result="blurOut2" type="matrix" values="0 0 0 0 0 0 0 0 0 0 0 0 0 0 0 0 0 0 .4 0"/><feOffset dx="4.0" dy="4.0" in="blurOut2" result="blurOut3"/><feBlend in="SourceGraphic" in2="blurOut3" mode="normal"/></filter></defs><g><rect fill="#FFFFFF" filter="url(#ftfoxac8ai0up)" height="298.7969" style="stroke: #A80036; stroke-width: 1.0;" width="10" x="41.5" y="96.2969"/><rect fill="#FFFFFF" filter="url(#ftfoxac8ai0up)" height="153.3984" style="stroke: #A80036; stroke-width: 1.0;" width="10" x="223.5" y="117.2969"/><rect fill="#FFFFFF" filter="url(#ftfoxac8ai0up)" height="28" style="stroke: #A80036; stroke-width: 1.0;" width="10" x="228.5" y="242.6953"/><rect fill="#FFFFFF" filter="url(#ftfoxac8ai0up)" height="88.2656" style="stroke: #A80036; stroke-width: 1.0;" width="10" x="223.5" y="306.8281"/><rect fill="#FFFFFF" filter="url(#ftfoxac8ai0up)" height="59.1328" style="stroke: #A80036; stroke-width: 1.0;" width="10" x="405.5" y="146.4297"/><rect fill="#FFFFFF" filter="url(#ftfoxac8ai0up)" height="59.1328" style="stroke: #A80036; stroke-width: 1.0;" width="10" x="405.5" y="335.9609"/><rect fill="#FFFFFF" filter="url(#ftfoxac8ai0up)" height="30" style="stroke: #A80036; stroke-width: 1.0;" width="10" x="648.5" y="175.5625"/><rect fill="#FFFFFF" filter="url(#ftfoxac8ai0up)" height="30" style="stroke: #A80036; stroke-width: 1.0;" width="10" x="648.5" y="365.0938"/><line style="stroke: #A80036; stroke-width: 1.0; stroke-dasharray: 5.0,5.0;" x1="46" x2="46" y1="86.2969" y2="413.2266"/><line style="stroke: #A80036; stroke-width: 1.0; stroke-dasharray: 5.0,5.0;" x1="228.5" x2="228.5" y1="86.2969" y2="413.2266"/><line style="stroke: #A80036; stroke-width: 1.0; stroke-dasharray: 5.0,5.0;" x1="410.5" x2="410.5" y1="86.2969" y2="413.2266"/><line style="stroke: #A80036; stroke-width: 1.0; stroke-dasharray: 5.0,5.0;" x1="653.5" x2="653.5" y1="86.2969" y2="413.2266"/><text fill="#A80036" font-family="sans-serif" font-size="14" lengthAdjust="spacingAndGlyphs" textLength="71" x="8" y="82.9951">Maintainer</text><ellipse cx="46.5" cy="13" fill="#FEFECE" filter="url(#ftfoxac8ai0up)" rx="8" ry="8" style="stroke: #A80036; stroke-width: 2.0;"/><path d="M46.5,21 L46.5,48 M33.5,29 L59.5,29 M46.5,48 L33.5,63 M46.5,48 L59.5,63 " fill="#FEFECE" filter="url(#ftfoxac8ai0up)" style="stroke: #A80036; stroke-width: 2.0;"/><text fill="#A80036" font-family="sans-serif" font-size="14" lengthAdjust="spacingAndGlyphs" textLength="84" x="183.5" y="82.9951">ReviewForm</text><path d="M208,42 L208,66 M208,54 L225,54 " fill="#FEFECE" filter="url(#ftfoxac8ai0up)" style="stroke: #A80036; stroke-width: 2.0;"/><ellipse cx="237" cy="54" fill="#FEFECE" filter="url(#ftfoxac8ai0up)" rx="12" ry="12" style="stroke: #A80036; stroke-width: 2.0;"/><text fill="#A80036" font-family="sans-serif" font-size="14" lengthAdjust="spacingAndGlyphs" textLength="100" x="357.5" y="82.9951">UpdateControl</text><ellipse cx="410.5" cy="54" fill="#FEFECE" filter="url(#ftfoxac8ai0up)" rx="12" ry="12" style="stroke: #A80036; stroke-width: 2.0;"/><polygon fill="#A80036" points="406.5,42,412.5,37,410.5,42,412.5,47,406.5,42" style="stroke: #A80036; stroke-width: 1.0;"/><text fill="#A80036" font-family="sans-serif" font-size="14" lengthAdjust="spacingAndGlyphs" textLength="60" x="620.5" y="82.9951">Proposal</text><ellipse cx="653.5" cy="54" fill="#FEFECE" filter="url(#ftfoxac8ai0up)" rx="12" ry="12" style="stroke: #A80036; stroke-width: 2.0;"/><line style="stroke: #A80036; stroke-width: 2.0;" x1="641.5" x2="665.5" y1="68" y2="68"/><rect fill="#FFFFFF" filter="url(#ftfoxac8ai0up)" height="298.7969" style="stroke: #A80036; stroke-width: 1.0;" width="10" x="41.5" y="96.2969"/><rect fill="#FFFFFF" filter="url(#ftfoxac8ai0up)" height="153.3984" style="stroke: #A80036; stroke-width: 1.0;" width="10" x="223.5" y="117.2969"/><rect fill="#FFFFFF" filter="url(#ftfoxac8ai0up)" height="28" style="stroke: #A80036; stroke-width: 1.0;" width="10" x="228.5" y="242.6953"/><rect fill="#FFFFFF" filter="url(#ftfoxac8ai0up)" height="88.2656" style="stroke: #A80036; stroke-width: 1.0;" width="10" x="223.5" y="306.8281"/><rect fill="#FFFFFF" filter="url(#ftfoxac8ai0up)" height="59.1328" style="stroke: #A80036; stroke-width: 1.0;" width="10" x="405.5" y="146.4297"/><rect fill="#FFFFFF" filter="url(#ftfoxac8ai0up)" height="59.1328" style="stroke: #A80036; stroke-width: 1.0;" width="10" x="405.5" y="335.9609"/><rect fill="#FFFFFF" filter="url(#ftfoxac8ai0up)" height="30" style="stroke: #A80036; stroke-width: 1.0;" width="10" x="648.5" y="175.5625"/><rect fill="#FFFFFF" filter="url(#ftfoxac8ai0up)" height="30" style="stroke: #A80036; stroke-width: 1.0;" width="10" x="648.5" y="365.0938"/><polygon fill="#A80036" points="211.5,113.2969,221.5,117.2969,211.5,121.2969,215.5,117.2969" style="stroke: #A80036; stroke-width: 1.0;"/><line style="stroke: #A80036; stroke-width: 1.0;" x1="51.5" x2="217.5" y1="117.2969" y2="117.2969"/><text fill="#A80036" font-family="sans-serif" font-size="13" lengthAdjust="spacingAndGlyphs" textLength="24" x="58.5" y="112.3638">1: //</text><text fill="#A80036" font-family="sans-serif" font-size="13" lengthAdjust="spacingAndGlyphs" textLength="110" x="86.5" y="112.3638">check proposal ()</text><polygon fill="#A80036" points="393.5,142.4297,403.5,146.4297,393.5,150.4297,397.5,146.4297" style="stroke: #A80036; stroke-width: 1.0;"/><line style="stroke: #A80036; stroke-width: 1.0;" x1="233.5" x2="399.5" y1="146.4297" y2="146.4297"/><text fill="#A80036" font-family="sans-serif" font-size="13" lengthAdjust="spacingAndGlyphs" textLength="24" x="240.5" y="141.4966">2: //</text><text fill="#A80036" font-family="sans-serif" font-size="13" lengthAdjust="spacingAndGlyphs" textLength="122" x="268.5" y="141.4966">request proposal ()</text><polygon fill="#A80036" points="636.5,171.5625,646.5,175.5625,636.5,179.5625,640.5,175.5625" style="stroke: #A80036; stroke-width: 1.0;"/><line style="stroke: #A80036; stroke-width: 1.0;" x1="415.5" x2="642.5" y1="175.5625" y2="175.5625"/><text fill="#A80036" font-family="sans-serif" font-size="13" lengthAdjust="spacingAndGlyphs" textLength="24" x="422.5" y="170.6294">3: //</text><text fill="#A80036" font-family="sans-serif" font-size="13" lengthAdjust="spacingAndGlyphs" textLength="94" x="450.5" y="170.6294">get proposal ()</text><line style="stroke: #A80036; stroke-width: 1.0;" x1="238.5" x2="280.5" y1="234.8281" y2="234.8281"/><line style="stroke: #A80036; stroke-width: 1.0;" x1="280.5" x2="280.5" y1="234.8281" y2="247.8281"/><line style="stroke: #A80036; stroke-width: 1.0;" x1="239.5" x2="280.5" y1="247.8281" y2="247.8281"/><polygon fill="#A80036" points="249.5,243.8281,239.5,247.8281,249.5,251.8281,245.5,247.8281" style="stroke: #A80036; stroke-width: 1.0;"/><text fill="#A80036" font-family="sans-serif" font-size="13" lengthAdjust="spacingAndGlyphs" textLength="24" x="245.5" y="229.7622">4: //</text><text fill="#A80036" font-family="sans-serif" font-size="13" lengthAdjust="spacingAndGlyphs" textLength="117" x="273.5" y="229.7622">display proposal ()</text><polygon fill="#A80036" points="211.5,302.8281,221.5,306.8281,211.5,310.8281,215.5,306.8281" style="stroke: #A80036; stroke-width: 1.0;"/><line style="stroke: #A80036; stroke-width: 1.0;" x1="51.5" x2="217.5" y1="306.8281" y2="306.8281"/><text fill="#A80036" font-family="sans-serif" font-size="13" lengthAdjust="spacingAndGlyphs" textLength="24" x="58.5" y="301.895">5: //</text><text fill="#A80036" font-family="sans-serif" font-size="13" lengthAdjust="spacingAndGlyphs" textLength="125" x="86.5" y="301.895">approve proposal ()</text><polygon fill="#A80036" points="393.5,331.9609,403.5,335.9609,393.5,339.9609,397.5,335.9609" style="stroke: #A80036; stroke-width: 1.0;"/><line style="stroke: #A80036; stroke-width: 1.0;" x1="233.5" x2="399.5" y1="335.9609" y2="335.9609"/><text fill="#A80036" font-family="sans-serif" font-size="13" lengthAdjust="spacingAndGlyphs" textLength="24" x="240.5" y="331.0278">6: //</text><text fill="#A80036" font-family="sans-serif" font-size="13" lengthAdjust="spacingAndGlyphs" textLength="125" x="268.5" y="331.0278">approve proposal ()</text><polygon fill="#A80036" points="636.5,361.0938,646.5,365.0938,636.5,369.0938,640.5,365.0938" style="stroke: #A80036; stroke-width: 1.0;"/><line style="stroke: #A80036; stroke-width: 1.0;" x1="415.5" x2="642.5" y1="365.0938" y2="365.0938"/><text fill="#A80036" font-family="sans-serif" font-size="13" lengthAdjust="spacingAndGlyphs" textLength="24" x="422.5" y="360.1606">7: //</text><text fill="#A80036" font-family="sans-serif" font-size="13" lengthAdjust="spacingAndGlyphs" textLength="186" x="450.5" y="360.1606">change status to approved ()</text><!--
@startuml
skinparam defaultFontColor #a80036
autonumber "#: //"
autoactivate on
hide footbox

actor Maintainer
boundary ReviewForm
control UpdateControl
entity Proposal

activate Maintainer
Maintainer -> ReviewForm : check proposal ()
ReviewForm -> UpdateControl : request proposal ()
UpdateControl -> Proposal : get proposal ()
deactivate UpdateControl
deactivate Proposal
ReviewForm -> ReviewForm : display proposal ()
deactivate ReviewForm
deactivate ReviewForm
Maintainer -> ReviewForm : approve proposal ()
ReviewForm -> UpdateControl :approve proposal ()
UpdateControl -> Proposal : change status to approved ()
deactivate ReviewForm
deactivate ReviewForm
deactivate UpdateControl
deactivate Maintainer
deactivate ReviewForm
deactivate Proposal

@enduml

PlantUML version 1.2017.15(Mon Jul 03 16:45:34 UTC 2017)
(GPL source distribution)
Java Runtime: OpenJDK Runtime Environment
JVM: OpenJDK 64-Bit Server VM
Java Version: 1.8.0_265-b01
Operating System: Linux
OS Version: 5.4.0-1031-azure
Default Encoding: UTF-8
Language: en
Country: null
--></g></svg>