<?xml version="1.0" encoding="UTF-8" standalone="no"?><svg xmlns="http://www.w3.org/2000/svg" xmlns:xlink="http://www.w3.org/1999/xlink" contentScriptType="application/ecmascript" contentStyleType="text/css" height="364px" preserveAspectRatio="none" style="width:251px;height:364px;" version="1.1" viewBox="0 0 251 364" width="251px" zoomAndPan="magnify"><defs><filter height="300%" id="f1o5dhf048483h" width="300%" x="-1" y="-1"><feGaussianBlur result="blurOut" stdDeviation="2.0"/><feColorMatrix in="blurOut" result="blurOut2" type="matrix" values="0 0 0 0 0 0 0 0 0 0 0 0 0 0 0 0 0 0 .4 0"/><feOffset dx="4.0" dy="4.0" in="blurOut2" result="blurOut3"/><feBlend in="SourceGraphic" in2="blurOut3" mode="normal"/></filter></defs><g><!--class LoginForm--><rect fill="#FEFECE" filter="url(#f1o5dhf048483h)" height="92.3516" id="LoginForm" style="stroke: #A80036; stroke-width: 1.5;" width="234" x="6" y="8"/><ellipse cx="83.75" cy="26.9688" fill="#ADD1B2" rx="11" ry="11" style="stroke: #A80036; stroke-width: 1.0;"/><path d="M86.7188,32.6094 Q86.1406,32.9063 85.5,33.0469 Q84.8594,33.2031 84.1563,33.2031 Q81.6563,33.2031 80.3281,31.5625 Q79.0156,29.9063 79.0156,26.7813 Q79.0156,23.6563 80.3281,22 Q81.6563,20.3438 84.1563,20.3438 Q84.8594,20.3438 85.5,20.5 Q86.1563,20.6563 86.7188,20.9531 L86.7188,23.6719 Q86.0938,23.0938 85.5,22.8281 Q84.9063,22.5469 84.2813,22.5469 Q82.9375,22.5469 82.25,23.625 Q81.5625,24.6875 81.5625,26.7813 Q81.5625,28.875 82.25,29.9531 Q82.9375,31.0156 84.2813,31.0156 Q84.9063,31.0156 85.5,30.75 Q86.0938,30.4688 86.7188,29.8906 L86.7188,32.6094 Z "/><text fill="#A80036" font-family="sans-serif" font-size="12" font-style="italic" lengthAdjust="spacingAndGlyphs" textLength="74" x="102.25" y="24.1387">«boundary»</text><text fill="#A80036" font-family="sans-serif" font-size="12" lengthAdjust="spacingAndGlyphs" textLength="64" x="107.25" y="38.1074">LoginForm</text><line style="stroke: #A80036; stroke-width: 1.5;" x1="7" x2="239" y1="45.9375" y2="45.9375"/><line style="stroke: #A80036; stroke-width: 1.5;" x1="7" x2="239" y1="53.9375" y2="53.9375"/><text fill="#A80036" font-family="sans-serif" font-size="11" lengthAdjust="spacingAndGlyphs" textLength="94" x="12" y="68.1479">start logging in()</text><text fill="#A80036" font-family="sans-serif" font-size="11" lengthAdjust="spacingAndGlyphs" textLength="222" x="12" y="80.9526">prompt for authentication information()</text><text fill="#A80036" font-family="sans-serif" font-size="11" lengthAdjust="spacingAndGlyphs" textLength="187" x="12" y="93.7573">enter(authentication information)</text><!--class LoginController--><rect fill="#FEFECE" filter="url(#f1o5dhf048483h)" height="66.7422" id="LoginController" style="stroke: #A80036; stroke-width: 1.5;" width="200" x="23" y="160"/><ellipse cx="71.75" cy="178.9688" fill="#ADD1B2" rx="11" ry="11" style="stroke: #A80036; stroke-width: 1.0;"/><path d="M74.7188,184.6094 Q74.1406,184.9063 73.5,185.0469 Q72.8594,185.2031 72.1563,185.2031 Q69.6563,185.2031 68.3281,183.5625 Q67.0156,181.9063 67.0156,178.7813 Q67.0156,175.6563 68.3281,174 Q69.6563,172.3438 72.1563,172.3438 Q72.8594,172.3438 73.5,172.5 Q74.1563,172.6563 74.7188,172.9531 L74.7188,175.6719 Q74.0938,175.0938 73.5,174.8281 Q72.9063,174.5469 72.2813,174.5469 Q70.9375,174.5469 70.25,175.625 Q69.5625,176.6875 69.5625,178.7813 Q69.5625,180.875 70.25,181.9531 Q70.9375,183.0156 72.2813,183.0156 Q72.9063,183.0156 73.5,182.75 Q74.0938,182.4688 74.7188,181.8906 L74.7188,184.6094 Z "/><text fill="#A80036" font-family="sans-serif" font-size="12" font-style="italic" lengthAdjust="spacingAndGlyphs" textLength="58" x="110.25" y="176.1387">«control»</text><text fill="#A80036" font-family="sans-serif" font-size="12" lengthAdjust="spacingAndGlyphs" textLength="94" x="92.25" y="190.1074">LoginController</text><line style="stroke: #A80036; stroke-width: 1.5;" x1="24" x2="222" y1="197.9375" y2="197.9375"/><line style="stroke: #A80036; stroke-width: 1.5;" x1="24" x2="222" y1="205.9375" y2="205.9375"/><text fill="#A80036" font-family="sans-serif" font-size="11" lengthAdjust="spacingAndGlyphs" textLength="188" x="29" y="220.1479">log in(authentication information)</text><!--class AccountData--><rect fill="#FEFECE" filter="url(#f1o5dhf048483h)" height="66.7422" id="AccountData" style="stroke: #A80036; stroke-width: 1.5;" width="200" x="23" y="287"/><ellipse cx="78.25" cy="305.9688" fill="#ADD1B2" rx="11" ry="11" style="stroke: #A80036; stroke-width: 1.0;"/><path d="M81.2188,311.6094 Q80.6406,311.9063 80,312.0469 Q79.3594,312.2031 78.6563,312.2031 Q76.1563,312.2031 74.8281,310.5625 Q73.5156,308.9063 73.5156,305.7813 Q73.5156,302.6563 74.8281,301 Q76.1563,299.3438 78.6563,299.3438 Q79.3594,299.3438 80,299.5 Q80.6563,299.6563 81.2188,299.9531 L81.2188,302.6719 Q80.5938,302.0938 80,301.8281 Q79.4063,301.5469 78.7813,301.5469 Q77.4375,301.5469 76.75,302.625 Q76.0625,303.6875 76.0625,305.7813 Q76.0625,307.875 76.75,308.9531 Q77.4375,310.0156 78.7813,310.0156 Q79.4063,310.0156 80,309.75 Q80.5938,309.4688 81.2188,308.8906 L81.2188,311.6094 Z "/><text fill="#A80036" font-family="sans-serif" font-size="12" font-style="italic" lengthAdjust="spacingAndGlyphs" textLength="50" x="114.25" y="303.1387">«entity»</text><text fill="#A80036" font-family="sans-serif" font-size="12" lengthAdjust="spacingAndGlyphs" textLength="81" x="98.75" y="317.1074">AccountData</text><line style="stroke: #A80036; stroke-width: 1.5;" x1="24" x2="222" y1="324.9375" y2="324.9375"/><line style="stroke: #A80036; stroke-width: 1.5;" x1="24" x2="222" y1="332.9375" y2="332.9375"/><text fill="#A80036" font-family="sans-serif" font-size="11" lengthAdjust="spacingAndGlyphs" textLength="188" x="29" y="347.1479">verify(authentication information)</text><!--link LoginForm to LoginController--><path d="M123,100.0641 C123,119.5871 123,141.9195 123,159.8546 " fill="none" id="LoginForm-LoginController" style="stroke: #A80036; stroke-width: 1.0;"/><text fill="#A80036" font-family="sans-serif" font-size="13" lengthAdjust="spacingAndGlyphs" textLength="23" x="98.2391" y="120.3162">0..*</text><text fill="#A80036" font-family="sans-serif" font-size="13" lengthAdjust="spacingAndGlyphs" textLength="8" x="114.2125" y="148.8594">1</text><!--link LoginController to AccountData--><path d="M123,227.2002 C123,245.5715 123,268.2465 123,286.6423 " fill="none" id="LoginController-AccountData" style="stroke: #A80036; stroke-width: 1.0;"/><text fill="#A80036" font-family="sans-serif" font-size="13" lengthAdjust="spacingAndGlyphs" textLength="8" x="114.2625" y="246.8994">1</text><text fill="#A80036" font-family="sans-serif" font-size="13" lengthAdjust="spacingAndGlyphs" textLength="8" x="114.2375" y="275.8626">1</text><!--
@startuml
skinparam defaultFontColor #a80036

class LoginForm <<boundary>> {
   start logging in()
   prompt for authentication information()
   enter(authentication information)
}

class LoginController <<control>> {
   log in(authentication information)
}

class AccountData <<entity>> {
   verify(authentication information)
}

LoginForm "0..*" - - "1" LoginController
LoginController "1" - - "1" AccountData

@enduml

PlantUML version 1.2017.15(Mon Jul 03 16:45:34 UTC 2017)
(GPL source distribution)
Java Runtime: OpenJDK Runtime Environment
JVM: OpenJDK 64-Bit Server VM
Java Version: 1.8.0_265-b01
Operating System: Linux
OS Version: 5.4.0-1031-azure
Default Encoding: UTF-8
Language: en
Country: null
--></g></svg>