<?xml version="1.0" encoding="UTF-8" standalone="no"?><svg xmlns="http://www.w3.org/2000/svg" xmlns:xlink="http://www.w3.org/1999/xlink" contentScriptType="application/ecmascript" contentStyleType="text/css" height="352px" preserveAspectRatio="none" style="width:458px;height:352px;" version="1.1" viewBox="0 0 458 352" width="458px" zoomAndPan="magnify"><defs><filter height="300%" id="f1ut10ltbnindu" width="300%" x="-1" y="-1"><feGaussianBlur result="blurOut" stdDeviation="2.0"/><feColorMatrix in="blurOut" result="blurOut2" type="matrix" values="0 0 0 0 0 0 0 0 0 0 0 0 0 0 0 0 0 0 .4 0"/><feOffset dx="4.0" dy="4.0" in="blurOut2" result="blurOut3"/><feBlend in="SourceGraphic" in2="blurOut3" mode="normal"/></filter></defs><g><!--class ProposalForm--><rect fill="#FEFECE" filter="url(#f1ut10ltbnindu)" height="86.4141" id="ProposalForm" style="stroke: #A80036; stroke-width: 1.5;" width="204" x="107.5" y="8"/><ellipse cx="162.25" cy="24" fill="#ADD1B2" rx="11" ry="11" style="stroke: #A80036; stroke-width: 1.0;"/><path d="M165.2188,29.6406 Q164.6406,29.9375 164,30.0781 Q163.3594,30.2344 162.6563,30.2344 Q160.1563,30.2344 158.8281,28.5938 Q157.5156,26.9375 157.5156,23.8125 Q157.5156,20.6875 158.8281,19.0313 Q160.1563,17.375 162.6563,17.375 Q163.3594,17.375 164,17.5313 Q164.6563,17.6875 165.2188,17.9844 L165.2188,20.7031 Q164.5938,20.125 164,19.8594 Q163.4063,19.5781 162.7813,19.5781 Q161.4375,19.5781 160.75,20.6563 Q160.0625,21.7188 160.0625,23.8125 Q160.0625,25.9063 160.75,26.9844 Q161.4375,28.0469 162.7813,28.0469 Q163.4063,28.0469 164,27.7813 Q164.5938,27.5 165.2188,26.9219 L165.2188,29.6406 Z "/><text fill="#A80036" font-family="sans-serif" font-size="12" lengthAdjust="spacingAndGlyphs" textLength="86" x="182.75" y="28.1543">ProposalForm</text><line style="stroke: #A80036; stroke-width: 1.5;" x1="108.5" x2="310.5" y1="40" y2="40"/><line style="stroke: #A80036; stroke-width: 1.5;" x1="108.5" x2="310.5" y1="48" y2="48"/><text fill="#A80036" font-family="sans-serif" font-size="11" lengthAdjust="spacingAndGlyphs" textLength="192" x="113.5" y="62.2104">create package update proposal()</text><text fill="#A80036" font-family="sans-serif" font-size="11" lengthAdjust="spacingAndGlyphs" textLength="163" x="113.5" y="75.0151">prompt for package names()</text><text fill="#A80036" font-family="sans-serif" font-size="11" lengthAdjust="spacingAndGlyphs" textLength="159" x="113.5" y="87.8198">prompt for update(package)</text><!--class ProposalCollection--><rect fill="#FEFECE" filter="url(#f1ut10ltbnindu)" height="60.8047" id="ProposalCollection" style="stroke: #A80036; stroke-width: 1.5;" width="148" x="135.5" y="154"/><ellipse cx="150.5" cy="170" fill="#ADD1B2" rx="11" ry="11" style="stroke: #A80036; stroke-width: 1.0;"/><path d="M153.4688,175.6406 Q152.8906,175.9375 152.25,176.0781 Q151.6094,176.2344 150.9063,176.2344 Q148.4063,176.2344 147.0781,174.5938 Q145.7656,172.9375 145.7656,169.8125 Q145.7656,166.6875 147.0781,165.0313 Q148.4063,163.375 150.9063,163.375 Q151.6094,163.375 152.25,163.5313 Q152.9063,163.6875 153.4688,163.9844 L153.4688,166.7031 Q152.8438,166.125 152.25,165.8594 Q151.6563,165.5781 151.0313,165.5781 Q149.6875,165.5781 149,166.6563 Q148.3125,167.7188 148.3125,169.8125 Q148.3125,171.9063 149,172.9844 Q149.6875,174.0469 151.0313,174.0469 Q151.6563,174.0469 152.25,173.7813 Q152.8438,173.5 153.4688,172.9219 L153.4688,175.6406 Z "/><text fill="#A80036" font-family="sans-serif" font-size="12" lengthAdjust="spacingAndGlyphs" textLength="116" x="164.5" y="174.1543">ProposalCollection</text><line style="stroke: #A80036; stroke-width: 1.5;" x1="136.5" x2="282.5" y1="186" y2="186"/><line style="stroke: #A80036; stroke-width: 1.5;" x1="136.5" x2="282.5" y1="194" y2="194"/><text fill="#A80036" font-family="sans-serif" font-size="11" lengthAdjust="spacingAndGlyphs" textLength="129" x="141.5" y="208.2104">add proposal(updates)</text><!--class IMetadataSystem--><rect fill="#FEFECE" filter="url(#f1ut10ltbnindu)" height="66.7422" id="IMetadataSystem" style="stroke: #A80036; stroke-width: 1.5;" width="169" x="6" y="275"/><ellipse cx="33.6" cy="293.9688" fill="#B4A7E5" rx="11" ry="11" style="stroke: #A80036; stroke-width: 1.0;"/><path d="M29.5219,289.7344 L29.5219,287.5781 L36.9125,287.5781 L36.9125,289.7344 L34.4438,289.7344 L34.4438,297.8125 L36.9125,297.8125 L36.9125,299.9688 L29.5219,299.9688 L29.5219,297.8125 L31.9906,297.8125 L31.9906,289.7344 L29.5219,289.7344 Z "/><text fill="#A80036" font-family="sans-serif" font-size="12" font-style="italic" lengthAdjust="spacingAndGlyphs" textLength="70" x="69.9" y="291.1387">«interface»</text><text fill="#A80036" font-family="sans-serif" font-size="12" font-style="italic" lengthAdjust="spacingAndGlyphs" textLength="109" x="50.4" y="305.1074">IMetadataSystem</text><line style="stroke: #A80036; stroke-width: 1.5;" x1="7" x2="174" y1="312.9375" y2="312.9375"/><line style="stroke: #A80036; stroke-width: 1.5;" x1="7" x2="174" y1="320.9375" y2="320.9375"/><text fill="#A80036" font-family="sans-serif" font-size="11" lengthAdjust="spacingAndGlyphs" textLength="157" x="12" y="335.1479">check for conflicts(updates)</text><!--class NotificationSystem--><rect fill="#FEFECE" filter="url(#f1ut10ltbnindu)" height="60.8047" id="NotificationSystem" style="stroke: #A80036; stroke-width: 1.5;" width="237" x="210" y="278"/><ellipse cx="266.25" cy="294" fill="#ADD1B2" rx="11" ry="11" style="stroke: #A80036; stroke-width: 1.0;"/><path d="M269.2188,299.6406 Q268.6406,299.9375 268,300.0781 Q267.3594,300.2344 266.6563,300.2344 Q264.1563,300.2344 262.8281,298.5938 Q261.5156,296.9375 261.5156,293.8125 Q261.5156,290.6875 262.8281,289.0313 Q264.1563,287.375 266.6563,287.375 Q267.3594,287.375 268,287.5313 Q268.6563,287.6875 269.2188,287.9844 L269.2188,290.7031 Q268.5938,290.125 268,289.8594 Q267.4063,289.5781 266.7813,289.5781 Q265.4375,289.5781 264.75,290.6563 Q264.0625,291.7188 264.0625,293.8125 Q264.0625,295.9063 264.75,296.9844 Q265.4375,298.0469 266.7813,298.0469 Q267.4063,298.0469 268,297.7813 Q268.5938,297.5 269.2188,296.9219 L269.2188,299.6406 Z "/><text fill="#A80036" font-family="sans-serif" font-size="12" lengthAdjust="spacingAndGlyphs" textLength="116" x="286.75" y="298.1543">NotificationSystem</text><line style="stroke: #A80036; stroke-width: 1.5;" x1="211" x2="446" y1="310" y2="310"/><line style="stroke: #A80036; stroke-width: 1.5;" x1="211" x2="446" y1="318" y2="318"/><text fill="#A80036" font-family="sans-serif" font-size="11" lengthAdjust="spacingAndGlyphs" textLength="225" x="216" y="332.2104">notify maintainers for reviews(updates)</text><!--link ProposalForm to ProposalCollection--><path d="M209.5,94.3436 C209.5,113.6819 209.5,136.0213 209.5,153.6248 " fill="none" id="ProposalForm-ProposalCollection" style="stroke: #A80036; stroke-width: 1.0;"/><text fill="#A80036" font-family="sans-serif" font-size="13" lengthAdjust="spacingAndGlyphs" textLength="23" x="184.6672" y="114.4913">0..*</text><text fill="#A80036" font-family="sans-serif" font-size="13" lengthAdjust="spacingAndGlyphs" textLength="8" x="200.675" y="142.8106">1</text><!--link ProposalCollection to IMetadataSystem--><path d="M180.0843,215.1517 C162.7399,233.2248 140.7673,256.1207 122.9239,274.7137 " fill="none" id="ProposalCollection-IMetadataSystem" style="stroke: #A80036; stroke-width: 1.0;"/><text fill="#A80036" font-family="sans-serif" font-size="13" lengthAdjust="spacingAndGlyphs" textLength="8" x="165.5056" y="234.762">1</text><text fill="#A80036" font-family="sans-serif" font-size="13" lengthAdjust="spacingAndGlyphs" textLength="8" x="120.3422" y="263.9476">1</text><!--link ProposalCollection to NotificationSystem--><path d="M238.9157,215.1517 C257.2237,234.2289 280.6884,258.6795 299.0102,277.7712 " fill="none" id="ProposalCollection-NotificationSystem" style="stroke: #A80036; stroke-width: 1.0;"/><text fill="#A80036" font-family="sans-serif" font-size="13" lengthAdjust="spacingAndGlyphs" textLength="8" x="235.9194" y="234.762">1</text><text fill="#A80036" font-family="sans-serif" font-size="13" lengthAdjust="spacingAndGlyphs" textLength="8" x="284.1029" y="266.9872">1</text><!--
@startuml
skinparam defaultFontColor #a80036

class ProposalForm {
   create package update proposal()
   prompt for package names()
   prompt for update(package)
}

class ProposalCollection {
   add proposal(updates)
}

interface IMetadataSystem <<interface>> {
   check for conflicts(updates)
}

class NotificationSystem {
   notify maintainers for reviews(updates)
}

ProposalForm "0..*" - - "1" ProposalCollection
ProposalCollection "1" - - "1" IMetadataSystem
ProposalCollection "1" - - "1" NotificationSystem

@enduml

PlantUML version 1.2017.15(Mon Jul 03 16:45:34 UTC 2017)
(GPL source distribution)
Java Runtime: OpenJDK Runtime Environment
JVM: OpenJDK 64-Bit Server VM
Java Version: 1.8.0_265-b01
Operating System: Linux
OS Version: 5.4.0-1031-azure
Default Encoding: UTF-8
Language: en
Country: null
--></g></svg>