<?xml version="1.0" encoding="UTF-8" standalone="no"?><svg xmlns="http://www.w3.org/2000/svg" xmlns:xlink="http://www.w3.org/1999/xlink" contentScriptType="application/ecmascript" contentStyleType="text/css" height="238px" preserveAspectRatio="none" style="width:410px;height:238px;" version="1.1" viewBox="0 0 410 238" width="410px" zoomAndPan="magnify"><defs><filter height="300%" id="fdqkqzriddcon" width="300%" x="-1" y="-1"><feGaussianBlur result="blurOut" stdDeviation="2.0"/><feColorMatrix in="blurOut" result="blurOut2" type="matrix" values="0 0 0 0 0 0 0 0 0 0 0 0 0 0 0 0 0 0 .4 0"/><feOffset dx="4.0" dy="4.0" in="blurOut2" result="blurOut3"/><feBlend in="SourceGraphic" in2="blurOut3" mode="normal"/></filter></defs><g><!--class DFSConnector--><rect fill="#FEFECE" filter="url(#fdqkqzriddcon)" height="79.5469" id="DFSConnector" style="stroke: #A80036; stroke-width: 1.5;" width="142" x="6" y="148"/><ellipse cx="30.45" cy="166.9688" fill="#ADD1B2" rx="11" ry="11" style="stroke: #A80036; stroke-width: 1.0;"/><path d="M33.4188,172.6094 Q32.8406,172.9063 32.2,173.0469 Q31.5594,173.2031 30.8563,173.2031 Q28.3563,173.2031 27.0281,171.5625 Q25.7156,169.9063 25.7156,166.7813 Q25.7156,163.6563 27.0281,162 Q28.3563,160.3438 30.8563,160.3438 Q31.5594,160.3438 32.2,160.5 Q32.8563,160.6563 33.4188,160.9531 L33.4188,163.6719 Q32.7938,163.0938 32.2,162.8281 Q31.6063,162.5469 30.9813,162.5469 Q29.6375,162.5469 28.95,163.625 Q28.2625,164.6875 28.2625,166.7813 Q28.2625,168.875 28.95,169.9531 Q29.6375,171.0156 30.9813,171.0156 Q31.6063,171.0156 32.2,170.75 Q32.7938,170.4688 33.4188,169.8906 L33.4188,172.6094 Z "/><text fill="#000000" font-family="sans-serif" font-size="12" font-style="italic" lengthAdjust="spacingAndGlyphs" textLength="74" x="54.05" y="164.1387">«boundary»</text><text fill="#000000" font-family="sans-serif" font-size="12" lengthAdjust="spacingAndGlyphs" textLength="89" x="46.55" y="178.1074">DFSConnector</text><line style="stroke: #A80036; stroke-width: 1.5;" x1="7" x2="147" y1="185.9375" y2="185.9375"/><line style="stroke: #A80036; stroke-width: 1.5;" x1="7" x2="147" y1="193.9375" y2="193.9375"/><text fill="#000000" font-family="sans-serif" font-size="11" lengthAdjust="spacingAndGlyphs" textLength="100" x="12" y="208.1479">// update to DFS()</text><text fill="#000000" font-family="sans-serif" font-size="11" lengthAdjust="spacingAndGlyphs" textLength="130" x="12" y="220.9526">// update to Metadata()</text><!--class UpdateControl--><rect fill="#FEFECE" filter="url(#fdqkqzriddcon)" height="79.5469" id="UpdateControl" style="stroke: #A80036; stroke-width: 1.5;" width="154" x="87" y="8"/><ellipse cx="115.95" cy="26.9688" fill="#ADD1B2" rx="11" ry="11" style="stroke: #A80036; stroke-width: 1.0;"/><path d="M118.9188,32.6094 Q118.3406,32.9063 117.7,33.0469 Q117.0594,33.2031 116.3563,33.2031 Q113.8563,33.2031 112.5281,31.5625 Q111.2156,29.9063 111.2156,26.7813 Q111.2156,23.6563 112.5281,22 Q113.8563,20.3438 116.3563,20.3438 Q117.0594,20.3438 117.7,20.5 Q118.3563,20.6563 118.9188,20.9531 L118.9188,23.6719 Q118.2938,23.0938 117.7,22.8281 Q117.1063,22.5469 116.4813,22.5469 Q115.1375,22.5469 114.45,23.625 Q113.7625,24.6875 113.7625,26.7813 Q113.7625,28.875 114.45,29.9531 Q115.1375,31.0156 116.4813,31.0156 Q117.1063,31.0156 117.7,30.75 Q118.2938,30.4688 118.9188,29.8906 L118.9188,32.6094 Z "/><text fill="#000000" font-family="sans-serif" font-size="12" font-style="italic" lengthAdjust="spacingAndGlyphs" textLength="58" x="149.55" y="24.1387">«control»</text><text fill="#000000" font-family="sans-serif" font-size="12" lengthAdjust="spacingAndGlyphs" textLength="91" x="133.05" y="38.1074">UpdateControl</text><line style="stroke: #A80036; stroke-width: 1.5;" x1="88" x2="240" y1="45.9375" y2="45.9375"/><line style="stroke: #A80036; stroke-width: 1.5;" x1="88" x2="240" y1="53.9375" y2="53.9375"/><text fill="#000000" font-family="sans-serif" font-size="11" lengthAdjust="spacingAndGlyphs" textLength="142" x="93" y="68.1479">// check against conflict()</text><text fill="#000000" font-family="sans-serif" font-size="11" lengthAdjust="spacingAndGlyphs" textLength="110" x="93" y="80.9526">// update package()</text><!--class MetadataSystem--><rect fill="#FEFECE" filter="url(#fdqkqzriddcon)" height="66.7422" id="MetadataSystem" style="stroke: #A80036; stroke-width: 1.5;" width="137" x="183.5" y="154.5"/><ellipse cx="198.5" cy="173.4688" fill="#ADD1B2" rx="11" ry="11" style="stroke: #A80036; stroke-width: 1.0;"/><path d="M201.4688,179.1094 Q200.8906,179.4063 200.25,179.5469 Q199.6094,179.7031 198.9063,179.7031 Q196.4063,179.7031 195.0781,178.0625 Q193.7656,176.4063 193.7656,173.2813 Q193.7656,170.1563 195.0781,168.5 Q196.4063,166.8438 198.9063,166.8438 Q199.6094,166.8438 200.25,167 Q200.9063,167.1563 201.4688,167.4531 L201.4688,170.1719 Q200.8438,169.5938 200.25,169.3281 Q199.6563,169.0469 199.0313,169.0469 Q197.6875,169.0469 197,170.125 Q196.3125,171.1875 196.3125,173.2813 Q196.3125,175.375 197,176.4531 Q197.6875,177.5156 199.0313,177.5156 Q199.6563,177.5156 200.25,177.25 Q200.8438,176.9688 201.4688,176.3906 L201.4688,179.1094 Z "/><text fill="#000000" font-family="sans-serif" font-size="12" font-style="italic" lengthAdjust="spacingAndGlyphs" textLength="50" x="240" y="170.6387">«entity»</text><text fill="#000000" font-family="sans-serif" font-size="12" lengthAdjust="spacingAndGlyphs" textLength="105" x="212.5" y="184.6074">MetadataSystem</text><line style="stroke: #A80036; stroke-width: 1.5;" x1="184.5" x2="319.5" y1="192.4375" y2="192.4375"/><line style="stroke: #A80036; stroke-width: 1.5;" x1="184.5" x2="319.5" y1="200.4375" y2="200.4375"/><text fill="#000000" font-family="sans-serif" font-size="11" lengthAdjust="spacingAndGlyphs" textLength="101" x="189.5" y="214.6479">// store package()</text><!--class DFSsubsystem--><rect fill="#FEFECE" filter="url(#fdqkqzriddcon)" height="66.7422" id="DFSsubsystem" style="stroke: #A80036; stroke-width: 1.5;" width="123" x="276.5" y="14.5"/><ellipse cx="292.4" cy="33.4688" fill="#B4A7E5" rx="11" ry="11" style="stroke: #A80036; stroke-width: 1.0;"/><path d="M288.3219,29.2344 L288.3219,27.0781 L295.7125,27.0781 L295.7125,29.2344 L293.2438,29.2344 L293.2438,37.3125 L295.7125,37.3125 L295.7125,39.4688 L288.3219,39.4688 L288.3219,37.3125 L290.7906,37.3125 L290.7906,29.2344 L288.3219,29.2344 Z "/><text fill="#000000" font-family="sans-serif" font-size="12" font-style="italic" lengthAdjust="spacingAndGlyphs" textLength="70" x="316.1" y="30.6387">«interface»</text><text fill="#000000" font-family="sans-serif" font-size="12" font-style="italic" lengthAdjust="spacingAndGlyphs" textLength="89" x="306.6" y="44.6074">DFSsubsystem</text><line style="stroke: #A80036; stroke-width: 1.5;" x1="277.5" x2="398.5" y1="52.4375" y2="52.4375"/><line style="stroke: #A80036; stroke-width: 1.5;" x1="277.5" x2="398.5" y1="60.4375" y2="60.4375"/><text fill="#000000" font-family="sans-serif" font-size="11" lengthAdjust="spacingAndGlyphs" textLength="111" x="282.5" y="74.6479">// display package()</text><!--link UpdateControl to DFSConnector--><path d="M139.0693,88.1184 C127.4202,106.864 113.5839,129.1294 101.9343,147.8758 " fill="none" id="UpdateControl-DFSConnector" style="stroke: #A80036; stroke-width: 1.0;"/><text fill="#000000" font-family="sans-serif" font-size="13" lengthAdjust="spacingAndGlyphs" textLength="8" x="126.6393" y="107.5217">1</text><text fill="#000000" font-family="sans-serif" font-size="13" lengthAdjust="spacingAndGlyphs" textLength="8" x="97.5324" y="136.8076">1</text><!--link UpdateControl to MetadataSystem--><path d="M189.2173,88.1184 C202.4223,109.1264 218.406,134.555 230.941,154.4971 " fill="none" id="UpdateControl-MetadataSystem" style="stroke: #A80036; stroke-width: 1.0;"/><text fill="#000000" font-family="sans-serif" font-size="13" lengthAdjust="spacingAndGlyphs" textLength="8" x="184.4662" y="107.5217">1</text><text fill="#000000" font-family="sans-serif" font-size="13" lengthAdjust="spacingAndGlyphs" textLength="8" x="218.0075" y="143.53">1</text><!--
@startuml
class DFSConnector <<boundary>> {
   // update to DFS()
   // update to Metadata()
}

class UpdateControl <<control>> {
   // check against conflict()
   // update package()
}

class MetadataSystem <<entity>> {
   // store package()
}

interface DFSsubsystem <<interface>> {
   // display package()
}
UpdateControl "1" - - "1" DFSConnector
UpdateControl "1" - - "1" MetadataSystem

@enduml

PlantUML version 1.2017.15(Mon Jul 03 16:45:34 UTC 2017)
(GPL source distribution)
Java Runtime: OpenJDK Runtime Environment
JVM: OpenJDK 64-Bit Server VM
Java Version: 1.8.0_265-b01
Operating System: Linux
OS Version: 5.4.0-1031-azure
Default Encoding: UTF-8
Language: en
Country: null
--></g></svg>