<?xml version="1.0" encoding="UTF-8" standalone="no"?><svg xmlns="http://www.w3.org/2000/svg" xmlns:xlink="http://www.w3.org/1999/xlink" contentScriptType="application/ecmascript" contentStyleType="text/css" height="326px" preserveAspectRatio="none" style="width:555px;height:326px;" version="1.1" viewBox="0 0 555 326" width="555px" zoomAndPan="magnify"><defs><filter height="300%" id="fcd669o7tdje8" width="300%" x="-1" y="-1"><feGaussianBlur result="blurOut" stdDeviation="2.0"/><feColorMatrix in="blurOut" result="blurOut2" type="matrix" values="0 0 0 0 0 0 0 0 0 0 0 0 0 0 0 0 0 0 .4 0"/><feOffset dx="4.0" dy="4.0" in="blurOut2" result="blurOut3"/><feBlend in="SourceGraphic" in2="blurOut3" mode="normal"/></filter></defs><g><!--class LoginController--><rect fill="#FEFECE" filter="url(#fcd669o7tdje8)" height="53.9375" id="LoginController" style="stroke: #A80036; stroke-width: 1.5;" width="126" x="6" y="14.5"/><ellipse cx="21" cy="33.4688" fill="#ADD1B2" rx="11" ry="11" style="stroke: #A80036; stroke-width: 1.0;"/><path d="M23.9688,39.1094 Q23.3906,39.4063 22.75,39.5469 Q22.1094,39.7031 21.4063,39.7031 Q18.9063,39.7031 17.5781,38.0625 Q16.2656,36.4063 16.2656,33.2813 Q16.2656,30.1563 17.5781,28.5 Q18.9063,26.8438 21.4063,26.8438 Q22.1094,26.8438 22.75,27 Q23.4063,27.1563 23.9688,27.4531 L23.9688,30.1719 Q23.3438,29.5938 22.75,29.3281 Q22.1563,29.0469 21.5313,29.0469 Q20.1875,29.0469 19.5,30.125 Q18.8125,31.1875 18.8125,33.2813 Q18.8125,35.375 19.5,36.4531 Q20.1875,37.5156 21.5313,37.5156 Q22.1563,37.5156 22.75,37.25 Q23.3438,36.9688 23.9688,36.3906 L23.9688,39.1094 Z "/><text fill="#A80036" font-family="sans-serif" font-size="12" font-style="italic" lengthAdjust="spacingAndGlyphs" textLength="58" x="53" y="30.6387">«control»</text><text fill="#A80036" font-family="sans-serif" font-size="12" lengthAdjust="spacingAndGlyphs" textLength="94" x="35" y="44.6074">LoginController</text><line style="stroke: #A80036; stroke-width: 1.5;" x1="7" x2="131" y1="52.4375" y2="52.4375"/><line style="stroke: #A80036; stroke-width: 1.5;" x1="7" x2="131" y1="60.4375" y2="60.4375"/><!--class RegistrationController--><rect fill="#FEFECE" filter="url(#fcd669o7tdje8)" height="53.9375" id="RegistrationController" style="stroke: #A80036; stroke-width: 1.5;" width="169" x="167.5" y="14.5"/><ellipse cx="182.5" cy="33.4688" fill="#ADD1B2" rx="11" ry="11" style="stroke: #A80036; stroke-width: 1.0;"/><path d="M185.4688,39.1094 Q184.8906,39.4063 184.25,39.5469 Q183.6094,39.7031 182.9063,39.7031 Q180.4063,39.7031 179.0781,38.0625 Q177.7656,36.4063 177.7656,33.2813 Q177.7656,30.1563 179.0781,28.5 Q180.4063,26.8438 182.9063,26.8438 Q183.6094,26.8438 184.25,27 Q184.9063,27.1563 185.4688,27.4531 L185.4688,30.1719 Q184.8438,29.5938 184.25,29.3281 Q183.6563,29.0469 183.0313,29.0469 Q181.6875,29.0469 181,30.125 Q180.3125,31.1875 180.3125,33.2813 Q180.3125,35.375 181,36.4531 Q181.6875,37.5156 183.0313,37.5156 Q183.6563,37.5156 184.25,37.25 Q184.8438,36.9688 185.4688,36.3906 L185.4688,39.1094 Z "/><text fill="#A80036" font-family="sans-serif" font-size="12" font-style="italic" lengthAdjust="spacingAndGlyphs" textLength="58" x="236" y="30.6387">«control»</text><text fill="#A80036" font-family="sans-serif" font-size="12" lengthAdjust="spacingAndGlyphs" textLength="137" x="196.5" y="44.6074">RegistrationController</text><line style="stroke: #A80036; stroke-width: 1.5;" x1="168.5" x2="335.5" y1="52.4375" y2="52.4375"/><line style="stroke: #A80036; stroke-width: 1.5;" x1="168.5" x2="335.5" y1="60.4375" y2="60.4375"/><!--class IVerification--><rect fill="#FEFECE" filter="url(#fcd669o7tdje8)" height="66.7422" id="IVerification" style="stroke: #A80036; stroke-width: 1.5;" width="173" x="371.5" y="8"/><ellipse cx="417.25" cy="26.9688" fill="#ADD1B2" rx="11" ry="11" style="stroke: #A80036; stroke-width: 1.0;"/><path d="M420.2188,32.6094 Q419.6406,32.9063 419,33.0469 Q418.3594,33.2031 417.6563,33.2031 Q415.1563,33.2031 413.8281,31.5625 Q412.5156,29.9063 412.5156,26.7813 Q412.5156,23.6563 413.8281,22 Q415.1563,20.3438 417.6563,20.3438 Q418.3594,20.3438 419,20.5 Q419.6563,20.6563 420.2188,20.9531 L420.2188,23.6719 Q419.5938,23.0938 419,22.8281 Q418.4063,22.5469 417.7813,22.5469 Q416.4375,22.5469 415.75,23.625 Q415.0625,24.6875 415.0625,26.7813 Q415.0625,28.875 415.75,29.9531 Q416.4375,31.0156 417.7813,31.0156 Q418.4063,31.0156 419,30.75 Q419.5938,30.4688 420.2188,29.8906 L420.2188,32.6094 Z "/><text fill="#A80036" font-family="sans-serif" font-size="12" font-style="italic" lengthAdjust="spacingAndGlyphs" textLength="70" x="439.25" y="24.1387">«interface»</text><text fill="#A80036" font-family="sans-serif" font-size="12" lengthAdjust="spacingAndGlyphs" textLength="73" x="437.75" y="38.1074">IVerification</text><line style="stroke: #A80036; stroke-width: 1.5;" x1="372.5" x2="543.5" y1="45.9375" y2="45.9375"/><line style="stroke: #A80036; stroke-width: 1.5;" x1="372.5" x2="543.5" y1="53.9375" y2="53.9375"/><text fill="#A80036" font-family="sans-serif" font-size="11" lengthAdjust="spacingAndGlyphs" textLength="161" x="377.5" y="68.1479">verify(username, password)</text><!--class Verification--><rect fill="#FEFECE" filter="url(#fcd669o7tdje8)" height="66.7422" id="Verification" style="stroke: #A80036; stroke-width: 1.5;" width="173" x="198.5" y="135"/><ellipse cx="225.65" cy="153.9688" fill="#ADD1B2" rx="11" ry="11" style="stroke: #A80036; stroke-width: 1.0;"/><path d="M228.6188,159.6094 Q228.0406,159.9063 227.4,160.0469 Q226.7594,160.2031 226.0563,160.2031 Q223.5563,160.2031 222.2281,158.5625 Q220.9156,156.9063 220.9156,153.7813 Q220.9156,150.6563 222.2281,149 Q223.5563,147.3438 226.0563,147.3438 Q226.7594,147.3438 227.4,147.5 Q228.0563,147.6563 228.6188,147.9531 L228.6188,150.6719 Q227.9938,150.0938 227.4,149.8281 Q226.8063,149.5469 226.1813,149.5469 Q224.8375,149.5469 224.15,150.625 Q223.4625,151.6875 223.4625,153.7813 Q223.4625,155.875 224.15,156.9531 Q224.8375,158.0156 226.1813,158.0156 Q226.8063,158.0156 227.4,157.75 Q227.9938,157.4688 228.6188,156.8906 L228.6188,159.6094 Z "/><text fill="#A80036" font-family="sans-serif" font-size="12" font-style="italic" lengthAdjust="spacingAndGlyphs" textLength="118" x="240.35" y="151.1387">«subsystem proxy»</text><text fill="#A80036" font-family="sans-serif" font-size="12" lengthAdjust="spacingAndGlyphs" textLength="70" x="264.35" y="165.1074">Verification</text><line style="stroke: #A80036; stroke-width: 1.5;" x1="199.5" x2="370.5" y1="172.9375" y2="172.9375"/><line style="stroke: #A80036; stroke-width: 1.5;" x1="199.5" x2="370.5" y1="180.9375" y2="180.9375"/><text fill="#A80036" font-family="sans-serif" font-size="11" lengthAdjust="spacingAndGlyphs" textLength="161" x="204.5" y="195.1479">verify(username, password)</text><!--class AccountData--><rect fill="#FEFECE" filter="url(#fcd669o7tdje8)" height="53.9375" id="AccountData" style="stroke: #A80036; stroke-width: 1.5;" width="113" x="298.5" y="262"/><ellipse cx="313.5" cy="280.9688" fill="#ADD1B2" rx="11" ry="11" style="stroke: #A80036; stroke-width: 1.0;"/><path d="M316.4688,286.6094 Q315.8906,286.9063 315.25,287.0469 Q314.6094,287.2031 313.9063,287.2031 Q311.4063,287.2031 310.0781,285.5625 Q308.7656,283.9063 308.7656,280.7813 Q308.7656,277.6563 310.0781,276 Q311.4063,274.3438 313.9063,274.3438 Q314.6094,274.3438 315.25,274.5 Q315.9063,274.6563 316.4688,274.9531 L316.4688,277.6719 Q315.8438,277.0938 315.25,276.8281 Q314.6563,276.5469 314.0313,276.5469 Q312.6875,276.5469 312,277.625 Q311.3125,278.6875 311.3125,280.7813 Q311.3125,282.875 312,283.9531 Q312.6875,285.0156 314.0313,285.0156 Q314.6563,285.0156 315.25,284.75 Q315.8438,284.4688 316.4688,283.8906 L316.4688,286.6094 Z "/><text fill="#A80036" font-family="sans-serif" font-size="12" font-style="italic" lengthAdjust="spacingAndGlyphs" textLength="50" x="343" y="278.1387">«entity»</text><text fill="#A80036" font-family="sans-serif" font-size="12" lengthAdjust="spacingAndGlyphs" textLength="81" x="327.5" y="292.1074">AccountData</text><line style="stroke: #A80036; stroke-width: 1.5;" x1="299.5" x2="410.5" y1="299.9375" y2="299.9375"/><line style="stroke: #A80036; stroke-width: 1.5;" x1="299.5" x2="410.5" y1="307.9375" y2="307.9375"/><!--link IVerification to Verification--><path d="M395.8332,87.1369 C374.3712,102.8922 350.7338,120.2446 330.8207,134.8628 " fill="none" id="IVerification-Verification" style="stroke: #A80036; stroke-width: 1.0;"/><polygon fill="none" points="391.8288,81.3929,412.0934,75.2002,400.1136,92.6784,391.8288,81.3929" style="stroke: #A80036; stroke-width: 1.0;"/><!--link LoginController to Verification--><path d="M115.0725,68.5889 C146.6138,87.134 188.7986,111.9371 223.2454,132.1906 " fill="none" id="LoginController-Verification" style="stroke: #A80036; stroke-width: 1.0;"/><polygon fill="#A80036" points="227.8367,134.8901,222.1059,126.8803,223.5266,132.3558,218.051,133.7765,227.8367,134.8901" style="stroke: #A80036; stroke-width: 1.0;"/><text fill="#A80036" font-family="sans-serif" font-size="13" lengthAdjust="spacingAndGlyphs" textLength="24" x="98.9518" y="88.6771">0..1</text><text fill="#A80036" font-family="sans-serif" font-size="13" lengthAdjust="spacingAndGlyphs" textLength="24" x="190.2202" y="123.9019">0..1</text><!--link RegistrationController to Verification--><path d="M259.0793,68.7447 C263.7234,86.6173 269.8648,110.2525 275.004,130.0306 " fill="none" id="RegistrationController-Verification" style="stroke: #A80036; stroke-width: 1.0;"/><polygon fill="#A80036" points="276.2875,134.97,277.8953,125.2533,275.0299,130.1307,270.1525,127.2654,276.2875,134.97" style="stroke: #A80036; stroke-width: 1.0;"/><text fill="#A80036" font-family="sans-serif" font-size="13" lengthAdjust="spacingAndGlyphs" textLength="24" x="234.0029" y="88.4334">0..1</text><text fill="#A80036" font-family="sans-serif" font-size="13" lengthAdjust="spacingAndGlyphs" textLength="24" x="248.2097" y="123.9976">0..1</text><!--link IVerification to AccountData--><path d="M444.0018,75.1365 C424.0601,123.0546 387.7336,210.3441 368.2255,257.2204 " fill="none" id="IVerification-AccountData" style="stroke: #A80036; stroke-width: 1.0;"/><polygon fill="#A80036" points="366.2764,261.9038,373.4274,255.1316,368.1976,257.2876,366.0415,252.0577,366.2764,261.9038" style="stroke: #A80036; stroke-width: 1.0;"/><!--link Verification to AccountData--><path d="M304.4989,202.066 C314.4828,219.2526 326.5756,240.0694 336.4244,257.0234 " fill="none" id="Verification-AccountData" style="stroke: #A80036; stroke-width: 1.0;"/><polygon fill="#A80036" points="339.1392,261.6967,338.0771,251.9053,336.6276,257.3733,331.1596,255.9238,339.1392,261.6967" style="stroke: #A80036; stroke-width: 1.0;"/><!--
@startuml
skinparam defaultFontColor #a80036

class LoginController <<control>>

class RegistrationController <<control>>

class IVerification <<interface>> {
   verify(username, password)
}

class Verification <<subsystem proxy>> extends IVerification {
   verify(username, password)
}

class AccountData <<entity>>

LoginController "0..1" - -> "0..1" Verification
RegistrationController "0..1" - -> "0..1" Verification
IVerification - -> AccountData
Verification - -> AccountData

@enduml

PlantUML version 1.2017.15(Mon Jul 03 16:45:34 UTC 2017)
(GPL source distribution)
Java Runtime: OpenJDK Runtime Environment
JVM: OpenJDK 64-Bit Server VM
Java Version: 1.8.0_265-b01
Operating System: Linux
OS Version: 5.4.0-1026-azure
Default Encoding: UTF-8
Language: en
Country: null
--></g></svg>