<?xml version="1.0" encoding="UTF-8" standalone="no"?><svg xmlns="http://www.w3.org/2000/svg" xmlns:xlink="http://www.w3.org/1999/xlink" contentScriptType="application/ecmascript" contentStyleType="text/css" height="683px" preserveAspectRatio="none" style="width:958px;height:683px;" version="1.1" viewBox="0 0 958 683" width="958px" zoomAndPan="magnify"><defs><filter height="300%" id="f1tu27qmqnwsvx" width="300%" x="-1" y="-1"><feGaussianBlur result="blurOut" stdDeviation="2.0"/><feColorMatrix in="blurOut" result="blurOut2" type="matrix" values="0 0 0 0 0 0 0 0 0 0 0 0 0 0 0 0 0 0 .4 0"/><feOffset dx="4.0" dy="4.0" in="blurOut2" result="blurOut3"/><feBlend in="SourceGraphic" in2="blurOut3" mode="normal"/></filter></defs><g><!--entity User--><ellipse cx="46" cy="162" fill="#FEFECE" filter="url(#f1tu27qmqnwsvx)" rx="8" ry="8" style="stroke: #A80036; stroke-width: 2.0;"/><path d="M46,170 L46,197 M33,178 L59,178 M46,197 L33,212 M46,197 L59,212 " fill="#FEFECE" filter="url(#f1tu27qmqnwsvx)" style="stroke: #A80036; stroke-width: 2.0;"/><text fill="#000000" font-family="sans-serif" font-size="14" lengthAdjust="spacingAndGlyphs" textLength="32" x="30" y="231.9951">User</text><!--entity Contributor--><ellipse cx="278" cy="162" fill="#FEFECE" filter="url(#f1tu27qmqnwsvx)" rx="8" ry="8" style="stroke: #A80036; stroke-width: 2.0;"/><path d="M278,170 L278,197 M265,178 L291,178 M278,197 L265,212 M278,197 L291,212 " fill="#FEFECE" filter="url(#f1tu27qmqnwsvx)" style="stroke: #A80036; stroke-width: 2.0;"/><text fill="#000000" font-family="sans-serif" font-size="14" lengthAdjust="spacingAndGlyphs" textLength="78" x="239" y="231.9951">Contributor</text><!--entity Maintainer--><ellipse cx="628" cy="18" fill="#FEFECE" filter="url(#f1tu27qmqnwsvx)" rx="8" ry="8" style="stroke: #A80036; stroke-width: 2.0;"/><path d="M628,26 L628,53 M615,34 L641,34 M628,53 L615,68 M628,53 L641,68 " fill="#FEFECE" filter="url(#f1tu27qmqnwsvx)" style="stroke: #A80036; stroke-width: 2.0;"/><text fill="#000000" font-family="sans-serif" font-size="14" lengthAdjust="spacingAndGlyphs" textLength="71" x="592.5" y="87.9951">Maintainer</text><!--entity IPFS--><ellipse cx="141" cy="456" fill="#FEFECE" filter="url(#f1tu27qmqnwsvx)" rx="8" ry="8" style="stroke: #A80036; stroke-width: 2.0;"/><path d="M141,464 L141,491 M128,472 L154,472 M141,491 L128,506 M141,491 L154,506 " fill="#FEFECE" filter="url(#f1tu27qmqnwsvx)" style="stroke: #A80036; stroke-width: 2.0;"/><text fill="#000000" font-family="sans-serif" font-size="14" lengthAdjust="spacingAndGlyphs" textLength="29" x="126.5" y="525.9951">IPFS</text><!--entity Database--><ellipse cx="377" cy="600" fill="#FEFECE" filter="url(#f1tu27qmqnwsvx)" rx="8" ry="8" style="stroke: #A80036; stroke-width: 2.0;"/><path d="M377,608 L377,635 M364,616 L390,616 M377,635 L364,650 M377,635 L390,650 " fill="#FEFECE" filter="url(#f1tu27qmqnwsvx)" style="stroke: #A80036; stroke-width: 2.0;"/><text fill="#000000" font-family="sans-serif" font-size="14" lengthAdjust="spacingAndGlyphs" textLength="66" x="344" y="669.9951">Database</text><ellipse cx="113.7904" cy="334.5236" fill="#FEFECE" filter="url(#f1tu27qmqnwsvx)" rx="51.7904" ry="14.5236" style="stroke: #A80036; stroke-width: 1.5;"/><text fill="#000000" font-family="sans-serif" font-size="14" lengthAdjust="spacingAndGlyphs" textLength="69" x="79.2904" y="339.1721">Download</text><ellipse cx="37.9914" cy="401.5236" fill="#FEFECE" filter="url(#f1tu27qmqnwsvx)" rx="31.9914" ry="14.5236" style="stroke: #A80036; stroke-width: 1.5;"/><text fill="#000000" font-family="sans-serif" font-size="14" lengthAdjust="spacingAndGlyphs" textLength="41" x="17.4914" y="406.1721">Query</text><ellipse cx="196.0122" cy="401.5236" fill="#FEFECE" filter="url(#f1tu27qmqnwsvx)" rx="44.0122" ry="14.5236" style="stroke: #A80036; stroke-width: 1.5;"/><text fill="#000000" font-family="sans-serif" font-size="14" lengthAdjust="spacingAndGlyphs" textLength="58" x="167.0122" y="406.1721">Register</text><ellipse cx="631.163" cy="487.5236" fill="#FEFECE" filter="url(#f1tu27qmqnwsvx)" rx="29.163" ry="14.5236" style="stroke: #A80036; stroke-width: 1.5;"/><text fill="#000000" font-family="sans-serif" font-size="14" lengthAdjust="spacingAndGlyphs" textLength="37" x="612.663" y="492.1721">Login</text><ellipse cx="850.211" cy="334.4422" fill="#FEFECE" filter="url(#f1tu27qmqnwsvx)" rx="97.711" ry="21.9422" style="stroke: #A80036; stroke-width: 1.5;"/><text fill="#000000" font-family="sans-serif" font-size="14" lengthAdjust="spacingAndGlyphs" textLength="171" x="764.711" y="339.0906">Vote for New Maintainers</text><ellipse cx="484.0203" cy="334.3041" fill="#FEFECE" filter="url(#f1tu27qmqnwsvx)" rx="99.5203" ry="22.3041" style="stroke: #A80036; stroke-width: 1.5;"/><text fill="#000000" font-family="sans-serif" font-size="14" lengthAdjust="spacingAndGlyphs" textLength="175" x="396.5203" y="338.9525">Propose Package Update</text><ellipse cx="450.2229" cy="487.5446" fill="#FEFECE" filter="url(#f1tu27qmqnwsvx)" rx="93.2229" ry="21.0446" style="stroke: #A80036; stroke-width: 1.5;"/><text fill="#000000" font-family="sans-serif" font-size="14" lengthAdjust="spacingAndGlyphs" textLength="161" x="369.7229" y="492.193">Check against Conflicts</text><ellipse cx="577.1576" cy="193.4315" fill="#FEFECE" filter="url(#f1tu27qmqnwsvx)" rx="72.6576" ry="16.9315" style="stroke: #A80036; stroke-width: 1.5;"/><text fill="#000000" font-family="sans-serif" font-size="14" lengthAdjust="spacingAndGlyphs" textLength="113" x="520.6576" y="198.0799">Review Proposal</text><ellipse cx="310.8553" cy="334.5236" fill="#FEFECE" filter="url(#f1tu27qmqnwsvx)" rx="38.3553" ry="14.5236" style="stroke: #A80036; stroke-width: 1.5;"/><text fill="#000000" font-family="sans-serif" font-size="14" lengthAdjust="spacingAndGlyphs" textLength="50" x="285.8553" y="339.1721">Update</text><!--link User to Download--><path d="M62.1151,226.915 C75.3883,254.4375 93.7453,292.5013 104.6914,315.1984 " fill="none" id="User-Download" style="stroke: #A80036; stroke-width: 1.0;"/><polygon fill="#A80036" points="106.9103,319.7992,106.6036,309.9551,104.7383,315.2956,99.3978,313.4303,106.9103,319.7992" style="stroke: #A80036; stroke-width: 1.0;"/><!--link Download to IPFS--><path d="M116.5889,349.1703 C120.2848,370.1141 127.2398,409.5254 132.7834,440.9393 " fill="none" id="Download-IPFS" style="stroke: #A80036; stroke-width: 1.0;"/><polygon fill="#A80036" points="133.6603,445.9084,136.0353,436.3502,132.7913,440.9845,128.157,437.7406,133.6603,445.9084" style="stroke: #A80036; stroke-width: 1.0;"/><!--link User to Query--><path d="M44.4003,235.092 C42.6863,279.6554 40.0393,348.4781 38.7531,381.9202 " fill="none" id="User-Query" style="stroke: #A80036; stroke-width: 1.0;"/><polygon fill="#A80036" points="38.5587,386.9746,42.9019,378.1351,38.751,381.9783,34.9078,377.8274,38.5587,386.9746" style="stroke: #A80036; stroke-width: 1.0;"/><!--link Query to Database--><path d="M42.4698,416.2681 C51.1314,442.513 72.6193,497.476 109,529 C179.2124,589.8394 289.3601,616.4342 343.992,626.3903 " fill="none" id="Query-Database" style="stroke: #A80036; stroke-width: 1.0;"/><!--link Contributor to Register--><path d="M261.6032,235.092 C244.0349,279.6554 216.9029,348.4781 203.719,381.9202 " fill="none" id="Contributor-Register" style="stroke: #A80036; stroke-width: 1.0;"/><polygon fill="#A80036" points="201.7264,386.9746,208.7486,380.0689,203.5603,382.323,201.3061,377.1347,201.7264,386.9746" style="stroke: #A80036; stroke-width: 1.0;"/><!--link Register to Database--><path d="M200.8684,415.9587 C211.3494,445.5293 238.3547,514.0033 278,560 C296.548,581.5195 322.8033,600.1008 343.6153,612.9238 " fill="none" id="Register-Database" style="stroke: #A80036; stroke-width: 1.0;"/><!--link Contributor to Propose--><path d="M316.2564,235.351 C332.1703,251.2452 351.4714,268.7036 371,282 C388.6378,294.009 409.4602,304.5581 428.3945,312.9893 " fill="none" id="Contributor-Propose" style="stroke: #A80036; stroke-width: 1.0;"/><polygon fill="#A80036" points="433.1645,315.0868,426.536,307.8024,428.5875,313.0741,423.3157,315.1256,433.1645,315.0868" style="stroke: #A80036; stroke-width: 1.0;"/><!--link Propose to Login--><path d="M505.3751,356.7475 C534.9747,387.5553 587.8112,442.5484 614.5422,470.3704 " fill="none" id="Propose-Login" style="stroke: #A80036; stroke-width: 1.0; stroke-dasharray: 7.0,7.0;"/><polygon fill="#A80036" points="618.2908,474.272,614.9398,465.0107,614.8267,470.6665,609.171,470.5533,618.2908,474.272" style="stroke: #A80036; stroke-width: 1.0;"/><text fill="#000000" font-family="sans-serif" font-size="13" lengthAdjust="spacingAndGlyphs" textLength="61" x="562" y="406.0669">«include»</text><!--link Propose to Check--><path d="M472.9431,357.0182 C468.902,366.1288 464.6711,376.8708 462,387 C455.4739,411.7485 452.4894,440.8692 451.129,461.3751 " fill="none" id="Propose-Check" style="stroke: #A80036; stroke-width: 1.0; stroke-dasharray: 7.0,7.0;"/><polygon fill="#A80036" points="450.817,466.3949,455.3678,457.6605,451.1273,461.4045,447.3832,457.164,450.817,466.3949" style="stroke: #A80036; stroke-width: 1.0;"/><text fill="#000000" font-family="sans-serif" font-size="13" lengthAdjust="spacingAndGlyphs" textLength="61" x="463" y="406.0669">«include»</text><!--link Check to Database--><path d="M439.3852,508.4388 C428.6293,529.6559 411.6948,563.061 398.182,589.7163 " fill="none" id="Check-Database" style="stroke: #A80036; stroke-width: 1.0;"/><!--link Maintainer to Review--><path d="M613.2487,91.1508 C603.9343,117.4502 592.278,150.3622 584.7381,171.6513 " fill="none" id="Maintainer-Review" style="stroke: #A80036; stroke-width: 1.0;"/><polygon fill="#A80036" points="583.0074,176.538,589.7826,169.3898,584.6767,171.8249,582.2416,166.719,583.0074,176.538" style="stroke: #A80036; stroke-width: 1.0;"/><!--link Review to Propose--><path d="M565.782,210.5079 C549.0665,235.8508 517.5948,283.566 498.9445,311.8422 " fill="none" id="Review-Propose" style="stroke: #A80036; stroke-width: 1.0;"/><!--link Review to Login--><path d="M583.5662,210.5005 C596.0227,243.7673 622.6724,320.068 632,387 C633.779,399.7655 632.0901,403.1114 632,416 C631.8771,433.5795 631.5842,453.5885 631.3469,467.9601 " fill="none" id="Review-Login" style="stroke: #A80036; stroke-width: 1.0; stroke-dasharray: 7.0,7.0;"/><polygon fill="#A80036" points="631.2625,472.9849,635.4134,464.0535,631.3466,467.9856,627.4145,463.9189,631.2625,472.9849" style="stroke: #A80036; stroke-width: 1.0;"/><text fill="#000000" font-family="sans-serif" font-size="13" lengthAdjust="spacingAndGlyphs" textLength="61" x="627" y="339.0669">«include»</text><!--link Review to Update--><path d="M547.517,209.1282 C495.4944,236.7041 388.1738,293.5921 337.9837,320.1966 " fill="none" id="Review-Update" style="stroke: #A80036; stroke-width: 1.0; stroke-dasharray: 7.0,7.0;"/><polygon fill="#A80036" points="333.3088,322.6747,343.1341,321.9938,337.7265,320.333,339.3873,314.9254,333.3088,322.6747" style="stroke: #A80036; stroke-width: 1.0;"/><text fill="#000000" font-family="sans-serif" font-size="13" lengthAdjust="spacingAndGlyphs" textLength="60" x="437" y="278.0669">«extend»</text><!--link Update to Check--><path d="M323.5671,348.346 C338.2873,364.563 363.4094,392.2358 385,416 C399.2298,431.6624 415.2179,449.2494 427.7766,463.0617 " fill="none" id="Update-Check" style="stroke: #A80036; stroke-width: 1.0; stroke-dasharray: 7.0,7.0;"/><polygon fill="#A80036" points="431.2235,466.8526,428.1284,457.5027,427.8598,463.1532,422.2093,462.8846,431.2235,466.8526" style="stroke: #A80036; stroke-width: 1.0;"/><text fill="#000000" font-family="sans-serif" font-size="13" lengthAdjust="spacingAndGlyphs" textLength="61" x="386" y="406.0669">«include»</text><!--link Update to Database--><path d="M312.2003,349.3362 C315.073,382.1361 323.3748,463.1257 340,529 C345.1388,549.3617 352.7774,571.3363 359.782,589.6971 " fill="none" id="Update-Database" style="stroke: #A80036; stroke-width: 1.0;"/><!--link Update to IPFS--><path d="M300.5291,348.6671 C287.5873,365.6804 264.3954,394.5975 241,416 C213.2851,441.3541 176.4126,465.6412 156.0738,478.3447 " fill="none" id="Update-IPFS" style="stroke: #A80036; stroke-width: 1.0;"/><!--link Maintainer to Vote--><path d="M660.5185,91.2467 C707.0237,150.9494 791.1587,258.9605 829.7114,308.4538 " fill="none" id="Maintainer-Vote" style="stroke: #A80036; stroke-width: 1.0;"/><polygon fill="#A80036" points="832.8529,312.4868,830.4776,302.9287,829.7802,308.5424,824.1665,307.845,832.8529,312.4868" style="stroke: #A80036; stroke-width: 1.0;"/><!--link Vote to Database--><path d="M843.6375,356.7477 C837.9744,374.0334 828.487,398.0123 815,416 C767.6512,479.1492 746.9248,490.541 678,529 C587.3709,579.5697 467.522,611.1441 410.2467,624.3499 " fill="none" id="Vote-Database" style="stroke: #A80036; stroke-width: 1.0;"/><!--link Vote to Login--><path d="M806.2982,354.1895 C787.7561,363.2482 766.2562,374.71 748,387 C709.5734,412.8688 669.6536,449.6681 647.8058,470.8126 " fill="none" id="Vote-Login" style="stroke: #A80036; stroke-width: 1.0; stroke-dasharray: 7.0,7.0;"/><polygon fill="#A80036" points="644.1993,474.32,653.4401,470.913,647.7838,470.8341,647.8626,465.1778,644.1993,474.32" style="stroke: #A80036; stroke-width: 1.0;"/><text fill="#000000" font-family="sans-serif" font-size="13" lengthAdjust="spacingAndGlyphs" textLength="61" x="749" y="406.0669">«include»</text><!--link Login to Database--><path d="M612.3623,498.7341 C598.3048,507.1625 578.5155,518.9317 561,529 C508.5328,559.1593 447.0027,593.1626 410.056,613.4349 " fill="none" id="Login-Database" style="stroke: #A80036; stroke-width: 1.0;"/><!--
@startuml
actor User
actor Contributor
actor Maintainer
actor IPFS
actor Database

usecase Download
usecase Query

usecase Register
usecase Login
usecase "Vote for New Maintainers" as Vote

usecase "Propose Package Update" as Propose
usecase "Check against Conflicts" as Check
usecase "Review Proposal" as Review
usecase Update

User - -> Download
Download - -> IPFS

User - -> Query
Query - - Database

Contributor - -> Register
Register - - Database

Contributor - -> Propose
Propose ..> Login : <<include>>
Propose ..> Check : <<include>>
Check - - Database

Maintainer - -> Review
Review - - Propose
Review ..> Login : <<include>>

Review ..> Update : <<extend>>
Update ..> Check : <<include>>
Update - - Database
Update - - IPFS

Maintainer - -> Vote
Vote - - Database
Vote ..> Login : <<include>>
Login - - Database

@enduml

PlantUML version 1.2017.15(Mon Jul 03 16:45:34 UTC 2017)
(GPL source distribution)
Java Runtime: OpenJDK Runtime Environment
JVM: OpenJDK 64-Bit Server VM
Java Version: 1.8.0_265-b01
Operating System: Linux
OS Version: 5.4.0-1025-azure
Default Encoding: UTF-8
Language: en
Country: null
--></g></svg>