<?xml version="1.0" encoding="UTF-8" standalone="no"?><svg xmlns="http://www.w3.org/2000/svg" xmlns:xlink="http://www.w3.org/1999/xlink" contentScriptType="application/ecmascript" contentStyleType="text/css" height="390px" preserveAspectRatio="none" style="width:206px;height:390px;" version="1.1" viewBox="0 0 206 390" width="206px" zoomAndPan="magnify"><defs><filter height="300%" id="fmhgy6ffwmfo6" width="300%" x="-1" y="-1"><feGaussianBlur result="blurOut" stdDeviation="2.0"/><feColorMatrix in="blurOut" result="blurOut2" type="matrix" values="0 0 0 0 0 0 0 0 0 0 0 0 0 0 0 0 0 0 .4 0"/><feOffset dx="4.0" dy="4.0" in="blurOut2" result="blurOut3"/><feBlend in="SourceGraphic" in2="blurOut3" mode="normal"/></filter></defs><g><!--class ReviewForm--><rect fill="#FEFECE" filter="url(#fmhgy6ffwmfo6)" height="92.3516" id="ReviewForm" style="stroke: #A80036; stroke-width: 1.5;" width="136" x="32.5" y="8"/><ellipse cx="61.45" cy="26.9688" fill="#ADD1B2" rx="11" ry="11" style="stroke: #A80036; stroke-width: 1.0;"/><path d="M64.4188,32.6094 Q63.8406,32.9063 63.2,33.0469 Q62.5594,33.2031 61.8563,33.2031 Q59.3563,33.2031 58.0281,31.5625 Q56.7156,29.9063 56.7156,26.7813 Q56.7156,23.6563 58.0281,22 Q59.3563,20.3438 61.8563,20.3438 Q62.5594,20.3438 63.2,20.5 Q63.8563,20.6563 64.4188,20.9531 L64.4188,23.6719 Q63.7938,23.0938 63.2,22.8281 Q62.6063,22.5469 61.9813,22.5469 Q60.6375,22.5469 59.95,23.625 Q59.2625,24.6875 59.2625,26.7813 Q59.2625,28.875 59.95,29.9531 Q60.6375,31.0156 61.9813,31.0156 Q62.6063,31.0156 63.2,30.75 Q63.7938,30.4688 64.4188,29.8906 L64.4188,32.6094 Z "/><text fill="#A80036" font-family="sans-serif" font-size="12" font-style="italic" lengthAdjust="spacingAndGlyphs" textLength="74" x="78.05" y="24.1387">«boundary»</text><text fill="#A80036" font-family="sans-serif" font-size="12" lengthAdjust="spacingAndGlyphs" textLength="73" x="78.55" y="38.1074">ReviewForm</text><line style="stroke: #A80036; stroke-width: 1.5;" x1="33.5" x2="167.5" y1="45.9375" y2="45.9375"/><line style="stroke: #A80036; stroke-width: 1.5;" x1="33.5" x2="167.5" y1="53.9375" y2="53.9375"/><text fill="#A80036" font-family="sans-serif" font-size="11" lengthAdjust="spacingAndGlyphs" textLength="110" x="38.5" y="68.1479">// check proposal ()</text><text fill="#A80036" font-family="sans-serif" font-size="11" lengthAdjust="spacingAndGlyphs" textLength="118" x="38.5" y="80.9526">// display proposal ()</text><text fill="#A80036" font-family="sans-serif" font-size="11" lengthAdjust="spacingAndGlyphs" textLength="124" x="38.5" y="93.7573">// approve proposal ()</text><!--class UpdateControl--><rect fill="#FEFECE" filter="url(#fmhgy6ffwmfo6)" height="79.5469" id="UpdateControl" style="stroke: #A80036; stroke-width: 1.5;" width="189" x="6" y="160"/><ellipse cx="50.75" cy="178.9688" fill="#ADD1B2" rx="11" ry="11" style="stroke: #A80036; stroke-width: 1.0;"/><path d="M53.7188,184.6094 Q53.1406,184.9063 52.5,185.0469 Q51.8594,185.2031 51.1563,185.2031 Q48.6563,185.2031 47.3281,183.5625 Q46.0156,181.9063 46.0156,178.7813 Q46.0156,175.6563 47.3281,174 Q48.6563,172.3438 51.1563,172.3438 Q51.8594,172.3438 52.5,172.5 Q53.1563,172.6563 53.7188,172.9531 L53.7188,175.6719 Q53.0938,175.0938 52.5,174.8281 Q51.9063,174.5469 51.2813,174.5469 Q49.9375,174.5469 49.25,175.625 Q48.5625,176.6875 48.5625,178.7813 Q48.5625,180.875 49.25,181.9531 Q49.9375,183.0156 51.2813,183.0156 Q51.9063,183.0156 52.5,182.75 Q53.0938,182.4688 53.7188,181.8906 L53.7188,184.6094 Z "/><text fill="#A80036" font-family="sans-serif" font-size="12" font-style="italic" lengthAdjust="spacingAndGlyphs" textLength="58" x="87.75" y="176.1387">«control»</text><text fill="#A80036" font-family="sans-serif" font-size="12" lengthAdjust="spacingAndGlyphs" textLength="91" x="71.25" y="190.1074">UpdateControl</text><line style="stroke: #A80036; stroke-width: 1.5;" x1="7" x2="194" y1="197.9375" y2="197.9375"/><line style="stroke: #A80036; stroke-width: 1.5;" x1="7" x2="194" y1="205.9375" y2="205.9375"/><text fill="#A80036" font-family="sans-serif" font-size="11" lengthAdjust="spacingAndGlyphs" textLength="96" x="12" y="220.1479">// get proposal ()</text><text fill="#A80036" font-family="sans-serif" font-size="11" lengthAdjust="spacingAndGlyphs" textLength="177" x="12" y="232.9526">// change status to approved ()</text><!--class Proposal--><rect fill="#FEFECE" filter="url(#fmhgy6ffwmfo6)" height="79.5469" id="Proposal" style="stroke: #A80036; stroke-width: 1.5;" width="113" x="44" y="300"/><ellipse cx="70.7" cy="318.9688" fill="#ADD1B2" rx="11" ry="11" style="stroke: #A80036; stroke-width: 1.0;"/><path d="M73.6688,324.6094 Q73.0906,324.9063 72.45,325.0469 Q71.8094,325.2031 71.1063,325.2031 Q68.6063,325.2031 67.2781,323.5625 Q65.9656,321.9063 65.9656,318.7813 Q65.9656,315.6563 67.2781,314 Q68.6063,312.3438 71.1063,312.3438 Q71.8094,312.3438 72.45,312.5 Q73.1063,312.6563 73.6688,312.9531 L73.6688,315.6719 Q73.0438,315.0938 72.45,314.8281 Q71.8563,314.5469 71.2313,314.5469 Q69.8875,314.5469 69.2,315.625 Q68.5125,316.6875 68.5125,318.7813 Q68.5125,320.875 69.2,321.9531 Q69.8875,323.0156 71.2313,323.0156 Q71.8563,323.0156 72.45,322.75 Q73.0438,322.4688 73.6688,321.8906 L73.6688,324.6094 Z "/><text fill="#A80036" font-family="sans-serif" font-size="12" font-style="italic" lengthAdjust="spacingAndGlyphs" textLength="50" x="89.8" y="316.1387">«entity»</text><text fill="#A80036" font-family="sans-serif" font-size="12" lengthAdjust="spacingAndGlyphs" textLength="55" x="87.3" y="330.1074">Proposal</text><line style="stroke: #A80036; stroke-width: 1.5;" x1="45" x2="156" y1="337.9375" y2="337.9375"/><line style="stroke: #A80036; stroke-width: 1.5;" x1="45" x2="156" y1="345.9375" y2="345.9375"/><text fill="#A80036" font-family="sans-serif" font-size="11" lengthAdjust="spacingAndGlyphs" textLength="101" x="50" y="360.1479">// change status()</text><text fill="#A80036" font-family="sans-serif" font-size="11" lengthAdjust="spacingAndGlyphs" textLength="92" x="50" y="372.9526">// get proposal()</text><!--link ReviewForm to UpdateControl--><path d="M100.5,100.1953 C100.5,119.2429 100.5,141.1178 100.5,159.5247 " fill="none" id="ReviewForm-UpdateControl" style="stroke: #A80036; stroke-width: 1.0;"/><text fill="#A80036" font-family="sans-serif" font-size="13" lengthAdjust="spacingAndGlyphs" textLength="23" x="75.7391" y="120.4675">0..*</text><text fill="#A80036" font-family="sans-serif" font-size="13" lengthAdjust="spacingAndGlyphs" textLength="8" x="91.8625" y="148.9922">1</text><!--link UpdateControl to Proposal--><path d="M100.5,240.1184 C100.5,258.864 100.5,281.1294 100.5,299.8758 " fill="none" id="UpdateControl-Proposal" style="stroke: #A80036; stroke-width: 1.0;"/><text fill="#A80036" font-family="sans-serif" font-size="13" lengthAdjust="spacingAndGlyphs" textLength="8" x="91.8875" y="259.5217">1</text><text fill="#A80036" font-family="sans-serif" font-size="13" lengthAdjust="spacingAndGlyphs" textLength="8" x="91.8125" y="288.8076">1</text><!--
@startuml
skinparam defaultFontColor #a80036

class ReviewForm <<boundary>> {
   // check proposal ()
   // display proposal ()
   // approve proposal ()
}

class UpdateControl <<control>> {
   // get proposal ()
   // change status to approved ()
}

class Proposal <<entity>> {
   // change status()
   // get proposal()
}

ReviewForm "0..*" - - "1" UpdateControl
UpdateControl "1" - - "1" Proposal

@enduml

PlantUML version 1.2017.15(Mon Jul 03 16:45:34 UTC 2017)
(GPL source distribution)
Java Runtime: OpenJDK Runtime Environment
JVM: OpenJDK 64-Bit Server VM
Java Version: 1.8.0_265-b01
Operating System: Linux
OS Version: 5.4.0-1031-azure
Default Encoding: UTF-8
Language: en
Country: null
--></g></svg>