<?xml version="1.0" encoding="UTF-8" standalone="no"?><svg xmlns="http://www.w3.org/2000/svg" xmlns:xlink="http://www.w3.org/1999/xlink" contentScriptType="application/ecmascript" contentStyleType="text/css" height="675px" preserveAspectRatio="none" style="width:837px;height:675px;" version="1.1" viewBox="0 0 837 675" width="837px" zoomAndPan="magnify"><defs><filter height="300%" id="fnnu4fdtu95wt" width="300%" x="-1" y="-1"><feGaussianBlur result="blurOut" stdDeviation="2.0"/><feColorMatrix in="blurOut" result="blurOut2" type="matrix" values="0 0 0 0 0 0 0 0 0 0 0 0 0 0 0 0 0 0 .4 0"/><feOffset dx="4.0" dy="4.0" in="blurOut2" result="blurOut3"/><feBlend in="SourceGraphic" in2="blurOut3" mode="normal"/></filter></defs><g><!--MD5=[fee662a292a0353a69bd162820bae93b]
entity User--><ellipse cx="58" cy="159.5" fill="#FEFECE" filter="url(#fnnu4fdtu95wt)" rx="8" ry="8" style="stroke: #A80036; stroke-width: 1.5;"/><path d="M58,167.5 L58,194.5 M45,175.5 L71,175.5 M58,194.5 L45,209.5 M58,194.5 L71,209.5 " fill="none" filter="url(#fnnu4fdtu95wt)" style="stroke: #A80036; stroke-width: 1.5;"/><text fill="#000000" font-family="sans-serif" font-size="14" lengthAdjust="spacingAndGlyphs" textLength="32" x="42" y="227.9951">User</text><!--MD5=[f3401c2d09288f830763ccde49063a6d]
entity Contributor--><ellipse cx="575" cy="159.5" fill="#FEFECE" filter="url(#fnnu4fdtu95wt)" rx="8" ry="8" style="stroke: #A80036; stroke-width: 1.5;"/><path d="M575,167.5 L575,194.5 M562,175.5 L588,175.5 M575,194.5 L562,209.5 M575,194.5 L588,209.5 " fill="none" filter="url(#fnnu4fdtu95wt)" style="stroke: #A80036; stroke-width: 1.5;"/><text fill="#000000" font-family="sans-serif" font-size="14" lengthAdjust="spacingAndGlyphs" textLength="78" x="536" y="227.9951">Contributor</text><!--MD5=[b90713b5ddaea180d3429e7b1ef7c0f8]
entity Maintainer--><ellipse cx="561" cy="17.5" fill="#FEFECE" filter="url(#fnnu4fdtu95wt)" rx="8" ry="8" style="stroke: #A80036; stroke-width: 1.5;"/><path d="M561,25.5 L561,52.5 M548,33.5 L574,33.5 M561,52.5 L548,67.5 M561,52.5 L574,67.5 " fill="none" filter="url(#fnnu4fdtu95wt)" style="stroke: #A80036; stroke-width: 1.5;"/><text fill="#000000" font-family="sans-serif" font-size="14" lengthAdjust="spacingAndGlyphs" textLength="71" x="525.5" y="85.9951">Maintainer</text><!--MD5=[a74c9f7ba4e347df35943d93696ec108]
entity IPFS--><ellipse cx="214" cy="451.5" fill="#FEFECE" filter="url(#fnnu4fdtu95wt)" rx="8" ry="8" style="stroke: #A80036; stroke-width: 1.5;"/><path d="M214,459.5 L214,486.5 M201,467.5 L227,467.5 M214,486.5 L201,501.5 M214,486.5 L227,501.5 " fill="none" filter="url(#fnnu4fdtu95wt)" style="stroke: #A80036; stroke-width: 1.5;"/><text fill="#000000" font-family="sans-serif" font-size="14" lengthAdjust="spacingAndGlyphs" textLength="29" x="199.5" y="519.9951">IPFS</text><!--MD5=[fa1e3283224feb76407c84b7e90ed808]
entity Database--><ellipse cx="516" cy="593.5" fill="#FEFECE" filter="url(#fnnu4fdtu95wt)" rx="8" ry="8" style="stroke: #A80036; stroke-width: 1.5;"/><path d="M516,601.5 L516,628.5 M503,609.5 L529,609.5 M516,628.5 L503,643.5 M516,628.5 L529,643.5 " fill="none" filter="url(#fnnu4fdtu95wt)" style="stroke: #A80036; stroke-width: 1.5;"/><text fill="#000000" font-family="sans-serif" font-size="14" lengthAdjust="spacingAndGlyphs" textLength="66" x="483" y="661.9951">Database</text><ellipse cx="125.7904" cy="330.5236" fill="#FEFECE" filter="url(#fnnu4fdtu95wt)" rx="51.7904" ry="14.5236" style="stroke: #A80036; stroke-width: 1.5;"/><text fill="#000000" font-family="sans-serif" font-size="14" lengthAdjust="spacingAndGlyphs" textLength="69" x="91.2904" y="335.1721">Download</text><ellipse cx="37.9914" cy="397.5236" fill="#FEFECE" filter="url(#fnnu4fdtu95wt)" rx="31.9914" ry="14.5236" style="stroke: #A80036; stroke-width: 1.5;"/><text fill="#000000" font-family="sans-serif" font-size="14" lengthAdjust="spacingAndGlyphs" textLength="41" x="17.4914" y="402.1721">Query</text><ellipse cx="568.0122" cy="397.5236" fill="#FEFECE" filter="url(#fnnu4fdtu95wt)" rx="44.0122" ry="14.5236" style="stroke: #A80036; stroke-width: 1.5;"/><text fill="#000000" font-family="sans-serif" font-size="14" lengthAdjust="spacingAndGlyphs" textLength="58" x="539.0122" y="402.1721">Register</text><ellipse cx="598.163" cy="482.5236" fill="#FEFECE" filter="url(#fnnu4fdtu95wt)" rx="29.163" ry="14.5236" style="stroke: #A80036; stroke-width: 1.5;"/><text fill="#000000" font-family="sans-serif" font-size="14" lengthAdjust="spacingAndGlyphs" textLength="37" x="579.663" y="487.1721">Login</text><ellipse cx="729.211" cy="330.4422" fill="#FEFECE" filter="url(#fnnu4fdtu95wt)" rx="97.711" ry="21.9422" style="stroke: #A80036; stroke-width: 1.5;"/><text fill="#000000" font-family="sans-serif" font-size="14" lengthAdjust="spacingAndGlyphs" textLength="171" x="643.711" y="335.0906">Vote for New Maintainers</text><ellipse cx="425.0203" cy="330.3041" fill="#FEFECE" filter="url(#fnnu4fdtu95wt)" rx="99.5203" ry="22.3041" style="stroke: #A80036; stroke-width: 1.5;"/><text fill="#000000" font-family="sans-serif" font-size="14" lengthAdjust="spacingAndGlyphs" textLength="175" x="337.5203" y="334.9525">Propose Package Update</text><ellipse cx="366.2229" cy="482.5446" fill="#FEFECE" filter="url(#fnnu4fdtu95wt)" rx="93.2229" ry="21.0446" style="stroke: #A80036; stroke-width: 1.5;"/><text fill="#000000" font-family="sans-serif" font-size="14" lengthAdjust="spacingAndGlyphs" textLength="161" x="285.7229" y="487.193">Check against Conflicts</text><ellipse cx="425.1576" cy="190.4315" fill="#FEFECE" filter="url(#fnnu4fdtu95wt)" rx="72.6576" ry="16.9315" style="stroke: #A80036; stroke-width: 1.5;"/><text fill="#000000" font-family="sans-serif" font-size="14" lengthAdjust="spacingAndGlyphs" textLength="113" x="368.6576" y="195.0799">Review Proposal</text><ellipse cx="251.8553" cy="330.5236" fill="#FEFECE" filter="url(#fnnu4fdtu95wt)" rx="38.3553" ry="14.5236" style="stroke: #A80036; stroke-width: 1.5;"/><text fill="#000000" font-family="sans-serif" font-size="14" lengthAdjust="spacingAndGlyphs" textLength="50" x="226.8553" y="335.1721">Update</text><!--MD5=[fe4d1e544d1f5aae5d4d05c630db20d2]
link User to Download--><path d="M74.12,224.2 C87.48,251.32 106,288.9 116.91,311.06 " fill="none" id="User-&gt;Download" style="stroke: #A80036; stroke-width: 1.0;"/><polygon fill="#A80036" points="119.26,315.81,118.8631,305.9691,117.0468,311.3265,111.6895,309.5103,119.26,315.81" style="stroke: #A80036; stroke-width: 1.0;"/><!--MD5=[5128ad341e1f5658b79b0c894c7a6c43]
link Download to IPFS--><path d="M133.96,345.08 C148.08,369.13 177.78,419.76 196.76,452.11 " fill="none" id="Download-&gt;IPFS" style="stroke: #A80036; stroke-width: 1.0;"/><polygon fill="#A80036" points="199.48,456.75,198.3801,446.9627,196.9518,452.4363,191.4782,451.0079,199.48,456.75" style="stroke: #A80036; stroke-width: 1.0;"/><!--MD5=[ed3a9acfa5b2fcf1ba972f6d55686688]
link User to Query--><path d="M54.14,231.03 C49.83,275.2 43.04,344.86 39.81,377.91 " fill="none" id="User-&gt;Query" style="stroke: #A80036; stroke-width: 1.0;"/><polygon fill="#A80036" points="39.33,382.89,44.1838,374.3203,39.8148,377.9136,36.2215,373.5446,39.33,382.89" style="stroke: #A80036; stroke-width: 1.0;"/><!--MD5=[c412ae0b98e24140cd1be0a7e2e34b30]
link Query to Database--><path d="M49.36,411.44 C72.09,436.54 125.81,492.12 182,523 C283.89,579 420.82,607.53 482.92,618.3 " fill="none" id="Query-Database" style="stroke: #A80036; stroke-width: 1.0;"/><!--MD5=[6d660fad456c420e2c6aa0727d070b09]
link Contributor to Register--><path d="M573.65,231.03 C572.15,275.02 569.78,344.29 568.65,377.5 " fill="none" id="Contributor-&gt;Register" style="stroke: #A80036; stroke-width: 1.0;"/><polygon fill="#A80036" points="568.46,382.89,572.7669,374.0328,568.6318,377.893,564.7716,373.7579,568.46,382.89" style="stroke: #A80036; stroke-width: 1.0;"/><!--MD5=[d25a51d98ea9c50230c9ef23c5563995]
link Register to Database--><path d="M562.4,412.03 C559.04,420.53 554.88,431.77 552,442 C538.48,490.09 528.1,546.72 522.04,583.78 " fill="none" id="Register-Database" style="stroke: #A80036; stroke-width: 1.0;"/><!--MD5=[5cef848000ed1a6021cb90ef380a2a0c]
link Contributor to Propose--><path d="M535.98,227.4 C509.56,251.71 475.33,283.2 451.91,304.74 " fill="none" id="Contributor-&gt;Propose" style="stroke: #A80036; stroke-width: 1.0;"/><polygon fill="#A80036" points="447.96,308.38,457.294,305.2373,451.6422,304.9975,451.882,299.3457,447.96,308.38" style="stroke: #A80036; stroke-width: 1.0;"/><!--MD5=[154e7e4c74084e0a6421e695aa485c21]
link Propose to Login--><path d="M425.05,353.28 C426.19,370.93 430.39,395.49 444,412 C475.03,449.65 530.74,467.71 565.97,475.75 " fill="none" id="Propose-&gt;Login" style="stroke: #A80036; stroke-width: 1.0; stroke-dasharray: 7.0,7.0;"/><polygon fill="#A80036" points="571.01,476.86,563.0957,470.998,566.1297,475.7723,561.3554,478.8064,571.01,476.86" style="stroke: #A80036; stroke-width: 1.0;"/><text fill="#000000" font-family="sans-serif" font-size="13" lengthAdjust="spacingAndGlyphs" textLength="61" x="445" y="402.0669">«include»</text><!--MD5=[1f9418f5da9ba6df1fd8b1982b48bfc5]
link Propose to Check--><path d="M382.01,350.98 C369.38,358.99 357.06,369.58 350,383 C337.9,405.99 345.47,435.85 353.81,456.64 " fill="none" id="Propose-&gt;Check" style="stroke: #A80036; stroke-width: 1.0; stroke-dasharray: 7.0,7.0;"/><polygon fill="#A80036" points="355.82,461.46,356.04,451.6136,353.8919,456.8467,348.6587,454.6986,355.82,461.46" style="stroke: #A80036; stroke-width: 1.0;"/><text fill="#000000" font-family="sans-serif" font-size="13" lengthAdjust="spacingAndGlyphs" textLength="61" x="351" y="402.0669">«include»</text><!--MD5=[8f2fb4e962bc34e9b94d529a62651e55]
link Check to Database--><path d="M386.86,502.97 C411.73,526.18 453.62,565.28 482.93,592.63 " fill="none" id="Check-Database" style="stroke: #A80036; stroke-width: 1.0;"/><!--MD5=[994034b9d75866a4c1b611139ff47f41]
link Maintainer to Review--><path d="M525.27,86.28 C499.23,113.09 464.97,148.35 443.99,169.95 " fill="none" id="Maintainer-&gt;Review" style="stroke: #A80036; stroke-width: 1.0;"/><polygon fill="#A80036" points="440.49,173.56,449.6315,169.8948,443.9752,169.9748,443.8952,164.3185,440.49,173.56" style="stroke: #A80036; stroke-width: 1.0;"/><!--MD5=[34ee757fb2ac79744404717ec9f9a281]
link Review to Propose--><path d="M425,207.6 C425,232.34 425,279.77 425,307.61 " fill="none" id="Review-Propose" style="stroke: #A80036; stroke-width: 1.0;"/><!--MD5=[833a3866034953f76d405943b3e833be]
link Review to Update--><path d="M405.49,207.06 C372.34,233.51 305.36,286.93 271.93,313.6 " fill="none" id="Review-&gt;Update" style="stroke: #A80036; stroke-width: 1.0; stroke-dasharray: 7.0,7.0;"/><polygon fill="#A80036" points="267.63,317.03,277.1633,314.5567,271.5427,313.917,272.1824,308.2964,267.63,317.03" style="stroke: #A80036; stroke-width: 1.0;"/><text fill="#000000" font-family="sans-serif" font-size="13" lengthAdjust="spacingAndGlyphs" textLength="60" x="334" y="274.0669">«extend»</text><!--MD5=[490bc960ec86520a13bfc100bb1ec4ab]
link Update to IPFS--><path d="M248.56,345.08 C243.08,366.71 232.16,409.83 224.05,441.83 " fill="none" id="Update-IPFS" style="stroke: #A80036; stroke-width: 1.0;"/><!--MD5=[732dd9bf00ccbe52a5beba9c2152f385]
link Maintainer to Vote--><path d="M590.8,89.34 C603.95,107.5 619.27,129.49 632,150 C665.06,203.29 698.79,268.73 716.45,304.02 " fill="none" id="Maintainer-&gt;Vote" style="stroke: #A80036; stroke-width: 1.0;"/><polygon fill="#A80036" points="718.73,308.59,718.2702,298.7519,716.4882,304.1207,711.1194,302.3387,718.73,308.59" style="stroke: #A80036; stroke-width: 1.0;"/><!--MD5=[a836fded0c80e4c409f211f3dc43a4b0]
link Vote to Database--><path d="M727.94,352.62 C726.56,369.22 723.37,392.69 716,412 C695.12,466.71 684.44,479.71 645,523 C616.22,554.58 576.7,583.76 549.01,602.45 " fill="none" id="Vote-Database" style="stroke: #A80036; stroke-width: 1.0;"/><!--MD5=[13a77bd23520ac5923e9e69896e3dc80]
link Vote to Login--><path d="M690.52,350.73 C676.23,359.2 660.67,370.17 649,383 C627.16,407 611.98,442.08 604.15,463.25 " fill="none" id="Vote-&gt;Login" style="stroke: #A80036; stroke-width: 1.0; stroke-dasharray: 7.0,7.0;"/><polygon fill="#A80036" points="602.41,468.06,609.2327,460.9572,604.1107,463.3581,601.7097,458.2361,602.41,468.06" style="stroke: #A80036; stroke-width: 1.0;"/><text fill="#000000" font-family="sans-serif" font-size="13" lengthAdjust="spacingAndGlyphs" textLength="61" x="650" y="402.0669">«include»</text><!--MD5=[90f0eec871badf24b26e64e95f40d1fb]
link Login to Database--><path d="M590.29,496.67 C578.72,516.41 556.43,554.48 539.27,583.78 " fill="none" id="Login-Database" style="stroke: #A80036; stroke-width: 1.0;"/><!--MD5=[abbff135535563393e4571ccc3147e0e]
@startuml
actor User
actor Contributor
actor Maintainer
actor IPFS
actor Database

usecase Download
usecase Query

usecase Register
usecase Login
usecase "Vote for New Maintainers" as Vote

usecase "Propose Package Update" as Propose
usecase "Check against Conflicts" as Check
usecase "Review Proposal" as Review
usecase Update

User - -> Download
Download - -> IPFS

User - -> Query
Query - - Database

Contributor - -> Register
Register - - Database

Contributor - -> Propose
Propose ..> Login : <<include>>
Propose ..> Check : <<include>>
Check - - Database

Maintainer - -> Review
Review - - Propose
Review ..> Update : <<extend>>
Update - - IPFS

Maintainer - -> Vote
Vote - - Database
Vote ..> Login : <<include>>
Login - - Database

@enduml

PlantUML version 1.2020.02(Sun Mar 01 17:22:07 ICT 2020)
(GPL source distribution)
Java Runtime: OpenJDK Runtime Environment
JVM: OpenJDK 64-Bit Server VM
Java Version: 11.0.8+10-post-Debian-1
Operating System: Linux
Default Encoding: UTF-8
Language: en
Country: DK
--></g></svg>