<?xml version="1.0" encoding="UTF-8" standalone="no"?><svg xmlns="http://www.w3.org/2000/svg" xmlns:xlink="http://www.w3.org/1999/xlink" contentScriptType="application/ecmascript" contentStyleType="text/css" height="592px" preserveAspectRatio="none" style="width:870px;height:592px;" version="1.1" viewBox="0 0 870 592" width="870px" zoomAndPan="magnify"><defs><filter height="300%" id="f1o9s2io4b6fxl" width="300%" x="-1" y="-1"><feGaussianBlur result="blurOut" stdDeviation="2.0"/><feColorMatrix in="blurOut" result="blurOut2" type="matrix" values="0 0 0 0 0 0 0 0 0 0 0 0 0 0 0 0 0 0 .4 0"/><feOffset dx="4.0" dy="4.0" in="blurOut2" result="blurOut3"/><feBlend in="SourceGraphic" in2="blurOut3" mode="normal"/></filter></defs><g><!--entity User--><ellipse cx="45" cy="18.5" fill="#FEFECE" filter="url(#f1o9s2io4b6fxl)" rx="8" ry="8" style="stroke: #A80036; stroke-width: 2.0;"/><path d="M45,26.5 L45,53.5 M32,34.5 L58,34.5 M45,53.5 L32,68.5 M45,53.5 L58,68.5 " fill="#FEFECE" filter="url(#f1o9s2io4b6fxl)" style="stroke: #A80036; stroke-width: 2.0;"/><text fill="#A80036" font-family="sans-serif" font-size="14" lengthAdjust="spacingAndGlyphs" textLength="64" x="13" y="88.4951">End-User</text><!--entity Contributor--><ellipse cx="45" cy="403.5" fill="#FEFECE" filter="url(#f1o9s2io4b6fxl)" rx="8" ry="8" style="stroke: #A80036; stroke-width: 2.0;"/><path d="M45,411.5 L45,438.5 M32,419.5 L58,419.5 M45,438.5 L32,453.5 M45,438.5 L58,453.5 " fill="#FEFECE" filter="url(#f1o9s2io4b6fxl)" style="stroke: #A80036; stroke-width: 2.0;"/><text fill="#A80036" font-family="sans-serif" font-size="14" lengthAdjust="spacingAndGlyphs" textLength="78" x="6" y="473.4951">Contributor</text><!--entity Maintainer--><ellipse cx="560" cy="351.5" fill="#FEFECE" filter="url(#f1o9s2io4b6fxl)" rx="8" ry="8" style="stroke: #A80036; stroke-width: 2.0;"/><path d="M560,359.5 L560,386.5 M547,367.5 L573,367.5 M560,386.5 L547,401.5 M560,386.5 L573,401.5 " fill="#FEFECE" filter="url(#f1o9s2io4b6fxl)" style="stroke: #A80036; stroke-width: 2.0;"/><text fill="#A80036" font-family="sans-serif" font-size="14" lengthAdjust="spacingAndGlyphs" textLength="71" x="524.5" y="421.4951">Maintainer</text><!--entity IPFS--><ellipse cx="560" cy="68.5" fill="#FEFECE" filter="url(#f1o9s2io4b6fxl)" rx="8" ry="8" style="stroke: #A80036; stroke-width: 2.0;"/><path d="M560,76.5 L560,103.5 M547,84.5 L573,84.5 M560,103.5 L547,118.5 M560,103.5 L573,118.5 " fill="#FEFECE" filter="url(#f1o9s2io4b6fxl)" style="stroke: #A80036; stroke-width: 2.0;"/><text fill="#A80036" font-family="sans-serif" font-size="14" lengthAdjust="spacingAndGlyphs" textLength="158" x="481" y="138.4951">Distributed File System</text><ellipse cx="244.4934" cy="100.1987" fill="#FEFECE" filter="url(#f1o9s2io4b6fxl)" rx="83.9934" ry="19.1987" style="stroke: #A80036; stroke-width: 1.5;"/><text fill="#A80036" font-family="sans-serif" font-size="14" lengthAdjust="spacingAndGlyphs" textLength="140" x="174.4934" y="104.8471">Download Packages</text><ellipse cx="244.2526" cy="28.8505" fill="#FEFECE" filter="url(#f1o9s2io4b6fxl)" rx="72.2526" ry="16.8505" style="stroke: #A80036; stroke-width: 1.5;"/><text fill="#A80036" font-family="sans-serif" font-size="14" lengthAdjust="spacingAndGlyphs" textLength="112" x="188.2526" y="33.499">Query Packages</text><ellipse cx="244.5122" cy="435.0236" fill="#FEFECE" filter="url(#f1o9s2io4b6fxl)" rx="44.0122" ry="14.5236" style="stroke: #A80036; stroke-width: 1.5;"/><text fill="#A80036" font-family="sans-serif" font-size="14" lengthAdjust="spacingAndGlyphs" textLength="58" x="215.5122" y="439.6721">Register</text><ellipse cx="244.663" cy="499.0236" fill="#FEFECE" filter="url(#f1o9s2io4b6fxl)" rx="29.163" ry="14.5236" style="stroke: #A80036; stroke-width: 1.5;"/><text fill="#A80036" font-family="sans-serif" font-size="14" lengthAdjust="spacingAndGlyphs" textLength="37" x="226.163" y="503.6721">Login</text><ellipse cx="244.2758" cy="565.0552" fill="#FEFECE" filter="url(#f1o9s2io4b6fxl)" rx="68.2758" ry="16.0552" style="stroke: #A80036; stroke-width: 1.5;"/><text fill="#A80036" font-family="sans-serif" font-size="14" lengthAdjust="spacingAndGlyphs" textLength="102" x="193.2758" y="569.7036">Change Status</text><ellipse cx="244.5203" cy="290.8041" fill="#FEFECE" filter="url(#f1o9s2io4b6fxl)" rx="99.5203" ry="22.3041" style="stroke: #A80036; stroke-width: 1.5;"/><text fill="#A80036" font-family="sans-serif" font-size="14" lengthAdjust="spacingAndGlyphs" textLength="175" x="157.0203" y="295.4525">Propose Package Update</text><ellipse cx="560.2229" cy="285.0446" fill="#FEFECE" filter="url(#f1o9s2io4b6fxl)" rx="93.2229" ry="21.0446" style="stroke: #A80036; stroke-width: 1.5;"/><text fill="#A80036" font-family="sans-serif" font-size="14" lengthAdjust="spacingAndGlyphs" textLength="161" x="479.7229" y="289.693">Check against Conflicts</text><ellipse cx="786.6576" cy="288.9315" fill="#FEFECE" filter="url(#f1o9s2io4b6fxl)" rx="72.6576" ry="16.9315" style="stroke: #A80036; stroke-width: 1.5;"/><text fill="#A80036" font-family="sans-serif" font-size="14" lengthAdjust="spacingAndGlyphs" textLength="113" x="730.1576" y="293.5799">Review Proposal</text><ellipse cx="244.4395" cy="194.0879" fill="#FEFECE" filter="url(#f1o9s2io4b6fxl)" rx="75.9395" ry="17.5879" style="stroke: #A80036; stroke-width: 1.5;"/><text fill="#A80036" font-family="sans-serif" font-size="14" lengthAdjust="spacingAndGlyphs" textLength="121" x="183.9395" y="198.7363">Update Packages</text><!--link User to Query--><path d="M77.0531,46.626 C102.8773,43.9077 140.1631,39.9828 172.9983,36.5265 " fill="none" id="User-Query" style="stroke: #A80036; stroke-width: 1.0;"/><polygon fill="#A80036" points="178.2275,35.9761,168.8581,32.9405,173.255,36.4997,169.6958,40.8965,178.2275,35.9761" style="stroke: #A80036; stroke-width: 1.0;"/><!--link User to Download--><path d="M77.0531,58.0334 C105.5031,65.1637 147.8641,75.7805 182.8596,84.5513 " fill="none" id="User-Download" style="stroke: #A80036; stroke-width: 1.0;"/><polygon fill="#A80036" points="187.9669,85.8313,180.2094,79.7633,183.1169,84.6157,178.2645,87.5233,187.9669,85.8313" style="stroke: #A80036; stroke-width: 1.0;"/><!--link Download to IPFS--><path d="M328.6338,100 C374.158,100 430.2263,100 475.766,100 " fill="none" id="Download-IPFS" style="stroke: #A80036; stroke-width: 1.0;"/><polygon fill="#A80036" points="480.9831,100,471.9831,96,475.9831,100,471.9831,104,480.9831,100" style="stroke: #A80036; stroke-width: 1.0;"/><!--link Contributor to Register--><path d="M84.4148,435 C116.1047,435 160.8085,435 194.9248,435 " fill="none" id="Contributor-Register" style="stroke: #A80036; stroke-width: 1.0;"/><polygon fill="#A80036" points="200.3057,435,191.3057,431,195.3057,435,191.3057,439,200.3057,435" style="stroke: #A80036; stroke-width: 1.0;"/><!--link Contributor to Login--><path d="M84.4148,447.6443 C122.8373,459.9704 180.3908,478.4336 215.009,489.5392 " fill="none" id="Contributor-Login" style="stroke: #A80036; stroke-width: 1.0;"/><polygon fill="#A80036" points="219.9452,491.1228,212.5974,484.5646,215.1842,489.5954,210.1535,492.1822,219.9452,491.1228" style="stroke: #A80036; stroke-width: 1.0;"/><!--link Contributor to Propose--><path d="M68.2018,393.241 C79.9623,375.1702 95.652,354.9986 114,341 C131.5898,327.5799 153.2067,317.3763 173.75,309.8004 " fill="none" id="Contributor-Propose" style="stroke: #A80036; stroke-width: 1.0;"/><polygon fill="#A80036" points="178.6674,308.0288,168.8443,307.3163,173.9634,309.7237,171.5561,314.8427,178.6674,308.0288" style="stroke: #A80036; stroke-width: 1.0;"/><!--link Propose to Check--><path d="M342.9449,294.5074 C373.1301,295.0518 406.4373,295.1167 437,294 C446.8376,293.6406 457.1089,293.1199 467.3409,292.5076 " fill="none" id="Propose-Check" style="stroke: #A80036; stroke-width: 1.0; stroke-dasharray: 7.0,7.0;"/><polygon fill="#A80036" points="472.3586,292.2,463.1307,288.7583,467.368,292.506,463.6203,296.7433,472.3586,292.2" style="stroke: #A80036; stroke-width: 1.0;"/><text fill="#A80036" font-family="sans-serif" font-size="13" lengthAdjust="spacingAndGlyphs" textLength="61" x="375" y="290.0669">«include»</text><!--link Contributor to Change--><path d="M80.6196,476.6995 C98.391,495.404 121.1584,516.4765 145,531 C159.4111,539.7788 176.388,546.6507 192.1987,551.8484 " fill="none" id="Contributor-Change" style="stroke: #A80036; stroke-width: 1.0;"/><polygon fill="#A80036" points="197.0639,553.408,189.7146,546.8514,192.3026,551.8816,187.2724,554.4695,197.0639,553.408" style="stroke: #A80036; stroke-width: 1.0;"/><!--link Change to Maintainer--><path d="M288.6401,552.7554 C306.2943,547.1355 326.5411,539.7588 344,531 C411.855,496.9584 483.0998,444.3487 524.4358,411.883 " fill="none" id="Change-Maintainer" style="stroke: #A80036; stroke-width: 1.0;"/><!--link Maintainer to Contributor--><path d="M524.3281,383.0052 C452.3423,383.3931 284.6519,386.2076 145,403 C131.0669,404.6754 127.5032,405.1788 114,409 C110.4587,410.0021 106.8425,411.1071 103.213,412.2792 " fill="none" id="Maintainer-Contributor" style="stroke: #A80036; stroke-width: 1.0;"/><polygon fill="none" points="105.2133,418.9952,84.0237,418.9843,100.5952,405.7788,105.2133,418.9952" style="stroke: #A80036; stroke-width: 1.0;"/><!--link Maintainer to Review--><path d="M595.6398,368.2091 C636.4255,351.2826 703.0875,323.6171 745.8586,305.8666 " fill="none" id="Maintainer-Review" style="stroke: #A80036; stroke-width: 1.0;"/><polygon fill="#A80036" points="750.6944,303.8597,740.8486,303.615,746.0763,305.7763,743.9151,311.004,750.6944,303.8597" style="stroke: #A80036; stroke-width: 1.0;"/><!--link Update to Review--><path d="M317.1742,199.2509 C399.4321,206.1565 537.0688,220.6279 653,247 C683.0959,253.8462 716.1954,264.2397 741.9072,272.9743 " fill="none" id="Update-Review" style="stroke: #A80036; stroke-width: 1.0; stroke-dasharray: 7.0,7.0;"/><polygon fill="#A80036" points="746.9479,274.6976,739.7259,268.0011,742.2168,273.08,737.1378,275.5709,746.9479,274.6976" style="stroke: #A80036; stroke-width: 1.0;"/><text fill="#A80036" font-family="sans-serif" font-size="13" lengthAdjust="spacingAndGlyphs" textLength="60" x="530" y="211.0669">«extend»</text><!--link Update to Check--><path d="M286.264,208.6697 C311.5263,217.3423 344.4594,228.2948 374,237 C412.4174,248.321 455.7234,259.5837 490.8768,268.3513 " fill="none" id="Update-Check" style="stroke: #A80036; stroke-width: 1.0; stroke-dasharray: 7.0,7.0;"/><polygon fill="#A80036" points="496.0027,269.6265,488.2347,263.5719,491.1506,268.4193,486.3032,271.3353,496.0027,269.6265" style="stroke: #A80036; stroke-width: 1.0;"/><text fill="#A80036" font-family="sans-serif" font-size="13" lengthAdjust="spacingAndGlyphs" textLength="61" x="375" y="233.0669">«include»</text><!--link Update to IPFS--><path d="M291.0531,180.13 C339.5693,165.6751 416.6366,142.7137 475.8609,125.0684 " fill="none" id="Update-IPFS" style="stroke: #A80036; stroke-width: 1.0;"/><polygon fill="#A80036" points="480.8123,123.5932,471.0448,122.3297,476.0205,125.0209,473.3292,129.9966,480.8123,123.5932" style="stroke: #A80036; stroke-width: 1.0;"/><!--
@startuml
skinparam defaultFontColor #a80036
left to right direction

actor "End-User" as User
actor Contributor
actor Maintainer
actor "Distributed File System" as IPFS

usecase "Download Packages" as Download
usecase "Query Packages" as Query

usecase Register
usecase Login
usecase "Change Status" as Change

usecase "Propose Package Update" as Propose
usecase "Check against Conflicts" as Check
usecase "Review Proposal" as Review
usecase "Update Packages" as Update

User - -> Query
User - -> Download
Download - -> IPFS

Contributor - -> Register
Contributor - -> Login

Contributor - -> Propose
Propose ..> Check : <<include>>

Contributor - -> Change
Change - - Maintainer

Maintainer - -|> Contributor
Maintainer - -> Review

Update ..> Review : <<extend>>
Update ..> Check : <<include>>
Update - -> IPFS

@enduml

PlantUML version 1.2017.15(Mon Jul 03 16:45:34 UTC 2017)
(GPL source distribution)
Java Runtime: OpenJDK Runtime Environment
JVM: OpenJDK 64-Bit Server VM
Java Version: 1.8.0_265-b01
Operating System: Linux
OS Version: 5.4.0-1026-azure
Default Encoding: UTF-8
Language: en
Country: null
--></g></svg>