<?xml version="1.0" encoding="UTF-8" standalone="no"?><svg xmlns="http://www.w3.org/2000/svg" xmlns:xlink="http://www.w3.org/1999/xlink" contentScriptType="application/ecmascript" contentStyleType="text/css" height="592px" preserveAspectRatio="none" style="width:876px;height:592px;" version="1.1" viewBox="0 0 876 592" width="876px" zoomAndPan="magnify"><defs><filter height="300%" id="f5wiyoeui0z7n" width="300%" x="-1" y="-1"><feGaussianBlur result="blurOut" stdDeviation="2.0"/><feColorMatrix in="blurOut" result="blurOut2" type="matrix" values="0 0 0 0 0 0 0 0 0 0 0 0 0 0 0 0 0 0 .4 0"/><feOffset dx="4.0" dy="4.0" in="blurOut2" result="blurOut3"/><feBlend in="SourceGraphic" in2="blurOut3" mode="normal"/></filter></defs><g><!--MD5=[fee662a292a0353a69bd162820bae93b]
entity User--><ellipse cx="45" cy="14" fill="#FEFECE" filter="url(#f5wiyoeui0z7n)" rx="8" ry="8" style="stroke: #A80036; stroke-width: 1.5;"/><path d="M45,22 L45,49 M32,30 L58,30 M45,49 L32,64 M45,49 L58,64 " fill="none" filter="url(#f5wiyoeui0z7n)" style="stroke: #A80036; stroke-width: 1.5;"/><text fill="#000000" font-family="sans-serif" font-size="14" lengthAdjust="spacingAndGlyphs" textLength="64" x="13" y="82.4951">End-User</text><!--MD5=[f3401c2d09288f830763ccde49063a6d]
entity Contributor--><ellipse cx="45" cy="398" fill="#FEFECE" filter="url(#f5wiyoeui0z7n)" rx="8" ry="8" style="stroke: #A80036; stroke-width: 1.5;"/><path d="M45,406 L45,433 M32,414 L58,414 M45,433 L32,448 M45,433 L58,448 " fill="none" filter="url(#f5wiyoeui0z7n)" style="stroke: #A80036; stroke-width: 1.5;"/><text fill="#000000" font-family="sans-serif" font-size="14" lengthAdjust="spacingAndGlyphs" textLength="78" x="6" y="466.4951">Contributor</text><!--MD5=[b90713b5ddaea180d3429e7b1ef7c0f8]
entity Maintainer--><ellipse cx="560" cy="345" fill="#FEFECE" filter="url(#f5wiyoeui0z7n)" rx="8" ry="8" style="stroke: #A80036; stroke-width: 1.5;"/><path d="M560,353 L560,380 M547,361 L573,361 M560,380 L547,395 M560,380 L573,395 " fill="none" filter="url(#f5wiyoeui0z7n)" style="stroke: #A80036; stroke-width: 1.5;"/><text fill="#000000" font-family="sans-serif" font-size="14" lengthAdjust="spacingAndGlyphs" textLength="71" x="524.5" y="413.4951">Maintainer</text><!--MD5=[a74c9f7ba4e347df35943d93696ec108]
entity IPFS--><ellipse cx="560" cy="64" fill="#FEFECE" filter="url(#f5wiyoeui0z7n)" rx="8" ry="8" style="stroke: #A80036; stroke-width: 1.5;"/><path d="M560,72 L560,99 M547,80 L573,80 M560,99 L547,114 M560,99 L573,114 " fill="none" filter="url(#f5wiyoeui0z7n)" style="stroke: #A80036; stroke-width: 1.5;"/><text fill="#000000" font-family="sans-serif" font-size="14" lengthAdjust="spacingAndGlyphs" textLength="158" x="481" y="132.4951">Distributed File System</text><ellipse cx="244.4934" cy="95.1987" fill="#FEFECE" filter="url(#f5wiyoeui0z7n)" rx="83.9934" ry="19.1987" style="stroke: #A80036; stroke-width: 1.5;"/><text fill="#000000" font-family="sans-serif" font-size="14" lengthAdjust="spacingAndGlyphs" textLength="140" x="174.4934" y="99.8471">Download Packages</text><ellipse cx="244.2526" cy="23.8505" fill="#FEFECE" filter="url(#f5wiyoeui0z7n)" rx="72.2526" ry="16.8505" style="stroke: #A80036; stroke-width: 1.5;"/><text fill="#000000" font-family="sans-serif" font-size="14" lengthAdjust="spacingAndGlyphs" textLength="112" x="188.2526" y="28.499">Query Packages</text><ellipse cx="244.5122" cy="429.0236" fill="#FEFECE" filter="url(#f5wiyoeui0z7n)" rx="44.0122" ry="14.5236" style="stroke: #A80036; stroke-width: 1.5;"/><text fill="#000000" font-family="sans-serif" font-size="14" lengthAdjust="spacingAndGlyphs" textLength="58" x="215.5122" y="433.6721">Register</text><ellipse cx="244.663" cy="493.0236" fill="#FEFECE" filter="url(#f5wiyoeui0z7n)" rx="29.163" ry="14.5236" style="stroke: #A80036; stroke-width: 1.5;"/><text fill="#000000" font-family="sans-serif" font-size="14" lengthAdjust="spacingAndGlyphs" textLength="37" x="226.163" y="497.6721">Login</text><ellipse cx="244.2758" cy="559.0552" fill="#FEFECE" filter="url(#f5wiyoeui0z7n)" rx="68.2758" ry="16.0552" style="stroke: #A80036; stroke-width: 1.5;"/><text fill="#000000" font-family="sans-serif" font-size="14" lengthAdjust="spacingAndGlyphs" textLength="102" x="193.2758" y="563.7036">Change Status</text><ellipse cx="244.5203" cy="284.8041" fill="#FEFECE" filter="url(#f5wiyoeui0z7n)" rx="99.5203" ry="22.3041" style="stroke: #A80036; stroke-width: 1.5;"/><text fill="#000000" font-family="sans-serif" font-size="14" lengthAdjust="spacingAndGlyphs" textLength="175" x="157.0203" y="289.4525">Propose Package Update</text><ellipse cx="560.2229" cy="279.0446" fill="#FEFECE" filter="url(#f5wiyoeui0z7n)" rx="93.2229" ry="21.0446" style="stroke: #A80036; stroke-width: 1.5;"/><text fill="#000000" font-family="sans-serif" font-size="14" lengthAdjust="spacingAndGlyphs" textLength="161" x="479.7229" y="283.693">Check against Conflicts</text><ellipse cx="786.6576" cy="281.9315" fill="#FEFECE" filter="url(#f5wiyoeui0z7n)" rx="72.6576" ry="16.9315" style="stroke: #A80036; stroke-width: 1.5;"/><text fill="#000000" font-family="sans-serif" font-size="14" lengthAdjust="spacingAndGlyphs" textLength="113" x="730.1576" y="286.5799">Review Proposal</text><ellipse cx="244.4395" cy="188.0879" fill="#FEFECE" filter="url(#f5wiyoeui0z7n)" rx="75.9395" ry="17.5879" style="stroke: #A80036; stroke-width: 1.5;"/><text fill="#000000" font-family="sans-serif" font-size="14" lengthAdjust="spacingAndGlyphs" textLength="121" x="183.9395" y="192.7363">Update Packages</text><!--MD5=[ed3a9acfa5b2fcf1ba972f6d55686688]
link User to Query--><path d="M77.0531,41.626 C102.8773,38.9077 140.1631,34.9828 172.9983,31.5265 " fill="none" id="User-to-Query" style="stroke: #A80036; stroke-width: 1.0;"/><polygon fill="#A80036" points="178.2275,30.9761,168.8581,27.9405,173.255,31.4997,169.6958,35.8965,178.2275,30.9761" style="stroke: #A80036; stroke-width: 1.0;"/><!--MD5=[fe4d1e544d1f5aae5d4d05c630db20d2]
link User to Download--><path d="M77.0531,53.0334 C105.5031,60.1637 147.8641,70.7805 182.8596,79.5513 " fill="none" id="User-to-Download" style="stroke: #A80036; stroke-width: 1.0;"/><polygon fill="#A80036" points="187.9669,80.8313,180.2094,74.7633,183.1169,79.6157,178.2645,82.5233,187.9669,80.8313" style="stroke: #A80036; stroke-width: 1.0;"/><!--MD5=[5128ad341e1f5658b79b0c894c7a6c43]
link Download to IPFS--><path d="M328.6338,95 C374.158,95 430.2263,95 475.766,95 " fill="none" id="Download-to-IPFS" style="stroke: #A80036; stroke-width: 1.0;"/><polygon fill="#A80036" points="480.9831,95,471.9831,91,475.9831,95,471.9831,99,480.9831,95" style="stroke: #A80036; stroke-width: 1.0;"/><!--MD5=[6d660fad456c420e2c6aa0727d070b09]
link Contributor to Register--><path d="M84.4148,429 C116.1047,429 160.8085,429 194.9248,429 " fill="none" id="Contributor-to-Register" style="stroke: #A80036; stroke-width: 1.0;"/><polygon fill="#A80036" points="200.3057,429,191.3057,425,195.3057,429,191.3057,433,200.3057,429" style="stroke: #A80036; stroke-width: 1.0;"/><!--MD5=[29762dd70119dfdb1ce2f55488840e77]
link Contributor to Login--><path d="M84.4148,441.6443 C122.8373,453.9704 180.3908,472.4336 215.009,483.5392 " fill="none" id="Contributor-to-Login" style="stroke: #A80036; stroke-width: 1.0;"/><polygon fill="#A80036" points="219.9452,485.1228,212.5974,478.5646,215.1842,483.5954,210.1535,486.1822,219.9452,485.1228" style="stroke: #A80036; stroke-width: 1.0;"/><!--MD5=[5cef848000ed1a6021cb90ef380a2a0c]
link Contributor to Propose--><path d="M67.5864,388.1901 C79.4126,369.8799 95.3301,349.2442 114,335 C131.5898,321.5799 153.2067,311.3763 173.75,303.8004 " fill="none" id="Contributor-to-Propose" style="stroke: #A80036; stroke-width: 1.0;"/><polygon fill="#A80036" points="178.6674,302.0288,168.8443,301.3163,173.9634,303.7237,171.5561,308.8427,178.6674,302.0288" style="stroke: #A80036; stroke-width: 1.0;"/><!--MD5=[1f9418f5da9ba6df1fd8b1982b48bfc5]
link Propose to Check--><path d="M342.9449,288.5074 C373.1301,289.0518 406.4373,289.1167 437,288 C446.8376,287.6406 457.1089,287.1199 467.3409,286.5076 " fill="none" id="Propose-to-Check" style="stroke: #A80036; stroke-width: 1.0; stroke-dasharray: 7.0,7.0;"/><polygon fill="#A80036" points="472.3586,286.2,463.1307,282.7583,467.368,286.506,463.6203,290.7433,472.3586,286.2" style="stroke: #A80036; stroke-width: 1.0;"/><text fill="#000000" font-family="sans-serif" font-size="13" lengthAdjust="spacingAndGlyphs" textLength="61" x="375" y="284.0669">«include»</text><!--MD5=[a588ca95dedc90a718fd5e494c85f299]
link Contributor to Change--><path d="M79.7048,469.7342 C97.6063,488.6754 120.7473,510.2261 145,525 C159.4111,533.7788 176.388,540.6507 192.1987,545.8484 " fill="none" id="Contributor-to-Change" style="stroke: #A80036; stroke-width: 1.0;"/><polygon fill="#A80036" points="197.0639,547.408,189.7146,540.8514,192.3026,545.8816,187.2724,548.4695,197.0639,547.408" style="stroke: #A80036; stroke-width: 1.0;"/><!--MD5=[376d41de8b8d7f9d7542f0b89931178c]
link Change to Maintainer--><path d="M289.1498,546.6253 C306.6885,541.0294 326.7179,533.7041 344,525 C411.9481,490.7779 483.1645,437.7977 524.4696,405.0961 " fill="none" id="Change-Maintainer" style="stroke: #A80036; stroke-width: 1.0;"/><!--MD5=[f1034f04a94205cf8833fbfafd4bb303]
link Maintainer to Contributor--><path d="M524.3274,376.1195 C452.3405,376.7319 284.6482,380.0378 145,397 C131.0689,398.6921 127.5032,399.1788 114,403 C110.4587,404.0021 106.8425,405.1071 103.213,406.2792 " fill="none" id="Maintainer-to-Contributor" style="stroke: #A80036; stroke-width: 1.0;"/><polygon fill="none" points="105.2133,412.9952,84.0237,412.9843,100.5952,399.7788,105.2133,412.9952" style="stroke: #A80036; stroke-width: 1.0;"/><!--MD5=[994034b9d75866a4c1b611139ff47f41]
link Maintainer to Review--><path d="M595.6398,361.2091 C636.4255,344.2826 703.0875,316.6171 745.8586,298.8666 " fill="none" id="Maintainer-to-Review" style="stroke: #A80036; stroke-width: 1.0;"/><polygon fill="#A80036" points="750.6944,296.8597,740.8486,296.615,746.0763,298.7763,743.9151,304.004,750.6944,296.8597" style="stroke: #A80036; stroke-width: 1.0;"/><!--MD5=[31fe76db454556c7e53e343af9db3770]
link Update to Review--><path d="M317.1413,193.397 C399.3694,200.4342 536.9794,215.024 653,241 C682.7226,247.6546 715.422,257.6512 741.0193,266.1074 " fill="none" id="Update-to-Review" style="stroke: #A80036; stroke-width: 1.0; stroke-dasharray: 7.0,7.0;"/><polygon fill="#A80036" points="746.041,267.7766,738.7624,261.1417,741.2963,266.1993,736.2387,268.7333,746.041,267.7766" style="stroke: #A80036; stroke-width: 1.0;"/><text fill="#000000" font-family="sans-serif" font-size="13" lengthAdjust="spacingAndGlyphs" textLength="60" x="530" y="205.0669">«extend»</text><!--MD5=[cb9fb3bb7e14c6551523c0695b4013a3]
link Update to Check--><path d="M286.264,202.6697 C311.5263,211.3423 344.4594,222.2948 374,231 C412.4174,242.321 455.7234,253.5837 490.8768,262.3513 " fill="none" id="Update-to-Check" style="stroke: #A80036; stroke-width: 1.0; stroke-dasharray: 7.0,7.0;"/><polygon fill="#A80036" points="496.0027,263.6265,488.2347,257.5719,491.1506,262.4193,486.3032,265.3353,496.0027,263.6265" style="stroke: #A80036; stroke-width: 1.0;"/><text fill="#000000" font-family="sans-serif" font-size="13" lengthAdjust="spacingAndGlyphs" textLength="61" x="375" y="227.0669">«include»</text><!--MD5=[490bc960ec86520a13bfc100bb1ec4ab]
link Update to IPFS--><path d="M291.3929,174.1774 C339.9793,159.8556 416.9353,137.1712 476.046,119.7471 " fill="none" id="Update-to-IPFS" style="stroke: #A80036; stroke-width: 1.0;"/><polygon fill="#A80036" points="480.9879,118.2904,471.2241,116.9986,476.192,119.7042,473.4863,124.6721,480.9879,118.2904" style="stroke: #A80036; stroke-width: 1.0;"/><!--MD5=[15f2000bb11c16a85637fb762345203d]
@startuml
left to right direction

actor "End-User" as User
actor Contributor
actor Maintainer
actor "Distributed File System" as IPFS

usecase "Download Packages" as Download
usecase "Query Packages" as Query

usecase Register
usecase Login
usecase "Change Status" as Change

usecase "Propose Package Update" as Propose
usecase "Check against Conflicts" as Check
usecase "Review Proposal" as Review
usecase "Update Packages" as Update

User - -> Query
User - -> Download
Download - -> IPFS

Contributor - -> Register
Contributor - -> Login

Contributor - -> Propose
Propose ..> Check : <<include>>

Contributor - -> Change
Change - - Maintainer

Maintainer - -|> Contributor
Maintainer - -> Review

Update ..> Review : <<extend>>
Update ..> Check : <<include>>
Update - -> IPFS
@enduml

PlantUML version 1.2020.17(Sat Sep 19 12:30:11 UTC 2020)
(GPL source distribution)
Java Runtime: OpenJDK Runtime Environment
JVM: OpenJDK 64-Bit Server VM
Default Encoding: UTF-8
Language: en
Country: null
--></g></svg>