<?xml version="1.0" encoding="UTF-8" standalone="no"?><svg xmlns="http://www.w3.org/2000/svg" xmlns:xlink="http://www.w3.org/1999/xlink" contentScriptType="application/ecmascript" contentStyleType="text/css" height="349px" preserveAspectRatio="none" style="width:989px;height:349px;" version="1.1" viewBox="0 0 989 349" width="989px" zoomAndPan="magnify"><defs><filter height="300%" id="f1g5r44es0zrsg" width="300%" x="-1" y="-1"><feGaussianBlur result="blurOut" stdDeviation="2.0"/><feColorMatrix in="blurOut" result="blurOut2" type="matrix" values="0 0 0 0 0 0 0 0 0 0 0 0 0 0 0 0 0 0 .4 0"/><feOffset dx="4.0" dy="4.0" in="blurOut2" result="blurOut3"/><feBlend in="SourceGraphic" in2="blurOut3" mode="normal"/></filter></defs><g><rect fill="#FFFFFF" filter="url(#f1g5r44es0zrsg)" height="222.6641" style="stroke: #A80036; stroke-width: 1.0;" width="10" x="45" y="96.2969"/><rect fill="#FFFFFF" filter="url(#f1g5r44es0zrsg)" height="210.7969" style="stroke: #A80036; stroke-width: 1.0;" width="10" x="307" y="117.2969"/><rect fill="#FFFFFF" filter="url(#f1g5r44es0zrsg)" height="173.6641" style="stroke: #A80036; stroke-width: 1.0;" width="10" x="312" y="154.4297"/><rect fill="#FFFFFF" filter="url(#f1g5r44es0zrsg)" height="122.3984" style="stroke: #A80036; stroke-width: 1.0;" width="10" x="317" y="196.5625"/><rect fill="#FFFFFF" filter="url(#f1g5r44es0zrsg)" height="88.2656" style="stroke: #A80036; stroke-width: 1.0;" width="10" x="533" y="230.6953"/><rect fill="#FFFFFF" filter="url(#f1g5r44es0zrsg)" height="59.1328" style="stroke: #A80036; stroke-width: 1.0;" width="10" x="754" y="259.8281"/><rect fill="#FFFFFF" filter="url(#f1g5r44es0zrsg)" height="30" style="stroke: #A80036; stroke-width: 1.0;" width="10" x="904.5" y="288.9609"/><line style="stroke: #A80036; stroke-width: 1.0; stroke-dasharray: 5.0,5.0;" x1="50" x2="50" y1="86.2969" y2="337.0938"/><line style="stroke: #A80036; stroke-width: 1.0; stroke-dasharray: 5.0,5.0;" x1="311.5" x2="311.5" y1="86.2969" y2="337.0938"/><line style="stroke: #A80036; stroke-width: 1.0; stroke-dasharray: 5.0,5.0;" x1="537.5" x2="537.5" y1="86.2969" y2="337.0938"/><line style="stroke: #A80036; stroke-width: 1.0; stroke-dasharray: 5.0,5.0;" x1="759" x2="759" y1="86.2969" y2="337.0938"/><line style="stroke: #A80036; stroke-width: 1.0; stroke-dasharray: 5.0,5.0;" x1="909" x2="909" y1="86.2969" y2="337.0938"/><text fill="#A80036" font-family="sans-serif" font-size="14" lengthAdjust="spacingAndGlyphs" textLength="78" x="8" y="82.9951">Contributor</text><ellipse cx="50" cy="13" fill="#FEFECE" filter="url(#f1g5r44es0zrsg)" rx="8" ry="8" style="stroke: #A80036; stroke-width: 2.0;"/><path d="M50,21 L50,48 M37,29 L63,29 M50,48 L37,63 M50,48 L63,63 " fill="#FEFECE" filter="url(#f1g5r44es0zrsg)" style="stroke: #A80036; stroke-width: 2.0;"/><rect fill="#FEFECE" filter="url(#f1g5r44es0zrsg)" height="30.2969" style="stroke: #A80036; stroke-width: 1.5;" width="109" x="255.5" y="51"/><text fill="#A80036" font-family="sans-serif" font-size="14" lengthAdjust="spacingAndGlyphs" textLength="95" x="262.5" y="70.9951">ProposalForm</text><rect fill="#FEFECE" filter="url(#f1g5r44es0zrsg)" height="30.2969" style="stroke: #A80036; stroke-width: 1.5;" width="141" x="465.5" y="51"/><text fill="#A80036" font-family="sans-serif" font-size="14" lengthAdjust="spacingAndGlyphs" textLength="127" x="472.5" y="70.9951">ProposalController</text><rect fill="#FEFECE" filter="url(#f1g5r44es0zrsg)" height="30.2969" style="stroke: #A80036; stroke-width: 1.5;" width="132" x="691" y="51"/><text fill="#A80036" font-family="sans-serif" font-size="14" lengthAdjust="spacingAndGlyphs" textLength="118" x="698" y="70.9951">IMetadataSystem</text><rect fill="#FEFECE" filter="url(#f1g5r44es0zrsg)" height="30.2969" style="stroke: #A80036; stroke-width: 1.5;" width="141" x="837" y="51"/><text fill="#A80036" font-family="sans-serif" font-size="14" lengthAdjust="spacingAndGlyphs" textLength="127" x="844" y="70.9951">NotificationSystem</text><rect fill="#FFFFFF" filter="url(#f1g5r44es0zrsg)" height="222.6641" style="stroke: #A80036; stroke-width: 1.0;" width="10" x="45" y="96.2969"/><rect fill="#FFFFFF" filter="url(#f1g5r44es0zrsg)" height="210.7969" style="stroke: #A80036; stroke-width: 1.0;" width="10" x="307" y="117.2969"/><rect fill="#FFFFFF" filter="url(#f1g5r44es0zrsg)" height="173.6641" style="stroke: #A80036; stroke-width: 1.0;" width="10" x="312" y="154.4297"/><rect fill="#FFFFFF" filter="url(#f1g5r44es0zrsg)" height="122.3984" style="stroke: #A80036; stroke-width: 1.0;" width="10" x="317" y="196.5625"/><rect fill="#FFFFFF" filter="url(#f1g5r44es0zrsg)" height="88.2656" style="stroke: #A80036; stroke-width: 1.0;" width="10" x="533" y="230.6953"/><rect fill="#FFFFFF" filter="url(#f1g5r44es0zrsg)" height="59.1328" style="stroke: #A80036; stroke-width: 1.0;" width="10" x="754" y="259.8281"/><rect fill="#FFFFFF" filter="url(#f1g5r44es0zrsg)" height="30" style="stroke: #A80036; stroke-width: 1.0;" width="10" x="904.5" y="288.9609"/><polygon fill="#A80036" points="295,113.2969,305,117.2969,295,121.2969,299,117.2969" style="stroke: #A80036; stroke-width: 1.0;"/><line style="stroke: #A80036; stroke-width: 1.0;" x1="55" x2="301" y1="117.2969" y2="117.2969"/><text fill="#A80036" font-family="sans-serif" font-size="13" lengthAdjust="spacingAndGlyphs" textLength="12" x="62" y="112.3638">1:</text><text fill="#A80036" font-family="sans-serif" font-size="13" lengthAdjust="spacingAndGlyphs" textLength="217" x="78" y="112.3638">create package update proposal()</text><line style="stroke: #A80036; stroke-width: 1.0;" x1="317" x2="364" y1="141.5625" y2="141.5625"/><line style="stroke: #A80036; stroke-width: 1.0;" x1="364" x2="364" y1="141.5625" y2="154.5625"/><line style="stroke: #A80036; stroke-width: 1.0;" x1="323" x2="364" y1="154.5625" y2="154.5625"/><polygon fill="#A80036" points="333,150.5625,323,154.5625,333,158.5625,329,154.5625" style="stroke: #A80036; stroke-width: 1.0;"/><text fill="#A80036" font-family="sans-serif" font-size="13" lengthAdjust="spacingAndGlyphs" textLength="12" x="329" y="136.4966">2:</text><text fill="#A80036" font-family="sans-serif" font-size="13" lengthAdjust="spacingAndGlyphs" textLength="184" x="345" y="136.4966">prompt for package names()</text><line style="stroke: #A80036; stroke-width: 1.0;" x1="322" x2="369" y1="183.6953" y2="183.6953"/><line style="stroke: #A80036; stroke-width: 1.0;" x1="369" x2="369" y1="183.6953" y2="196.6953"/><line style="stroke: #A80036; stroke-width: 1.0;" x1="328" x2="369" y1="196.6953" y2="196.6953"/><polygon fill="#A80036" points="338,192.6953,328,196.6953,338,200.6953,334,196.6953" style="stroke: #A80036; stroke-width: 1.0;"/><text fill="#A80036" font-family="sans-serif" font-size="13" lengthAdjust="spacingAndGlyphs" textLength="12" x="334" y="178.6294">3:</text><text fill="#A80036" font-family="sans-serif" font-size="13" lengthAdjust="spacingAndGlyphs" textLength="181" x="350" y="178.6294">prompt for update(package)</text><polygon fill="#A80036" points="521,226.6953,531,230.6953,521,234.6953,525,230.6953" style="stroke: #A80036; stroke-width: 1.0;"/><line style="stroke: #A80036; stroke-width: 1.0;" x1="327" x2="527" y1="230.6953" y2="230.6953"/><text fill="#A80036" font-family="sans-serif" font-size="13" lengthAdjust="spacingAndGlyphs" textLength="12" x="334" y="225.7622">4:</text><text fill="#A80036" font-family="sans-serif" font-size="13" lengthAdjust="spacingAndGlyphs" textLength="145" x="350" y="225.7622">add proposal(updates)</text><polygon fill="#A80036" points="742,255.8281,752,259.8281,742,263.8281,746,259.8281" style="stroke: #A80036; stroke-width: 1.0;"/><line style="stroke: #A80036; stroke-width: 1.0;" x1="543" x2="748" y1="259.8281" y2="259.8281"/><text fill="#A80036" font-family="sans-serif" font-size="13" lengthAdjust="spacingAndGlyphs" textLength="12" x="550" y="254.895">5:</text><text fill="#A80036" font-family="sans-serif" font-size="13" lengthAdjust="spacingAndGlyphs" textLength="176" x="566" y="254.895">check for conflicts(updates)</text><polygon fill="#A80036" points="892.5,284.9609,902.5,288.9609,892.5,292.9609,896.5,288.9609" style="stroke: #A80036; stroke-width: 1.0;"/><line style="stroke: #A80036; stroke-width: 1.0;" x1="543" x2="898.5" y1="288.9609" y2="288.9609"/><text fill="#A80036" font-family="sans-serif" font-size="13" lengthAdjust="spacingAndGlyphs" textLength="12" x="550" y="284.0278">6:</text><text fill="#A80036" font-family="sans-serif" font-size="13" lengthAdjust="spacingAndGlyphs" textLength="249" x="566" y="284.0278">notify maintainers for reviews(updates)</text><!--
@startuml
skinparam defaultFontColor #a80036
autonumber "#:"
autoactivate on
hide footbox

actor Contributor

activate Contributor
Contributor -> ProposalForm : create package update proposal()
ProposalForm -> ProposalForm : prompt for package names()
ProposalForm -> ProposalForm : prompt for update(package)
ProposalForm -> ProposalController : add proposal(updates)
ProposalController -> IMetadataSystem : check for conflicts(updates)
ProposalController -> NotificationSystem : notify maintainers for reviews(updates)
deactivate NotificationSystem
deactivate IMetadataSystem
deactivate ProposalController
deactivate ProposalForm
deactivate Contributor

@enduml

PlantUML version 1.2017.15(Mon Jul 03 16:45:34 UTC 2017)
(GPL source distribution)
Java Runtime: OpenJDK Runtime Environment
JVM: OpenJDK 64-Bit Server VM
Java Version: 1.8.0_265-b01
Operating System: Linux
OS Version: 5.4.0-1026-azure
Default Encoding: UTF-8
Language: en
Country: null
--></g></svg>