<?xml version="1.0" encoding="UTF-8" standalone="no"?><svg xmlns="http://www.w3.org/2000/svg" xmlns:xlink="http://www.w3.org/1999/xlink" contentScriptType="application/ecmascript" contentStyleType="text/css" height="552px" preserveAspectRatio="none" style="width:1056px;height:552px;" version="1.1" viewBox="0 0 1056 552" width="1056px" zoomAndPan="magnify"><defs><filter height="300%" id="f152c4hupnbtth" width="300%" x="-1" y="-1"><feGaussianBlur result="blurOut" stdDeviation="2.0"/><feColorMatrix in="blurOut" result="blurOut2" type="matrix" values="0 0 0 0 0 0 0 0 0 0 0 0 0 0 0 0 0 0 .4 0"/><feOffset dx="4.0" dy="4.0" in="blurOut2" result="blurOut3"/><feBlend in="SourceGraphic" in2="blurOut3" mode="normal"/></filter></defs><g><!--entity User--><ellipse cx="98" cy="18" fill="#FEFECE" filter="url(#f152c4hupnbtth)" rx="8" ry="8" style="stroke: #A80036; stroke-width: 2.0;"/><path d="M98,26 L98,53 M85,34 L111,34 M98,53 L85,68 M98,53 L111,68 " fill="#FEFECE" filter="url(#f152c4hupnbtth)" style="stroke: #A80036; stroke-width: 2.0;"/><text fill="#000000" font-family="sans-serif" font-size="14" lengthAdjust="spacingAndGlyphs" textLength="32" x="82" y="87.9951">User</text><!--entity Contributor--><ellipse cx="722" cy="162" fill="#FEFECE" filter="url(#f152c4hupnbtth)" rx="8" ry="8" style="stroke: #A80036; stroke-width: 2.0;"/><path d="M722,170 L722,197 M709,178 L735,178 M722,197 L709,212 M722,197 L735,212 " fill="#FEFECE" filter="url(#f152c4hupnbtth)" style="stroke: #A80036; stroke-width: 2.0;"/><text fill="#000000" font-family="sans-serif" font-size="14" lengthAdjust="spacingAndGlyphs" textLength="78" x="683" y="231.9951">Contributor</text><!--entity Maintainer--><ellipse cx="722" cy="18" fill="#FEFECE" filter="url(#f152c4hupnbtth)" rx="8" ry="8" style="stroke: #A80036; stroke-width: 2.0;"/><path d="M722,26 L722,53 M709,34 L735,34 M722,53 L709,68 M722,53 L735,68 " fill="#FEFECE" filter="url(#f152c4hupnbtth)" style="stroke: #A80036; stroke-width: 2.0;"/><text fill="#000000" font-family="sans-serif" font-size="14" lengthAdjust="spacingAndGlyphs" textLength="71" x="686.5" y="87.9951">Maintainer</text><!--entity IPFS--><ellipse cx="187" cy="349" fill="#FEFECE" filter="url(#f152c4hupnbtth)" rx="8" ry="8" style="stroke: #A80036; stroke-width: 2.0;"/><path d="M187,357 L187,384 M174,365 L200,365 M187,384 L174,399 M187,384 L200,399 " fill="#FEFECE" filter="url(#f152c4hupnbtth)" style="stroke: #A80036; stroke-width: 2.0;"/><text fill="#000000" font-family="sans-serif" font-size="14" lengthAdjust="spacingAndGlyphs" textLength="29" x="172.5" y="418.9951">IPFS</text><ellipse cx="156.7904" cy="193.5236" fill="#FEFECE" filter="url(#f152c4hupnbtth)" rx="51.7904" ry="14.5236" style="stroke: #A80036; stroke-width: 1.5;"/><text fill="#000000" font-family="sans-serif" font-size="14" lengthAdjust="spacingAndGlyphs" textLength="69" x="122.2904" y="198.1721">Download</text><ellipse cx="37.9914" cy="193.5236" fill="#FEFECE" filter="url(#f152c4hupnbtth)" rx="31.9914" ry="14.5236" style="stroke: #A80036; stroke-width: 1.5;"/><text fill="#000000" font-family="sans-serif" font-size="14" lengthAdjust="spacingAndGlyphs" textLength="41" x="17.4914" y="198.1721">Query</text><ellipse cx="834.0122" cy="380.5236" fill="#FEFECE" filter="url(#f152c4hupnbtth)" rx="44.0122" ry="14.5236" style="stroke: #A80036; stroke-width: 1.5;"/><text fill="#000000" font-family="sans-serif" font-size="14" lengthAdjust="spacingAndGlyphs" textLength="58" x="805.0122" y="385.1721">Register</text><ellipse cx="655.163" cy="520.0236" fill="#FEFECE" filter="url(#f152c4hupnbtth)" rx="29.163" ry="14.5236" style="stroke: #A80036; stroke-width: 1.5;"/><text fill="#000000" font-family="sans-serif" font-size="14" lengthAdjust="spacingAndGlyphs" textLength="37" x="636.663" y="524.6721">Login</text><ellipse cx="948.211" cy="286.9422" fill="#FEFECE" filter="url(#f152c4hupnbtth)" rx="97.711" ry="21.9422" style="stroke: #A80036; stroke-width: 1.5;"/><text fill="#000000" font-family="sans-serif" font-size="14" lengthAdjust="spacingAndGlyphs" textLength="171" x="862.711" y="291.5906">Vote for New Maintainers</text><ellipse cx="655.0203" cy="380.3041" fill="#FEFECE" filter="url(#f152c4hupnbtth)" rx="99.5203" ry="22.3041" style="stroke: #A80036; stroke-width: 1.5;"/><text fill="#000000" font-family="sans-serif" font-size="14" lengthAdjust="spacingAndGlyphs" textLength="175" x="567.5203" y="384.9525">Propose Package Update</text><ellipse cx="321.2229" cy="520.0446" fill="#FEFECE" filter="url(#f152c4hupnbtth)" rx="93.2229" ry="21.0446" style="stroke: #A80036; stroke-width: 1.5;"/><text fill="#000000" font-family="sans-serif" font-size="14" lengthAdjust="spacingAndGlyphs" textLength="161" x="240.7229" y="524.693">Check against Conflicts</text><ellipse cx="448.1576" cy="380.4315" fill="#FEFECE" filter="url(#f152c4hupnbtth)" rx="72.6576" ry="16.9315" style="stroke: #A80036; stroke-width: 1.5;"/><text fill="#000000" font-family="sans-serif" font-size="14" lengthAdjust="spacingAndGlyphs" textLength="113" x="391.6576" y="385.0799">Review Proposal</text><ellipse cx="282.8553" cy="193.5236" fill="#FEFECE" filter="url(#f152c4hupnbtth)" rx="38.3553" ry="14.5236" style="stroke: #A80036; stroke-width: 1.5;"/><text fill="#000000" font-family="sans-serif" font-size="14" lengthAdjust="spacingAndGlyphs" textLength="50" x="257.8553" y="198.1721">Update</text><!--link User to Query--><path d="M81.9211,88.0894 C70.3033,115.9721 55.1066,152.4443 45.9742,174.3619 " fill="none" id="User-Query" style="stroke: #A80036; stroke-width: 1.0;"/><polygon fill="#A80036" points="44.0104,179.075,51.1644,172.3059,45.9336,174.4597,43.7798,169.2288,44.0104,179.075" style="stroke: #A80036; stroke-width: 1.0;"/><!--link User to Download--><path d="M114.122,88.8486 C125.4777,116.5642 140.1888,152.4692 149.0942,174.2046 " fill="none" id="User-Download" style="stroke: #A80036; stroke-width: 1.0;"/><polygon fill="#A80036" points="151.0112,178.8834,151.3003,169.0388,149.1155,174.2567,143.8976,172.0719,151.0112,178.8834" style="stroke: #A80036; stroke-width: 1.0;"/><!--link Download to IPFS--><path d="M159.354,208.1736 C163.6413,234.8977 172.8904,292.5503 179.5099,333.8116 " fill="none" id="Download-IPFS" style="stroke: #A80036; stroke-width: 1.0;"/><polygon fill="#A80036" points="180.3036,338.759,182.8272,329.239,179.5115,333.8221,174.9283,330.5064,180.3036,338.759" style="stroke: #A80036; stroke-width: 1.0;"/><!--link Maintainer to Vote--><path d="M757.5611,86.8706 C804.0169,135.6903 884.1179,219.8673 923.9962,261.7748 " fill="none" id="Maintainer-Vote" style="stroke: #A80036; stroke-width: 1.0;"/><polygon fill="#A80036" points="927.495,265.4516,924.1884,256.1744,924.0482,261.8295,918.3931,261.6893,927.495,265.4516" style="stroke: #A80036; stroke-width: 1.0;"/><!--link Vote to Login--><path d="M945.0115,309.0691 C939.9318,338.4754 926.966,390.4543 896,422 C838.032,481.0532 739.6028,505.7749 688.3142,515.0593 " fill="none" id="Vote-Login" style="stroke: #A80036; stroke-width: 1.0; stroke-dasharray: 7.0,7.0;"/><polygon fill="#A80036" points="683.2002,515.962,692.7586,518.3364,688.1241,515.0927,691.3677,510.4582,683.2002,515.962" style="stroke: #A80036; stroke-width: 1.0;"/><text fill="#000000" font-family="sans-serif" font-size="13" lengthAdjust="spacingAndGlyphs" textLength="61" x="939" y="385.0669">«include»</text><!--link Maintainer to Contributor--><path d="M722,91.1508 C722,103.8375 722,118.0629 722,131.7802 " fill="none" id="Maintainer-Contributor" style="stroke: #A80036; stroke-width: 1.0;"/><polygon fill="none" points="729.0001,131.9429,722,151.9428,715.0001,131.9428,729.0001,131.9429" style="stroke: #A80036; stroke-width: 1.0;"/><!--link Contributor to Register--><path d="M746.8564,235.0014 C770.4692,274.4262 804.9138,331.9365 822.5949,361.4575 " fill="none" id="Contributor-Register" style="stroke: #A80036; stroke-width: 1.0;"/><polygon fill="#A80036" points="825.2844,365.948,824.0914,356.1717,822.7152,361.6586,817.2283,360.2824,825.2844,365.948" style="stroke: #A80036; stroke-width: 1.0;"/><!--link Contributor to Propose--><path d="M707.1305,235.0014 C694.2493,270.9535 675.9794,321.9455 664.8398,353.0366 " fill="none" id="Contributor-Propose" style="stroke: #A80036; stroke-width: 1.0;"/><polygon fill="#A80036" points="663.1151,357.8503,669.9165,350.727,664.8017,353.1433,662.3853,348.0285,663.1151,357.8503" style="stroke: #A80036; stroke-width: 1.0;"/><!--link Propose to Login--><path d="M655,403.2236 C655,430.1808 655,474.6798 655,500.2579 " fill="none" id="Propose-Login" style="stroke: #A80036; stroke-width: 1.0; stroke-dasharray: 7.0,7.0;"/><polygon fill="#A80036" points="655,505.4157,659,496.4157,655,500.4157,651,496.4157,655,505.4157" style="stroke: #A80036; stroke-width: 1.0;"/><text fill="#000000" font-family="sans-serif" font-size="13" lengthAdjust="spacingAndGlyphs" textLength="61" x="656" y="465.0669">«include»</text><!--link Propose to Check--><path d="M607.5007,400.3388 C544.574,426.621 434.1105,472.7578 370.2945,499.4114 " fill="none" id="Propose-Check" style="stroke: #A80036; stroke-width: 1.0; stroke-dasharray: 7.0,7.0;"/><polygon fill="#A80036" points="365.4035,501.4542,375.2498,501.6766,370.0172,499.5272,372.1666,494.2946,365.4035,501.4542" style="stroke: #A80036; stroke-width: 1.0;"/><text fill="#000000" font-family="sans-serif" font-size="13" lengthAdjust="spacingAndGlyphs" textLength="61" x="478" y="465.0669">«include»</text><!--link Maintainer to Review--><path d="M687.5752,91.0862 C628.4603,162.4986 509.726,305.9331 465.3013,359.5995 " fill="none" id="Maintainer-Review" style="stroke: #A80036; stroke-width: 1.0;"/><polygon fill="#A80036" points="461.9829,363.6082,470.8032,359.2262,465.1713,359.7567,464.6408,354.1248,461.9829,363.6082" style="stroke: #A80036; stroke-width: 1.0;"/><!--link Review to Login--><path d="M472.1507,396.7754 C512.734,424.1251 593.9952,478.8881 633.0511,505.2083 " fill="none" id="Review-Login" style="stroke: #A80036; stroke-width: 1.0; stroke-dasharray: 7.0,7.0;"/><polygon fill="#A80036" points="637.5992,508.2734,632.3712,499.9267,633.4528,505.4792,627.9004,506.5609,637.5992,508.2734" style="stroke: #A80036; stroke-width: 1.0;"/><text fill="#000000" font-family="sans-serif" font-size="13" lengthAdjust="spacingAndGlyphs" textLength="61" x="577" y="465.0669">«include»</text><!--link Update to Review--><path d="M295.4018,207.5554 C324.1819,240.1728 395.6309,321.1484 429.5548,359.5954 " fill="none" id="Update-Review" style="stroke: #A80036; stroke-width: 1.0; stroke-dasharray: 7.0,7.0;"/><polygon fill="#A80036" points="433.1097,363.6243,430.1545,354.2293,429.8016,359.8751,424.1558,359.5222,433.1097,363.6243" style="stroke: #A80036; stroke-width: 1.0;"/><text fill="#000000" font-family="sans-serif" font-size="13" lengthAdjust="spacingAndGlyphs" textLength="60" x="381" y="291.5669">«extend»</text><!--link Update to Check--><path d="M282.7267,208.0443 C282.2681,244.3776 282.4172,341.9442 295,422 C298.9054,446.8473 306.5514,474.4886 312.5454,494.0637 " fill="none" id="Update-Check" style="stroke: #A80036; stroke-width: 1.0; stroke-dasharray: 7.0,7.0;"/><polygon fill="#A80036" points="314.0305,498.86,315.1893,489.0796,312.5515,494.0837,307.5473,491.4459,314.0305,498.86" style="stroke: #A80036; stroke-width: 1.0;"/><text fill="#000000" font-family="sans-serif" font-size="13" lengthAdjust="spacingAndGlyphs" textLength="61" x="296" y="385.0669">«include»</text><!--link Update to IPFS--><path d="M275.6264,207.8631 C260.5339,237.2622 225.7576,305.0034 204.5317,346.3497 " fill="none" id="Update-IPFS" style="stroke: #A80036; stroke-width: 1.0;"/><polygon fill="#A80036" points="202.1399,351.0087,209.8087,344.829,204.4234,346.5606,202.6918,341.1753,202.1399,351.0087" style="stroke: #A80036; stroke-width: 1.0;"/><!--
@startuml
actor User
actor Contributor
actor Maintainer
actor IPFS

usecase Download
usecase Query

usecase Register
usecase Login
usecase "Vote for New Maintainers" as Vote

usecase "Propose Package Update" as Propose
usecase "Check against Conflicts" as Check
usecase "Review Proposal" as Review
usecase Update

User - -> Query
User - -> Download
Download - -> IPFS

Maintainer - -> Vote
Vote ..> Login : <<include>>

Maintainer - -|> Contributor
Contributor - -> Register

Contributor - -> Propose
Propose ..> Login : <<include>>
Propose ..> Check : <<include>>

Maintainer - -> Review
Review ..> Login : <<include>>

Update ..> Review : <<extend>>
Update ..> Check : <<include>>
Update - -> IPFS

@enduml

PlantUML version 1.2017.15(Mon Jul 03 16:45:34 UTC 2017)
(GPL source distribution)
Java Runtime: OpenJDK Runtime Environment
JVM: OpenJDK 64-Bit Server VM
Java Version: 1.8.0_265-b01
Operating System: Linux
OS Version: 5.4.0-1025-azure
Default Encoding: UTF-8
Language: en
Country: null
--></g></svg>