<?xml version="1.0" encoding="UTF-8" standalone="no"?><svg xmlns="http://www.w3.org/2000/svg" xmlns:xlink="http://www.w3.org/1999/xlink" contentScriptType="application/ecmascript" contentStyleType="text/css" height="344px" preserveAspectRatio="none" style="width:684px;height:344px;" version="1.1" viewBox="0 0 684 344" width="684px" zoomAndPan="magnify"><defs><filter height="300%" id="fb91onnan0bqg" width="300%" x="-1" y="-1"><feGaussianBlur result="blurOut" stdDeviation="2.0"/><feColorMatrix in="blurOut" result="blurOut2" type="matrix" values="0 0 0 0 0 0 0 0 0 0 0 0 0 0 0 0 0 0 .4 0"/><feOffset dx="4.0" dy="4.0" in="blurOut2" result="blurOut3"/><feBlend in="SourceGraphic" in2="blurOut3" mode="normal"/></filter></defs><g><!--MD5=[fee662a292a0353a69bd162820bae93b]
entity User--><ellipse cx="118" cy="17.5" fill="#FEFECE" filter="url(#fb91onnan0bqg)" rx="8" ry="8" style="stroke: #A80036; stroke-width: 1.5;"/><path d="M118,25.5 L118,52.5 M105,33.5 L131,33.5 M118,52.5 L105,67.5 M118,52.5 L131,67.5 " fill="none" filter="url(#fb91onnan0bqg)" style="stroke: #A80036; stroke-width: 1.5;"/><text fill="#000000" font-family="sans-serif" font-size="14" lengthAdjust="spacingAndGlyphs" textLength="32" x="102" y="85.9951">User</text><!--MD5=[0e386df696c8989779f0bde43ae749c6]
entity Uploader--><ellipse cx="288" cy="17.5" fill="#FEFECE" filter="url(#fb91onnan0bqg)" rx="8" ry="8" style="stroke: #A80036; stroke-width: 1.5;"/><path d="M288,25.5 L288,52.5 M275,33.5 L301,33.5 M288,52.5 L275,67.5 M288,52.5 L301,67.5 " fill="none" filter="url(#fb91onnan0bqg)" style="stroke: #A80036; stroke-width: 1.5;"/><text fill="#000000" font-family="sans-serif" font-size="14" lengthAdjust="spacingAndGlyphs" textLength="62" x="257" y="85.9951">Uploader</text><!--MD5=[b90713b5ddaea180d3429e7b1ef7c0f8]
entity Maintainer--><ellipse cx="465" cy="17.5" fill="#FEFECE" filter="url(#fb91onnan0bqg)" rx="8" ry="8" style="stroke: #A80036; stroke-width: 1.5;"/><path d="M465,25.5 L465,52.5 M452,33.5 L478,33.5 M465,52.5 L452,67.5 M465,52.5 L478,67.5 " fill="none" filter="url(#fb91onnan0bqg)" style="stroke: #A80036; stroke-width: 1.5;"/><text fill="#000000" font-family="sans-serif" font-size="14" lengthAdjust="spacingAndGlyphs" textLength="71" x="429.5" y="85.9951">Maintainer</text><!--MD5=[a74c9f7ba4e347df35943d93696ec108]
entity IPFS--><ellipse cx="550" cy="17.5" fill="#FEFECE" filter="url(#fb91onnan0bqg)" rx="8" ry="8" style="stroke: #A80036; stroke-width: 1.5;"/><path d="M550,25.5 L550,52.5 M537,33.5 L563,33.5 M550,52.5 L537,67.5 M550,52.5 L563,67.5 " fill="none" filter="url(#fb91onnan0bqg)" style="stroke: #A80036; stroke-width: 1.5;"/><text fill="#000000" font-family="sans-serif" font-size="14" lengthAdjust="spacingAndGlyphs" textLength="29" x="535.5" y="85.9951">IPFS</text><!--MD5=[fa1e3283224feb76407c84b7e90ed808]
entity Database--><ellipse cx="288" cy="262.5" fill="#FEFECE" filter="url(#fb91onnan0bqg)" rx="8" ry="8" style="stroke: #A80036; stroke-width: 1.5;"/><path d="M288,270.5 L288,297.5 M275,278.5 L301,278.5 M288,297.5 L275,312.5 M288,297.5 L301,312.5 " fill="none" filter="url(#fb91onnan0bqg)" style="stroke: #A80036; stroke-width: 1.5;"/><text fill="#000000" font-family="sans-serif" font-size="14" lengthAdjust="spacingAndGlyphs" textLength="66" x="255" y="330.9951">Database</text><ellipse cx="57.7904" cy="171.0236" fill="#FEFECE" filter="url(#fb91onnan0bqg)" rx="51.7904" ry="14.5236" style="stroke: #A80036; stroke-width: 1.5;"/><text fill="#000000" font-family="sans-serif" font-size="14" lengthAdjust="spacingAndGlyphs" textLength="69" x="23.2904" y="175.6721">Download</text><ellipse cx="176.9914" cy="171.0236" fill="#FEFECE" filter="url(#fb91onnan0bqg)" rx="31.9914" ry="14.5236" style="stroke: #A80036; stroke-width: 1.5;"/><text fill="#000000" font-family="sans-serif" font-size="14" lengthAdjust="spacingAndGlyphs" textLength="41" x="156.4914" y="175.6721">Query</text><ellipse cx="288.0122" cy="171.0236" fill="#FEFECE" filter="url(#fb91onnan0bqg)" rx="44.0122" ry="14.5236" style="stroke: #A80036; stroke-width: 1.5;"/><text fill="#000000" font-family="sans-serif" font-size="14" lengthAdjust="spacingAndGlyphs" textLength="58" x="259.0122" y="175.6721">Register</text><ellipse cx="465.163" cy="293.5236" fill="#FEFECE" filter="url(#fb91onnan0bqg)" rx="29.163" ry="14.5236" style="stroke: #A80036; stroke-width: 1.5;"/><text fill="#000000" font-family="sans-serif" font-size="14" lengthAdjust="spacingAndGlyphs" textLength="37" x="446.663" y="298.1721">Login</text><ellipse cx="636.9411" cy="48.5236" fill="#FEFECE" filter="url(#fb91onnan0bqg)" rx="36.9411" ry="14.5236" style="stroke: #A80036; stroke-width: 1.5;"/><text fill="#000000" font-family="sans-serif" font-size="14" lengthAdjust="spacingAndGlyphs" textLength="48" x="612.9411" y="53.1721">Upload</text><ellipse cx="465.211" cy="170.9422" fill="#FEFECE" filter="url(#fb91onnan0bqg)" rx="97.711" ry="21.9422" style="stroke: #A80036; stroke-width: 1.5;"/><text fill="#000000" font-family="sans-serif" font-size="14" lengthAdjust="spacingAndGlyphs" textLength="171" x="379.711" y="175.5906">Vote for New Maintainers</text><!--MD5=[fe4d1e544d1f5aae5d4d05c630db20d2]
link User to Download--><path d="M101.92,81.79 C90.82,104.09 76.44,132.97 67.22,151.49 " fill="none" id="User-&gt;Download" style="stroke: #A80036; stroke-width: 1.0;"/><polygon fill="#A80036" points="64.76,156.42,72.3466,150.1396,66.9847,151.9422,65.1821,146.5802,64.76,156.42" style="stroke: #A80036; stroke-width: 1.0;"/><!--MD5=[ed3a9acfa5b2fcf1ba972f6d55686688]
link User to Query--><path d="M134.12,82.43 C145.04,104.72 159.05,133.35 168.03,151.69 " fill="none" id="User-&gt;Query" style="stroke: #A80036; stroke-width: 1.0;"/><polygon fill="#A80036" points="170.43,156.57,170.0706,146.7277,168.2339,152.0781,162.8836,150.2414,170.43,156.57" style="stroke: #A80036; stroke-width: 1.0;"/><!--MD5=[d9844137d4d16cb521dc2dc08d85e718]
link Uploader to Register--><path d="M288,89.29 C288,110.11 288,134.62 288,151.13 " fill="none" id="Uploader-&gt;Register" style="stroke: #A80036; stroke-width: 1.0;"/><polygon fill="#A80036" points="288,156.4,292,147.4,288,151.4,284,147.4,288,156.4" style="stroke: #A80036; stroke-width: 1.0;"/><!--MD5=[732dd9bf00ccbe52a5beba9c2152f385]
link Maintainer to Vote--><path d="M465,89.29 C465,107.15 465,127.73 465,143.64 " fill="none" id="Maintainer-&gt;Vote" style="stroke: #A80036; stroke-width: 1.0;"/><polygon fill="#A80036" points="465,148.85,469,139.85,465,143.85,461,139.85,465,148.85" style="stroke: #A80036; stroke-width: 1.0;"/><!--MD5=[13a77bd23520ac5923e9e69896e3dc80]
link Vote to Login--><path d="M465,193.27 C465,216.06 465,251.91 465,273.7 " fill="none" id="Vote-&gt;Login" style="stroke: #A80036; stroke-width: 1.0; stroke-dasharray: 7.0,7.0;"/><polygon fill="#A80036" points="465,278.93,469,269.93,465,273.93,461,269.93,465,278.93" style="stroke: #A80036; stroke-width: 1.0;"/><!--MD5=[d25a51d98ea9c50230c9ef23c5563995]
link Register to Database--><path d="M288,185.82 C288,202.08 288,229.78 288,252.88 " fill="none" id="Register-Database" style="stroke: #A80036; stroke-width: 1.0;"/><!--MD5=[ea692127eec547289642eeb80d1b22ae]
@startuml
actor User
actor Uploader
actor Maintainer
actor IPFS
actor Database

usecase Download
usecase Query
usecase Register
usecase Login
usecase Upload
usecase "Vote for New Maintainers" as Vote

User - -> Download
User - -> Query

Uploader - -> Register
Maintainer - -> Vote
Vote ..> Login

Register - - Database

@enduml

PlantUML version 1.2020.02(Sun Mar 01 17:22:07 ICT 2020)
(GPL source distribution)
Java Runtime: OpenJDK Runtime Environment
JVM: OpenJDK 64-Bit Server VM
Java Version: 11.0.8+10-post-Debian-1
Operating System: Linux
Default Encoding: UTF-8
Language: en
Country: DK
--></g></svg>