<?xml version="1.0" encoding="UTF-8" standalone="no"?><svg xmlns="http://www.w3.org/2000/svg" xmlns:xlink="http://www.w3.org/1999/xlink" contentScriptType="application/ecmascript" contentStyleType="text/css" height="344px" preserveAspectRatio="none" style="width:682px;height:344px;" version="1.1" viewBox="0 0 682 344" width="682px" zoomAndPan="magnify"><defs><filter height="300%" id="foncqx292cjay" width="300%" x="-1" y="-1"><feGaussianBlur result="blurOut" stdDeviation="2.0"/><feColorMatrix in="blurOut" result="blurOut2" type="matrix" values="0 0 0 0 0 0 0 0 0 0 0 0 0 0 0 0 0 0 .4 0"/><feOffset dx="4.0" dy="4.0" in="blurOut2" result="blurOut3"/><feBlend in="SourceGraphic" in2="blurOut3" mode="normal"/></filter></defs><g><!--MD5=[fee662a292a0353a69bd162820bae93b]
entity User--><ellipse cx="244" cy="17.5" fill="#FEFECE" filter="url(#foncqx292cjay)" rx="8" ry="8" style="stroke: #A80036; stroke-width: 1.5;"/><path d="M244,25.5 L244,52.5 M231,33.5 L257,33.5 M244,52.5 L231,67.5 M244,52.5 L257,67.5 " fill="none" filter="url(#foncqx292cjay)" style="stroke: #A80036; stroke-width: 1.5;"/><text fill="#000000" font-family="sans-serif" font-size="14" lengthAdjust="spacingAndGlyphs" textLength="32" x="228" y="85.9951">User</text><!--MD5=[0e386df696c8989779f0bde43ae749c6]
entity Uploader--><ellipse cx="397" cy="17.5" fill="#FEFECE" filter="url(#foncqx292cjay)" rx="8" ry="8" style="stroke: #A80036; stroke-width: 1.5;"/><path d="M397,25.5 L397,52.5 M384,33.5 L410,33.5 M397,52.5 L384,67.5 M397,52.5 L410,67.5 " fill="none" filter="url(#foncqx292cjay)" style="stroke: #A80036; stroke-width: 1.5;"/><text fill="#000000" font-family="sans-serif" font-size="14" lengthAdjust="spacingAndGlyphs" textLength="62" x="366" y="85.9951">Uploader</text><!--MD5=[b90713b5ddaea180d3429e7b1ef7c0f8]
entity Maintainer--><ellipse cx="574" cy="17.5" fill="#FEFECE" filter="url(#foncqx292cjay)" rx="8" ry="8" style="stroke: #A80036; stroke-width: 1.5;"/><path d="M574,25.5 L574,52.5 M561,33.5 L587,33.5 M574,52.5 L561,67.5 M574,52.5 L587,67.5 " fill="none" filter="url(#foncqx292cjay)" style="stroke: #A80036; stroke-width: 1.5;"/><text fill="#000000" font-family="sans-serif" font-size="14" lengthAdjust="spacingAndGlyphs" textLength="71" x="538.5" y="85.9951">Maintainer</text><!--MD5=[a74c9f7ba4e347df35943d93696ec108]
entity IPFS--><ellipse cx="43" cy="17.5" fill="#FEFECE" filter="url(#foncqx292cjay)" rx="8" ry="8" style="stroke: #A80036; stroke-width: 1.5;"/><path d="M43,25.5 L43,52.5 M30,33.5 L56,33.5 M43,52.5 L30,67.5 M43,52.5 L56,67.5 " fill="none" filter="url(#foncqx292cjay)" style="stroke: #A80036; stroke-width: 1.5;"/><text fill="#000000" font-family="sans-serif" font-size="14" lengthAdjust="spacingAndGlyphs" textLength="29" x="28.5" y="85.9951">IPFS</text><!--MD5=[fa1e3283224feb76407c84b7e90ed808]
entity Database--><ellipse cx="397" cy="262.5" fill="#FEFECE" filter="url(#foncqx292cjay)" rx="8" ry="8" style="stroke: #A80036; stroke-width: 1.5;"/><path d="M397,270.5 L397,297.5 M384,278.5 L410,278.5 M397,297.5 L384,312.5 M397,297.5 L410,312.5 " fill="none" filter="url(#foncqx292cjay)" style="stroke: #A80036; stroke-width: 1.5;"/><text fill="#000000" font-family="sans-serif" font-size="14" lengthAdjust="spacingAndGlyphs" textLength="66" x="364" y="330.9951">Database</text><ellipse cx="166.7904" cy="171.0236" fill="#FEFECE" filter="url(#foncqx292cjay)" rx="51.7904" ry="14.5236" style="stroke: #A80036; stroke-width: 1.5;"/><text fill="#000000" font-family="sans-serif" font-size="14" lengthAdjust="spacingAndGlyphs" textLength="69" x="132.2904" y="175.6721">Download</text><ellipse cx="285.9914" cy="171.0236" fill="#FEFECE" filter="url(#foncqx292cjay)" rx="31.9914" ry="14.5236" style="stroke: #A80036; stroke-width: 1.5;"/><text fill="#000000" font-family="sans-serif" font-size="14" lengthAdjust="spacingAndGlyphs" textLength="41" x="265.4914" y="175.6721">Query</text><ellipse cx="397.0122" cy="171.0236" fill="#FEFECE" filter="url(#foncqx292cjay)" rx="44.0122" ry="14.5236" style="stroke: #A80036; stroke-width: 1.5;"/><text fill="#000000" font-family="sans-serif" font-size="14" lengthAdjust="spacingAndGlyphs" textLength="58" x="368.0122" y="175.6721">Register</text><ellipse cx="122.163" cy="48.5236" fill="#FEFECE" filter="url(#foncqx292cjay)" rx="29.163" ry="14.5236" style="stroke: #A80036; stroke-width: 1.5;"/><text fill="#000000" font-family="sans-serif" font-size="14" lengthAdjust="spacingAndGlyphs" textLength="37" x="103.663" y="53.1721">Login</text><ellipse cx="42.9411" cy="171.0236" fill="#FEFECE" filter="url(#foncqx292cjay)" rx="36.9411" ry="14.5236" style="stroke: #A80036; stroke-width: 1.5;"/><text fill="#000000" font-family="sans-serif" font-size="14" lengthAdjust="spacingAndGlyphs" textLength="48" x="18.9411" y="175.6721">Upload</text><ellipse cx="574.211" cy="170.9422" fill="#FEFECE" filter="url(#foncqx292cjay)" rx="97.711" ry="21.9422" style="stroke: #A80036; stroke-width: 1.5;"/><text fill="#000000" font-family="sans-serif" font-size="14" lengthAdjust="spacingAndGlyphs" textLength="171" x="488.711" y="175.5906">Vote for New Maintainers</text><!--MD5=[fe4d1e544d1f5aae5d4d05c630db20d2]
link User to Download--><path d="M227.86,74.76 C213.1,97.86 191.63,131.46 178.53,151.95 " fill="none" id="User-&gt;Download" style="stroke: #A80036; stroke-width: 1.0;"/><polygon fill="#A80036" points="175.71,156.37,183.9201,150.9299,178.3972,152.1535,177.1736,146.6305,175.71,156.37" style="stroke: #A80036; stroke-width: 1.0;"/><!--MD5=[ed3a9acfa5b2fcf1ba972f6d55686688]
link User to Query--><path d="M257.87,89.29 C265.19,110.29 273.82,135.05 279.57,151.56 " fill="none" id="User-&gt;Query" style="stroke: #A80036; stroke-width: 1.0;"/><polygon fill="#A80036" points="281.26,156.4,282.0848,146.5857,279.6191,151.6769,274.5279,149.2112,281.26,156.4" style="stroke: #A80036; stroke-width: 1.0;"/><!--MD5=[d9844137d4d16cb521dc2dc08d85e718]
link Uploader to Register--><path d="M397,89.29 C397,110.11 397,134.62 397,151.13 " fill="none" id="Uploader-&gt;Register" style="stroke: #A80036; stroke-width: 1.0;"/><polygon fill="#A80036" points="397,156.4,401,147.4,397,151.4,393,147.4,397,156.4" style="stroke: #A80036; stroke-width: 1.0;"/><!--MD5=[732dd9bf00ccbe52a5beba9c2152f385]
link Maintainer to Vote--><path d="M574,89.29 C574,107.15 574,127.73 574,143.64 " fill="none" id="Maintainer-&gt;Vote" style="stroke: #A80036; stroke-width: 1.0;"/><polygon fill="#A80036" points="574,148.85,578,139.85,574,143.85,570,139.85,574,148.85" style="stroke: #A80036; stroke-width: 1.0;"/><!--MD5=[d25a51d98ea9c50230c9ef23c5563995]
link Register to Database--><path d="M397,185.82 C397,202.08 397,229.78 397,252.88 " fill="none" id="Register-Database" style="stroke: #A80036; stroke-width: 1.0;"/><!--MD5=[1ff86fb53f19d41c6c3d770e37f02c22]
link IPFS to Login--><!--MD5=[0a8555cfc82d294909991d58d6283d44]
link IPFS to Upload--><!--MD5=[c09e4838ae92b14bfd23d59281c2e088]
@startuml
actor User
actor Uploader
actor Maintainer
actor IPFS
actor Database

usecase Download
usecase Query
usecase Register
usecase Login
usecase Upload
usecase "Vote for New Maintainers" as Vote

User - -> Download
User - -> Query

Uploader - -> Register
Maintainer - -> Vote

Register - - Database

@enduml

PlantUML version 1.2020.02(Sun Mar 01 17:22:07 ICT 2020)
(GPL source distribution)
Java Runtime: OpenJDK Runtime Environment
JVM: OpenJDK 64-Bit Server VM
Java Version: 11.0.8+10-post-Debian-1
Operating System: Linux
Default Encoding: UTF-8
Language: en
Country: DK
--></g></svg>