<?xml version="1.0" encoding="UTF-8" standalone="no"?><svg xmlns="http://www.w3.org/2000/svg" xmlns:xlink="http://www.w3.org/1999/xlink" contentScriptType="application/ecmascript" contentStyleType="text/css" height="189px" preserveAspectRatio="none" style="width:415px;height:189px;" version="1.1" viewBox="0 0 415 189" width="415px" zoomAndPan="magnify"><defs><filter height="300%" id="f10oglr1tuyuu9" width="300%" x="-1" y="-1"><feGaussianBlur result="blurOut" stdDeviation="2.0"/><feColorMatrix in="blurOut" result="blurOut2" type="matrix" values="0 0 0 0 0 0 0 0 0 0 0 0 0 0 0 0 0 0 .4 0"/><feOffset dx="4.0" dy="4.0" in="blurOut2" result="blurOut3"/><feBlend in="SourceGraphic" in2="blurOut3" mode="normal"/></filter></defs><g><!--entity Client--><polygon fill="#FFFFFF" filter="url(#f10oglr1tuyuu9)" points="6,141,16,131,147,131,147,167.2969,137,177.2969,6,177.2969,6,141" style="stroke: #000000; stroke-width: 1.5;"/><line style="stroke: #000000; stroke-width: 1.5;" x1="137" x2="146" y1="141" y2="132"/><line style="stroke: #000000; stroke-width: 1.5;" x1="6" x2="137" y1="141" y2="141"/><line style="stroke: #000000; stroke-width: 1.5;" x1="137" x2="137" y1="141" y2="177.2969"/><text fill="#A80036" font-family="sans-serif" font-size="14" lengthAdjust="spacingAndGlyphs" textLength="101" x="21" y="163.9951">Client Machine</text><!--entity Server--><polygon fill="#FFFFFF" filter="url(#f10oglr1tuyuu9)" points="175,18,185,8,296,8,296,44.2969,286,54.2969,175,54.2969,175,18" style="stroke: #000000; stroke-width: 1.5;"/><line style="stroke: #000000; stroke-width: 1.5;" x1="286" x2="295" y1="18" y2="9"/><line style="stroke: #000000; stroke-width: 1.5;" x1="175" x2="286" y1="18" y2="18"/><line style="stroke: #000000; stroke-width: 1.5;" x1="286" x2="286" y1="18" y2="54.2969"/><text fill="#A80036" font-family="sans-serif" font-size="14" lengthAdjust="spacingAndGlyphs" textLength="81" x="190" y="40.9951">IPPPI Server</text><!--entity DB--><polygon fill="#FFFFFF" filter="url(#f10oglr1tuyuu9)" points="182.5,141,192.5,131,288.5,131,288.5,167.2969,278.5,177.2969,182.5,177.2969,182.5,141" style="stroke: #000000; stroke-width: 1.5;"/><line style="stroke: #000000; stroke-width: 1.5;" x1="278.5" x2="287.5" y1="141" y2="132"/><line style="stroke: #000000; stroke-width: 1.5;" x1="182.5" x2="278.5" y1="141" y2="141"/><line style="stroke: #000000; stroke-width: 1.5;" x1="278.5" x2="278.5" y1="141" y2="177.2969"/><text fill="#A80036" font-family="sans-serif" font-size="14" lengthAdjust="spacingAndGlyphs" textLength="66" x="197.5" y="163.9951">Database</text><!--entity IPFS--><polygon fill="#FFFFFF" filter="url(#f10oglr1tuyuu9)" points="324,141,334,131,393,131,393,167.2969,383,177.2969,324,177.2969,324,141" style="stroke: #000000; stroke-width: 1.5;"/><line style="stroke: #000000; stroke-width: 1.5;" x1="383" x2="392" y1="141" y2="132"/><line style="stroke: #000000; stroke-width: 1.5;" x1="324" x2="383" y1="141" y2="141"/><line style="stroke: #000000; stroke-width: 1.5;" x1="383" x2="383" y1="141" y2="177.2969"/><text fill="#A80036" font-family="sans-serif" font-size="14" lengthAdjust="spacingAndGlyphs" textLength="29" x="339" y="163.9951">IPFS</text><!--link Server to Client--><path d="M200.9716,54.0906 C187.8003,63.1545 172.7693,73.8118 159.5,84 C139.9136,99.0384 118.6386,117.0159 102.532,130.9866 " fill="none" id="Server-Client" style="stroke: #A80036; stroke-width: 1.0;"/><text fill="#A80036" font-family="sans-serif" font-size="13" lengthAdjust="spacingAndGlyphs" textLength="66" x="160.5" y="97.0669">«Internet»</text><!--link Server to DB--><path d="M235.5,54.1354 C235.5,76.1258 235.5,109.0123 235.5,130.9684 " fill="none" id="Server-DB" style="stroke: #A80036; stroke-width: 1.0;"/><text fill="#A80036" font-family="sans-serif" font-size="13" lengthAdjust="spacingAndGlyphs" textLength="42" x="236.5" y="97.0669">«LAN»</text><!--link Server to IPFS--><path d="M258.6354,54.1354 C280.6258,76.1258 313.5123,109.0123 335.4684,130.9684 " fill="none" id="Server-IPFS" style="stroke: #A80036; stroke-width: 1.0;"/><text fill="#A80036" font-family="sans-serif" font-size="13" lengthAdjust="spacingAndGlyphs" textLength="42" x="304.5" y="97.0669">«LAN»</text><!--
@startuml
skinparam defaultFontColor #a80036

package "Client Machine" as Client <<Node>> {
}

package "IPPPI Server" as Server <<Node>> {
}

package "Database" as DB <<Node>> {
}

package IPFS <<Node>> {
}

Server - - Client: <<Internet>>
Server - - DB: <<LAN>>
Server - - IPFS: <<LAN>>

@enduml

PlantUML version 1.2017.15(Mon Jul 03 16:45:34 UTC 2017)
(GPL source distribution)
Java Runtime: OpenJDK Runtime Environment
JVM: OpenJDK 64-Bit Server VM
Java Version: 1.8.0_265-b01
Operating System: Linux
OS Version: 5.4.0-1026-azure
Default Encoding: UTF-8
Language: en
Country: null
--></g></svg>