<?xml version="1.0" encoding="UTF-8" standalone="no"?><svg xmlns="http://www.w3.org/2000/svg" xmlns:xlink="http://www.w3.org/1999/xlink" contentScriptType="application/ecmascript" contentStyleType="text/css" height="395px" preserveAspectRatio="none" style="width:715px;height:395px;" version="1.1" viewBox="0 0 715 395" width="715px" zoomAndPan="magnify"><defs><filter height="300%" id="f518a2ryw9wsp" width="300%" x="-1" y="-1"><feGaussianBlur result="blurOut" stdDeviation="2.0"/><feColorMatrix in="blurOut" result="blurOut2" type="matrix" values="0 0 0 0 0 0 0 0 0 0 0 0 0 0 0 0 0 0 .4 0"/><feOffset dx="4.0" dy="4.0" in="blurOut2" result="blurOut3"/><feBlend in="SourceGraphic" in2="blurOut3" mode="normal"/></filter></defs><g><rect fill="#FFFFFF" filter="url(#f518a2ryw9wsp)" height="268.7969" style="stroke: #A80036; stroke-width: 1.0;" width="10" x="45" y="96.2969"/><rect fill="#FFFFFF" filter="url(#f518a2ryw9wsp)" height="256.9297" style="stroke: #A80036; stroke-width: 1.0;" width="10" x="214" y="117.2969"/><rect fill="#FFFFFF" filter="url(#f518a2ryw9wsp)" height="28" style="stroke: #A80036; stroke-width: 1.0;" width="10" x="219" y="154.4297"/><rect fill="#FFFFFF" filter="url(#f518a2ryw9wsp)" height="146.5313" style="stroke: #A80036; stroke-width: 1.0;" width="10" x="219" y="218.5625"/><rect fill="#FFFFFF" filter="url(#f518a2ryw9wsp)" height="117.3984" style="stroke: #A80036; stroke-width: 1.0;" width="10" x="444" y="247.6953"/><rect fill="#FFFFFF" filter="url(#f518a2ryw9wsp)" height="29.1328" style="stroke: #A80036; stroke-width: 1.0;" width="10" x="668" y="276.8281"/><rect fill="#FFFFFF" filter="url(#f518a2ryw9wsp)" height="30" style="stroke: #A80036; stroke-width: 1.0;" width="10" x="668" y="335.0938"/><line style="stroke: #A80036; stroke-width: 1.0; stroke-dasharray: 5.0,5.0;" x1="50" x2="50" y1="86.2969" y2="383.2266"/><line style="stroke: #A80036; stroke-width: 1.0; stroke-dasharray: 5.0,5.0;" x1="219" x2="219" y1="86.2969" y2="383.2266"/><line style="stroke: #A80036; stroke-width: 1.0; stroke-dasharray: 5.0,5.0;" x1="449" x2="449" y1="86.2969" y2="383.2266"/><line style="stroke: #A80036; stroke-width: 1.0; stroke-dasharray: 5.0,5.0;" x1="673" x2="673" y1="86.2969" y2="383.2266"/><text fill="#A80036" font-family="sans-serif" font-size="14" lengthAdjust="spacingAndGlyphs" textLength="78" x="8" y="82.9951">Contributor</text><ellipse cx="50" cy="13" fill="#FEFECE" filter="url(#f518a2ryw9wsp)" rx="8" ry="8" style="stroke: #A80036; stroke-width: 2.0;"/><path d="M50,21 L50,48 M37,29 L63,29 M50,48 L37,63 M50,48 L63,63 " fill="#FEFECE" filter="url(#f518a2ryw9wsp)" style="stroke: #A80036; stroke-width: 2.0;"/><text fill="#A80036" font-family="sans-serif" font-size="14" lengthAdjust="spacingAndGlyphs" textLength="122" x="155" y="82.9951">Registration Form</text><path d="M198.5,42 L198.5,66 M198.5,54 L215.5,54 " fill="#FEFECE" filter="url(#f518a2ryw9wsp)" style="stroke: #A80036; stroke-width: 2.0;"/><ellipse cx="227.5" cy="54" fill="#FEFECE" filter="url(#f518a2ryw9wsp)" rx="12" ry="12" style="stroke: #A80036; stroke-width: 2.0;"/><text fill="#A80036" font-family="sans-serif" font-size="14" lengthAdjust="spacingAndGlyphs" textLength="154" x="369" y="82.9951">Registration Controller</text><ellipse cx="449" cy="54" fill="#FEFECE" filter="url(#f518a2ryw9wsp)" rx="12" ry="12" style="stroke: #A80036; stroke-width: 2.0;"/><polygon fill="#A80036" points="445,42,451,37,449,42,451,47,445,42" style="stroke: #A80036; stroke-width: 1.0;"/><text fill="#A80036" font-family="sans-serif" font-size="14" lengthAdjust="spacingAndGlyphs" textLength="66" x="637" y="82.9951">Database</text><ellipse cx="673" cy="54" fill="#FEFECE" filter="url(#f518a2ryw9wsp)" rx="12" ry="12" style="stroke: #A80036; stroke-width: 2.0;"/><line style="stroke: #A80036; stroke-width: 2.0;" x1="661" x2="685" y1="68" y2="68"/><rect fill="#FFFFFF" filter="url(#f518a2ryw9wsp)" height="268.7969" style="stroke: #A80036; stroke-width: 1.0;" width="10" x="45" y="96.2969"/><rect fill="#FFFFFF" filter="url(#f518a2ryw9wsp)" height="256.9297" style="stroke: #A80036; stroke-width: 1.0;" width="10" x="214" y="117.2969"/><rect fill="#FFFFFF" filter="url(#f518a2ryw9wsp)" height="28" style="stroke: #A80036; stroke-width: 1.0;" width="10" x="219" y="154.4297"/><rect fill="#FFFFFF" filter="url(#f518a2ryw9wsp)" height="146.5313" style="stroke: #A80036; stroke-width: 1.0;" width="10" x="219" y="218.5625"/><rect fill="#FFFFFF" filter="url(#f518a2ryw9wsp)" height="117.3984" style="stroke: #A80036; stroke-width: 1.0;" width="10" x="444" y="247.6953"/><rect fill="#FFFFFF" filter="url(#f518a2ryw9wsp)" height="29.1328" style="stroke: #A80036; stroke-width: 1.0;" width="10" x="668" y="276.8281"/><rect fill="#FFFFFF" filter="url(#f518a2ryw9wsp)" height="30" style="stroke: #A80036; stroke-width: 1.0;" width="10" x="668" y="335.0938"/><polygon fill="#A80036" points="202,113.2969,212,117.2969,202,121.2969,206,117.2969" style="stroke: #A80036; stroke-width: 1.0;"/><line style="stroke: #A80036; stroke-width: 1.0;" x1="55" x2="208" y1="117.2969" y2="117.2969"/><text fill="#A80036" font-family="sans-serif" font-size="13" lengthAdjust="spacingAndGlyphs" textLength="24" x="62" y="112.3638">1: //</text><text fill="#A80036" font-family="sans-serif" font-size="13" lengthAdjust="spacingAndGlyphs" textLength="112" x="90" y="112.3638">request register()</text><line style="stroke: #A80036; stroke-width: 1.0;" x1="229" x2="271" y1="146.5625" y2="146.5625"/><line style="stroke: #A80036; stroke-width: 1.0;" x1="271" x2="271" y1="146.5625" y2="159.5625"/><line style="stroke: #A80036; stroke-width: 1.0;" x1="230" x2="271" y1="159.5625" y2="159.5625"/><polygon fill="#A80036" points="240,155.5625,230,159.5625,240,163.5625,236,159.5625" style="stroke: #A80036; stroke-width: 1.0;"/><text fill="#A80036" font-family="sans-serif" font-size="13" lengthAdjust="spacingAndGlyphs" textLength="24" x="236" y="141.4966">2: //</text><text fill="#A80036" font-family="sans-serif" font-size="13" lengthAdjust="spacingAndGlyphs" textLength="164" x="264" y="141.4966">prompt registration field()</text><polygon fill="#A80036" points="207,214.5625,217,218.5625,207,222.5625,211,218.5625" style="stroke: #A80036; stroke-width: 1.0;"/><line style="stroke: #A80036; stroke-width: 1.0;" x1="55" x2="213" y1="218.5625" y2="218.5625"/><text fill="#A80036" font-family="sans-serif" font-size="13" lengthAdjust="spacingAndGlyphs" textLength="24" x="62" y="213.6294">3: //</text><text fill="#A80036" font-family="sans-serif" font-size="13" lengthAdjust="spacingAndGlyphs" textLength="91" x="90" y="213.6294">register(input)</text><polygon fill="#A80036" points="432,243.6953,442,247.6953,432,251.6953,436,247.6953" style="stroke: #A80036; stroke-width: 1.0;"/><line style="stroke: #A80036; stroke-width: 1.0;" x1="229" x2="438" y1="247.6953" y2="247.6953"/><text fill="#A80036" font-family="sans-serif" font-size="13" lengthAdjust="spacingAndGlyphs" textLength="24" x="236" y="242.7622">4: //</text><text fill="#A80036" font-family="sans-serif" font-size="13" lengthAdjust="spacingAndGlyphs" textLength="168" x="264" y="242.7622">request input verification()</text><polygon fill="#A80036" points="656,272.8281,666,276.8281,656,280.8281,660,276.8281" style="stroke: #A80036; stroke-width: 1.0;"/><line style="stroke: #A80036; stroke-width: 1.0;" x1="454" x2="662" y1="276.8281" y2="276.8281"/><text fill="#A80036" font-family="sans-serif" font-size="13" lengthAdjust="spacingAndGlyphs" textLength="24" x="461" y="271.895">5: //</text><text fill="#A80036" font-family="sans-serif" font-size="13" lengthAdjust="spacingAndGlyphs" textLength="80" x="489" y="271.895">verify input()</text><polygon fill="#A80036" points="465,301.9609,455,305.9609,465,309.9609,461,305.9609" style="stroke: #A80036; stroke-width: 1.0;"/><line style="stroke: #A80036; stroke-width: 1.0; stroke-dasharray: 2.0,2.0;" x1="459" x2="672" y1="305.9609" y2="305.9609"/><text fill="#A80036" font-family="sans-serif" font-size="13" lengthAdjust="spacingAndGlyphs" textLength="24" x="471" y="301.0278">6: //</text><text fill="#A80036" font-family="sans-serif" font-size="13" lengthAdjust="spacingAndGlyphs" textLength="162" x="499" y="301.0278">return verification result()</text><polygon fill="#A80036" points="656,331.0938,666,335.0938,656,339.0938,660,335.0938" style="stroke: #A80036; stroke-width: 1.0;"/><line style="stroke: #A80036; stroke-width: 1.0;" x1="454" x2="662" y1="335.0938" y2="335.0938"/><text fill="#A80036" font-family="sans-serif" font-size="13" lengthAdjust="spacingAndGlyphs" textLength="24" x="461" y="330.1606">7: //</text><text fill="#A80036" font-family="sans-serif" font-size="13" lengthAdjust="spacingAndGlyphs" textLength="118" x="489" y="330.1606">add new account()</text><!--
@startuml
skinparam defaultFontColor #a80036
autonumber "#: //"
autoactivate on
hide footbox

actor Contributor
boundary "Registration Form" as RF
control "Registration Controller" as RC
entity Database

activate Contributor
Contributor -> RF : request register()
RF -> RF : prompt registration field()
deactivate RF

Contributor -> RF : register(input)
RF -> RC : request input verification()
RC -> Database : verify input()
Database - -> RC : return verification result()

RC -> Database : add new account()
deactivate Database
deactivate RC
deactivate RF
deactivate Contributor

@enduml

PlantUML version 1.2017.15(Mon Jul 03 16:45:34 UTC 2017)
(GPL source distribution)
Java Runtime: OpenJDK Runtime Environment
JVM: OpenJDK 64-Bit Server VM
Java Version: 1.8.0_265-b01
Operating System: Linux
OS Version: 5.4.0-1026-azure
Default Encoding: UTF-8
Language: en
Country: null
--></g></svg>