<?xml version="1.0" encoding="UTF-8" standalone="no"?><svg xmlns="http://www.w3.org/2000/svg" xmlns:xlink="http://www.w3.org/1999/xlink" contentScriptType="application/ecmascript" contentStyleType="text/css" height="326px" preserveAspectRatio="none" style="width:551px;height:326px;" version="1.1" viewBox="0 0 551 326" width="551px" zoomAndPan="magnify"><defs><filter height="300%" id="fgtejx2mh9h5o" width="300%" x="-1" y="-1"><feGaussianBlur result="blurOut" stdDeviation="2.0"/><feColorMatrix in="blurOut" result="blurOut2" type="matrix" values="0 0 0 0 0 0 0 0 0 0 0 0 0 0 0 0 0 0 .4 0"/><feOffset dx="4.0" dy="4.0" in="blurOut2" result="blurOut3"/><feBlend in="SourceGraphic" in2="blurOut3" mode="normal"/></filter></defs><g><!--class LoginController--><rect fill="#FEFECE" filter="url(#fgtejx2mh9h5o)" height="53.9375" id="LoginController" style="stroke: #A80036; stroke-width: 1.5;" width="126" x="6" y="14.5"/><ellipse cx="21" cy="33.4688" fill="#ADD1B2" rx="11" ry="11" style="stroke: #A80036; stroke-width: 1.0;"/><path d="M23.9688,39.1094 Q23.3906,39.4063 22.75,39.5469 Q22.1094,39.7031 21.4063,39.7031 Q18.9063,39.7031 17.5781,38.0625 Q16.2656,36.4063 16.2656,33.2813 Q16.2656,30.1563 17.5781,28.5 Q18.9063,26.8438 21.4063,26.8438 Q22.1094,26.8438 22.75,27 Q23.4063,27.1563 23.9688,27.4531 L23.9688,30.1719 Q23.3438,29.5938 22.75,29.3281 Q22.1563,29.0469 21.5313,29.0469 Q20.1875,29.0469 19.5,30.125 Q18.8125,31.1875 18.8125,33.2813 Q18.8125,35.375 19.5,36.4531 Q20.1875,37.5156 21.5313,37.5156 Q22.1563,37.5156 22.75,37.25 Q23.3438,36.9688 23.9688,36.3906 L23.9688,39.1094 Z "/><text fill="#A80036" font-family="sans-serif" font-size="12" font-style="italic" lengthAdjust="spacingAndGlyphs" textLength="58" x="53" y="30.6387">«control»</text><text fill="#A80036" font-family="sans-serif" font-size="12" lengthAdjust="spacingAndGlyphs" textLength="94" x="35" y="44.6074">LoginController</text><line style="stroke: #A80036; stroke-width: 1.5;" x1="7" x2="131" y1="52.4375" y2="52.4375"/><line style="stroke: #A80036; stroke-width: 1.5;" x1="7" x2="131" y1="60.4375" y2="60.4375"/><!--class RegistrationController--><rect fill="#FEFECE" filter="url(#fgtejx2mh9h5o)" height="53.9375" id="RegistrationController" style="stroke: #A80036; stroke-width: 1.5;" width="169" x="167.5" y="14.5"/><ellipse cx="182.5" cy="33.4688" fill="#ADD1B2" rx="11" ry="11" style="stroke: #A80036; stroke-width: 1.0;"/><path d="M185.4688,39.1094 Q184.8906,39.4063 184.25,39.5469 Q183.6094,39.7031 182.9063,39.7031 Q180.4063,39.7031 179.0781,38.0625 Q177.7656,36.4063 177.7656,33.2813 Q177.7656,30.1563 179.0781,28.5 Q180.4063,26.8438 182.9063,26.8438 Q183.6094,26.8438 184.25,27 Q184.9063,27.1563 185.4688,27.4531 L185.4688,30.1719 Q184.8438,29.5938 184.25,29.3281 Q183.6563,29.0469 183.0313,29.0469 Q181.6875,29.0469 181,30.125 Q180.3125,31.1875 180.3125,33.2813 Q180.3125,35.375 181,36.4531 Q181.6875,37.5156 183.0313,37.5156 Q183.6563,37.5156 184.25,37.25 Q184.8438,36.9688 185.4688,36.3906 L185.4688,39.1094 Z "/><text fill="#A80036" font-family="sans-serif" font-size="12" font-style="italic" lengthAdjust="spacingAndGlyphs" textLength="58" x="236" y="30.6387">«control»</text><text fill="#A80036" font-family="sans-serif" font-size="12" lengthAdjust="spacingAndGlyphs" textLength="137" x="196.5" y="44.6074">RegistrationController</text><line style="stroke: #A80036; stroke-width: 1.5;" x1="168.5" x2="335.5" y1="52.4375" y2="52.4375"/><line style="stroke: #A80036; stroke-width: 1.5;" x1="168.5" x2="335.5" y1="60.4375" y2="60.4375"/><!--class IVerification--><rect fill="#FEFECE" filter="url(#fgtejx2mh9h5o)" height="66.7422" id="IVerification" style="stroke: #A80036; stroke-width: 1.5;" width="169" x="371.5" y="8"/><ellipse cx="415.3" cy="26.9688" fill="#ADD1B2" rx="11" ry="11" style="stroke: #A80036; stroke-width: 1.0;"/><path d="M418.2688,32.6094 Q417.6906,32.9063 417.05,33.0469 Q416.4094,33.2031 415.7063,33.2031 Q413.2063,33.2031 411.8781,31.5625 Q410.5656,29.9063 410.5656,26.7813 Q410.5656,23.6563 411.8781,22 Q413.2063,20.3438 415.7063,20.3438 Q416.4094,20.3438 417.05,20.5 Q417.7063,20.6563 418.2688,20.9531 L418.2688,23.6719 Q417.6438,23.0938 417.05,22.8281 Q416.4563,22.5469 415.8313,22.5469 Q414.4875,22.5469 413.8,23.625 Q413.1125,24.6875 413.1125,26.7813 Q413.1125,28.875 413.8,29.9531 Q414.4875,31.0156 415.8313,31.0156 Q416.4563,31.0156 417.05,30.75 Q417.6438,30.4688 418.2688,29.8906 L418.2688,32.6094 Z "/><text fill="#A80036" font-family="sans-serif" font-size="12" font-style="italic" lengthAdjust="spacingAndGlyphs" textLength="70" x="437.2" y="24.1387">«interface»</text><text fill="#A80036" font-family="sans-serif" font-size="12" lengthAdjust="spacingAndGlyphs" textLength="73" x="435.7" y="38.1074">IVerification</text><line style="stroke: #A80036; stroke-width: 1.5;" x1="372.5" x2="539.5" y1="45.9375" y2="45.9375"/><line style="stroke: #A80036; stroke-width: 1.5;" x1="372.5" x2="539.5" y1="53.9375" y2="53.9375"/><text fill="#A80036" font-family="sans-serif" font-size="11" lengthAdjust="spacingAndGlyphs" textLength="157" x="377.5" y="68.1479">verify(username,password)</text><!--class Verification--><rect fill="#FEFECE" filter="url(#fgtejx2mh9h5o)" height="66.7422" id="Verification" style="stroke: #A80036; stroke-width: 1.5;" width="169" x="200.5" y="135"/><ellipse cx="225.85" cy="153.9688" fill="#ADD1B2" rx="11" ry="11" style="stroke: #A80036; stroke-width: 1.0;"/><path d="M228.8188,159.6094 Q228.2406,159.9063 227.6,160.0469 Q226.9594,160.2031 226.2563,160.2031 Q223.7563,160.2031 222.4281,158.5625 Q221.1156,156.9063 221.1156,153.7813 Q221.1156,150.6563 222.4281,149 Q223.7563,147.3438 226.2563,147.3438 Q226.9594,147.3438 227.6,147.5 Q228.2563,147.6563 228.8188,147.9531 L228.8188,150.6719 Q228.1938,150.0938 227.6,149.8281 Q227.0063,149.5469 226.3813,149.5469 Q225.0375,149.5469 224.35,150.625 Q223.6625,151.6875 223.6625,153.7813 Q223.6625,155.875 224.35,156.9531 Q225.0375,158.0156 226.3813,158.0156 Q227.0063,158.0156 227.6,157.75 Q228.1938,157.4688 228.8188,156.8906 L228.8188,159.6094 Z "/><text fill="#A80036" font-family="sans-serif" font-size="12" font-style="italic" lengthAdjust="spacingAndGlyphs" textLength="118" x="240.15" y="151.1387">«subsystem proxy»</text><text fill="#A80036" font-family="sans-serif" font-size="12" lengthAdjust="spacingAndGlyphs" textLength="70" x="264.15" y="165.1074">Verification</text><line style="stroke: #A80036; stroke-width: 1.5;" x1="201.5" x2="368.5" y1="172.9375" y2="172.9375"/><line style="stroke: #A80036; stroke-width: 1.5;" x1="201.5" x2="368.5" y1="180.9375" y2="180.9375"/><text fill="#A80036" font-family="sans-serif" font-size="11" lengthAdjust="spacingAndGlyphs" textLength="157" x="206.5" y="195.1479">verify(username,password)</text><!--class AccountData--><rect fill="#FEFECE" filter="url(#fgtejx2mh9h5o)" height="53.9375" id="AccountData" style="stroke: #A80036; stroke-width: 1.5;" width="113" x="297.5" y="262"/><ellipse cx="312.5" cy="280.9688" fill="#ADD1B2" rx="11" ry="11" style="stroke: #A80036; stroke-width: 1.0;"/><path d="M315.4688,286.6094 Q314.8906,286.9063 314.25,287.0469 Q313.6094,287.2031 312.9063,287.2031 Q310.4063,287.2031 309.0781,285.5625 Q307.7656,283.9063 307.7656,280.7813 Q307.7656,277.6563 309.0781,276 Q310.4063,274.3438 312.9063,274.3438 Q313.6094,274.3438 314.25,274.5 Q314.9063,274.6563 315.4688,274.9531 L315.4688,277.6719 Q314.8438,277.0938 314.25,276.8281 Q313.6563,276.5469 313.0313,276.5469 Q311.6875,276.5469 311,277.625 Q310.3125,278.6875 310.3125,280.7813 Q310.3125,282.875 311,283.9531 Q311.6875,285.0156 313.0313,285.0156 Q313.6563,285.0156 314.25,284.75 Q314.8438,284.4688 315.4688,283.8906 L315.4688,286.6094 Z "/><text fill="#A80036" font-family="sans-serif" font-size="12" font-style="italic" lengthAdjust="spacingAndGlyphs" textLength="50" x="342" y="278.1387">«entity»</text><text fill="#A80036" font-family="sans-serif" font-size="12" lengthAdjust="spacingAndGlyphs" textLength="81" x="326.5" y="292.1074">AccountData</text><line style="stroke: #A80036; stroke-width: 1.5;" x1="298.5" x2="409.5" y1="299.9375" y2="299.9375"/><line style="stroke: #A80036; stroke-width: 1.5;" x1="298.5" x2="409.5" y1="307.9375" y2="307.9375"/><!--link IVerification to Verification--><path d="M394.5519,87.1369 C373.3381,102.8922 349.9739,120.2446 330.291,134.8628 " fill="none" id="IVerification-Verification" style="stroke: #A80036; stroke-width: 1.0;"/><polygon fill="none" points="390.3942,81.5054,410.6241,75.2002,398.7416,92.7447,390.3942,81.5054" style="stroke: #A80036; stroke-width: 1.0;"/><!--link LoginController to Verification--><path d="M115.0725,68.5889 C146.6138,87.134 188.7986,111.9371 223.2454,132.1906 " fill="none" id="LoginController-Verification" style="stroke: #A80036; stroke-width: 1.0;"/><polygon fill="#A80036" points="227.8367,134.8901,222.1059,126.8803,223.5266,132.3558,218.051,133.7765,227.8367,134.8901" style="stroke: #A80036; stroke-width: 1.0;"/><text fill="#A80036" font-family="sans-serif" font-size="13" lengthAdjust="spacingAndGlyphs" textLength="24" x="98.9518" y="88.6771">0..1</text><text fill="#A80036" font-family="sans-serif" font-size="13" lengthAdjust="spacingAndGlyphs" textLength="24" x="190.2202" y="123.9019">0..1</text><!--link RegistrationController to Verification--><path d="M259.0793,68.7447 C263.7234,86.6173 269.8648,110.2525 275.004,130.0306 " fill="none" id="RegistrationController-Verification" style="stroke: #A80036; stroke-width: 1.0;"/><polygon fill="#A80036" points="276.2875,134.97,277.8953,125.2533,275.0299,130.1307,270.1525,127.2654,276.2875,134.97" style="stroke: #A80036; stroke-width: 1.0;"/><text fill="#A80036" font-family="sans-serif" font-size="13" lengthAdjust="spacingAndGlyphs" textLength="24" x="234.0029" y="88.4334">0..1</text><text fill="#A80036" font-family="sans-serif" font-size="13" lengthAdjust="spacingAndGlyphs" textLength="24" x="248.2097" y="123.9976">0..1</text><!--link IVerification to AccountData--><path d="M442.1377,75.1365 C422.3896,123.0546 386.4158,210.3441 367.0971,257.2204 " fill="none" id="IVerification-AccountData" style="stroke: #A80036; stroke-width: 1.0;"/><polygon fill="#A80036" points="365.1669,261.9038,372.2944,255.1068,367.072,257.281,364.8979,252.0586,365.1669,261.9038" style="stroke: #A80036; stroke-width: 1.0;"/><!--link Verification to AccountData--><path d="M304.2203,202.066 C314.0616,219.2526 325.9816,240.0694 335.6898,257.0234 " fill="none" id="Verification-AccountData" style="stroke: #A80036; stroke-width: 1.0;"/><polygon fill="#A80036" points="338.3657,261.6967,337.3647,251.8988,335.8811,257.3577,330.4223,255.8742,338.3657,261.6967" style="stroke: #A80036; stroke-width: 1.0;"/><!--
@startuml
skinparam defaultFontColor #a80036

class LoginController <<control>>

class RegistrationController <<control>>

class IVerification <<interface>> {
   verify(username,password)
}

class Verification <<subsystem proxy>> extends IVerification {
   verify(username,password)
}

class AccountData <<entity>>

LoginController "0..1" - -> "0..1" Verification
RegistrationController "0..1" - -> "0..1" Verification
IVerification - -> AccountData
Verification - -> AccountData

@enduml

PlantUML version 1.2017.15(Mon Jul 03 16:45:34 UTC 2017)
(GPL source distribution)
Java Runtime: OpenJDK Runtime Environment
JVM: OpenJDK 64-Bit Server VM
Java Version: 1.8.0_265-b01
Operating System: Linux
OS Version: 5.4.0-1026-azure
Default Encoding: UTF-8
Language: en
Country: null
--></g></svg>