<?xml version="1.0" encoding="UTF-8" standalone="no"?><svg xmlns="http://www.w3.org/2000/svg" xmlns:xlink="http://www.w3.org/1999/xlink" contentScriptType="application/ecmascript" contentStyleType="text/css" height="911px" preserveAspectRatio="none" style="width:821px;height:911px;" version="1.1" viewBox="0 0 821 911" width="821px" zoomAndPan="magnify"><defs><filter height="300%" id="f1uw57hfjb2g6u" width="300%" x="-1" y="-1"><feGaussianBlur result="blurOut" stdDeviation="2.0"/><feColorMatrix in="blurOut" result="blurOut2" type="matrix" values="0 0 0 0 0 0 0 0 0 0 0 0 0 0 0 0 0 0 .4 0"/><feOffset dx="4.0" dy="4.0" in="blurOut2" result="blurOut3"/><feBlend in="SourceGraphic" in2="blurOut3" mode="normal"/></filter></defs><g><!--MD5=[fee662a292a0353a69bd162820bae93b]
entity User--><ellipse cx="247" cy="581.5" fill="#FEFECE" filter="url(#f1uw57hfjb2g6u)" rx="8" ry="8" style="stroke: #A80036; stroke-width: 1.5;"/><path d="M247,589.5 L247,616.5 M234,597.5 L260,597.5 M247,616.5 L234,631.5 M247,616.5 L260,631.5 " fill="none" filter="url(#f1uw57hfjb2g6u)" style="stroke: #A80036; stroke-width: 1.5;"/><text fill="#000000" font-family="sans-serif" font-size="14" lengthAdjust="spacingAndGlyphs" textLength="32" x="231" y="649.9951">User</text><!--MD5=[0e386df696c8989779f0bde43ae749c6]
entity Uploader--><ellipse cx="676" cy="17.5" fill="#FEFECE" filter="url(#f1uw57hfjb2g6u)" rx="8" ry="8" style="stroke: #A80036; stroke-width: 1.5;"/><path d="M676,25.5 L676,52.5 M663,33.5 L689,33.5 M676,52.5 L663,67.5 M676,52.5 L689,67.5 " fill="none" filter="url(#f1uw57hfjb2g6u)" style="stroke: #A80036; stroke-width: 1.5;"/><text fill="#000000" font-family="sans-serif" font-size="14" lengthAdjust="spacingAndGlyphs" textLength="62" x="645" y="85.9951">Uploader</text><!--MD5=[b90713b5ddaea180d3429e7b1ef7c0f8]
entity Maintainer--><ellipse cx="502" cy="439.5" fill="#FEFECE" filter="url(#f1uw57hfjb2g6u)" rx="8" ry="8" style="stroke: #A80036; stroke-width: 1.5;"/><path d="M502,447.5 L502,474.5 M489,455.5 L515,455.5 M502,474.5 L489,489.5 M502,474.5 L515,489.5 " fill="none" filter="url(#f1uw57hfjb2g6u)" style="stroke: #A80036; stroke-width: 1.5;"/><text fill="#000000" font-family="sans-serif" font-size="14" lengthAdjust="spacingAndGlyphs" textLength="71" x="466.5" y="507.9951">Maintainer</text><!--MD5=[a74c9f7ba4e347df35943d93696ec108]
entity IPFS--><ellipse cx="105" cy="829.5" fill="#FEFECE" filter="url(#f1uw57hfjb2g6u)" rx="8" ry="8" style="stroke: #A80036; stroke-width: 1.5;"/><path d="M105,837.5 L105,864.5 M92,845.5 L118,845.5 M105,864.5 L92,879.5 M105,864.5 L118,879.5 " fill="none" filter="url(#f1uw57hfjb2g6u)" style="stroke: #A80036; stroke-width: 1.5;"/><text fill="#000000" font-family="sans-serif" font-size="14" lengthAdjust="spacingAndGlyphs" textLength="29" x="90.5" y="897.9951">IPFS</text><!--MD5=[fa1e3283224feb76407c84b7e90ed808]
entity Database--><ellipse cx="482" cy="829.5" fill="#FEFECE" filter="url(#f1uw57hfjb2g6u)" rx="8" ry="8" style="stroke: #A80036; stroke-width: 1.5;"/><path d="M482,837.5 L482,864.5 M469,845.5 L495,845.5 M482,864.5 L469,879.5 M482,864.5 L495,879.5 " fill="none" filter="url(#f1uw57hfjb2g6u)" style="stroke: #A80036; stroke-width: 1.5;"/><text fill="#000000" font-family="sans-serif" font-size="14" lengthAdjust="spacingAndGlyphs" textLength="66" x="449" y="897.9951">Database</text><ellipse cx="166.7904" cy="744.5236" fill="#FEFECE" filter="url(#f1uw57hfjb2g6u)" rx="51.7904" ry="14.5236" style="stroke: #A80036; stroke-width: 1.5;"/><text fill="#000000" font-family="sans-serif" font-size="14" lengthAdjust="spacingAndGlyphs" textLength="69" x="132.2904" y="749.1721">Download</text><ellipse cx="285.9914" cy="744.5236" fill="#FEFECE" filter="url(#f1uw57hfjb2g6u)" rx="31.9914" ry="14.5236" style="stroke: #A80036; stroke-width: 1.5;"/><text fill="#000000" font-family="sans-serif" font-size="14" lengthAdjust="spacingAndGlyphs" textLength="41" x="265.4914" y="749.1721">Query</text><ellipse cx="766.0122" cy="228.5236" fill="#FEFECE" filter="url(#f1uw57hfjb2g6u)" rx="44.0122" ry="14.5236" style="stroke: #A80036; stroke-width: 1.5;"/><text fill="#000000" font-family="sans-serif" font-size="14" lengthAdjust="spacingAndGlyphs" textLength="58" x="737.0122" y="233.1721">Register</text><ellipse cx="564.163" cy="744.5236" fill="#FEFECE" filter="url(#f1uw57hfjb2g6u)" rx="29.163" ry="14.5236" style="stroke: #A80036; stroke-width: 1.5;"/><text fill="#000000" font-family="sans-serif" font-size="14" lengthAdjust="spacingAndGlyphs" textLength="37" x="545.663" y="749.1721">Login</text><ellipse cx="522.211" cy="612.4422" fill="#FEFECE" filter="url(#f1uw57hfjb2g6u)" rx="97.711" ry="21.9422" style="stroke: #A80036; stroke-width: 1.5;"/><text fill="#000000" font-family="sans-serif" font-size="14" lengthAdjust="spacingAndGlyphs" textLength="171" x="436.711" y="617.0906">Vote for New Maintainers</text><ellipse cx="583.8489" cy="166.7698" fill="#FEFECE" filter="url(#f1uw57hfjb2g6u)" rx="71.8489" ry="16.7698" style="stroke: #A80036; stroke-width: 1.5;"/><text fill="#000000" font-family="sans-serif" font-size="14" lengthAdjust="spacingAndGlyphs" textLength="111" x="528.3489" y="171.4182">Request Upload</text><ellipse cx="332.2229" cy="379.0446" fill="#FEFECE" filter="url(#f1uw57hfjb2g6u)" rx="93.2229" ry="21.0446" style="stroke: #A80036; stroke-width: 1.5;"/><text fill="#000000" font-family="sans-serif" font-size="14" lengthAdjust="spacingAndGlyphs" textLength="161" x="251.7229" y="383.693">Check against Conflicts</text><ellipse cx="497.0038" cy="300.4008" fill="#FEFECE" filter="url(#f1uw57hfjb2g6u)" rx="125.0038" ry="27.4008" style="stroke: #A80036; stroke-width: 1.5;"/><text fill="#000000" font-family="sans-serif" font-size="14" lengthAdjust="spacingAndGlyphs" textLength="230" x="382.0038" y="305.0492">Request Review from Maintainers</text><ellipse cx="42.9411" cy="744.5236" fill="#FEFECE" filter="url(#f1uw57hfjb2g6u)" rx="36.9411" ry="14.5236" style="stroke: #A80036; stroke-width: 1.5;"/><text fill="#000000" font-family="sans-serif" font-size="14" lengthAdjust="spacingAndGlyphs" textLength="48" x="18.9411" y="749.1721">Upload</text><!--MD5=[fe4d1e544d1f5aae5d4d05c630db20d2]
link User to Download--><path d="M230.81,639.81 C215.12,665.3 191.76,703.27 178.08,725.49 " fill="none" id="User-&gt;Download" style="stroke: #A80036; stroke-width: 1.0;"/><polygon fill="#A80036" points="175.32,729.99,183.4383,724.4139,177.9365,725.7293,176.6211,720.2275,175.32,729.99" style="stroke: #A80036; stroke-width: 1.0;"/><!--MD5=[5128ad341e1f5658b79b0c894c7a6c43]
link Download to IPFS--><path d="M159.64,759.02 C150.44,775.94 134.4,805.45 122.07,828.12 " fill="none" id="Download-&gt;IPFS" style="stroke: #A80036; stroke-width: 1.0;"/><polygon fill="#A80036" points="119.65,832.56,127.4562,826.5548,122.0333,828.1645,120.4235,822.7416,119.65,832.56" style="stroke: #A80036; stroke-width: 1.0;"/><!--MD5=[ed3a9acfa5b2fcf1ba972f6d55686688]
link User to Query--><path d="M258.91,653.21 C266.08,677.1 274.87,706.39 280.45,725 " fill="none" id="User-&gt;Query" style="stroke: #A80036; stroke-width: 1.0;"/><polygon fill="#A80036" points="281.94,729.95,283.1718,720.1785,280.4967,725.1628,275.5123,722.4877,281.94,729.95" style="stroke: #A80036; stroke-width: 1.0;"/><!--MD5=[c412ae0b98e24140cd1be0a7e2e34b30]
link Query to Database--><path d="M300.52,757.6 C312.15,767 329.11,780.08 345,790 C379.05,811.25 420.42,831.53 448.73,844.64 " fill="none" id="Query-Database" style="stroke: #A80036; stroke-width: 1.0;"/><!--MD5=[d9844137d4d16cb521dc2dc08d85e718]
link Uploader to Register--><path d="M695.97,89 C714.97,126.57 742.69,181.39 756.88,209.46 " fill="none" id="Uploader-&gt;Register" style="stroke: #A80036; stroke-width: 1.0;"/><polygon fill="#A80036" points="759.2,214.06,758.7276,204.2225,756.9525,209.5936,751.5814,207.8185,759.2,214.06" style="stroke: #A80036; stroke-width: 1.0;"/><!--MD5=[d25a51d98ea9c50230c9ef23c5563995]
link Register to Database--><path d="M769.91,243.29 C776.94,269.37 791,327.8 791,378 C791,378 791,378 791,745.5 C791,803.82 594.78,841.59 515.07,854.52 " fill="none" id="Register-Database" style="stroke: #A80036; stroke-width: 1.0;"/><!--MD5=[e30f86edc449e57e7101458948ed51dd]
link Uploader to Request--><path d="M644.85,88.94 C629.7,108.13 612.14,130.37 599.79,146.01 " fill="none" id="Uploader-&gt;Request" style="stroke: #A80036; stroke-width: 1.0;"/><polygon fill="#A80036" points="596.45,150.24,605.1652,145.6526,599.5473,146.3149,598.885,140.6969,596.45,150.24" style="stroke: #A80036; stroke-width: 1.0;"/><!--MD5=[fbc8791647b6f74d1a9fa8dc768018c7]
link Request to Login--><path d="M604.2,183.42 C631.01,205.81 675,250.08 675,299.5 C675,299.5 675,299.5 675,613.5 C675,667.1 619.75,709.78 587.21,730.27 " fill="none" id="Request-&gt;Login" style="stroke: #A80036; stroke-width: 1.0; stroke-dasharray: 7.0,7.0;"/><polygon fill="#A80036" points="582.58,733.13,592.3393,731.8052,586.8344,730.5031,588.1364,724.9982,582.58,733.13" style="stroke: #A80036; stroke-width: 1.0;"/><text fill="#000000" font-family="sans-serif" font-size="13" lengthAdjust="spacingAndGlyphs" textLength="61" x="676" y="475.0669">«include»</text><!--MD5=[afcc5643538f15b2e785c705bea68025]
link Request to Check--><path d="M528.29,177.87 C475.03,190.39 396.82,217.44 355,273 C337.58,296.15 332.83,329.84 331.79,352.77 " fill="none" id="Request-&gt;Check" style="stroke: #A80036; stroke-width: 1.0; stroke-dasharray: 7.0,7.0;"/><polygon fill="#A80036" points="331.61,357.78,335.9413,348.9347,331.7956,352.7834,327.9468,348.6377,331.61,357.78" style="stroke: #A80036; stroke-width: 1.0;"/><text fill="#000000" font-family="sans-serif" font-size="13" lengthAdjust="spacingAndGlyphs" textLength="61" x="426" y="233.0669">«include»</text><!--MD5=[8f2fb4e962bc34e9b94d529a62651e55]
link Check to Database--><path d="M340.08,399.96 C351.5,430.02 371,488.94 371,541 C371,541 371,541 371,745.5 C371,790.66 416.28,824.64 449,843.29 " fill="none" id="Check-Database" style="stroke: #A80036; stroke-width: 1.0;"/><!--MD5=[f5dfd117e46302a71c24aee297856611]
link Request to Review--><path d="M573.51,183.86 C559.61,204.87 534.8,242.36 517.21,268.96 " fill="none" id="Request-&gt;Review" style="stroke: #A80036; stroke-width: 1.0; stroke-dasharray: 7.0,7.0;"/><polygon fill="#A80036" points="514.45,273.13,522.7496,267.8274,517.207,268.9588,516.0756,263.4162,514.45,273.13" style="stroke: #A80036; stroke-width: 1.0;"/><text fill="#000000" font-family="sans-serif" font-size="13" lengthAdjust="spacingAndGlyphs" textLength="61" x="554" y="233.0669">«include»</text><!--MD5=[91f7c7e7779900bad58cba25269eeaf0]
link Review to Maintainer--><path d="M497.79,328.12 C498.61,355.51 499.89,398.48 500.82,429.87 " fill="none" id="Review-Maintainer" style="stroke: #A80036; stroke-width: 1.0;"/><!--MD5=[014904937990ad01ecd89b16fba4fadd]
link Upload to IPFS--><path d="M50.36,759.02 C60.17,777.07 77.77,809.44 90.35,832.56 " fill="none" id="Upload-IPFS" style="stroke: #A80036; stroke-width: 1.0;"/><!--MD5=[732dd9bf00ccbe52a5beba9c2152f385]
link Maintainer to Vote--><path d="M507.68,511.24 C511.06,534.94 515.27,564.37 518.24,585.2 " fill="none" id="Maintainer-&gt;Vote" style="stroke: #A80036; stroke-width: 1.0;"/><polygon fill="#A80036" points="518.97,590.3,521.6455,580.8215,518.2569,585.3511,513.7273,581.9625,518.97,590.3" style="stroke: #A80036; stroke-width: 1.0;"/><!--MD5=[a836fded0c80e4c409f211f3dc43a4b0]
link Vote to Database--><path d="M518.52,634.9 C511.81,676.16 496.99,767.29 488.44,819.91 " fill="none" id="Vote-Database" style="stroke: #A80036; stroke-width: 1.0;"/><!--MD5=[13a77bd23520ac5923e9e69896e3dc80]
link Vote to Login--><path d="M528.84,634.68 C536.96,659.8 550.36,701.27 558.06,725.1 " fill="none" id="Vote-&gt;Login" style="stroke: #A80036; stroke-width: 1.0; stroke-dasharray: 7.0,7.0;"/><polygon fill="#A80036" points="559.61,729.91,560.6383,720.115,558.0675,725.1539,553.0286,722.583,559.61,729.91" style="stroke: #A80036; stroke-width: 1.0;"/><text fill="#000000" font-family="sans-serif" font-size="13" lengthAdjust="spacingAndGlyphs" textLength="61" x="550" y="696.0669">«include»</text><!--MD5=[90f0eec871badf24b26e64e95f40d1fb]
link Login to Database--><path d="M554.59,758.58 C543.91,773.43 525.96,798.39 510.58,819.76 " fill="none" id="Login-Database" style="stroke: #A80036; stroke-width: 1.0;"/><!--MD5=[14c04580ed9e43dda371fa9ab83ad9a9]
@startuml
actor User
actor Uploader
actor Maintainer
actor IPFS
actor Database

usecase Download
usecase Query

usecase Register
usecase Login
usecase "Vote for New Maintainers" as Vote

usecase "Request Upload" as Request
usecase "Check against Conflicts" as Check
usecase "Request Review from Maintainers" as Review
usecase Upload

User - -> Download
Download - -> IPFS

User - -> Query
Query - - Database

Uploader - -> Register
Register - - Database

Uploader - -> Request
Request ..> Login : <<include>>
Request ..> Check : <<include>>
Check - - Database
Request ..> Review : <<include>>
Review - - Maintainer

Upload - - IPFS

Maintainer - -> Vote
Vote - - Database
Vote ..> Login : <<include>>
Login - - Database

@enduml

PlantUML version 1.2020.02(Sun Mar 01 17:22:07 ICT 2020)
(GPL source distribution)
Java Runtime: OpenJDK Runtime Environment
JVM: OpenJDK 64-Bit Server VM
Java Version: 11.0.8+10-post-Debian-1
Operating System: Linux
Default Encoding: UTF-8
Language: en
Country: DK
--></g></svg>