<?xml version="1.0" encoding="UTF-8" standalone="no"?><svg xmlns="http://www.w3.org/2000/svg" xmlns:xlink="http://www.w3.org/1999/xlink" contentScriptType="application/ecmascript" contentStyleType="text/css" height="352px" preserveAspectRatio="none" style="width:648px;height:352px;" version="1.1" viewBox="0 0 648 352" width="648px" zoomAndPan="magnify"><defs><filter height="300%" id="f1grhg8s4pql18" width="300%" x="-1" y="-1"><feGaussianBlur result="blurOut" stdDeviation="2.0"/><feColorMatrix in="blurOut" result="blurOut2" type="matrix" values="0 0 0 0 0 0 0 0 0 0 0 0 0 0 0 0 0 0 .4 0"/><feOffset dx="4.0" dy="4.0" in="blurOut2" result="blurOut3"/><feBlend in="SourceGraphic" in2="blurOut3" mode="normal"/></filter></defs><g><!--class ProposalForm--><rect fill="#FEFECE" filter="url(#f1grhg8s4pql18)" height="86.4141" id="ProposalForm" style="stroke: #A80036; stroke-width: 1.5;" width="204" x="185.5" y="8"/><ellipse cx="240.25" cy="24" fill="#ADD1B2" rx="11" ry="11" style="stroke: #A80036; stroke-width: 1.0;"/><path d="M243.2188,29.6406 Q242.6406,29.9375 242,30.0781 Q241.3594,30.2344 240.6563,30.2344 Q238.1563,30.2344 236.8281,28.5938 Q235.5156,26.9375 235.5156,23.8125 Q235.5156,20.6875 236.8281,19.0313 Q238.1563,17.375 240.6563,17.375 Q241.3594,17.375 242,17.5313 Q242.6563,17.6875 243.2188,17.9844 L243.2188,20.7031 Q242.5938,20.125 242,19.8594 Q241.4063,19.5781 240.7813,19.5781 Q239.4375,19.5781 238.75,20.6563 Q238.0625,21.7188 238.0625,23.8125 Q238.0625,25.9063 238.75,26.9844 Q239.4375,28.0469 240.7813,28.0469 Q241.4063,28.0469 242,27.7813 Q242.5938,27.5 243.2188,26.9219 L243.2188,29.6406 Z "/><text fill="#A80036" font-family="sans-serif" font-size="12" lengthAdjust="spacingAndGlyphs" textLength="86" x="260.75" y="28.1543">ProposalForm</text><line style="stroke: #A80036; stroke-width: 1.5;" x1="186.5" x2="388.5" y1="40" y2="40"/><line style="stroke: #A80036; stroke-width: 1.5;" x1="186.5" x2="388.5" y1="48" y2="48"/><text fill="#A80036" font-family="sans-serif" font-size="11" lengthAdjust="spacingAndGlyphs" textLength="192" x="191.5" y="62.2104">create package update proposal()</text><text fill="#A80036" font-family="sans-serif" font-size="11" lengthAdjust="spacingAndGlyphs" textLength="163" x="191.5" y="75.0151">prompt for package names()</text><text fill="#A80036" font-family="sans-serif" font-size="11" lengthAdjust="spacingAndGlyphs" textLength="159" x="191.5" y="87.8198">prompt for update(package)</text><!--class ProposalCollection--><rect fill="#FEFECE" filter="url(#f1grhg8s4pql18)" height="60.8047" id="ProposalCollection" style="stroke: #A80036; stroke-width: 1.5;" width="148" x="213.5" y="154"/><ellipse cx="228.5" cy="170" fill="#ADD1B2" rx="11" ry="11" style="stroke: #A80036; stroke-width: 1.0;"/><path d="M231.4688,175.6406 Q230.8906,175.9375 230.25,176.0781 Q229.6094,176.2344 228.9063,176.2344 Q226.4063,176.2344 225.0781,174.5938 Q223.7656,172.9375 223.7656,169.8125 Q223.7656,166.6875 225.0781,165.0313 Q226.4063,163.375 228.9063,163.375 Q229.6094,163.375 230.25,163.5313 Q230.9063,163.6875 231.4688,163.9844 L231.4688,166.7031 Q230.8438,166.125 230.25,165.8594 Q229.6563,165.5781 229.0313,165.5781 Q227.6875,165.5781 227,166.6563 Q226.3125,167.7188 226.3125,169.8125 Q226.3125,171.9063 227,172.9844 Q227.6875,174.0469 229.0313,174.0469 Q229.6563,174.0469 230.25,173.7813 Q230.8438,173.5 231.4688,172.9219 L231.4688,175.6406 Z "/><text fill="#A80036" font-family="sans-serif" font-size="12" lengthAdjust="spacingAndGlyphs" textLength="116" x="242.5" y="174.1543">ProposalCollection</text><line style="stroke: #A80036; stroke-width: 1.5;" x1="214.5" x2="360.5" y1="186" y2="186"/><line style="stroke: #A80036; stroke-width: 1.5;" x1="214.5" x2="360.5" y1="194" y2="194"/><text fill="#A80036" font-family="sans-serif" font-size="11" lengthAdjust="spacingAndGlyphs" textLength="129" x="219.5" y="208.2104">add proposal(updates)</text><!--class IMetadataSystem--><rect fill="#FEFECE" filter="url(#f1grhg8s4pql18)" height="66.7422" id="IMetadataSystem" style="stroke: #A80036; stroke-width: 1.5;" width="169" x="6" y="275"/><ellipse cx="33.6" cy="293.9688" fill="#B4A7E5" rx="11" ry="11" style="stroke: #A80036; stroke-width: 1.0;"/><path d="M29.5219,289.7344 L29.5219,287.5781 L36.9125,287.5781 L36.9125,289.7344 L34.4438,289.7344 L34.4438,297.8125 L36.9125,297.8125 L36.9125,299.9688 L29.5219,299.9688 L29.5219,297.8125 L31.9906,297.8125 L31.9906,289.7344 L29.5219,289.7344 Z "/><text fill="#A80036" font-family="sans-serif" font-size="12" font-style="italic" lengthAdjust="spacingAndGlyphs" textLength="70" x="69.9" y="291.1387">«interface»</text><text fill="#A80036" font-family="sans-serif" font-size="12" font-style="italic" lengthAdjust="spacingAndGlyphs" textLength="109" x="50.4" y="305.1074">IMetadataSystem</text><line style="stroke: #A80036; stroke-width: 1.5;" x1="7" x2="174" y1="312.9375" y2="312.9375"/><line style="stroke: #A80036; stroke-width: 1.5;" x1="7" x2="174" y1="320.9375" y2="320.9375"/><text fill="#A80036" font-family="sans-serif" font-size="11" lengthAdjust="spacingAndGlyphs" textLength="157" x="12" y="335.1479">check for conflicts(updates)</text><!--class IRDBConnector--><rect fill="#FEFECE" filter="url(#f1grhg8s4pql18)" height="66.7422" id="IRDBConnector" style="stroke: #A80036; stroke-width: 1.5;" width="155" x="210" y="275"/><ellipse cx="238.05" cy="293.9688" fill="#B4A7E5" rx="11" ry="11" style="stroke: #A80036; stroke-width: 1.0;"/><path d="M233.9719,289.7344 L233.9719,287.5781 L241.3625,287.5781 L241.3625,289.7344 L238.8938,289.7344 L238.8938,297.8125 L241.3625,297.8125 L241.3625,299.9688 L233.9719,299.9688 L233.9719,297.8125 L236.4406,297.8125 L236.4406,289.7344 L233.9719,289.7344 Z "/><text fill="#A80036" font-family="sans-serif" font-size="12" font-style="italic" lengthAdjust="spacingAndGlyphs" textLength="70" x="266.95" y="291.1387">«interface»</text><text fill="#A80036" font-family="sans-serif" font-size="12" font-style="italic" lengthAdjust="spacingAndGlyphs" textLength="94" x="254.95" y="305.1074">IRDBConnector</text><line style="stroke: #A80036; stroke-width: 1.5;" x1="211" x2="364" y1="312.9375" y2="312.9375"/><line style="stroke: #A80036; stroke-width: 1.5;" x1="211" x2="364" y1="320.9375" y2="320.9375"/><text fill="#A80036" font-family="sans-serif" font-size="11" lengthAdjust="spacingAndGlyphs" textLength="143" x="216" y="335.1479">insert_proposal(updates)</text><!--class NotificationSystem--><rect fill="#FEFECE" filter="url(#f1grhg8s4pql18)" height="60.8047" id="NotificationSystem" style="stroke: #A80036; stroke-width: 1.5;" width="237" x="400" y="278"/><ellipse cx="456.25" cy="294" fill="#ADD1B2" rx="11" ry="11" style="stroke: #A80036; stroke-width: 1.0;"/><path d="M459.2188,299.6406 Q458.6406,299.9375 458,300.0781 Q457.3594,300.2344 456.6563,300.2344 Q454.1563,300.2344 452.8281,298.5938 Q451.5156,296.9375 451.5156,293.8125 Q451.5156,290.6875 452.8281,289.0313 Q454.1563,287.375 456.6563,287.375 Q457.3594,287.375 458,287.5313 Q458.6563,287.6875 459.2188,287.9844 L459.2188,290.7031 Q458.5938,290.125 458,289.8594 Q457.4063,289.5781 456.7813,289.5781 Q455.4375,289.5781 454.75,290.6563 Q454.0625,291.7188 454.0625,293.8125 Q454.0625,295.9063 454.75,296.9844 Q455.4375,298.0469 456.7813,298.0469 Q457.4063,298.0469 458,297.7813 Q458.5938,297.5 459.2188,296.9219 L459.2188,299.6406 Z "/><text fill="#A80036" font-family="sans-serif" font-size="12" lengthAdjust="spacingAndGlyphs" textLength="116" x="476.75" y="298.1543">NotificationSystem</text><line style="stroke: #A80036; stroke-width: 1.5;" x1="401" x2="636" y1="310" y2="310"/><line style="stroke: #A80036; stroke-width: 1.5;" x1="401" x2="636" y1="318" y2="318"/><text fill="#A80036" font-family="sans-serif" font-size="11" lengthAdjust="spacingAndGlyphs" textLength="225" x="406" y="332.2104">notify maintainers for reviews(updates)</text><!--link ProposalForm to ProposalCollection--><path d="M287.5,94.3436 C287.5,113.6819 287.5,136.0213 287.5,153.6248 " fill="none" id="ProposalForm-ProposalCollection" style="stroke: #A80036; stroke-width: 1.0;"/><text fill="#A80036" font-family="sans-serif" font-size="13" lengthAdjust="spacingAndGlyphs" textLength="23" x="262.6672" y="114.4913">0..*</text><text fill="#A80036" font-family="sans-serif" font-size="13" lengthAdjust="spacingAndGlyphs" textLength="8" x="278.675" y="142.8106">1</text><!--link ProposalCollection to IRDBConnector--><path d="M287.5,215.1517 C287.5,233.2248 287.5,256.1207 287.5,274.7137 " fill="none" id="ProposalCollection-IRDBConnector" style="stroke: #A80036; stroke-width: 1.0;"/><text fill="#A80036" font-family="sans-serif" font-size="13" lengthAdjust="spacingAndGlyphs" textLength="8" x="278.7125" y="234.762">1</text><text fill="#A80036" font-family="sans-serif" font-size="13" lengthAdjust="spacingAndGlyphs" textLength="8" x="278.7375" y="263.9476">1</text><!--link ProposalCollection to IMetadataSystem--><path d="M238.8034,215.1517 C209.9765,233.2965 173.4267,256.3025 143.8252,274.9349 " fill="none" id="ProposalCollection-IMetadataSystem" style="stroke: #A80036; stroke-width: 1.0;"/><text fill="#A80036" font-family="sans-serif" font-size="13" lengthAdjust="spacingAndGlyphs" textLength="8" x="220.4288" y="234.762">1</text><text fill="#A80036" font-family="sans-serif" font-size="13" lengthAdjust="spacingAndGlyphs" textLength="8" x="145.5361" y="263.9556">1</text><!--link ProposalCollection to NotificationSystem--><path d="M344.6011,215.1517 C380.2736,234.3006 426.0319,258.8635 461.6559,277.9863 " fill="none" id="ProposalCollection-NotificationSystem" style="stroke: #A80036; stroke-width: 1.0;"/><text fill="#A80036" font-family="sans-serif" font-size="13" lengthAdjust="spacingAndGlyphs" textLength="8" x="347.0554" y="234.762">1</text><text fill="#A80036" font-family="sans-serif" font-size="13" lengthAdjust="spacingAndGlyphs" textLength="8" x="440.3463" y="266.7736">1</text><!--
@startuml
skinparam defaultFontColor #a80036

class ProposalForm {
   create package update proposal()
   prompt for package names()
   prompt for update(package)
}

class ProposalCollection {
   add proposal(updates)
}

interface IMetadataSystem <<interface>> {
   check for conflicts(updates)
}

interface IRDBConnector <<interface>> {
   insert_proposal(updates)
}

class NotificationSystem {
   notify maintainers for reviews(updates)
}

ProposalForm "0..*" - - "1" ProposalCollection
ProposalCollection "1" - - "1" IRDBConnector
ProposalCollection "1" - - "1" IMetadataSystem
ProposalCollection "1" - - "1" NotificationSystem

@enduml

PlantUML version 1.2017.15(Mon Jul 03 16:45:34 UTC 2017)
(GPL source distribution)
Java Runtime: OpenJDK Runtime Environment
JVM: OpenJDK 64-Bit Server VM
Java Version: 1.8.0_265-b01
Operating System: Linux
OS Version: 5.4.0-1031-azure
Default Encoding: UTF-8
Language: en
Country: null
--></g></svg>