<?xml version="1.0" encoding="UTF-8" standalone="no"?><svg xmlns="http://www.w3.org/2000/svg" xmlns:xlink="http://www.w3.org/1999/xlink" contentScriptType="application/ecmascript" contentStyleType="text/css" height="364px" preserveAspectRatio="none" style="width:482px;height:364px;" version="1.1" viewBox="0 0 482 364" width="482px" zoomAndPan="magnify"><defs><filter height="300%" id="fcqgk3s3y6abm" width="300%" x="-1" y="-1"><feGaussianBlur result="blurOut" stdDeviation="2.0"/><feColorMatrix in="blurOut" result="blurOut2" type="matrix" values="0 0 0 0 0 0 0 0 0 0 0 0 0 0 0 0 0 0 .4 0"/><feOffset dx="4.0" dy="4.0" in="blurOut2" result="blurOut3"/><feBlend in="SourceGraphic" in2="blurOut3" mode="normal"/></filter></defs><g><!--class ProposalForm--><rect fill="#FEFECE" filter="url(#fcqgk3s3y6abm)" height="92.3516" id="ProposalForm" style="stroke: #A80036; stroke-width: 1.5;" width="216" x="113.5" y="8"/><ellipse cx="174.25" cy="26.9688" fill="#ADD1B2" rx="11" ry="11" style="stroke: #A80036; stroke-width: 1.0;"/><path d="M177.2188,32.6094 Q176.6406,32.9063 176,33.0469 Q175.3594,33.2031 174.6563,33.2031 Q172.1563,33.2031 170.8281,31.5625 Q169.5156,29.9063 169.5156,26.7813 Q169.5156,23.6563 170.8281,22 Q172.1563,20.3438 174.6563,20.3438 Q175.3594,20.3438 176,20.5 Q176.6563,20.6563 177.2188,20.9531 L177.2188,23.6719 Q176.5938,23.0938 176,22.8281 Q175.4063,22.5469 174.7813,22.5469 Q173.4375,22.5469 172.75,23.625 Q172.0625,24.6875 172.0625,26.7813 Q172.0625,28.875 172.75,29.9531 Q173.4375,31.0156 174.7813,31.0156 Q175.4063,31.0156 176,30.75 Q176.5938,30.4688 177.2188,29.8906 L177.2188,32.6094 Z "/><text fill="#A80036" font-family="sans-serif" font-size="12" font-style="italic" lengthAdjust="spacingAndGlyphs" textLength="74" x="200.75" y="24.1387">«boundary»</text><text fill="#A80036" font-family="sans-serif" font-size="12" lengthAdjust="spacingAndGlyphs" textLength="86" x="194.75" y="38.1074">ProposalForm</text><line style="stroke: #A80036; stroke-width: 1.5;" x1="114.5" x2="328.5" y1="45.9375" y2="45.9375"/><line style="stroke: #A80036; stroke-width: 1.5;" x1="114.5" x2="328.5" y1="53.9375" y2="53.9375"/><text fill="#A80036" font-family="sans-serif" font-size="11" lengthAdjust="spacingAndGlyphs" textLength="204" x="119.5" y="68.1479">// create package update proposal()</text><text fill="#A80036" font-family="sans-serif" font-size="11" lengthAdjust="spacingAndGlyphs" textLength="175" x="119.5" y="80.9526">// prompt for package names()</text><text fill="#A80036" font-family="sans-serif" font-size="11" lengthAdjust="spacingAndGlyphs" textLength="171" x="119.5" y="93.7573">// prompt for update(package)</text><!--class ProposalController--><rect fill="#FEFECE" filter="url(#fcqgk3s3y6abm)" height="66.7422" id="ProposalController" style="stroke: #A80036; stroke-width: 1.5;" width="153" x="145" y="160"/><ellipse cx="162.25" cy="178.9688" fill="#ADD1B2" rx="11" ry="11" style="stroke: #A80036; stroke-width: 1.0;"/><path d="M165.2188,184.6094 Q164.6406,184.9063 164,185.0469 Q163.3594,185.2031 162.6563,185.2031 Q160.1563,185.2031 158.8281,183.5625 Q157.5156,181.9063 157.5156,178.7813 Q157.5156,175.6563 158.8281,174 Q160.1563,172.3438 162.6563,172.3438 Q163.3594,172.3438 164,172.5 Q164.6563,172.6563 165.2188,172.9531 L165.2188,175.6719 Q164.5938,175.0938 164,174.8281 Q163.4063,174.5469 162.7813,174.5469 Q161.4375,174.5469 160.75,175.625 Q160.0625,176.6875 160.0625,178.7813 Q160.0625,180.875 160.75,181.9531 Q161.4375,183.0156 162.7813,183.0156 Q163.4063,183.0156 164,182.75 Q164.5938,182.4688 165.2188,181.8906 L165.2188,184.6094 Z "/><text fill="#A80036" font-family="sans-serif" font-size="12" font-style="italic" lengthAdjust="spacingAndGlyphs" textLength="58" x="205.75" y="176.1387">«control»</text><text fill="#A80036" font-family="sans-serif" font-size="12" lengthAdjust="spacingAndGlyphs" textLength="116" x="176.75" y="190.1074">ProposalController</text><line style="stroke: #A80036; stroke-width: 1.5;" x1="146" x2="297" y1="197.9375" y2="197.9375"/><line style="stroke: #A80036; stroke-width: 1.5;" x1="146" x2="297" y1="205.9375" y2="205.9375"/><text fill="#A80036" font-family="sans-serif" font-size="11" lengthAdjust="spacingAndGlyphs" textLength="141" x="151" y="220.1479">// add proposal(updates)</text><!--class IMetadataSystem--><rect fill="#FEFECE" filter="url(#fcqgk3s3y6abm)" height="66.7422" id="IMetadataSystem" style="stroke: #A80036; stroke-width: 1.5;" width="181" x="6" y="287"/><ellipse cx="39" cy="305.9688" fill="#B4A7E5" rx="11" ry="11" style="stroke: #A80036; stroke-width: 1.0;"/><path d="M34.9219,301.7344 L34.9219,299.5781 L42.3125,299.5781 L42.3125,301.7344 L39.8438,301.7344 L39.8438,309.8125 L42.3125,309.8125 L42.3125,311.9688 L34.9219,311.9688 L34.9219,309.8125 L37.3906,309.8125 L37.3906,301.7344 L34.9219,301.7344 Z "/><text fill="#A80036" font-family="sans-serif" font-size="12" font-style="italic" lengthAdjust="spacingAndGlyphs" textLength="70" x="76.5" y="303.1387">«interface»</text><text fill="#A80036" font-family="sans-serif" font-size="12" font-style="italic" lengthAdjust="spacingAndGlyphs" textLength="109" x="57" y="317.1074">IMetadataSystem</text><line style="stroke: #A80036; stroke-width: 1.5;" x1="7" x2="186" y1="324.9375" y2="324.9375"/><line style="stroke: #A80036; stroke-width: 1.5;" x1="7" x2="186" y1="332.9375" y2="332.9375"/><text fill="#A80036" font-family="sans-serif" font-size="11" lengthAdjust="spacingAndGlyphs" textLength="169" x="12" y="347.1479">// check for conflicts(updates)</text><!--class NotificationSystem--><rect fill="#FEFECE" filter="url(#fcqgk3s3y6abm)" height="66.7422" id="NotificationSystem" style="stroke: #A80036; stroke-width: 1.5;" width="249" x="222" y="287"/><ellipse cx="284.25" cy="305.9688" fill="#ADD1B2" rx="11" ry="11" style="stroke: #A80036; stroke-width: 1.0;"/><path d="M287.2188,311.6094 Q286.6406,311.9063 286,312.0469 Q285.3594,312.2031 284.6563,312.2031 Q282.1563,312.2031 280.8281,310.5625 Q279.5156,308.9063 279.5156,305.7813 Q279.5156,302.6563 280.8281,301 Q282.1563,299.3438 284.6563,299.3438 Q285.3594,299.3438 286,299.5 Q286.6563,299.6563 287.2188,299.9531 L287.2188,302.6719 Q286.5938,302.0938 286,301.8281 Q285.4063,301.5469 284.7813,301.5469 Q283.4375,301.5469 282.75,302.625 Q282.0625,303.6875 282.0625,305.7813 Q282.0625,307.875 282.75,308.9531 Q283.4375,310.0156 284.7813,310.0156 Q285.4063,310.0156 286,309.75 Q286.5938,309.4688 287.2188,308.8906 L287.2188,311.6094 Z "/><text fill="#A80036" font-family="sans-serif" font-size="12" font-style="italic" lengthAdjust="spacingAndGlyphs" textLength="50" x="337.75" y="303.1387">«entity»</text><text fill="#A80036" font-family="sans-serif" font-size="12" lengthAdjust="spacingAndGlyphs" textLength="116" x="304.75" y="317.1074">NotificationSystem</text><line style="stroke: #A80036; stroke-width: 1.5;" x1="223" x2="470" y1="324.9375" y2="324.9375"/><line style="stroke: #A80036; stroke-width: 1.5;" x1="223" x2="470" y1="332.9375" y2="332.9375"/><text fill="#A80036" font-family="sans-serif" font-size="11" lengthAdjust="spacingAndGlyphs" textLength="237" x="228" y="347.1479">// notify maintainers for reviews(updates)</text><!--link ProposalForm to ProposalController--><path d="M221.5,100.0641 C221.5,119.5871 221.5,141.9195 221.5,159.8546 " fill="none" id="ProposalForm-ProposalController" style="stroke: #A80036; stroke-width: 1.0;"/><text fill="#A80036" font-family="sans-serif" font-size="13" lengthAdjust="spacingAndGlyphs" textLength="23" x="196.7391" y="120.3162">0..*</text><text fill="#A80036" font-family="sans-serif" font-size="13" lengthAdjust="spacingAndGlyphs" textLength="8" x="212.7125" y="148.8594">1</text><!--link ProposalController to IMetadataSystem--><path d="M188.3305,227.2002 C170.2485,245.5715 147.9306,268.2465 129.8245,286.6423 " fill="none" id="ProposalController-IMetadataSystem" style="stroke: #A80036; stroke-width: 1.0;"/><text fill="#A80036" font-family="sans-serif" font-size="13" lengthAdjust="spacingAndGlyphs" textLength="8" x="173.4774" y="246.8994">1</text><text fill="#A80036" font-family="sans-serif" font-size="13" lengthAdjust="spacingAndGlyphs" textLength="8" x="127.4145" y="275.8626">1</text><!--link ProposalController to NotificationSystem--><path d="M254.6695,227.2002 C272.7515,245.5715 295.0694,268.2465 313.1755,286.6423 " fill="none" id="ProposalController-NotificationSystem" style="stroke: #A80036; stroke-width: 1.0;"/><text fill="#A80036" font-family="sans-serif" font-size="13" lengthAdjust="spacingAndGlyphs" textLength="8" x="252.0476" y="246.8994">1</text><text fill="#A80036" font-family="sans-serif" font-size="13" lengthAdjust="spacingAndGlyphs" textLength="8" x="298.0605" y="275.8626">1</text><!--
@startuml
skinparam defaultFontColor #a80036

class ProposalForm <<boundary>> {
   // create package update proposal()
   // prompt for package names()
   // prompt for update(package)
}

class ProposalController <<control>> {
   // add proposal(updates)
}

interface IMetadataSystem <<interface>> {
   // check for conflicts(updates)
}

class NotificationSystem <<entity>> {
   // notify maintainers for reviews(updates)
}

ProposalForm "0..*" - - "1" ProposalController
ProposalController "1" - - "1" IMetadataSystem
ProposalController "1" - - "1" NotificationSystem

@enduml

PlantUML version 1.2017.15(Mon Jul 03 16:45:34 UTC 2017)
(GPL source distribution)
Java Runtime: OpenJDK Runtime Environment
JVM: OpenJDK 64-Bit Server VM
Java Version: 1.8.0_265-b01
Operating System: Linux
OS Version: 5.4.0-1026-azure
Default Encoding: UTF-8
Language: en
Country: null
--></g></svg>