<?xml version="1.0" encoding="UTF-8" standalone="no"?><svg xmlns="http://www.w3.org/2000/svg" xmlns:xlink="http://www.w3.org/1999/xlink" contentScriptType="application/ecmascript" contentStyleType="text/css" height="390px" preserveAspectRatio="none" style="width:344px;height:390px;" version="1.1" viewBox="0 0 344 390" width="344px" zoomAndPan="magnify"><defs><filter height="300%" id="fhq00rx597ebc" width="300%" x="-1" y="-1"><feGaussianBlur result="blurOut" stdDeviation="2.0"/><feColorMatrix in="blurOut" result="blurOut2" type="matrix" values="0 0 0 0 0 0 0 0 0 0 0 0 0 0 0 0 0 0 .4 0"/><feOffset dx="4.0" dy="4.0" in="blurOut2" result="blurOut3"/><feBlend in="SourceGraphic" in2="blurOut3" mode="normal"/></filter></defs><g><!--class RegistrationForm--><rect fill="#FEFECE" filter="url(#fhq00rx597ebc)" height="92.3516" id="RegistrationForm" style="stroke: #A80036; stroke-width: 1.5;" width="159" x="6" y="8"/><ellipse cx="30" cy="26.9688" fill="#ADD1B2" rx="11" ry="11" style="stroke: #A80036; stroke-width: 1.0;"/><path d="M32.9688,32.6094 Q32.3906,32.9063 31.75,33.0469 Q31.1094,33.2031 30.4063,33.2031 Q27.9063,33.2031 26.5781,31.5625 Q25.2656,29.9063 25.2656,26.7813 Q25.2656,23.6563 26.5781,22 Q27.9063,20.3438 30.4063,20.3438 Q31.1094,20.3438 31.75,20.5 Q32.4063,20.6563 32.9688,20.9531 L32.9688,23.6719 Q32.3438,23.0938 31.75,22.8281 Q31.1563,22.5469 30.5313,22.5469 Q29.1875,22.5469 28.5,23.625 Q27.8125,24.6875 27.8125,26.7813 Q27.8125,28.875 28.5,29.9531 Q29.1875,31.0156 30.5313,31.0156 Q31.1563,31.0156 31.75,30.75 Q32.3438,30.4688 32.9688,29.8906 L32.9688,32.6094 Z "/><text fill="#000000" font-family="sans-serif" font-size="12" font-style="italic" lengthAdjust="spacingAndGlyphs" textLength="74" x="62.5" y="24.1387">«boundary»</text><text fill="#000000" font-family="sans-serif" font-size="12" lengthAdjust="spacingAndGlyphs" textLength="107" x="46" y="38.1074">RegistrationForm</text><line style="stroke: #A80036; stroke-width: 1.5;" x1="7" x2="164" y1="45.9375" y2="45.9375"/><line style="stroke: #A80036; stroke-width: 1.5;" x1="7" x2="164" y1="53.9375" y2="53.9375"/><text fill="#000000" font-family="sans-serif" font-size="11" lengthAdjust="spacingAndGlyphs" textLength="101" x="12" y="68.1479">request register()</text><text fill="#000000" font-family="sans-serif" font-size="11" lengthAdjust="spacingAndGlyphs" textLength="147" x="12" y="80.9526">prompt registration field()</text><text fill="#000000" font-family="sans-serif" font-size="11" lengthAdjust="spacingAndGlyphs" textLength="81" x="12" y="93.7573">register(input)</text><!--class RegistrationController--><rect fill="#FEFECE" filter="url(#fhq00rx597ebc)" height="79.5469" id="RegistrationController" style="stroke: #A80036; stroke-width: 1.5;" width="169" x="164" y="160"/><ellipse cx="179" cy="178.9688" fill="#ADD1B2" rx="11" ry="11" style="stroke: #A80036; stroke-width: 1.0;"/><path d="M181.9688,184.6094 Q181.3906,184.9063 180.75,185.0469 Q180.1094,185.2031 179.4063,185.2031 Q176.9063,185.2031 175.5781,183.5625 Q174.2656,181.9063 174.2656,178.7813 Q174.2656,175.6563 175.5781,174 Q176.9063,172.3438 179.4063,172.3438 Q180.1094,172.3438 180.75,172.5 Q181.4063,172.6563 181.9688,172.9531 L181.9688,175.6719 Q181.3438,175.0938 180.75,174.8281 Q180.1563,174.5469 179.5313,174.5469 Q178.1875,174.5469 177.5,175.625 Q176.8125,176.6875 176.8125,178.7813 Q176.8125,180.875 177.5,181.9531 Q178.1875,183.0156 179.5313,183.0156 Q180.1563,183.0156 180.75,182.75 Q181.3438,182.4688 181.9688,181.8906 L181.9688,184.6094 Z "/><text fill="#000000" font-family="sans-serif" font-size="12" font-style="italic" lengthAdjust="spacingAndGlyphs" textLength="58" x="232.5" y="176.1387">«control»</text><text fill="#000000" font-family="sans-serif" font-size="12" lengthAdjust="spacingAndGlyphs" textLength="137" x="193" y="190.1074">RegistrationController</text><line style="stroke: #A80036; stroke-width: 1.5;" x1="165" x2="332" y1="197.9375" y2="197.9375"/><line style="stroke: #A80036; stroke-width: 1.5;" x1="165" x2="332" y1="205.9375" y2="205.9375"/><text fill="#000000" font-family="sans-serif" font-size="11" lengthAdjust="spacingAndGlyphs" textLength="150" x="170" y="220.1479">request input verification()</text><text fill="#000000" font-family="sans-serif" font-size="11" lengthAdjust="spacingAndGlyphs" textLength="146" x="170" y="232.9526">return verification result()</text><!--class Database--><rect fill="#FEFECE" filter="url(#fhq00rx597ebc)" height="79.5469" id="Database" style="stroke: #A80036; stroke-width: 1.5;" width="116" x="190.5" y="300"/><ellipse cx="215.85" cy="318.9688" fill="#ADD1B2" rx="11" ry="11" style="stroke: #A80036; stroke-width: 1.0;"/><path d="M218.8188,324.6094 Q218.2406,324.9063 217.6,325.0469 Q216.9594,325.2031 216.2563,325.2031 Q213.7563,325.2031 212.4281,323.5625 Q211.1156,321.9063 211.1156,318.7813 Q211.1156,315.6563 212.4281,314 Q213.7563,312.3438 216.2563,312.3438 Q216.9594,312.3438 217.6,312.5 Q218.2563,312.6563 218.8188,312.9531 L218.8188,315.6719 Q218.1938,315.0938 217.6,314.8281 Q217.0063,314.5469 216.3813,314.5469 Q215.0375,314.5469 214.35,315.625 Q213.6625,316.6875 213.6625,318.7813 Q213.6625,320.875 214.35,321.9531 Q215.0375,323.0156 216.3813,323.0156 Q217.0063,323.0156 217.6,322.75 Q218.1938,322.4688 218.8188,321.8906 L218.8188,324.6094 Z "/><text fill="#000000" font-family="sans-serif" font-size="12" font-style="italic" lengthAdjust="spacingAndGlyphs" textLength="50" x="237.65" y="316.1387">«entity»</text><text fill="#000000" font-family="sans-serif" font-size="12" lengthAdjust="spacingAndGlyphs" textLength="61" x="232.15" y="330.1074">Database</text><line style="stroke: #A80036; stroke-width: 1.5;" x1="191.5" x2="305.5" y1="337.9375" y2="337.9375"/><line style="stroke: #A80036; stroke-width: 1.5;" x1="191.5" x2="305.5" y1="345.9375" y2="345.9375"/><text fill="#000000" font-family="sans-serif" font-size="11" lengthAdjust="spacingAndGlyphs" textLength="71" x="196.5" y="360.1479">verify input()</text><text fill="#000000" font-family="sans-serif" font-size="11" lengthAdjust="spacingAndGlyphs" textLength="104" x="196.5" y="372.9526">add new account()</text><!--class LoginPage--><rect fill="#FEFECE" filter="url(#fhq00rx597ebc)" height="48" id="LoginPage" style="stroke: #A80036; stroke-width: 1.5;" width="97" x="200" y="30"/><ellipse cx="215" cy="46" fill="#ADD1B2" rx="11" ry="11" style="stroke: #A80036; stroke-width: 1.0;"/><path d="M217.9688,51.6406 Q217.3906,51.9375 216.75,52.0781 Q216.1094,52.2344 215.4063,52.2344 Q212.9063,52.2344 211.5781,50.5938 Q210.2656,48.9375 210.2656,45.8125 Q210.2656,42.6875 211.5781,41.0313 Q212.9063,39.375 215.4063,39.375 Q216.1094,39.375 216.75,39.5313 Q217.4063,39.6875 217.9688,39.9844 L217.9688,42.7031 Q217.3438,42.125 216.75,41.8594 Q216.1563,41.5781 215.5313,41.5781 Q214.1875,41.5781 213.5,42.6563 Q212.8125,43.7188 212.8125,45.8125 Q212.8125,47.9063 213.5,48.9844 Q214.1875,50.0469 215.5313,50.0469 Q216.1563,50.0469 216.75,49.7813 Q217.3438,49.5 217.9688,48.9219 L217.9688,51.6406 Z "/><text fill="#000000" font-family="sans-serif" font-size="12" lengthAdjust="spacingAndGlyphs" textLength="65" x="229" y="50.1543">LoginPage</text><line style="stroke: #A80036; stroke-width: 1.5;" x1="201" x2="296" y1="62" y2="62"/><line style="stroke: #A80036; stroke-width: 1.5;" x1="201" x2="296" y1="70" y2="70"/><!--link LoginPage to RegistrationController--><path d="M248.5,78.1089 C248.5,100.3008 248.5,133.6491 248.5,159.8574 " fill="none" id="LoginPage-RegistrationController" style="stroke: #A80036; stroke-width: 1.0;"/><text fill="#000000" font-family="sans-serif" font-size="13" lengthAdjust="spacingAndGlyphs" textLength="23" x="222.6969" y="97.8967">0..*</text><text fill="#000000" font-family="sans-serif" font-size="13" lengthAdjust="spacingAndGlyphs" textLength="8" x="239.8375" y="149.082">1</text><!--link RegistrationController to Database--><path d="M248.5,240.1184 C248.5,258.864 248.5,281.1294 248.5,299.8758 " fill="none" id="RegistrationController-Database" style="stroke: #A80036; stroke-width: 1.0;"/><text fill="#000000" font-family="sans-serif" font-size="13" lengthAdjust="spacingAndGlyphs" textLength="8" x="239.8875" y="259.5217">1</text><text fill="#000000" font-family="sans-serif" font-size="13" lengthAdjust="spacingAndGlyphs" textLength="8" x="239.8125" y="288.8076">1</text><!--
@startuml
class RegistrationForm <<boundary>> {
   request register()
   prompt registration field()
   register(input)
}

class RegistrationController <<control>> {
   request input verification()
   return verification result()
}

class Database <<entity>> {
   verify input()
   add new account()
}

LoginPage "0..*" - - "1" RegistrationController
RegistrationController "1" - - "1" Database

@enduml

PlantUML version 1.2017.15(Mon Jul 03 16:45:34 UTC 2017)
(GPL source distribution)
Java Runtime: OpenJDK Runtime Environment
JVM: OpenJDK 64-Bit Server VM
Java Version: 1.8.0_265-b01
Operating System: Linux
OS Version: 5.4.0-1026-azure
Default Encoding: UTF-8
Language: en
Country: null
--></g></svg>