<?xml version="1.0" encoding="UTF-8" standalone="no"?><svg xmlns="http://www.w3.org/2000/svg" xmlns:xlink="http://www.w3.org/1999/xlink" contentScriptType="application/ecmascript" contentStyleType="text/css" height="336px" preserveAspectRatio="none" style="width:930px;height:336px;" version="1.1" viewBox="0 0 930 336" width="930px" zoomAndPan="magnify"><defs><filter height="300%" id="f188osykdmmn0t" width="300%" x="-1" y="-1"><feGaussianBlur result="blurOut" stdDeviation="2.0"/><feColorMatrix in="blurOut" result="blurOut2" type="matrix" values="0 0 0 0 0 0 0 0 0 0 0 0 0 0 0 0 0 0 .4 0"/><feOffset dx="4.0" dy="4.0" in="blurOut2" result="blurOut3"/><feBlend in="SourceGraphic" in2="blurOut3" mode="normal"/></filter></defs><g><rect fill="#FFFFFF" filter="url(#f188osykdmmn0t)" height="210.5313" style="stroke: #A80036; stroke-width: 1.0;" width="10" x="45" y="96.2969"/><rect fill="#FFFFFF" filter="url(#f188osykdmmn0t)" height="65.1328" style="stroke: #A80036; stroke-width: 1.0;" width="10" x="315" y="117.2969"/><rect fill="#FFFFFF" filter="url(#f188osykdmmn0t)" height="28" style="stroke: #A80036; stroke-width: 1.0;" width="10" x="320" y="154.4297"/><rect fill="#FFFFFF" filter="url(#f188osykdmmn0t)" height="88.2656" style="stroke: #A80036; stroke-width: 1.0;" width="10" x="315" y="218.5625"/><rect fill="#FFFFFF" filter="url(#f188osykdmmn0t)" height="59.1328" style="stroke: #A80036; stroke-width: 1.0;" width="10" x="618" y="247.6953"/><rect fill="#FFFFFF" filter="url(#f188osykdmmn0t)" height="30" style="stroke: #A80036; stroke-width: 1.0;" width="10" x="888" y="276.8281"/><line style="stroke: #A80036; stroke-width: 1.0; stroke-dasharray: 5.0,5.0;" x1="50" x2="50" y1="86.2969" y2="324.9609"/><line style="stroke: #A80036; stroke-width: 1.0; stroke-dasharray: 5.0,5.0;" x1="320" x2="320" y1="86.2969" y2="324.9609"/><line style="stroke: #A80036; stroke-width: 1.0; stroke-dasharray: 5.0,5.0;" x1="623" x2="623" y1="86.2969" y2="324.9609"/><line style="stroke: #A80036; stroke-width: 1.0; stroke-dasharray: 5.0,5.0;" x1="892.5" x2="892.5" y1="86.2969" y2="324.9609"/><text fill="#A80036" font-family="sans-serif" font-size="14" lengthAdjust="spacingAndGlyphs" textLength="78" x="8" y="82.9951">Contributor</text><ellipse cx="50" cy="13" fill="#FEFECE" filter="url(#f188osykdmmn0t)" rx="8" ry="8" style="stroke: #A80036; stroke-width: 2.0;"/><path d="M50,21 L50,48 M37,29 L63,29 M50,48 L37,63 M50,48 L63,63 " fill="#FEFECE" filter="url(#f188osykdmmn0t)" style="stroke: #A80036; stroke-width: 2.0;"/><text fill="#A80036" font-family="sans-serif" font-size="14" lengthAdjust="spacingAndGlyphs" textLength="72" x="281" y="82.9951">LoginForm</text><path d="M299.5,42 L299.5,66 M299.5,54 L316.5,54 " fill="#FEFECE" filter="url(#f188osykdmmn0t)" style="stroke: #A80036; stroke-width: 2.0;"/><ellipse cx="328.5" cy="54" fill="#FEFECE" filter="url(#f188osykdmmn0t)" rx="12" ry="12" style="stroke: #A80036; stroke-width: 2.0;"/><text fill="#A80036" font-family="sans-serif" font-size="14" lengthAdjust="spacingAndGlyphs" textLength="104" x="568" y="82.9951">LoginController</text><ellipse cx="623" cy="54" fill="#FEFECE" filter="url(#f188osykdmmn0t)" rx="12" ry="12" style="stroke: #A80036; stroke-width: 2.0;"/><polygon fill="#A80036" points="619,42,625,37,623,42,625,47,619,42" style="stroke: #A80036; stroke-width: 1.0;"/><text fill="#A80036" font-family="sans-serif" font-size="14" lengthAdjust="spacingAndGlyphs" textLength="57" x="861.5" y="82.9951">Account</text><ellipse cx="893" cy="54" fill="#FEFECE" filter="url(#f188osykdmmn0t)" rx="12" ry="12" style="stroke: #A80036; stroke-width: 2.0;"/><line style="stroke: #A80036; stroke-width: 2.0;" x1="881" x2="905" y1="68" y2="68"/><rect fill="#FFFFFF" filter="url(#f188osykdmmn0t)" height="210.5313" style="stroke: #A80036; stroke-width: 1.0;" width="10" x="45" y="96.2969"/><rect fill="#FFFFFF" filter="url(#f188osykdmmn0t)" height="65.1328" style="stroke: #A80036; stroke-width: 1.0;" width="10" x="315" y="117.2969"/><rect fill="#FFFFFF" filter="url(#f188osykdmmn0t)" height="28" style="stroke: #A80036; stroke-width: 1.0;" width="10" x="320" y="154.4297"/><rect fill="#FFFFFF" filter="url(#f188osykdmmn0t)" height="88.2656" style="stroke: #A80036; stroke-width: 1.0;" width="10" x="315" y="218.5625"/><rect fill="#FFFFFF" filter="url(#f188osykdmmn0t)" height="59.1328" style="stroke: #A80036; stroke-width: 1.0;" width="10" x="618" y="247.6953"/><rect fill="#FFFFFF" filter="url(#f188osykdmmn0t)" height="30" style="stroke: #A80036; stroke-width: 1.0;" width="10" x="888" y="276.8281"/><polygon fill="#A80036" points="303,113.2969,313,117.2969,303,121.2969,307,117.2969" style="stroke: #A80036; stroke-width: 1.0;"/><line style="stroke: #A80036; stroke-width: 1.0;" x1="55" x2="309" y1="117.2969" y2="117.2969"/><text fill="#A80036" font-family="sans-serif" font-size="13" lengthAdjust="spacingAndGlyphs" textLength="24" x="62" y="112.3638">1: //</text><text fill="#A80036" font-family="sans-serif" font-size="13" lengthAdjust="spacingAndGlyphs" textLength="105" x="90" y="112.3638">start logging in()</text><line style="stroke: #A80036; stroke-width: 1.0;" x1="330" x2="372" y1="146.5625" y2="146.5625"/><line style="stroke: #A80036; stroke-width: 1.0;" x1="372" x2="372" y1="146.5625" y2="159.5625"/><line style="stroke: #A80036; stroke-width: 1.0;" x1="331" x2="372" y1="159.5625" y2="159.5625"/><polygon fill="#A80036" points="341,155.5625,331,159.5625,341,163.5625,337,159.5625" style="stroke: #A80036; stroke-width: 1.0;"/><text fill="#A80036" font-family="sans-serif" font-size="13" lengthAdjust="spacingAndGlyphs" textLength="24" x="337" y="141.4966">2: //</text><text fill="#A80036" font-family="sans-serif" font-size="13" lengthAdjust="spacingAndGlyphs" textLength="251" x="365" y="141.4966">prompt for authentication information()</text><polygon fill="#A80036" points="303,214.5625,313,218.5625,303,222.5625,307,218.5625" style="stroke: #A80036; stroke-width: 1.0;"/><line style="stroke: #A80036; stroke-width: 1.0;" x1="55" x2="309" y1="218.5625" y2="218.5625"/><text fill="#A80036" font-family="sans-serif" font-size="13" lengthAdjust="spacingAndGlyphs" textLength="24" x="62" y="213.6294">3: //</text><text fill="#A80036" font-family="sans-serif" font-size="13" lengthAdjust="spacingAndGlyphs" textLength="213" x="90" y="213.6294">enter(authentication information)</text><polygon fill="#A80036" points="606,243.6953,616,247.6953,606,251.6953,610,247.6953" style="stroke: #A80036; stroke-width: 1.0;"/><line style="stroke: #A80036; stroke-width: 1.0;" x1="325" x2="612" y1="247.6953" y2="247.6953"/><text fill="#A80036" font-family="sans-serif" font-size="13" lengthAdjust="spacingAndGlyphs" textLength="24" x="332" y="242.7622">4: //</text><text fill="#A80036" font-family="sans-serif" font-size="13" lengthAdjust="spacingAndGlyphs" textLength="213" x="360" y="242.7622">log in(authentication information)</text><polygon fill="#A80036" points="876,272.8281,886,276.8281,876,280.8281,880,276.8281" style="stroke: #A80036; stroke-width: 1.0;"/><line style="stroke: #A80036; stroke-width: 1.0;" x1="628" x2="882" y1="276.8281" y2="276.8281"/><text fill="#A80036" font-family="sans-serif" font-size="13" lengthAdjust="spacingAndGlyphs" textLength="24" x="635" y="271.895">5: //</text><text fill="#A80036" font-family="sans-serif" font-size="13" lengthAdjust="spacingAndGlyphs" textLength="213" x="663" y="271.895">verify(authentication information)</text><!--
@startuml
skinparam defaultFontColor #a80036
autonumber "#: //"
autoactivate on
hide footbox

actor Contributor
boundary LoginForm
control LoginController
entity Account

activate Contributor
Contributor -> LoginForm: start logging in()
LoginForm -> LoginForm: prompt for authentication information()
deactivate LoginForm
deactivate LoginForm

Contributor -> LoginForm: enter(authentication information)
LoginForm -> LoginController: log in(authentication information)
LoginController -> Account: verify(authentication information)
deactivate Account
deactivate LoginController
deactivate LoginForm
deactivate Contributor

@enduml

PlantUML version 1.2017.15(Mon Jul 03 16:45:34 UTC 2017)
(GPL source distribution)
Java Runtime: OpenJDK Runtime Environment
JVM: OpenJDK 64-Bit Server VM
Java Version: 1.8.0_265-b01
Operating System: Linux
OS Version: 5.4.0-1026-azure
Default Encoding: UTF-8
Language: en
Country: null
--></g></svg>