<?xml version="1.0" encoding="UTF-8" standalone="no"?><svg xmlns="http://www.w3.org/2000/svg" xmlns:xlink="http://www.w3.org/1999/xlink" contentScriptType="application/ecmascript" contentStyleType="text/css" height="548px" preserveAspectRatio="none" style="width:1062px;height:548px;" version="1.1" viewBox="0 0 1062 548" width="1062px" zoomAndPan="magnify"><defs><filter height="300%" id="f1zy8mzxrk5se" width="300%" x="-1" y="-1"><feGaussianBlur result="blurOut" stdDeviation="2.0"/><feColorMatrix in="blurOut" result="blurOut2" type="matrix" values="0 0 0 0 0 0 0 0 0 0 0 0 0 0 0 0 0 0 .4 0"/><feOffset dx="4.0" dy="4.0" in="blurOut2" result="blurOut3"/><feBlend in="SourceGraphic" in2="blurOut3" mode="normal"/></filter></defs><g><!--MD5=[fee662a292a0353a69bd162820bae93b]
entity User--><ellipse cx="98" cy="14" fill="#FEFECE" filter="url(#f1zy8mzxrk5se)" rx="8" ry="8" style="stroke: #A80036; stroke-width: 1.5;"/><path d="M98,22 L98,49 M85,30 L111,30 M98,49 L85,64 M98,49 L111,64 " fill="none" filter="url(#f1zy8mzxrk5se)" style="stroke: #A80036; stroke-width: 1.5;"/><text fill="#000000" font-family="sans-serif" font-size="14" lengthAdjust="spacingAndGlyphs" textLength="32" x="82" y="82.4951">User</text><!--MD5=[f3401c2d09288f830763ccde49063a6d]
entity Contributor--><ellipse cx="722" cy="156" fill="#FEFECE" filter="url(#f1zy8mzxrk5se)" rx="8" ry="8" style="stroke: #A80036; stroke-width: 1.5;"/><path d="M722,164 L722,191 M709,172 L735,172 M722,191 L709,206 M722,191 L735,206 " fill="none" filter="url(#f1zy8mzxrk5se)" style="stroke: #A80036; stroke-width: 1.5;"/><text fill="#000000" font-family="sans-serif" font-size="14" lengthAdjust="spacingAndGlyphs" textLength="78" x="683" y="224.4951">Contributor</text><!--MD5=[b90713b5ddaea180d3429e7b1ef7c0f8]
entity Maintainer--><ellipse cx="722" cy="14" fill="#FEFECE" filter="url(#f1zy8mzxrk5se)" rx="8" ry="8" style="stroke: #A80036; stroke-width: 1.5;"/><path d="M722,22 L722,49 M709,30 L735,30 M722,49 L709,64 M722,49 L735,64 " fill="none" filter="url(#f1zy8mzxrk5se)" style="stroke: #A80036; stroke-width: 1.5;"/><text fill="#000000" font-family="sans-serif" font-size="14" lengthAdjust="spacingAndGlyphs" textLength="71" x="686.5" y="82.4951">Maintainer</text><!--MD5=[a74c9f7ba4e347df35943d93696ec108]
entity IPFS--><ellipse cx="187" cy="341" fill="#FEFECE" filter="url(#f1zy8mzxrk5se)" rx="8" ry="8" style="stroke: #A80036; stroke-width: 1.5;"/><path d="M187,349 L187,376 M174,357 L200,357 M187,376 L174,391 M187,376 L200,391 " fill="none" filter="url(#f1zy8mzxrk5se)" style="stroke: #A80036; stroke-width: 1.5;"/><text fill="#000000" font-family="sans-serif" font-size="14" lengthAdjust="spacingAndGlyphs" textLength="29" x="172.5" y="409.4951">IPFS</text><ellipse cx="156.7904" cy="187.0236" fill="#FEFECE" filter="url(#f1zy8mzxrk5se)" rx="51.7904" ry="14.5236" style="stroke: #A80036; stroke-width: 1.5;"/><text fill="#000000" font-family="sans-serif" font-size="14" lengthAdjust="spacingAndGlyphs" textLength="69" x="122.2904" y="191.6721">Download</text><ellipse cx="37.9914" cy="187.0236" fill="#FEFECE" filter="url(#f1zy8mzxrk5se)" rx="31.9914" ry="14.5236" style="stroke: #A80036; stroke-width: 1.5;"/><text fill="#000000" font-family="sans-serif" font-size="14" lengthAdjust="spacingAndGlyphs" textLength="41" x="17.4914" y="191.6721">Query</text><ellipse cx="834.0122" cy="372.0236" fill="#FEFECE" filter="url(#f1zy8mzxrk5se)" rx="44.0122" ry="14.5236" style="stroke: #A80036; stroke-width: 1.5;"/><text fill="#000000" font-family="sans-serif" font-size="14" lengthAdjust="spacingAndGlyphs" textLength="58" x="805.0122" y="376.6721">Register</text><ellipse cx="655.163" cy="510.5236" fill="#FEFECE" filter="url(#f1zy8mzxrk5se)" rx="29.163" ry="14.5236" style="stroke: #A80036; stroke-width: 1.5;"/><text fill="#000000" font-family="sans-serif" font-size="14" lengthAdjust="spacingAndGlyphs" textLength="37" x="636.663" y="515.1721">Login</text><ellipse cx="948.211" cy="279.4422" fill="#FEFECE" filter="url(#f1zy8mzxrk5se)" rx="97.711" ry="21.9422" style="stroke: #A80036; stroke-width: 1.5;"/><text fill="#000000" font-family="sans-serif" font-size="14" lengthAdjust="spacingAndGlyphs" textLength="171" x="862.711" y="284.0906">Vote for New Maintainers</text><ellipse cx="655.0203" cy="371.8041" fill="#FEFECE" filter="url(#f1zy8mzxrk5se)" rx="99.5203" ry="22.3041" style="stroke: #A80036; stroke-width: 1.5;"/><text fill="#000000" font-family="sans-serif" font-size="14" lengthAdjust="spacingAndGlyphs" textLength="175" x="567.5203" y="376.4525">Propose Package Update</text><ellipse cx="321.2229" cy="510.5446" fill="#FEFECE" filter="url(#f1zy8mzxrk5se)" rx="93.2229" ry="21.0446" style="stroke: #A80036; stroke-width: 1.5;"/><text fill="#000000" font-family="sans-serif" font-size="14" lengthAdjust="spacingAndGlyphs" textLength="161" x="240.7229" y="515.193">Check against Conflicts</text><ellipse cx="448.1576" cy="371.9315" fill="#FEFECE" filter="url(#f1zy8mzxrk5se)" rx="72.6576" ry="16.9315" style="stroke: #A80036; stroke-width: 1.5;"/><text fill="#000000" font-family="sans-serif" font-size="14" lengthAdjust="spacingAndGlyphs" textLength="113" x="391.6576" y="376.5799">Review Proposal</text><ellipse cx="282.8553" cy="187.0236" fill="#FEFECE" filter="url(#f1zy8mzxrk5se)" rx="38.3553" ry="14.5236" style="stroke: #A80036; stroke-width: 1.5;"/><text fill="#000000" font-family="sans-serif" font-size="14" lengthAdjust="spacingAndGlyphs" textLength="50" x="257.8553" y="191.6721">Update</text><!--MD5=[ed3a9acfa5b2fcf1ba972f6d55686688]
link User to Query--><path d="M81.9211,83.0534 C70.3679,110.3961 55.2753,146.1151 46.127,167.7661 " fill="none" id="User-to-Query" style="stroke: #A80036; stroke-width: 1.0;"/><polygon fill="#A80036" points="44.1574,172.4274,51.345,165.694,46.1035,167.8217,43.9759,162.5802,44.1574,172.4274" style="stroke: #A80036; stroke-width: 1.0;"/><!--MD5=[fe4d1e544d1f5aae5d4d05c630db20d2]
link User to Download--><path d="M114.122,83.8021 C125.43,111.0179 140.0652,146.2416 148.9817,167.7017 " fill="none" id="User-to-Download" style="stroke: #A80036; stroke-width: 1.0;"/><polygon fill="#A80036" points="151.0112,172.5864,151.2519,162.7405,149.0928,167.9691,143.8642,165.81,151.0112,172.5864" style="stroke: #A80036; stroke-width: 1.0;"/><!--MD5=[5128ad341e1f5658b79b0c894c7a6c43]
link Download to IPFS--><path d="M159.354,201.5166 C163.6504,228.0105 172.9293,285.2308 179.5516,326.0681 " fill="none" id="Download-to-IPFS" style="stroke: #A80036; stroke-width: 1.0;"/><polygon fill="#A80036" points="180.4268,331.4653,182.9345,321.941,179.6264,326.5298,175.0376,323.2217,180.4268,331.4653" style="stroke: #A80036; stroke-width: 1.0;"/><!--MD5=[732dd9bf00ccbe52a5beba9c2152f385]
link Maintainer to Vote--><path d="M757.5611,81.8986 C803.803,129.8796 883.381,212.4506 923.4428,254.0192 " fill="none" id="Maintainer-to-Vote" style="stroke: #A80036; stroke-width: 1.0;"/><polygon fill="#A80036" points="927.194,257.9114,923.8286,248.6554,923.7243,254.3113,918.0684,254.2069,927.194,257.9114" style="stroke: #A80036; stroke-width: 1.0;"/><!--MD5=[13a77bd23520ac5923e9e69896e3dc80]
link Vote to Login--><path d="M944.8731,301.4944 C939.6568,330.5138 926.5581,381.5262 896,412.5 C837.8835,471.4071 739.5184,496.1918 688.2782,505.5238 " fill="none" id="Vote-to-Login" style="stroke: #A80036; stroke-width: 1.0; stroke-dasharray: 7.0,7.0;"/><polygon fill="#A80036" points="683.1692,506.4314,692.7301,508.7955,688.0921,505.5568,691.3308,500.9188,683.1692,506.4314" style="stroke: #A80036; stroke-width: 1.0;"/><text fill="#000000" font-family="sans-serif" font-size="13" lengthAdjust="spacingAndGlyphs" textLength="61" x="938" y="376.5669">«include»</text><!--MD5=[f1034f04a94205cf8833fbfafd4bb303]
link Maintainer to Contributor--><path d="M722,85.6915 C722,98.3176 722,112.518 722,126.2021 " fill="none" id="Maintainer-to-Contributor" style="stroke: #A80036; stroke-width: 1.0;"/><polygon fill="none" points="729.0001,126.3026,722,146.3026,715.0001,126.3025,729.0001,126.3026" style="stroke: #A80036; stroke-width: 1.0;"/><!--MD5=[6d660fad456c420e2c6aa0727d070b09]
link Contributor to Register--><path d="M746.5789,227.599 C770.1722,266.5702 804.7674,323.714 822.5356,353.0632 " fill="none" id="Contributor-to-Register" style="stroke: #A80036; stroke-width: 1.0;"/><polygon fill="#A80036" points="825.2385,357.5279,823.9994,347.7573,822.6491,353.2506,817.1558,351.9004,825.2385,357.5279" style="stroke: #A80036; stroke-width: 1.0;"/><!--MD5=[5cef848000ed1a6021cb90ef380a2a0c]
link Contributor to Propose--><path d="M707.2966,227.599 C694.4259,263.1375 676.0821,313.7882 664.8898,344.6922 " fill="none" id="Contributor-to-Propose" style="stroke: #A80036; stroke-width: 1.0;"/><polygon fill="#A80036" points="663.1569,349.4772,669.9826,342.3772,664.8596,344.776,662.4608,339.653,663.1569,349.4772" style="stroke: #A80036; stroke-width: 1.0;"/><!--MD5=[154e7e4c74084e0a6421e695aa485c21]
link Propose to Login--><path d="M655,394.5607 C655,421.1815 655,465.0326 655,490.4904 " fill="none" id="Propose-to-Login" style="stroke: #A80036; stroke-width: 1.0; stroke-dasharray: 7.0,7.0;"/><polygon fill="#A80036" points="655,495.6308,659,486.6308,655,490.6308,651,486.6308,655,495.6308" style="stroke: #A80036; stroke-width: 1.0;"/><text fill="#000000" font-family="sans-serif" font-size="13" lengthAdjust="spacingAndGlyphs" textLength="61" x="656" y="455.5669">«include»</text><!--MD5=[1f9418f5da9ba6df1fd8b1982b48bfc5]
link Propose to Check--><path d="M607.1459,391.8437 C544.2099,417.9414 434.1666,463.5731 370.4472,489.9957 " fill="none" id="Propose-to-Check" style="stroke: #A80036; stroke-width: 1.0; stroke-dasharray: 7.0,7.0;"/><polygon fill="#A80036" points="365.5631,492.021,375.4088,492.2685,370.1817,490.1057,372.3444,484.8786,365.5631,492.021" style="stroke: #A80036; stroke-width: 1.0;"/><text fill="#000000" font-family="sans-serif" font-size="13" lengthAdjust="spacingAndGlyphs" textLength="61" x="478" y="455.5669">«include»</text><!--MD5=[994034b9d75866a4c1b611139ff47f41]
link Maintainer to Review--><path d="M687.8517,85.7536 C628.8495,156.1686 509.8685,298.1643 465.3423,351.3032 " fill="none" id="Maintainer-to-Review" style="stroke: #A80036; stroke-width: 1.0;"/><polygon fill="#A80036" points="462.0163,355.2726,470.8627,350.9434,465.2277,351.4402,464.7309,345.8052,462.0163,355.2726" style="stroke: #A80036; stroke-width: 1.0;"/><!--MD5=[98f70248a0396711bd9d96b02084c0cb]
link Review to Login--><path d="M472.1507,388.1588 C512.734,415.3123 593.9952,469.6828 633.0511,495.8144 " fill="none" id="Review-to-Login" style="stroke: #A80036; stroke-width: 1.0; stroke-dasharray: 7.0,7.0;"/><polygon fill="#A80036" points="637.5992,498.8574,632.3435,490.5281,633.4436,496.0769,627.8947,497.1771,637.5992,498.8574" style="stroke: #A80036; stroke-width: 1.0;"/><text fill="#000000" font-family="sans-serif" font-size="13" lengthAdjust="spacingAndGlyphs" textLength="61" x="577" y="455.5669">«include»</text><!--MD5=[31fe76db454556c7e53e343af9db3770]
link Update to Review--><path d="M295.4018,200.9051 C324.1819,233.1736 395.6309,313.2832 429.5548,351.319 " fill="none" id="Update-to-Review" style="stroke: #A80036; stroke-width: 1.0; stroke-dasharray: 7.0,7.0;"/><polygon fill="#A80036" points="433.1097,355.3048,430.1044,345.9257,429.7816,351.5733,424.134,351.2506,433.1097,355.3048" style="stroke: #A80036; stroke-width: 1.0;"/><text fill="#000000" font-family="sans-serif" font-size="13" lengthAdjust="spacingAndGlyphs" textLength="60" x="381" y="284.0669">«extend»</text><!--MD5=[cb9fb3bb7e14c6551523c0695b4013a3]
link Update to Check--><path d="M282.7406,201.6182 C282.3251,237.6821 282.5849,333.6903 295,412.5 C298.914,437.3459 306.559,464.9874 312.5505,484.5629 " fill="none" id="Update-to-Check" style="stroke: #A80036; stroke-width: 1.0; stroke-dasharray: 7.0,7.0;"/><polygon fill="#A80036" points="314.0349,489.3594,315.1955,479.5792,312.5568,484.5829,307.5531,481.9442,314.0349,489.3594" style="stroke: #A80036; stroke-width: 1.0;"/><text fill="#000000" font-family="sans-serif" font-size="13" lengthAdjust="spacingAndGlyphs" textLength="61" x="296" y="376.5669">«include»</text><!--MD5=[490bc960ec86520a13bfc100bb1ec4ab]
link Update to IPFS--><path d="M275.467,201.5166 C260.1761,230.9835 225.1615,298.4595 204.0568,339.1301 " fill="none" id="Update-to-IPFS" style="stroke: #A80036; stroke-width: 1.0;"/><polygon fill="#A80036" points="201.5543,343.9527,209.2502,337.8067,203.8573,339.5147,202.1493,334.1218,201.5543,343.9527" style="stroke: #A80036; stroke-width: 1.0;"/><!--MD5=[6effb486da45b005f0b4fbe2a4732631]
@startuml
actor User
actor Contributor
actor Maintainer
actor IPFS

usecase Download
usecase Query

usecase Register
usecase Login
usecase "Vote for New Maintainers" as Vote

usecase "Propose Package Update" as Propose
usecase "Check against Conflicts" as Check
usecase "Review Proposal" as Review
usecase Update

User - -> Query
User - -> Download
Download - -> IPFS

Maintainer - -> Vote
Vote ..> Login : <<include>>

Maintainer - -|> Contributor
Contributor - -> Register

Contributor - -> Propose
Propose ..> Login : <<include>>
Propose ..> Check : <<include>>

Maintainer - -> Review
Review ..> Login : <<include>>

Update ..> Review : <<extend>>
Update ..> Check : <<include>>
Update - -> IPFS
@enduml

PlantUML version 1.2020.17(Sat Sep 19 12:30:11 UTC 2020)
(GPL source distribution)
Java Runtime: OpenJDK Runtime Environment
JVM: OpenJDK 64-Bit Server VM
Default Encoding: UTF-8
Language: en
Country: null
--></g></svg>