<?xml version="1.0" encoding="UTF-8" standalone="no"?><svg xmlns="http://www.w3.org/2000/svg" xmlns:xlink="http://www.w3.org/1999/xlink" contentScriptType="application/ecmascript" contentStyleType="text/css" height="674px" preserveAspectRatio="none" style="width:841px;height:674px;" version="1.1" viewBox="0 0 841 674" width="841px" zoomAndPan="magnify"><defs><filter height="300%" id="fxlb98n30eqq" width="300%" x="-1" y="-1"><feGaussianBlur result="blurOut" stdDeviation="2.0"/><feColorMatrix in="blurOut" result="blurOut2" type="matrix" values="0 0 0 0 0 0 0 0 0 0 0 0 0 0 0 0 0 0 .4 0"/><feOffset dx="4.0" dy="4.0" in="blurOut2" result="blurOut3"/><feBlend in="SourceGraphic" in2="blurOut3" mode="normal"/></filter></defs><g><!--entity User--><ellipse cx="117" cy="18" fill="#FEFECE" filter="url(#fxlb98n30eqq)" rx="8" ry="8" style="stroke: #A80036; stroke-width: 2.0;"/><path d="M117,26 L117,53 M104,34 L130,34 M117,53 L104,68 M117,53 L130,68 " fill="#FEFECE" filter="url(#fxlb98n30eqq)" style="stroke: #A80036; stroke-width: 2.0;"/><text fill="#000000" font-family="sans-serif" font-size="14" lengthAdjust="spacingAndGlyphs" textLength="32" x="101" y="87.9951">User</text><!--entity Contributor--><ellipse cx="578" cy="322" fill="#FEFECE" filter="url(#fxlb98n30eqq)" rx="8" ry="8" style="stroke: #A80036; stroke-width: 2.0;"/><path d="M578,330 L578,357 M565,338 L591,338 M578,357 L565,372 M578,357 L591,372 " fill="#FEFECE" filter="url(#fxlb98n30eqq)" style="stroke: #A80036; stroke-width: 2.0;"/><text fill="#000000" font-family="sans-serif" font-size="14" lengthAdjust="spacingAndGlyphs" textLength="78" x="539" y="391.9951">Contributor</text><!--entity Maintainer--><ellipse cx="578" cy="162" fill="#FEFECE" filter="url(#fxlb98n30eqq)" rx="8" ry="8" style="stroke: #A80036; stroke-width: 2.0;"/><path d="M578,170 L578,197 M565,178 L591,178 M578,197 L565,212 M578,197 L591,212 " fill="#FEFECE" filter="url(#fxlb98n30eqq)" style="stroke: #A80036; stroke-width: 2.0;"/><text fill="#000000" font-family="sans-serif" font-size="14" lengthAdjust="spacingAndGlyphs" textLength="71" x="542.5" y="231.9951">Maintainer</text><!--entity IPFS--><ellipse cx="76" cy="322" fill="#FEFECE" filter="url(#fxlb98n30eqq)" rx="8" ry="8" style="stroke: #A80036; stroke-width: 2.0;"/><path d="M76,330 L76,357 M63,338 L89,338 M76,357 L63,372 M76,357 L89,372 " fill="#FEFECE" filter="url(#fxlb98n30eqq)" style="stroke: #A80036; stroke-width: 2.0;"/><text fill="#000000" font-family="sans-serif" font-size="14" lengthAdjust="spacingAndGlyphs" textLength="29" x="61.5" y="391.9951">IPFS</text><ellipse cx="57.7904" cy="193.5236" fill="#FEFECE" filter="url(#fxlb98n30eqq)" rx="51.7904" ry="14.5236" style="stroke: #A80036; stroke-width: 1.5;"/><text fill="#000000" font-family="sans-serif" font-size="14" lengthAdjust="spacingAndGlyphs" textLength="69" x="23.2904" y="198.1721">Download</text><ellipse cx="176.9914" cy="193.5236" fill="#FEFECE" filter="url(#fxlb98n30eqq)" rx="31.9914" ry="14.5236" style="stroke: #A80036; stroke-width: 1.5;"/><text fill="#000000" font-family="sans-serif" font-size="14" lengthAdjust="spacingAndGlyphs" textLength="41" x="156.4914" y="198.1721">Query</text><ellipse cx="619.0122" cy="521.5236" fill="#FEFECE" filter="url(#fxlb98n30eqq)" rx="44.0122" ry="14.5236" style="stroke: #A80036; stroke-width: 1.5;"/><text fill="#000000" font-family="sans-serif" font-size="14" lengthAdjust="spacingAndGlyphs" textLength="58" x="590.0122" y="526.1721">Register</text><ellipse cx="440.163" cy="642.0236" fill="#FEFECE" filter="url(#fxlb98n30eqq)" rx="29.163" ry="14.5236" style="stroke: #A80036; stroke-width: 1.5;"/><text fill="#000000" font-family="sans-serif" font-size="14" lengthAdjust="spacingAndGlyphs" textLength="37" x="421.663" y="646.6721">Login</text><ellipse cx="733.211" cy="446.9422" fill="#FEFECE" filter="url(#fxlb98n30eqq)" rx="97.711" ry="21.9422" style="stroke: #A80036; stroke-width: 1.5;"/><text fill="#000000" font-family="sans-serif" font-size="14" lengthAdjust="spacingAndGlyphs" textLength="171" x="647.711" y="451.5906">Vote for New Maintainers</text><ellipse cx="440.0203" cy="521.3041" fill="#FEFECE" filter="url(#fxlb98n30eqq)" rx="99.5203" ry="22.3041" style="stroke: #A80036; stroke-width: 1.5;"/><text fill="#000000" font-family="sans-serif" font-size="14" lengthAdjust="spacingAndGlyphs" textLength="175" x="352.5203" y="525.9525">Propose Package Update</text><ellipse cx="219.2229" cy="642.0446" fill="#FEFECE" filter="url(#fxlb98n30eqq)" rx="93.2229" ry="21.0446" style="stroke: #A80036; stroke-width: 1.5;"/><text fill="#000000" font-family="sans-serif" font-size="14" lengthAdjust="spacingAndGlyphs" textLength="161" x="138.7229" y="646.693">Check against Conflicts</text><ellipse cx="331.1576" cy="353.4315" fill="#FEFECE" filter="url(#fxlb98n30eqq)" rx="72.6576" ry="16.9315" style="stroke: #A80036; stroke-width: 1.5;"/><text fill="#000000" font-family="sans-serif" font-size="14" lengthAdjust="spacingAndGlyphs" textLength="113" x="274.6576" y="358.0799">Review Proposal</text><ellipse cx="282.8553" cy="193.5236" fill="#FEFECE" filter="url(#fxlb98n30eqq)" rx="38.3553" ry="14.5236" style="stroke: #A80036; stroke-width: 1.5;"/><text fill="#000000" font-family="sans-serif" font-size="14" lengthAdjust="spacingAndGlyphs" textLength="50" x="257.8553" y="198.1721">Update</text><!--link User to Query--><path d="M133.0789,88.0894 C144.6967,115.9721 159.8934,152.4443 169.0258,174.3619 " fill="none" id="User-Query" style="stroke: #A80036; stroke-width: 1.0;"/><polygon fill="#A80036" points="170.9896,179.075,171.2202,169.2288,169.0664,174.4597,163.8356,172.3059,170.9896,179.075" style="stroke: #A80036; stroke-width: 1.0;"/><!--link User to Download--><path d="M100.878,88.8486 C89.5223,116.5642 74.8112,152.4692 65.9058,174.2046 " fill="none" id="User-Download" style="stroke: #A80036; stroke-width: 1.0;"/><polygon fill="#A80036" points="63.9888,178.8834,71.1024,172.0719,65.8845,174.2567,63.6997,169.0388,63.9888,178.8834" style="stroke: #A80036; stroke-width: 1.0;"/><!--link Download to IPFS--><path d="M59.6611,208.2656 C62.1478,230.3691 66.9471,273.0302 70.7037,306.422 " fill="none" id="Download-IPFS" style="stroke: #A80036; stroke-width: 1.0;"/><polygon fill="#A80036" points="71.2972,311.697,74.2656,302.3061,70.738,306.7284,66.3158,303.2008,71.2972,311.697" style="stroke: #A80036; stroke-width: 1.0;"/><!--link Maintainer to Review--><path d="M542.3479,216.5945 C493.1673,248.4523 405.451,305.2726 360.0369,334.6907 " fill="none" id="Maintainer-Review" style="stroke: #A80036; stroke-width: 1.0;"/><polygon fill="#A80036" points="355.7768,337.4503,365.5051,335.9143,359.9732,334.7319,361.1556,329.2,355.7768,337.4503" style="stroke: #A80036; stroke-width: 1.0;"/><!--link Review to Propose--><path d="M342.0513,370.5333 C361.8604,401.0646 403.4006,465.0899 425.4808,499.1217 " fill="none" id="Review-Propose" style="stroke: #A80036; stroke-width: 1.0;"/><!--link Review to Login--><path d="M316.0698,370.2434 C288.2017,403.6288 233.3956,480.7154 260,544 C284.5634,602.4296 362.097,626.9948 406.9899,636.5328 " fill="none" id="Review-Login" style="stroke: #A80036; stroke-width: 1.0; stroke-dasharray: 7.0,7.0;"/><polygon fill="#A80036" points="412.03,637.5697,404.0208,631.8379,407.1326,636.562,402.4085,639.6737,412.03,637.5697" style="stroke: #A80036; stroke-width: 1.0;"/><text fill="#000000" font-family="sans-serif" font-size="13" lengthAdjust="spacingAndGlyphs" textLength="61" x="261" y="526.0669">«include»</text><!--link Update to Review--><path d="M287.3443,207.9811 C295.7561,236.0202 314.3166,297.8886 324.3125,331.2083 " fill="none" id="Update-Review" style="stroke: #A80036; stroke-width: 1.0; stroke-dasharray: 7.0,7.0;"/><polygon fill="#A80036" points="325.8404,336.3013,327.0854,326.5314,324.4036,331.5122,319.4228,328.8304,325.8404,336.3013" style="stroke: #A80036; stroke-width: 1.0;"/><text fill="#000000" font-family="sans-serif" font-size="13" lengthAdjust="spacingAndGlyphs" textLength="60" x="309" y="278.0669">«extend»</text><!--link Update to Check--><path d="M274.8961,207.7841 C255.338,243.1801 205.9187,338.3626 189,425 C175.6214,493.5094 196.8468,575.3248 209.9345,616.1518 " fill="none" id="Update-Check" style="stroke: #A80036; stroke-width: 1.0; stroke-dasharray: 7.0,7.0;"/><polygon fill="#A80036" points="211.4873,620.9239,212.5058,611.1279,209.94,616.1693,204.8985,613.6035,211.4873,620.9239" style="stroke: #A80036; stroke-width: 1.0;"/><text fill="#000000" font-family="sans-serif" font-size="13" lengthAdjust="spacingAndGlyphs" textLength="61" x="190" y="451.5669">«include»</text><!--link Update to IPFS--><path d="M267.4292,206.9406 C256.4428,215.8785 241.0555,227.3395 226,235 C187.292,254.6955 167.4341,238.5327 133,265 C116.3118,277.8272 103.1024,297.0252 93.6194,314.2655 " fill="none" id="Update-IPFS" style="stroke: #A80036; stroke-width: 1.0;"/><polygon fill="#A80036" points="91.0438,319.0693,98.8219,313.0277,93.4065,314.6628,91.7714,309.2474,91.0438,319.0693" style="stroke: #A80036; stroke-width: 1.0;"/><!--link Maintainer to Vote--><path d="M603.4215,235.0765 C635.5554,287.6309 689.9215,376.5458 716.867,420.6147 " fill="none" id="Maintainer-Vote" style="stroke: #A80036; stroke-width: 1.0;"/><polygon fill="#A80036" points="719.5441,424.9931,718.2617,415.2281,716.9358,420.7273,711.4365,419.4014,719.5441,424.9931" style="stroke: #A80036; stroke-width: 1.0;"/><!--link Vote to Login--><path d="M726.1366,469.0668 C718.3609,490.7768 703.7312,523.5565 681,544 C619.4727,599.3349 522.5787,625.6603 472.4508,636.1574 " fill="none" id="Vote-Login" style="stroke: #A80036; stroke-width: 1.0; stroke-dasharray: 7.0,7.0;"/><polygon fill="#A80036" points="467.455,637.1834,477.0757,639.2911,472.3528,636.1776,475.4663,631.4547,467.455,637.1834" style="stroke: #A80036; stroke-width: 1.0;"/><text fill="#000000" font-family="sans-serif" font-size="13" lengthAdjust="spacingAndGlyphs" textLength="61" x="714" y="526.0669">«include»</text><!--link Maintainer to Contributor--><path d="M578,235.1204 C578,252.3676 578,272.7337 578,291.6666 " fill="none" id="Maintainer-Contributor" style="stroke: #A80036; stroke-width: 1.0;"/><polygon fill="none" points="585.0001,291.8103,578,311.8103,571.0001,291.8103,585.0001,291.8103" style="stroke: #A80036; stroke-width: 1.0;"/><!--link Contributor to Register--><path d="M588.1348,395.0281 C596.4494,429.0974 607.8509,475.816 614.2122,501.8816 " fill="none" id="Contributor-Register" style="stroke: #A80036; stroke-width: 1.0;"/><polygon fill="#A80036" points="615.4148,506.8095,617.1667,497.1177,614.2292,501.9521,609.3949,499.0146,615.4148,506.8095" style="stroke: #A80036; stroke-width: 1.0;"/><!--link Contributor to Propose--><path d="M543.8876,395.0281 C518.2798,426.2028 483.972,467.9689 461.923,494.8112 " fill="none" id="Contributor-Propose" style="stroke: #A80036; stroke-width: 1.0;"/><polygon fill="#A80036" points="458.4927,498.9872,467.2962,494.5716,461.6664,495.1235,461.1144,489.4937,458.4927,498.9872" style="stroke: #A80036; stroke-width: 1.0;"/><!--link Propose to Login--><path d="M440,544.1651 C440,566.6652 440,600.8088 440,622.2366 " fill="none" id="Propose-Login" style="stroke: #A80036; stroke-width: 1.0; stroke-dasharray: 7.0,7.0;"/><polygon fill="#A80036" points="440,627.3955,444,618.3955,440,622.3955,436,618.3955,440,627.3955" style="stroke: #A80036; stroke-width: 1.0;"/><text fill="#000000" font-family="sans-serif" font-size="13" lengthAdjust="spacingAndGlyphs" textLength="61" x="441" y="587.0669">«include»</text><!--link Propose to Check--><path d="M401.757,542.3519 C361.9874,564.0363 299.9811,597.8451 259.4217,619.9601 " fill="none" id="Propose-Check" style="stroke: #A80036; stroke-width: 1.0; stroke-dasharray: 7.0,7.0;"/><polygon fill="#A80036" points="254.5846,622.5975,264.4012,621.8008,258.9744,620.2039,260.5714,614.7771,254.5846,622.5975" style="stroke: #A80036; stroke-width: 1.0;"/><text fill="#000000" font-family="sans-serif" font-size="13" lengthAdjust="spacingAndGlyphs" textLength="61" x="343" y="587.0669">«include»</text><!--
@startuml
actor User
actor Contributor
actor Maintainer
actor IPFS

usecase Download
usecase Query

usecase Register
usecase Login
usecase "Vote for New Maintainers" as Vote

usecase "Propose Package Update" as Propose
usecase "Check against Conflicts" as Check
usecase "Review Proposal" as Review
usecase Update

User - -> Query
User - -> Download
Download - -> IPFS

Maintainer - -> Review
Review - - Propose
Review ..> Login : <<include>>

Update ..> Review : <<extend>>
Update ..> Check : <<include>>
Update - -> IPFS

Maintainer - -> Vote
Vote ..> Login : <<include>>

Maintainer - -|> Contributor
Contributor - -> Register

Contributor - -> Propose
Propose ..> Login : <<include>>
Propose ..> Check : <<include>>

@enduml

PlantUML version 1.2017.15(Mon Jul 03 16:45:34 UTC 2017)
(GPL source distribution)
Java Runtime: OpenJDK Runtime Environment
JVM: OpenJDK 64-Bit Server VM
Java Version: 1.8.0_265-b01
Operating System: Linux
OS Version: 5.4.0-1025-azure
Default Encoding: UTF-8
Language: en
Country: null
--></g></svg>