<?xml version="1.0" encoding="UTF-8" standalone="no"?><svg xmlns="http://www.w3.org/2000/svg" xmlns:xlink="http://www.w3.org/1999/xlink" contentScriptType="application/ecmascript" contentStyleType="text/css" height="329px" preserveAspectRatio="none" style="width:502px;height:329px;" version="1.1" viewBox="0 0 502 329" width="502px" zoomAndPan="magnify"><defs><filter height="300%" id="fekzk8s80dgn7" width="300%" x="-1" y="-1"><feGaussianBlur result="blurOut" stdDeviation="2.0"/><feColorMatrix in="blurOut" result="blurOut2" type="matrix" values="0 0 0 0 0 0 0 0 0 0 0 0 0 0 0 0 0 0 .4 0"/><feOffset dx="4.0" dy="4.0" in="blurOut2" result="blurOut3"/><feBlend in="SourceGraphic" in2="blurOut3" mode="normal"/></filter></defs><g><!--MD5=[fee662a292a0353a69bd162820bae93b]
entity User--><ellipse cx="266" cy="17.5" fill="#FEFECE" filter="url(#fekzk8s80dgn7)" rx="8" ry="8" style="stroke: #A80036; stroke-width: 1.5;"/><path d="M266,25.5 L266,52.5 M253,33.5 L279,33.5 M266,52.5 L253,67.5 M266,52.5 L279,67.5 " fill="none" filter="url(#fekzk8s80dgn7)" style="stroke: #A80036; stroke-width: 1.5;"/><text fill="#000000" font-family="sans-serif" font-size="14" lengthAdjust="spacingAndGlyphs" textLength="32" x="250" y="85.9951">User</text><!--MD5=[0e386df696c8989779f0bde43ae749c6]
entity Uploader--><ellipse cx="353" cy="17.5" fill="#FEFECE" filter="url(#fekzk8s80dgn7)" rx="8" ry="8" style="stroke: #A80036; stroke-width: 1.5;"/><path d="M353,25.5 L353,52.5 M340,33.5 L366,33.5 M353,52.5 L340,67.5 M353,52.5 L366,67.5 " fill="none" filter="url(#fekzk8s80dgn7)" style="stroke: #A80036; stroke-width: 1.5;"/><text fill="#000000" font-family="sans-serif" font-size="14" lengthAdjust="spacingAndGlyphs" textLength="62" x="322" y="85.9951">Uploader</text><!--MD5=[b90713b5ddaea180d3429e7b1ef7c0f8]
entity Maintainer--><ellipse cx="455" cy="17.5" fill="#FEFECE" filter="url(#fekzk8s80dgn7)" rx="8" ry="8" style="stroke: #A80036; stroke-width: 1.5;"/><path d="M455,25.5 L455,52.5 M442,33.5 L468,33.5 M455,52.5 L442,67.5 M455,52.5 L468,67.5 " fill="none" filter="url(#fekzk8s80dgn7)" style="stroke: #A80036; stroke-width: 1.5;"/><text fill="#000000" font-family="sans-serif" font-size="14" lengthAdjust="spacingAndGlyphs" textLength="71" x="419.5" y="85.9951">Maintainer</text><!--MD5=[a74c9f7ba4e347df35943d93696ec108]
entity IPFS--><ellipse cx="43" cy="17.5" fill="#FEFECE" filter="url(#fekzk8s80dgn7)" rx="8" ry="8" style="stroke: #A80036; stroke-width: 1.5;"/><path d="M43,25.5 L43,52.5 M30,33.5 L56,33.5 M43,52.5 L30,67.5 M43,52.5 L56,67.5 " fill="none" filter="url(#fekzk8s80dgn7)" style="stroke: #A80036; stroke-width: 1.5;"/><text fill="#000000" font-family="sans-serif" font-size="14" lengthAdjust="spacingAndGlyphs" textLength="29" x="28.5" y="85.9951">IPFS</text><!--MD5=[fa1e3283224feb76407c84b7e90ed808]
entity Database--><ellipse cx="436" cy="247.5" fill="#FEFECE" filter="url(#fekzk8s80dgn7)" rx="8" ry="8" style="stroke: #A80036; stroke-width: 1.5;"/><path d="M436,255.5 L436,282.5 M423,263.5 L449,263.5 M436,282.5 L423,297.5 M436,282.5 L449,297.5 " fill="none" filter="url(#fekzk8s80dgn7)" style="stroke: #A80036; stroke-width: 1.5;"/><text fill="#000000" font-family="sans-serif" font-size="14" lengthAdjust="spacingAndGlyphs" textLength="66" x="403" y="315.9951">Database</text><ellipse cx="166.7904" cy="163.5236" fill="#FEFECE" filter="url(#fekzk8s80dgn7)" rx="51.7904" ry="14.5236" style="stroke: #A80036; stroke-width: 1.5;"/><text fill="#000000" font-family="sans-serif" font-size="14" lengthAdjust="spacingAndGlyphs" textLength="69" x="132.2904" y="168.1721">Download</text><ellipse cx="285.9914" cy="163.5236" fill="#FEFECE" filter="url(#fekzk8s80dgn7)" rx="31.9914" ry="14.5236" style="stroke: #A80036; stroke-width: 1.5;"/><text fill="#000000" font-family="sans-serif" font-size="14" lengthAdjust="spacingAndGlyphs" textLength="41" x="265.4914" y="168.1721">Query</text><ellipse cx="436.0122" cy="163.5236" fill="#FEFECE" filter="url(#fekzk8s80dgn7)" rx="44.0122" ry="14.5236" style="stroke: #A80036; stroke-width: 1.5;"/><text fill="#000000" font-family="sans-serif" font-size="14" lengthAdjust="spacingAndGlyphs" textLength="58" x="407.0122" y="168.1721">Register</text><ellipse cx="122.163" cy="48.5236" fill="#FEFECE" filter="url(#fekzk8s80dgn7)" rx="29.163" ry="14.5236" style="stroke: #A80036; stroke-width: 1.5;"/><text fill="#000000" font-family="sans-serif" font-size="14" lengthAdjust="spacingAndGlyphs" textLength="37" x="103.663" y="53.1721">Login</text><ellipse cx="42.9411" cy="163.5236" fill="#FEFECE" filter="url(#fekzk8s80dgn7)" rx="36.9411" ry="14.5236" style="stroke: #A80036; stroke-width: 1.5;"/><text fill="#000000" font-family="sans-serif" font-size="14" lengthAdjust="spacingAndGlyphs" textLength="48" x="18.9411" y="168.1721">Upload</text><!--MD5=[fe4d1e544d1f5aae5d4d05c630db20d2]
link User to Download--><path d="M249.87,67.91 C231.18,89.25 200.59,124.16 182.27,145.08 " fill="none" id="User-&gt;Download" style="stroke: #A80036; stroke-width: 1.0;"/><polygon fill="#A80036" points="178.77,149.06,187.7146,144.9376,182.0696,145.3033,181.7039,139.6583,178.77,149.06" style="stroke: #A80036; stroke-width: 1.0;"/><!--MD5=[ed3a9acfa5b2fcf1ba972f6d55686688]
link User to Query--><path d="M273,89.02 C276.29,107.61 280.05,128.91 282.69,143.77 " fill="none" id="User-&gt;Query" style="stroke: #A80036; stroke-width: 1.0;"/><polygon fill="#A80036" points="283.6,148.94,285.9671,139.3798,282.727,144.0168,278.09,140.7767,283.6,148.94" style="stroke: #A80036; stroke-width: 1.0;"/><!--MD5=[d9844137d4d16cb521dc2dc08d85e718]
link Uploader to Register--><path d="M382.03,89.02 C396.01,108.06 412.07,129.92 423.01,144.82 " fill="none" id="Uploader-&gt;Register" style="stroke: #A80036; stroke-width: 1.0;"/><polygon fill="#A80036" points="426.24,149.21,424.1389,139.5879,423.2813,145.1793,417.6899,144.3218,426.24,149.21" style="stroke: #A80036; stroke-width: 1.0;"/><!--MD5=[3b3442ede88a42ea4eb74a85d8d2d17d]
link Maintainer to Register--><path d="M448.35,89.02 C445.23,107.61 441.65,128.91 439.15,143.77 " fill="none" id="Maintainer-&gt;Register" style="stroke: #A80036; stroke-width: 1.0;"/><polygon fill="#A80036" points="438.28,148.94,443.7167,140.7277,439.1089,144.0092,435.8275,139.4014,438.28,148.94" style="stroke: #A80036; stroke-width: 1.0;"/><!--MD5=[d25a51d98ea9c50230c9ef23c5563995]
link Register to Database--><path d="M436,178.36 C436,193.09 436,217.07 436,237.76 " fill="none" id="Register-Database" style="stroke: #A80036; stroke-width: 1.0;"/><!--MD5=[1ff86fb53f19d41c6c3d770e37f02c22]
link IPFS to Login--><!--MD5=[0a8555cfc82d294909991d58d6283d44]
link IPFS to Upload--><!--MD5=[bd4bcdfef0122bbe18e87946a28c86da]
@startuml
actor User
actor Uploader
actor Maintainer
actor IPFS
actor Database

usecase Download
usecase Query
usecase Register
usecase Login
usecase Upload

User - -> Download
User - -> Query

Uploader - -> Register
Maintainer - -> Register

Register - - Database

@enduml

PlantUML version 1.2020.02(Sun Mar 01 17:22:07 ICT 2020)
(GPL source distribution)
Java Runtime: OpenJDK Runtime Environment
JVM: OpenJDK 64-Bit Server VM
Java Version: 11.0.8+10-post-Debian-1
Operating System: Linux
Default Encoding: UTF-8
Language: en
Country: DK
--></g></svg>