<?xml version="1.0" encoding="UTF-8" standalone="no"?><svg xmlns="http://www.w3.org/2000/svg" xmlns:xlink="http://www.w3.org/1999/xlink" contentScriptType="application/ecmascript" contentStyleType="text/css" height="372px" preserveAspectRatio="none" style="width:214px;height:372px;" version="1.1" viewBox="0 0 214 372" width="214px" zoomAndPan="magnify"><defs><filter height="300%" id="f12mez8c4547cj" width="300%" x="-1" y="-1"><feGaussianBlur result="blurOut" stdDeviation="2.0"/><feColorMatrix in="blurOut" result="blurOut2" type="matrix" values="0 0 0 0 0 0 0 0 0 0 0 0 0 0 0 0 0 0 .4 0"/><feOffset dx="4.0" dy="4.0" in="blurOut2" result="blurOut3"/><feBlend in="SourceGraphic" in2="blurOut3" mode="normal"/></filter></defs><g><!--class ReviewForm--><rect fill="#FEFECE" filter="url(#f12mez8c4547cj)" height="86.4141" id="ReviewForm" style="stroke: #A80036; stroke-width: 1.5;" width="144" x="32.5" y="8"/><ellipse cx="65.05" cy="24" fill="#ADD1B2" rx="11" ry="11" style="stroke: #A80036; stroke-width: 1.0;"/><path d="M68.0188,29.6406 Q67.4406,29.9375 66.8,30.0781 Q66.1594,30.2344 65.4563,30.2344 Q62.9563,30.2344 61.6281,28.5938 Q60.3156,26.9375 60.3156,23.8125 Q60.3156,20.6875 61.6281,19.0313 Q62.9563,17.375 65.4563,17.375 Q66.1594,17.375 66.8,17.5313 Q67.4563,17.6875 68.0188,17.9844 L68.0188,20.7031 Q67.3938,20.125 66.8,19.8594 Q66.2063,19.5781 65.5813,19.5781 Q64.2375,19.5781 63.55,20.6563 Q62.8625,21.7188 62.8625,23.8125 Q62.8625,25.9063 63.55,26.9844 Q64.2375,28.0469 65.5813,28.0469 Q66.2063,28.0469 66.8,27.7813 Q67.3938,27.5 68.0188,26.9219 L68.0188,29.6406 Z "/><text fill="#A80036" font-family="sans-serif" font-size="12" lengthAdjust="spacingAndGlyphs" textLength="73" x="82.95" y="28.1543">ReviewForm</text><line style="stroke: #A80036; stroke-width: 1.5;" x1="33.5" x2="175.5" y1="40" y2="40"/><line style="stroke: #A80036; stroke-width: 1.5;" x1="33.5" x2="175.5" y1="48" y2="48"/><text fill="#A80036" font-family="sans-serif" font-size="11" lengthAdjust="spacingAndGlyphs" textLength="122" x="38.5" y="62.2104">check proposal (uuid)</text><text fill="#A80036" font-family="sans-serif" font-size="11" lengthAdjust="spacingAndGlyphs" textLength="126" x="38.5" y="75.0151">display proposal(uuid)</text><text fill="#A80036" font-family="sans-serif" font-size="11" lengthAdjust="spacingAndGlyphs" textLength="132" x="38.5" y="87.8198">approve proposal(uuid)</text><!--class UpdateControl--><rect fill="#FEFECE" filter="url(#f12mez8c4547cj)" height="73.6094" id="UpdateControl" style="stroke: #A80036; stroke-width: 1.5;" width="144" x="32.5" y="154"/><ellipse cx="56.95" cy="170" fill="#ADD1B2" rx="11" ry="11" style="stroke: #A80036; stroke-width: 1.0;"/><path d="M59.9188,175.6406 Q59.3406,175.9375 58.7,176.0781 Q58.0594,176.2344 57.3563,176.2344 Q54.8563,176.2344 53.5281,174.5938 Q52.2156,172.9375 52.2156,169.8125 Q52.2156,166.6875 53.5281,165.0313 Q54.8563,163.375 57.3563,163.375 Q58.0594,163.375 58.7,163.5313 Q59.3563,163.6875 59.9188,163.9844 L59.9188,166.7031 Q59.2938,166.125 58.7,165.8594 Q58.1063,165.5781 57.4813,165.5781 Q56.1375,165.5781 55.45,166.6563 Q54.7625,167.7188 54.7625,169.8125 Q54.7625,171.9063 55.45,172.9844 Q56.1375,174.0469 57.4813,174.0469 Q58.1063,174.0469 58.7,173.7813 Q59.2938,173.5 59.9188,172.9219 L59.9188,175.6406 Z "/><text fill="#A80036" font-family="sans-serif" font-size="12" lengthAdjust="spacingAndGlyphs" textLength="91" x="73.05" y="174.1543">UpdateControl</text><line style="stroke: #A80036; stroke-width: 1.5;" x1="33.5" x2="175.5" y1="186" y2="186"/><line style="stroke: #A80036; stroke-width: 1.5;" x1="33.5" x2="175.5" y1="194" y2="194"/><text fill="#A80036" font-family="sans-serif" font-size="11" lengthAdjust="spacingAndGlyphs" textLength="130" x="38.5" y="208.2104">request proposal(uuid)</text><text fill="#A80036" font-family="sans-serif" font-size="11" lengthAdjust="spacingAndGlyphs" textLength="132" x="38.5" y="221.0151">approve proposal(uuid)</text><!--class ProposalCollection--><rect fill="#FEFECE" filter="url(#f12mez8c4547cj)" height="73.6094" id="ProposalCollection" style="stroke: #A80036; stroke-width: 1.5;" width="197" x="6" y="288"/><ellipse cx="43.05" cy="304" fill="#ADD1B2" rx="11" ry="11" style="stroke: #A80036; stroke-width: 1.0;"/><path d="M46.0188,309.6406 Q45.4406,309.9375 44.8,310.0781 Q44.1594,310.2344 43.4563,310.2344 Q40.9563,310.2344 39.6281,308.5938 Q38.3156,306.9375 38.3156,303.8125 Q38.3156,300.6875 39.6281,299.0313 Q40.9563,297.375 43.4563,297.375 Q44.1594,297.375 44.8,297.5313 Q45.4563,297.6875 46.0188,297.9844 L46.0188,300.7031 Q45.3938,300.125 44.8,299.8594 Q44.2063,299.5781 43.5813,299.5781 Q42.2375,299.5781 41.55,300.6563 Q40.8625,301.7188 40.8625,303.8125 Q40.8625,305.9063 41.55,306.9844 Q42.2375,308.0469 43.5813,308.0469 Q44.2063,308.0469 44.8,307.7813 Q45.3938,307.5 46.0188,306.9219 L46.0188,309.6406 Z "/><text fill="#A80036" font-family="sans-serif" font-size="12" lengthAdjust="spacingAndGlyphs" textLength="116" x="61.95" y="308.1543">ProposalCollection</text><line style="stroke: #A80036; stroke-width: 1.5;" x1="7" x2="202" y1="320" y2="320"/><line style="stroke: #A80036; stroke-width: 1.5;" x1="7" x2="202" y1="328" y2="328"/><text fill="#A80036" font-family="sans-serif" font-size="11" lengthAdjust="spacingAndGlyphs" textLength="104" x="12" y="342.2104">get proposal(uuid)</text><text fill="#A80036" font-family="sans-serif" font-size="11" lengthAdjust="spacingAndGlyphs" textLength="185" x="12" y="355.0151">change status to approved(uuid)</text><!--link ReviewForm to UpdateControl--><path d="M104.5,94.147 C104.5,113.2685 104.5,135.5409 104.5,153.9032 " fill="none" id="ReviewForm-UpdateControl" style="stroke: #A80036; stroke-width: 1.0;"/><text fill="#A80036" font-family="sans-serif" font-size="13" lengthAdjust="spacingAndGlyphs" textLength="23" x="79.5953" y="114.579">0..*</text><text fill="#A80036" font-family="sans-serif" font-size="13" lengthAdjust="spacingAndGlyphs" textLength="8" x="95.7625" y="142.7958">1</text><!--link UpdateControl to ProposalCollection--><path d="M104.5,228.3265 C104.5,246.9122 104.5,269.3155 104.5,287.8737 " fill="none" id="UpdateControl-ProposalCollection" style="stroke: #A80036; stroke-width: 1.0;"/><text fill="#A80036" font-family="sans-serif" font-size="13" lengthAdjust="spacingAndGlyphs" textLength="8" x="95.8625" y="247.5793">1</text><text fill="#A80036" font-family="sans-serif" font-size="13" lengthAdjust="spacingAndGlyphs" textLength="8" x="95.7875" y="277.0382">1</text><!--
@startuml
skinparam defaultFontColor #a80036

class ReviewForm {
   check proposal (uuid)
   display proposal(uuid)
   approve proposal(uuid)
}

class UpdateControl {
   request proposal(uuid)
   approve proposal(uuid)
}

class ProposalCollection {
   get proposal(uuid)
   change status to approved(uuid)
}

ReviewForm "0..*" - - "1" UpdateControl
UpdateControl "1" - - "1" ProposalCollection

@enduml

PlantUML version 1.2017.15(Mon Jul 03 16:45:34 UTC 2017)
(GPL source distribution)
Java Runtime: OpenJDK Runtime Environment
JVM: OpenJDK 64-Bit Server VM
Java Version: 1.8.0_265-b01
Operating System: Linux
OS Version: 5.4.0-1031-azure
Default Encoding: UTF-8
Language: en
Country: null
--></g></svg>