<?xml version="1.0" encoding="UTF-8" standalone="no"?><svg xmlns="http://www.w3.org/2000/svg" xmlns:xlink="http://www.w3.org/1999/xlink" contentScriptType="application/ecmascript" contentStyleType="text/css" height="372px" preserveAspectRatio="none" style="width:194px;height:372px;" version="1.1" viewBox="0 0 194 372" width="194px" zoomAndPan="magnify"><defs><filter height="300%" id="fbz3xrog3djnk" width="300%" x="-1" y="-1"><feGaussianBlur result="blurOut" stdDeviation="2.0"/><feColorMatrix in="blurOut" result="blurOut2" type="matrix" values="0 0 0 0 0 0 0 0 0 0 0 0 0 0 0 0 0 0 .4 0"/><feOffset dx="4.0" dy="4.0" in="blurOut2" result="blurOut3"/><feBlend in="SourceGraphic" in2="blurOut3" mode="normal"/></filter></defs><g><!--class ReviewForm--><rect fill="#FEFECE" filter="url(#fbz3xrog3djnk)" height="86.4141" id="ReviewForm" style="stroke: #A80036; stroke-width: 1.5;" width="124" x="32.5" y="8"/><ellipse cx="56.05" cy="24" fill="#ADD1B2" rx="11" ry="11" style="stroke: #A80036; stroke-width: 1.0;"/><path d="M59.0188,29.6406 Q58.4406,29.9375 57.8,30.0781 Q57.1594,30.2344 56.4563,30.2344 Q53.9563,30.2344 52.6281,28.5938 Q51.3156,26.9375 51.3156,23.8125 Q51.3156,20.6875 52.6281,19.0313 Q53.9563,17.375 56.4563,17.375 Q57.1594,17.375 57.8,17.5313 Q58.4563,17.6875 59.0188,17.9844 L59.0188,20.7031 Q58.3938,20.125 57.8,19.8594 Q57.2063,19.5781 56.5813,19.5781 Q55.2375,19.5781 54.55,20.6563 Q53.8625,21.7188 53.8625,23.8125 Q53.8625,25.9063 54.55,26.9844 Q55.2375,28.0469 56.5813,28.0469 Q57.2063,28.0469 57.8,27.7813 Q58.3938,27.5 59.0188,26.9219 L59.0188,29.6406 Z "/><text fill="#A80036" font-family="sans-serif" font-size="12" lengthAdjust="spacingAndGlyphs" textLength="73" x="71.95" y="28.1543">ReviewForm</text><line style="stroke: #A80036; stroke-width: 1.5;" x1="33.5" x2="155.5" y1="40" y2="40"/><line style="stroke: #A80036; stroke-width: 1.5;" x1="33.5" x2="155.5" y1="48" y2="48"/><text fill="#A80036" font-family="sans-serif" font-size="11" lengthAdjust="spacingAndGlyphs" textLength="98" x="38.5" y="62.2104">check proposal ()</text><text fill="#A80036" font-family="sans-serif" font-size="11" lengthAdjust="spacingAndGlyphs" textLength="106" x="38.5" y="75.0151">display proposal ()</text><text fill="#A80036" font-family="sans-serif" font-size="11" lengthAdjust="spacingAndGlyphs" textLength="112" x="38.5" y="87.8198">approve proposal ()</text><!--class UpdateControl--><rect fill="#FEFECE" filter="url(#fbz3xrog3djnk)" height="73.6094" id="UpdateControl" style="stroke: #A80036; stroke-width: 1.5;" width="177" x="6" y="154"/><ellipse cx="45.3" cy="170" fill="#ADD1B2" rx="11" ry="11" style="stroke: #A80036; stroke-width: 1.0;"/><path d="M48.2688,175.6406 Q47.6906,175.9375 47.05,176.0781 Q46.4094,176.2344 45.7063,176.2344 Q43.2063,176.2344 41.8781,174.5938 Q40.5656,172.9375 40.5656,169.8125 Q40.5656,166.6875 41.8781,165.0313 Q43.2063,163.375 45.7063,163.375 Q46.4094,163.375 47.05,163.5313 Q47.7063,163.6875 48.2688,163.9844 L48.2688,166.7031 Q47.6438,166.125 47.05,165.8594 Q46.4563,165.5781 45.8313,165.5781 Q44.4875,165.5781 43.8,166.6563 Q43.1125,167.7188 43.1125,169.8125 Q43.1125,171.9063 43.8,172.9844 Q44.4875,174.0469 45.8313,174.0469 Q46.4563,174.0469 47.05,173.7813 Q47.6438,173.5 48.2688,172.9219 L48.2688,175.6406 Z "/><text fill="#A80036" font-family="sans-serif" font-size="12" lengthAdjust="spacingAndGlyphs" textLength="91" x="64.7" y="174.1543">UpdateControl</text><line style="stroke: #A80036; stroke-width: 1.5;" x1="7" x2="182" y1="186" y2="186"/><line style="stroke: #A80036; stroke-width: 1.5;" x1="7" x2="182" y1="194" y2="194"/><text fill="#A80036" font-family="sans-serif" font-size="11" lengthAdjust="spacingAndGlyphs" textLength="84" x="12" y="208.2104">get proposal ()</text><text fill="#A80036" font-family="sans-serif" font-size="11" lengthAdjust="spacingAndGlyphs" textLength="165" x="12" y="221.0151">change status to approved ()</text><!--class Proposal--><rect fill="#FEFECE" filter="url(#fbz3xrog3djnk)" height="73.6094" id="Proposal" style="stroke: #A80036; stroke-width: 1.5;" width="101" x="44" y="288"/><ellipse cx="65.3" cy="304" fill="#ADD1B2" rx="11" ry="11" style="stroke: #A80036; stroke-width: 1.0;"/><path d="M68.2688,309.6406 Q67.6906,309.9375 67.05,310.0781 Q66.4094,310.2344 65.7063,310.2344 Q63.2063,310.2344 61.8781,308.5938 Q60.5656,306.9375 60.5656,303.8125 Q60.5656,300.6875 61.8781,299.0313 Q63.2063,297.375 65.7063,297.375 Q66.4094,297.375 67.05,297.5313 Q67.7063,297.6875 68.2688,297.9844 L68.2688,300.7031 Q67.6438,300.125 67.05,299.8594 Q66.4563,299.5781 65.8313,299.5781 Q64.4875,299.5781 63.8,300.6563 Q63.1125,301.7188 63.1125,303.8125 Q63.1125,305.9063 63.8,306.9844 Q64.4875,308.0469 65.8313,308.0469 Q66.4563,308.0469 67.05,307.7813 Q67.6438,307.5 68.2688,306.9219 L68.2688,309.6406 Z "/><text fill="#A80036" font-family="sans-serif" font-size="12" lengthAdjust="spacingAndGlyphs" textLength="55" x="80.7" y="308.1543">Proposal</text><line style="stroke: #A80036; stroke-width: 1.5;" x1="45" x2="144" y1="320" y2="320"/><line style="stroke: #A80036; stroke-width: 1.5;" x1="45" x2="144" y1="328" y2="328"/><text fill="#A80036" font-family="sans-serif" font-size="11" lengthAdjust="spacingAndGlyphs" textLength="89" x="50" y="342.2104">change status()</text><text fill="#A80036" font-family="sans-serif" font-size="11" lengthAdjust="spacingAndGlyphs" textLength="80" x="50" y="355.0151">get proposal()</text><!--link ReviewForm to UpdateControl--><path d="M94.5,94.147 C94.5,113.2685 94.5,135.5409 94.5,153.9032 " fill="none" id="ReviewForm-UpdateControl" style="stroke: #A80036; stroke-width: 1.0;"/><text fill="#A80036" font-family="sans-serif" font-size="13" lengthAdjust="spacingAndGlyphs" textLength="23" x="69.5953" y="114.579">0..*</text><text fill="#A80036" font-family="sans-serif" font-size="13" lengthAdjust="spacingAndGlyphs" textLength="8" x="85.7625" y="142.7958">1</text><!--link UpdateControl to Proposal--><path d="M94.5,228.3265 C94.5,246.9122 94.5,269.3155 94.5,287.8737 " fill="none" id="UpdateControl-Proposal" style="stroke: #A80036; stroke-width: 1.0;"/><text fill="#A80036" font-family="sans-serif" font-size="13" lengthAdjust="spacingAndGlyphs" textLength="8" x="85.8625" y="247.5793">1</text><text fill="#A80036" font-family="sans-serif" font-size="13" lengthAdjust="spacingAndGlyphs" textLength="8" x="85.7875" y="277.0382">1</text><!--
@startuml
skinparam defaultFontColor #a80036

class ReviewForm {
   check proposal ()
   display proposal ()
   approve proposal ()
}

class UpdateControl {
   get proposal ()
   change status to approved ()
}

class Proposal {
   change status()
   get proposal()
}

ReviewForm "0..*" - - "1" UpdateControl
UpdateControl "1" - - "1" Proposal

@enduml

PlantUML version 1.2017.15(Mon Jul 03 16:45:34 UTC 2017)
(GPL source distribution)
Java Runtime: OpenJDK Runtime Environment
JVM: OpenJDK 64-Bit Server VM
Java Version: 1.8.0_265-b01
Operating System: Linux
OS Version: 5.4.0-1026-azure
Default Encoding: UTF-8
Language: en
Country: null
--></g></svg>