<?xml version="1.0" encoding="UTF-8" standalone="no"?><svg xmlns="http://www.w3.org/2000/svg" xmlns:xlink="http://www.w3.org/1999/xlink" contentScriptType="application/ecmascript" contentStyleType="text/css" height="355px" preserveAspectRatio="none" style="width:787px;height:355px;" version="1.1" viewBox="0 0 787 355" width="787px" zoomAndPan="magnify"><defs><filter height="300%" id="f1x364lfi40gkq" width="300%" x="-1" y="-1"><feGaussianBlur result="blurOut" stdDeviation="2.0"/><feColorMatrix in="blurOut" result="blurOut2" type="matrix" values="0 0 0 0 0 0 0 0 0 0 0 0 0 0 0 0 0 0 .4 0"/><feOffset dx="4.0" dy="4.0" in="blurOut2" result="blurOut3"/><feBlend in="SourceGraphic" in2="blurOut3" mode="normal"/></filter></defs><g><!--entity AuthUI--><polygon fill="#FEFECE" filter="url(#f1x364lfi40gkq)" points="43.5,8,94.5,8,101.5,30.2969,193.5,30.2969,193.5,79.8906,43.5,79.8906,43.5,8" style="stroke: #000000; stroke-width: 1.5;"/><line style="stroke: #000000; stroke-width: 1.5;" x1="43.5" x2="101.5" y1="30.2969" y2="30.2969"/><text fill="#A80036" font-family="sans-serif" font-size="14" lengthAdjust="spacingAndGlyphs" textLength="45" x="47.5" y="23.9951">AuthUI</text><text fill="#A80036" font-family="sans-serif" font-size="14" lengthAdjust="spacingAndGlyphs" textLength="117" x="53.5" y="50.292">Authentication UI</text><text fill="#A80036" font-family="sans-serif" font-size="14" lengthAdjust="spacingAndGlyphs" textLength="120" x="53.5" y="66.5889">(from Application)</text><!--entity AuthMgm--><polygon fill="#FEFECE" filter="url(#f1x364lfi40gkq)" points="6,140,78,140,85,162.2969,231,162.2969,231,211.8906,6,211.8906,6,140" style="stroke: #000000; stroke-width: 1.5;"/><line style="stroke: #000000; stroke-width: 1.5;" x1="6" x2="85" y1="162.2969" y2="162.2969"/><text fill="#A80036" font-family="sans-serif" font-size="14" lengthAdjust="spacingAndGlyphs" textLength="66" x="10" y="155.9951">AuthMgm</text><text fill="#A80036" font-family="sans-serif" font-size="14" lengthAdjust="spacingAndGlyphs" textLength="195" x="16" y="182.292">Authentication Management</text><text fill="#A80036" font-family="sans-serif" font-size="14" lengthAdjust="spacingAndGlyphs" textLength="120" x="16" y="198.5889">(from Application)</text><!--entity Auth--><polygon fill="#FEFECE" filter="url(#f1x364lfi40gkq)" points="18,272,56,272,63,294.2969,219,294.2969,219,343.8906,18,343.8906,18,272" style="stroke: #000000; stroke-width: 1.5;"/><line style="stroke: #000000; stroke-width: 1.5;" x1="18" x2="63" y1="294.2969" y2="294.2969"/><text fill="#A80036" font-family="sans-serif" font-size="14" lengthAdjust="spacingAndGlyphs" textLength="32" x="22" y="287.9951">Auth</text><text fill="#A80036" font-family="sans-serif" font-size="14" lengthAdjust="spacingAndGlyphs" textLength="100" x="28" y="314.292">Authentication</text><text fill="#A80036" font-family="sans-serif" font-size="14" lengthAdjust="spacingAndGlyphs" textLength="171" x="28" y="330.5889">(from Business Services)</text><!--entity ProposeUI--><polygon fill="#FEFECE" filter="url(#f1x364lfi40gkq)" points="406.5,8,483.5,8,490.5,30.2969,556.5,30.2969,556.5,79.8906,406.5,79.8906,406.5,8" style="stroke: #000000; stroke-width: 1.5;"/><line style="stroke: #000000; stroke-width: 1.5;" x1="406.5" x2="490.5" y1="30.2969" y2="30.2969"/><text fill="#A80036" font-family="sans-serif" font-size="14" lengthAdjust="spacingAndGlyphs" textLength="71" x="410.5" y="23.9951">ProposeUI</text><text fill="#A80036" font-family="sans-serif" font-size="14" lengthAdjust="spacingAndGlyphs" textLength="77" x="416.5" y="50.292">Proposal UI</text><text fill="#A80036" font-family="sans-serif" font-size="14" lengthAdjust="spacingAndGlyphs" textLength="120" x="416.5" y="66.5889">(from Application)</text><!--entity ProposeMgm--><polygon fill="#FEFECE" filter="url(#f1x364lfi40gkq)" points="381,140,479,140,486,162.2969,582,162.2969,582,211.8906,381,211.8906,381,140" style="stroke: #000000; stroke-width: 1.5;"/><line style="stroke: #000000; stroke-width: 1.5;" x1="381" x2="486" y1="162.2969" y2="162.2969"/><text fill="#A80036" font-family="sans-serif" font-size="14" lengthAdjust="spacingAndGlyphs" textLength="92" x="385" y="155.9951">ProposeMgm</text><text fill="#A80036" font-family="sans-serif" font-size="14" lengthAdjust="spacingAndGlyphs" textLength="155" x="391" y="182.292">Proposal Management</text><text fill="#A80036" font-family="sans-serif" font-size="14" lengthAdjust="spacingAndGlyphs" textLength="171" x="391" y="198.5889">(from Business Services)</text><!--entity PI--><polygon fill="#FEFECE" filter="url(#f1x364lfi40gkq)" points="317,272,335,272,342,294.2969,518,294.2969,518,343.8906,317,343.8906,317,272" style="stroke: #000000; stroke-width: 1.5;"/><line style="stroke: #000000; stroke-width: 1.5;" x1="317" x2="342" y1="294.2969" y2="294.2969"/><text fill="#A80036" font-family="sans-serif" font-size="14" lengthAdjust="spacingAndGlyphs" textLength="12" x="321" y="287.9951">PI</text><text fill="#A80036" font-family="sans-serif" font-size="14" lengthAdjust="spacingAndGlyphs" textLength="100" x="327" y="314.292">Package Index</text><text fill="#A80036" font-family="sans-serif" font-size="14" lengthAdjust="spacingAndGlyphs" textLength="171" x="327" y="330.5889">(from Business Services)</text><!--entity ExtI--><polygon fill="#FEFECE" filter="url(#f1x364lfi40gkq)" points="553.5,272,583.5,272,590.5,294.2969,765.5,294.2969,765.5,343.8906,553.5,343.8906,553.5,272" style="stroke: #000000; stroke-width: 1.5;"/><line style="stroke: #000000; stroke-width: 1.5;" x1="553.5" x2="590.5" y1="294.2969" y2="294.2969"/><text fill="#A80036" font-family="sans-serif" font-size="14" lengthAdjust="spacingAndGlyphs" textLength="24" x="557.5" y="287.9951">ExtI</text><text fill="#A80036" font-family="sans-serif" font-size="14" lengthAdjust="spacingAndGlyphs" textLength="182" x="563.5" y="314.292">External System Interfaces</text><text fill="#A80036" font-family="sans-serif" font-size="14" lengthAdjust="spacingAndGlyphs" textLength="123" x="563.5" y="330.5889">(from Middleware)</text><!--link AuthUI to AuthMgm--><path d="M118.5,80.0696 C118.5,96.9488 118.5,117.1417 118.5,134.6375 " fill="none" id="AuthUI-AuthMgm" style="stroke: #A80036; stroke-width: 1.0;"/><polygon fill="#A80036" points="118.5,139.974,122.5,130.974,118.5,134.974,114.5,130.974,118.5,139.974" style="stroke: #A80036; stroke-width: 1.0;"/><!--link AuthMgm to Auth--><path d="M118.5,212.0696 C118.5,228.9488 118.5,249.1417 118.5,266.6375 " fill="none" id="AuthMgm-Auth" style="stroke: #A80036; stroke-width: 1.0;"/><polygon fill="#A80036" points="118.5,271.974,122.5,262.974,118.5,266.974,114.5,262.974,118.5,271.974" style="stroke: #A80036; stroke-width: 1.0;"/><!--link ProposeUI to ProposeMgm--><path d="M481.5,80.0696 C481.5,96.9488 481.5,117.1417 481.5,134.6375 " fill="none" id="ProposeUI-ProposeMgm" style="stroke: #A80036; stroke-width: 1.0;"/><polygon fill="#A80036" points="481.5,139.974,485.5,130.974,481.5,134.974,477.5,130.974,481.5,139.974" style="stroke: #A80036; stroke-width: 1.0;"/><!--link ProposeMgm to PI--><path d="M464.0117,212.0696 C455.7573,229.0943 445.8685,249.4901 437.3354,267.0894 " fill="none" id="ProposeMgm-PI" style="stroke: #A80036; stroke-width: 1.0;"/><polygon fill="#A80036" points="434.9671,271.974,442.4928,265.6207,437.1484,267.4749,435.2942,262.1306,434.9671,271.974" style="stroke: #A80036; stroke-width: 1.0;"/><!--link ProposeMgm to ExtI--><path d="M530.1393,212.0696 C553.8818,229.6764 582.4861,250.8886 606.7532,268.8844 " fill="none" id="ProposeMgm-ExtI" style="stroke: #A80036; stroke-width: 1.0;"/><polygon fill="#A80036" points="610.9195,271.974,606.0729,263.4002,606.9033,268.9958,601.3077,269.8261,610.9195,271.974" style="stroke: #A80036; stroke-width: 1.0;"/><!--
@startuml
skinparam defaultFontColor #a80036

package "Authentication UI\n(from Application)" as AuthUI
package "Authentication Management\n(from Application)" as AuthMgm
package "Authentication\n(from Business Services)" as Auth
package "Proposal UI\n(from Application)" as ProposeUI
package "Proposal Management\n(from Business Services)" as ProposeMgm
package "Package Index\n(from Business Services)" as PI
package "External System Interfaces\n(from Middleware)" as ExtI

AuthUI - -> AuthMgm
AuthMgm - -> Auth
ProposeUI - -> ProposeMgm
ProposeMgm - -> PI
ProposeMgm - -> ExtI

@enduml

PlantUML version 1.2017.15(Mon Jul 03 16:45:34 UTC 2017)
(GPL source distribution)
Java Runtime: OpenJDK Runtime Environment
JVM: OpenJDK 64-Bit Server VM
Java Version: 1.8.0_265-b01
Operating System: Linux
OS Version: 5.4.0-1031-azure
Default Encoding: UTF-8
Language: en
Country: null
--></g></svg>