<?xml version="1.0" encoding="UTF-8" standalone="no"?><svg xmlns="http://www.w3.org/2000/svg" xmlns:xlink="http://www.w3.org/1999/xlink" contentScriptType="application/ecmascript" contentStyleType="text/css" height="264px" preserveAspectRatio="none" style="width:707px;height:264px;" version="1.1" viewBox="0 0 707 264" width="707px" zoomAndPan="magnify"><defs><filter height="300%" id="fnctsj70y5sic" width="300%" x="-1" y="-1"><feGaussianBlur result="blurOut" stdDeviation="2.0"/><feColorMatrix in="blurOut" result="blurOut2" type="matrix" values="0 0 0 0 0 0 0 0 0 0 0 0 0 0 0 0 0 0 .4 0"/><feOffset dx="4.0" dy="4.0" in="blurOut2" result="blurOut3"/><feBlend in="SourceGraphic" in2="blurOut3" mode="normal"/></filter></defs><g><rect fill="#FFFFFF" filter="url(#fnctsj70y5sic)" height="138.3984" style="stroke: #A80036; stroke-width: 1.0;" width="10" x="56" y="96.2969"/><rect fill="#FFFFFF" filter="url(#fnctsj70y5sic)" height="126.5313" style="stroke: #A80036; stroke-width: 1.0;" width="10" x="260" y="117.2969"/><rect fill="#FFFFFF" filter="url(#fnctsj70y5sic)" height="59.1328" style="stroke: #A80036; stroke-width: 1.0;" width="10" x="265" y="175.5625"/><rect fill="#FFFFFF" filter="url(#fnctsj70y5sic)" height="97.3984" style="stroke: #A80036; stroke-width: 1.0;" width="10" x="459" y="146.4297"/><rect fill="#FFFFFF" filter="url(#fnctsj70y5sic)" height="30" style="stroke: #A80036; stroke-width: 1.0;" width="10" x="618" y="204.6953"/><line style="stroke: #A80036; stroke-width: 1.0; stroke-dasharray: 5.0,5.0;" x1="61" x2="61" y1="86.2969" y2="252.8281"/><line style="stroke: #A80036; stroke-width: 1.0; stroke-dasharray: 5.0,5.0;" x1="264.5" x2="264.5" y1="86.2969" y2="252.8281"/><line style="stroke: #A80036; stroke-width: 1.0; stroke-dasharray: 5.0,5.0;" x1="463.5" x2="463.5" y1="86.2969" y2="252.8281"/><line style="stroke: #A80036; stroke-width: 1.0; stroke-dasharray: 5.0,5.0;" x1="623" x2="623" y1="86.2969" y2="252.8281"/><text fill="#A80036" font-family="sans-serif" font-size="14" lengthAdjust="spacingAndGlyphs" textLength="100" x="8" y="82.9951">UpdateControl</text><ellipse cx="61" cy="54" fill="#FEFECE" filter="url(#fnctsj70y5sic)" rx="12" ry="12" style="stroke: #A80036; stroke-width: 2.0;"/><polygon fill="#A80036" points="57,42,63,37,61,42,63,47,57,42" style="stroke: #A80036; stroke-width: 1.0;"/><text fill="#A80036" font-family="sans-serif" font-size="14" lengthAdjust="spacingAndGlyphs" textLength="115" x="204.5" y="82.9951">MetadataSystem</text><ellipse cx="265" cy="54" fill="#FEFECE" filter="url(#fnctsj70y5sic)" rx="12" ry="12" style="stroke: #A80036; stroke-width: 2.0;"/><line style="stroke: #A80036; stroke-width: 2.0;" x1="253" x2="277" y1="68" y2="68"/><text fill="#A80036" font-family="sans-serif" font-size="14" lengthAdjust="spacingAndGlyphs" textLength="101" x="410.5" y="82.9951">DFSConnector</text><path d="M443.5,42 L443.5,66 M443.5,54 L460.5,54 " fill="#FEFECE" filter="url(#fnctsj70y5sic)" style="stroke: #A80036; stroke-width: 2.0;"/><ellipse cx="472.5" cy="54" fill="#FEFECE" filter="url(#fnctsj70y5sic)" rx="12" ry="12" style="stroke: #A80036; stroke-width: 2.0;"/><text fill="#A80036" font-family="sans-serif" font-size="14" lengthAdjust="spacingAndGlyphs" textLength="150" x="545" y="82.9951">DistributedFileSystem</text><ellipse cx="623" cy="13" fill="#FEFECE" filter="url(#fnctsj70y5sic)" rx="8" ry="8" style="stroke: #A80036; stroke-width: 2.0;"/><path d="M623,21 L623,48 M610,29 L636,29 M623,48 L610,63 M623,48 L636,63 " fill="#FEFECE" filter="url(#fnctsj70y5sic)" style="stroke: #A80036; stroke-width: 2.0;"/><rect fill="#FFFFFF" filter="url(#fnctsj70y5sic)" height="138.3984" style="stroke: #A80036; stroke-width: 1.0;" width="10" x="56" y="96.2969"/><rect fill="#FFFFFF" filter="url(#fnctsj70y5sic)" height="126.5313" style="stroke: #A80036; stroke-width: 1.0;" width="10" x="260" y="117.2969"/><rect fill="#FFFFFF" filter="url(#fnctsj70y5sic)" height="59.1328" style="stroke: #A80036; stroke-width: 1.0;" width="10" x="265" y="175.5625"/><rect fill="#FFFFFF" filter="url(#fnctsj70y5sic)" height="97.3984" style="stroke: #A80036; stroke-width: 1.0;" width="10" x="459" y="146.4297"/><rect fill="#FFFFFF" filter="url(#fnctsj70y5sic)" height="30" style="stroke: #A80036; stroke-width: 1.0;" width="10" x="618" y="204.6953"/><polygon fill="#A80036" points="248,113.2969,258,117.2969,248,121.2969,252,117.2969" style="stroke: #A80036; stroke-width: 1.0;"/><line style="stroke: #A80036; stroke-width: 1.0;" x1="66" x2="254" y1="117.2969" y2="117.2969"/><text fill="#A80036" font-family="sans-serif" font-size="13" lengthAdjust="spacingAndGlyphs" textLength="24" x="73" y="112.3638">1: //</text><text fill="#A80036" font-family="sans-serif" font-size="13" lengthAdjust="spacingAndGlyphs" textLength="147" x="101" y="112.3638">check against conflict()</text><polygon fill="#A80036" points="447,142.4297,457,146.4297,447,150.4297,451,146.4297" style="stroke: #A80036; stroke-width: 1.0;"/><line style="stroke: #A80036; stroke-width: 1.0;" x1="66" x2="453" y1="146.4297" y2="146.4297"/><text fill="#A80036" font-family="sans-serif" font-size="13" lengthAdjust="spacingAndGlyphs" textLength="24" x="73" y="141.4966">2: //</text><text fill="#A80036" font-family="sans-serif" font-size="13" lengthAdjust="spacingAndGlyphs" textLength="113" x="101" y="141.4966">update package()</text><polygon fill="#A80036" points="286,171.5625,276,175.5625,286,179.5625,282,175.5625" style="stroke: #A80036; stroke-width: 1.0;"/><line style="stroke: #A80036; stroke-width: 1.0;" x1="280" x2="458" y1="175.5625" y2="175.5625"/><text fill="#A80036" font-family="sans-serif" font-size="13" lengthAdjust="spacingAndGlyphs" textLength="24" x="292" y="170.6294">3: //</text><text fill="#A80036" font-family="sans-serif" font-size="13" lengthAdjust="spacingAndGlyphs" textLength="137" x="320" y="170.6294">update to Metadata()</text><polygon fill="#A80036" points="606,200.6953,616,204.6953,606,208.6953,610,204.6953" style="stroke: #A80036; stroke-width: 1.0;"/><line style="stroke: #A80036; stroke-width: 1.0;" x1="469" x2="612" y1="204.6953" y2="204.6953"/><text fill="#A80036" font-family="sans-serif" font-size="13" lengthAdjust="spacingAndGlyphs" textLength="24" x="476" y="199.7622">4: //</text><text fill="#A80036" font-family="sans-serif" font-size="13" lengthAdjust="spacingAndGlyphs" textLength="102" x="504" y="199.7622">update to DFS()</text><!--
@startuml
skinparam defaultFontColor #a80036
autonumber "#: //"
autoactivate on
hide footbox

control UpdateControl
entity MetadataSystem
boundary DFSConnector
actor DistributedFileSystem

activate UpdateControl
UpdateControl -> MetadataSystem : check against conflict()
UpdateControl -> DFSConnector : update package()
DFSConnector -> MetadataSystem : update to Metadata()
DFSConnector -> DistributedFileSystem : update to DFS()
deactivate MetadataSystem
deactivate UpdateControl
deactivate DistributedFileSystem

@enduml

PlantUML version 1.2017.15(Mon Jul 03 16:45:34 UTC 2017)
(GPL source distribution)
Java Runtime: OpenJDK Runtime Environment
JVM: OpenJDK 64-Bit Server VM
Java Version: 1.8.0_265-b01
Operating System: Linux
OS Version: 5.4.0-1026-azure
Default Encoding: UTF-8
Language: en
Country: null
--></g></svg>