<?xml version="1.0" encoding="UTF-8" standalone="no"?><svg xmlns="http://www.w3.org/2000/svg" xmlns:xlink="http://www.w3.org/1999/xlink" contentScriptType="application/ecmascript" contentStyleType="text/css" height="189px" preserveAspectRatio="none" style="width:459px;height:189px;" version="1.1" viewBox="0 0 459 189" width="459px" zoomAndPan="magnify"><defs><filter height="300%" id="f1uzols0c4h5v2" width="300%" x="-1" y="-1"><feGaussianBlur result="blurOut" stdDeviation="2.0"/><feColorMatrix in="blurOut" result="blurOut2" type="matrix" values="0 0 0 0 0 0 0 0 0 0 0 0 0 0 0 0 0 0 .4 0"/><feOffset dx="4.0" dy="4.0" in="blurOut2" result="blurOut3"/><feBlend in="SourceGraphic" in2="blurOut3" mode="normal"/></filter></defs><g><!--MD5=[fee662a292a0353a69bd162820bae93b]
entity User--><ellipse cx="335" cy="17.5" fill="#FEFECE" filter="url(#f1uzols0c4h5v2)" rx="8" ry="8" style="stroke: #A80036; stroke-width: 1.5;"/><path d="M335,25.5 L335,52.5 M322,33.5 L348,33.5 M335,52.5 L322,67.5 M335,52.5 L348,67.5 " fill="none" filter="url(#f1uzols0c4h5v2)" style="stroke: #A80036; stroke-width: 1.5;"/><text fill="#000000" font-family="sans-serif" font-size="14" lengthAdjust="spacingAndGlyphs" textLength="32" x="319" y="85.9951">User</text><!--MD5=[0e386df696c8989779f0bde43ae749c6]
entity Uploader--><ellipse cx="37" cy="17.5" fill="#FEFECE" filter="url(#f1uzols0c4h5v2)" rx="8" ry="8" style="stroke: #A80036; stroke-width: 1.5;"/><path d="M37,25.5 L37,52.5 M24,33.5 L50,33.5 M37,52.5 L24,67.5 M37,52.5 L50,67.5 " fill="none" filter="url(#f1uzols0c4h5v2)" style="stroke: #A80036; stroke-width: 1.5;"/><text fill="#000000" font-family="sans-serif" font-size="14" lengthAdjust="spacingAndGlyphs" textLength="62" x="6" y="85.9951">Uploader</text><!--MD5=[b90713b5ddaea180d3429e7b1ef7c0f8]
entity Maintainer--><ellipse cx="139" cy="17.5" fill="#FEFECE" filter="url(#f1uzols0c4h5v2)" rx="8" ry="8" style="stroke: #A80036; stroke-width: 1.5;"/><path d="M139,25.5 L139,52.5 M126,33.5 L152,33.5 M139,52.5 L126,67.5 M139,52.5 L152,67.5 " fill="none" filter="url(#f1uzols0c4h5v2)" style="stroke: #A80036; stroke-width: 1.5;"/><text fill="#000000" font-family="sans-serif" font-size="14" lengthAdjust="spacingAndGlyphs" textLength="71" x="103.5" y="85.9951">Maintainer</text><!--MD5=[a74c9f7ba4e347df35943d93696ec108]
entity IPFS--><ellipse cx="224" cy="17.5" fill="#FEFECE" filter="url(#f1uzols0c4h5v2)" rx="8" ry="8" style="stroke: #A80036; stroke-width: 1.5;"/><path d="M224,25.5 L224,52.5 M211,33.5 L237,33.5 M224,52.5 L211,67.5 M224,52.5 L237,67.5 " fill="none" filter="url(#f1uzols0c4h5v2)" style="stroke: #A80036; stroke-width: 1.5;"/><text fill="#000000" font-family="sans-serif" font-size="14" lengthAdjust="spacingAndGlyphs" textLength="29" x="209.5" y="85.9951">IPFS</text><ellipse cx="297.7904" cy="163.5236" fill="#FEFECE" filter="url(#f1uzols0c4h5v2)" rx="51.7904" ry="14.5236" style="stroke: #A80036; stroke-width: 1.5;"/><text fill="#000000" font-family="sans-serif" font-size="14" lengthAdjust="spacingAndGlyphs" textLength="69" x="263.2904" y="168.1721">Download</text><ellipse cx="416.9914" cy="163.5236" fill="#FEFECE" filter="url(#f1uzols0c4h5v2)" rx="31.9914" ry="14.5236" style="stroke: #A80036; stroke-width: 1.5;"/><text fill="#000000" font-family="sans-serif" font-size="14" lengthAdjust="spacingAndGlyphs" textLength="41" x="396.4914" y="168.1721">Query</text><ellipse cx="37.163" cy="163.5236" fill="#FEFECE" filter="url(#f1uzols0c4h5v2)" rx="29.163" ry="14.5236" style="stroke: #A80036; stroke-width: 1.5;"/><text fill="#000000" font-family="sans-serif" font-size="14" lengthAdjust="spacingAndGlyphs" textLength="37" x="18.663" y="168.1721">Login</text><ellipse cx="137.9411" cy="163.5236" fill="#FEFECE" filter="url(#f1uzols0c4h5v2)" rx="36.9411" ry="14.5236" style="stroke: #A80036; stroke-width: 1.5;"/><text fill="#000000" font-family="sans-serif" font-size="14" lengthAdjust="spacingAndGlyphs" textLength="48" x="113.9411" y="168.1721">Upload</text><!--MD5=[fe4d1e544d1f5aae5d4d05c630db20d2]
link User to Download--><path d="M322.06,89.02 C315.92,107.78 308.88,129.28 304,144.16 " fill="none" id="User-&gt;Download" style="stroke: #A80036; stroke-width: 1.0;"/><polygon fill="#A80036" points="302.44,148.94,309.0413,141.6309,303.9954,144.1881,301.4382,139.1422,302.44,148.94" style="stroke: #A80036; stroke-width: 1.0;"/><!--MD5=[ed3a9acfa5b2fcf1ba972f6d55686688]
link User to Query--><path d="M351.01,71.56 C366.6,93.05 390.01,125.31 404.35,145.07 " fill="none" id="User-&gt;Query" style="stroke: #A80036; stroke-width: 1.0;"/><polygon fill="#A80036" points="407.44,149.33,405.3774,139.6996,404.4974,145.2876,398.9094,144.4076,407.44,149.33" style="stroke: #A80036; stroke-width: 1.0;"/><!--MD5=[151d63c548ee8c788ac7028e04c1e799]
link Uploader to Maintainer--><!--MD5=[d1965cb7d41b6607c27f9a0671056f5c]
link Maintainer to IPFS--><!--MD5=[e19bf40d7e0344141de5bf276f29d85b]
link Uploader to Login--><!--MD5=[12fb58da323e89479cf29a4a637d111a]
link Login to Upload--><!--MD5=[6b71478348ea1e1b9dcd15dcdf788a83]
@startuml
actor User
actor Uploader
actor Maintainer
actor IPFS

usecase Download
usecase Query
usecase Login
usecase Upload

User - -> Download
User - -> Query

@enduml

PlantUML version 1.2020.02(Sun Mar 01 17:22:07 ICT 2020)
(GPL source distribution)
Java Runtime: OpenJDK Runtime Environment
JVM: OpenJDK 64-Bit Server VM
Java Version: 11.0.8+10-post-Debian-1
Operating System: Linux
Default Encoding: UTF-8
Language: en
Country: DK
--></g></svg>