<?xml version="1.0" encoding="UTF-8" standalone="no"?><svg xmlns="http://www.w3.org/2000/svg" xmlns:xlink="http://www.w3.org/1999/xlink" contentScriptType="application/ecmascript" contentStyleType="text/css" height="379px" preserveAspectRatio="none" style="width:987px;height:379px;" version="1.1" viewBox="0 0 987 379" width="987px" zoomAndPan="magnify"><defs><filter height="300%" id="f1ubt5x8e7g0mp" width="300%" x="-1" y="-1"><feGaussianBlur result="blurOut" stdDeviation="2.0"/><feColorMatrix in="blurOut" result="blurOut2" type="matrix" values="0 0 0 0 0 0 0 0 0 0 0 0 0 0 0 0 0 0 .4 0"/><feOffset dx="4.0" dy="4.0" in="blurOut2" result="blurOut3"/><feBlend in="SourceGraphic" in2="blurOut3" mode="normal"/></filter></defs><g><rect fill="#FFFFFF" filter="url(#f1ubt5x8e7g0mp)" height="252.6641" style="stroke: #A80036; stroke-width: 1.0;" width="10" x="45" y="96.2969"/><rect fill="#FFFFFF" filter="url(#f1ubt5x8e7g0mp)" height="240.7969" style="stroke: #A80036; stroke-width: 1.0;" width="10" x="307" y="117.2969"/><rect fill="#FFFFFF" filter="url(#f1ubt5x8e7g0mp)" height="28" style="stroke: #A80036; stroke-width: 1.0;" width="10" x="312" y="154.4297"/><rect fill="#FFFFFF" filter="url(#f1ubt5x8e7g0mp)" height="122.3984" style="stroke: #A80036; stroke-width: 1.0;" width="10" x="312" y="226.5625"/><rect fill="#FFFFFF" filter="url(#f1ubt5x8e7g0mp)" height="88.2656" style="stroke: #A80036; stroke-width: 1.0;" width="10" x="531" y="260.6953"/><rect fill="#FFFFFF" filter="url(#f1ubt5x8e7g0mp)" height="59.1328" style="stroke: #A80036; stroke-width: 1.0;" width="10" x="752" y="289.8281"/><rect fill="#FFFFFF" filter="url(#f1ubt5x8e7g0mp)" height="30" style="stroke: #A80036; stroke-width: 1.0;" width="10" x="902.5" y="318.9609"/><line style="stroke: #A80036; stroke-width: 1.0; stroke-dasharray: 5.0,5.0;" x1="50" x2="50" y1="86.2969" y2="367.0938"/><line style="stroke: #A80036; stroke-width: 1.0; stroke-dasharray: 5.0,5.0;" x1="311.5" x2="311.5" y1="86.2969" y2="367.0938"/><line style="stroke: #A80036; stroke-width: 1.0; stroke-dasharray: 5.0,5.0;" x1="536" x2="536" y1="86.2969" y2="367.0938"/><line style="stroke: #A80036; stroke-width: 1.0; stroke-dasharray: 5.0,5.0;" x1="757" x2="757" y1="86.2969" y2="367.0938"/><line style="stroke: #A80036; stroke-width: 1.0; stroke-dasharray: 5.0,5.0;" x1="907" x2="907" y1="86.2969" y2="367.0938"/><text fill="#A80036" font-family="sans-serif" font-size="14" lengthAdjust="spacingAndGlyphs" textLength="78" x="8" y="82.9951">Contributor</text><ellipse cx="50" cy="13" fill="#FEFECE" filter="url(#f1ubt5x8e7g0mp)" rx="8" ry="8" style="stroke: #A80036; stroke-width: 2.0;"/><path d="M50,21 L50,48 M37,29 L63,29 M50,48 L37,63 M50,48 L63,63 " fill="#FEFECE" filter="url(#f1ubt5x8e7g0mp)" style="stroke: #A80036; stroke-width: 2.0;"/><rect fill="#FEFECE" filter="url(#f1ubt5x8e7g0mp)" height="30.2969" style="stroke: #A80036; stroke-width: 1.5;" width="109" x="255.5" y="51"/><text fill="#A80036" font-family="sans-serif" font-size="14" lengthAdjust="spacingAndGlyphs" textLength="95" x="262.5" y="70.9951">ProposalForm</text><rect fill="#FEFECE" filter="url(#f1ubt5x8e7g0mp)" height="30.2969" style="stroke: #A80036; stroke-width: 1.5;" width="142" x="463" y="51"/><text fill="#A80036" font-family="sans-serif" font-size="14" lengthAdjust="spacingAndGlyphs" textLength="128" x="470" y="70.9951">ProposalCollection</text><rect fill="#FEFECE" filter="url(#f1ubt5x8e7g0mp)" height="30.2969" style="stroke: #A80036; stroke-width: 1.5;" width="132" x="689" y="51"/><text fill="#A80036" font-family="sans-serif" font-size="14" lengthAdjust="spacingAndGlyphs" textLength="118" x="696" y="70.9951">IMetadataSystem</text><rect fill="#FEFECE" filter="url(#f1ubt5x8e7g0mp)" height="30.2969" style="stroke: #A80036; stroke-width: 1.5;" width="141" x="835" y="51"/><text fill="#A80036" font-family="sans-serif" font-size="14" lengthAdjust="spacingAndGlyphs" textLength="127" x="842" y="70.9951">NotificationSystem</text><rect fill="#FFFFFF" filter="url(#f1ubt5x8e7g0mp)" height="252.6641" style="stroke: #A80036; stroke-width: 1.0;" width="10" x="45" y="96.2969"/><rect fill="#FFFFFF" filter="url(#f1ubt5x8e7g0mp)" height="240.7969" style="stroke: #A80036; stroke-width: 1.0;" width="10" x="307" y="117.2969"/><rect fill="#FFFFFF" filter="url(#f1ubt5x8e7g0mp)" height="28" style="stroke: #A80036; stroke-width: 1.0;" width="10" x="312" y="154.4297"/><rect fill="#FFFFFF" filter="url(#f1ubt5x8e7g0mp)" height="122.3984" style="stroke: #A80036; stroke-width: 1.0;" width="10" x="312" y="226.5625"/><rect fill="#FFFFFF" filter="url(#f1ubt5x8e7g0mp)" height="88.2656" style="stroke: #A80036; stroke-width: 1.0;" width="10" x="531" y="260.6953"/><rect fill="#FFFFFF" filter="url(#f1ubt5x8e7g0mp)" height="59.1328" style="stroke: #A80036; stroke-width: 1.0;" width="10" x="752" y="289.8281"/><rect fill="#FFFFFF" filter="url(#f1ubt5x8e7g0mp)" height="30" style="stroke: #A80036; stroke-width: 1.0;" width="10" x="902.5" y="318.9609"/><polygon fill="#A80036" points="295,113.2969,305,117.2969,295,121.2969,299,117.2969" style="stroke: #A80036; stroke-width: 1.0;"/><line style="stroke: #A80036; stroke-width: 1.0;" x1="55" x2="301" y1="117.2969" y2="117.2969"/><text fill="#A80036" font-family="sans-serif" font-size="13" lengthAdjust="spacingAndGlyphs" textLength="12" x="62" y="112.3638">1:</text><text fill="#A80036" font-family="sans-serif" font-size="13" lengthAdjust="spacingAndGlyphs" textLength="217" x="78" y="112.3638">create package update proposal()</text><line style="stroke: #A80036; stroke-width: 1.0;" x1="322" x2="364" y1="146.5625" y2="146.5625"/><line style="stroke: #A80036; stroke-width: 1.0;" x1="364" x2="364" y1="146.5625" y2="159.5625"/><line style="stroke: #A80036; stroke-width: 1.0;" x1="323" x2="364" y1="159.5625" y2="159.5625"/><polygon fill="#A80036" points="333,155.5625,323,159.5625,333,163.5625,329,159.5625" style="stroke: #A80036; stroke-width: 1.0;"/><text fill="#A80036" font-family="sans-serif" font-size="13" lengthAdjust="spacingAndGlyphs" textLength="12" x="329" y="141.4966">2:</text><text fill="#A80036" font-family="sans-serif" font-size="13" lengthAdjust="spacingAndGlyphs" textLength="184" x="345" y="141.4966">prompt for package names()</text><line style="stroke: #A80036; stroke-width: 1.0;" x1="317" x2="364" y1="213.6953" y2="213.6953"/><line style="stroke: #A80036; stroke-width: 1.0;" x1="364" x2="364" y1="213.6953" y2="226.6953"/><line style="stroke: #A80036; stroke-width: 1.0;" x1="323" x2="364" y1="226.6953" y2="226.6953"/><polygon fill="#A80036" points="333,222.6953,323,226.6953,333,230.6953,329,226.6953" style="stroke: #A80036; stroke-width: 1.0;"/><text fill="#A80036" font-family="sans-serif" font-size="13" lengthAdjust="spacingAndGlyphs" textLength="12" x="329" y="208.6294">3:</text><text fill="#A80036" font-family="sans-serif" font-size="13" lengthAdjust="spacingAndGlyphs" textLength="181" x="345" y="208.6294">prompt for update(package)</text><polygon fill="#A80036" points="519,256.6953,529,260.6953,519,264.6953,523,260.6953" style="stroke: #A80036; stroke-width: 1.0;"/><line style="stroke: #A80036; stroke-width: 1.0;" x1="322" x2="525" y1="260.6953" y2="260.6953"/><text fill="#A80036" font-family="sans-serif" font-size="13" lengthAdjust="spacingAndGlyphs" textLength="12" x="329" y="255.7622">4:</text><text fill="#A80036" font-family="sans-serif" font-size="13" lengthAdjust="spacingAndGlyphs" textLength="145" x="345" y="255.7622">add proposal(updates)</text><polygon fill="#A80036" points="740,285.8281,750,289.8281,740,293.8281,744,289.8281" style="stroke: #A80036; stroke-width: 1.0;"/><line style="stroke: #A80036; stroke-width: 1.0;" x1="541" x2="746" y1="289.8281" y2="289.8281"/><text fill="#A80036" font-family="sans-serif" font-size="13" lengthAdjust="spacingAndGlyphs" textLength="12" x="548" y="284.895">5:</text><text fill="#A80036" font-family="sans-serif" font-size="13" lengthAdjust="spacingAndGlyphs" textLength="176" x="564" y="284.895">check for conflicts(updates)</text><polygon fill="#A80036" points="890.5,314.9609,900.5,318.9609,890.5,322.9609,894.5,318.9609" style="stroke: #A80036; stroke-width: 1.0;"/><line style="stroke: #A80036; stroke-width: 1.0;" x1="541" x2="896.5" y1="318.9609" y2="318.9609"/><text fill="#A80036" font-family="sans-serif" font-size="13" lengthAdjust="spacingAndGlyphs" textLength="12" x="548" y="314.0278">6:</text><text fill="#A80036" font-family="sans-serif" font-size="13" lengthAdjust="spacingAndGlyphs" textLength="249" x="564" y="314.0278">notify maintainers for reviews(updates)</text><!--
@startuml
skinparam defaultFontColor #a80036
autonumber "#:"
autoactivate on
hide footbox

actor Contributor

activate Contributor
Contributor -> ProposalForm : create package update proposal()
ProposalForm -> ProposalForm : prompt for package names()
deactivate ProposalForm
ProposalForm -> ProposalForm : prompt for update(package)
ProposalForm -> ProposalCollection : add proposal(updates)
ProposalCollection -> IMetadataSystem : check for conflicts(updates)
ProposalCollection -> NotificationSystem : notify maintainers for reviews(updates)
deactivate NotificationSystem
deactivate IMetadataSystem
deactivate ProposalCollection
deactivate ProposalForm
deactivate Contributor

@enduml

PlantUML version 1.2017.15(Mon Jul 03 16:45:34 UTC 2017)
(GPL source distribution)
Java Runtime: OpenJDK Runtime Environment
JVM: OpenJDK 64-Bit Server VM
Java Version: 1.8.0_265-b01
Operating System: Linux
OS Version: 5.4.0-1031-azure
Default Encoding: UTF-8
Language: en
Country: null
--></g></svg>