<?xml version="1.0" encoding="UTF-8" standalone="no"?><svg xmlns="http://www.w3.org/2000/svg" xmlns:xlink="http://www.w3.org/1999/xlink" contentScriptType="application/ecmascript" contentStyleType="text/css" height="193px" preserveAspectRatio="none" style="width:263px;height:193px;" version="1.1" viewBox="0 0 263 193" width="263px" zoomAndPan="magnify"><defs><filter height="300%" id="fvdgzcchlxhhy" width="300%" x="-1" y="-1"><feGaussianBlur result="blurOut" stdDeviation="2.0"/><feColorMatrix in="blurOut" result="blurOut2" type="matrix" values="0 0 0 0 0 0 0 0 0 0 0 0 0 0 0 0 0 0 .4 0"/><feOffset dx="4.0" dy="4.0" in="blurOut2" result="blurOut3"/><feBlend in="SourceGraphic" in2="blurOut3" mode="normal"/></filter></defs><g><line style="stroke: #A80036; stroke-width: 1.0; stroke-dasharray: 5.0,5.0;" x1="27" x2="27" y1="86.2969" y2="106.2969"/><line style="stroke: #A80036; stroke-width: 1.0; stroke-dasharray: 5.0,5.0;" x1="90" x2="90" y1="86.2969" y2="106.2969"/><line style="stroke: #A80036; stroke-width: 1.0; stroke-dasharray: 5.0,5.0;" x1="172" x2="172" y1="86.2969" y2="106.2969"/><line style="stroke: #A80036; stroke-width: 1.0; stroke-dasharray: 5.0,5.0;" x1="238" x2="238" y1="86.2969" y2="106.2969"/><text fill="#000000" font-family="sans-serif" font-size="14" lengthAdjust="spacingAndGlyphs" textLength="32" x="8" y="82.9951">User</text><ellipse cx="27" cy="13" fill="#FEFECE" filter="url(#fvdgzcchlxhhy)" rx="8" ry="8" style="stroke: #A80036; stroke-width: 2.0;"/><path d="M27,21 L27,48 M14,29 L40,29 M27,48 L14,63 M27,48 L40,63 " fill="none" filter="url(#fvdgzcchlxhhy)" style="stroke: #A80036; stroke-width: 2.0;"/><text fill="#000000" font-family="sans-serif" font-size="14" lengthAdjust="spacingAndGlyphs" textLength="32" x="8" y="118.292">User</text><ellipse cx="27" cy="131.5938" fill="#FEFECE" filter="url(#fvdgzcchlxhhy)" rx="8" ry="8" style="stroke: #A80036; stroke-width: 2.0;"/><path d="M27,139.5938 L27,166.5938 M14,147.5938 L40,147.5938 M27,166.5938 L14,181.5938 M27,166.5938 L40,181.5938 " fill="none" filter="url(#fvdgzcchlxhhy)" style="stroke: #A80036; stroke-width: 2.0;"/><text fill="#000000" font-family="sans-serif" font-size="14" lengthAdjust="spacingAndGlyphs" textLength="62" x="56" y="82.9951">Uploader</text><ellipse cx="90" cy="13" fill="#FEFECE" filter="url(#fvdgzcchlxhhy)" rx="8" ry="8" style="stroke: #A80036; stroke-width: 2.0;"/><path d="M90,21 L90,48 M77,29 L103,29 M90,48 L77,63 M90,48 L103,63 " fill="none" filter="url(#fvdgzcchlxhhy)" style="stroke: #A80036; stroke-width: 2.0;"/><text fill="#000000" font-family="sans-serif" font-size="14" lengthAdjust="spacingAndGlyphs" textLength="62" x="56" y="118.292">Uploader</text><ellipse cx="90" cy="131.5938" fill="#FEFECE" filter="url(#fvdgzcchlxhhy)" rx="8" ry="8" style="stroke: #A80036; stroke-width: 2.0;"/><path d="M90,139.5938 L90,166.5938 M77,147.5938 L103,147.5938 M90,166.5938 L77,181.5938 M90,166.5938 L103,181.5938 " fill="none" filter="url(#fvdgzcchlxhhy)" style="stroke: #A80036; stroke-width: 2.0;"/><text fill="#000000" font-family="sans-serif" font-size="14" lengthAdjust="spacingAndGlyphs" textLength="71" x="134" y="82.9951">Maintainer</text><ellipse cx="172.5" cy="13" fill="#FEFECE" filter="url(#fvdgzcchlxhhy)" rx="8" ry="8" style="stroke: #A80036; stroke-width: 2.0;"/><path d="M172.5,21 L172.5,48 M159.5,29 L185.5,29 M172.5,48 L159.5,63 M172.5,48 L185.5,63 " fill="none" filter="url(#fvdgzcchlxhhy)" style="stroke: #A80036; stroke-width: 2.0;"/><text fill="#000000" font-family="sans-serif" font-size="14" lengthAdjust="spacingAndGlyphs" textLength="71" x="134" y="118.292">Maintainer</text><ellipse cx="172.5" cy="131.5938" fill="#FEFECE" filter="url(#fvdgzcchlxhhy)" rx="8" ry="8" style="stroke: #A80036; stroke-width: 2.0;"/><path d="M172.5,139.5938 L172.5,166.5938 M159.5,147.5938 L185.5,147.5938 M172.5,166.5938 L159.5,181.5938 M172.5,166.5938 L185.5,181.5938 " fill="none" filter="url(#fvdgzcchlxhhy)" style="stroke: #A80036; stroke-width: 2.0;"/><text fill="#000000" font-family="sans-serif" font-size="14" lengthAdjust="spacingAndGlyphs" textLength="29" x="221" y="82.9951">IPFS</text><ellipse cx="238.5" cy="13" fill="#FEFECE" filter="url(#fvdgzcchlxhhy)" rx="8" ry="8" style="stroke: #A80036; stroke-width: 2.0;"/><path d="M238.5,21 L238.5,48 M225.5,29 L251.5,29 M238.5,48 L225.5,63 M238.5,48 L251.5,63 " fill="none" filter="url(#fvdgzcchlxhhy)" style="stroke: #A80036; stroke-width: 2.0;"/><text fill="#000000" font-family="sans-serif" font-size="14" lengthAdjust="spacingAndGlyphs" textLength="29" x="221" y="118.292">IPFS</text><ellipse cx="238.5" cy="131.5938" fill="#FEFECE" filter="url(#fvdgzcchlxhhy)" rx="8" ry="8" style="stroke: #A80036; stroke-width: 2.0;"/><path d="M238.5,139.5938 L238.5,166.5938 M225.5,147.5938 L251.5,147.5938 M238.5,166.5938 L225.5,181.5938 M238.5,166.5938 L251.5,181.5938 " fill="none" filter="url(#fvdgzcchlxhhy)" style="stroke: #A80036; stroke-width: 2.0;"/><!--MD5=[cf51c0c85f72d4ac1b50ddbc8790deb1]
@startuml
actor User
actor Uploader
actor Maintainer
actor IPFS

@enduml

PlantUML version 1.2020.02(Sun Mar 01 17:22:07 ICT 2020)
(GPL source distribution)
Java Runtime: OpenJDK Runtime Environment
JVM: OpenJDK 64-Bit Server VM
Java Version: 11.0.8+10-post-Debian-1
Operating System: Linux
Default Encoding: UTF-8
Language: en
Country: DK
--></g></svg>