<?xml version="1.0" encoding="UTF-8" standalone="no"?><svg xmlns="http://www.w3.org/2000/svg" xmlns:xlink="http://www.w3.org/1999/xlink" contentScriptType="application/ecmascript" contentStyleType="text/css" height="206px" preserveAspectRatio="none" style="width:315px;height:206px;" version="1.1" viewBox="0 0 315 206" width="315px" zoomAndPan="magnify"><defs><filter height="300%" id="fna6h2xc6rxxz" width="300%" x="-1" y="-1"><feGaussianBlur result="blurOut" stdDeviation="2.0"/><feColorMatrix in="blurOut" result="blurOut2" type="matrix" values="0 0 0 0 0 0 0 0 0 0 0 0 0 0 0 0 0 0 .4 0"/><feOffset dx="4.0" dy="4.0" in="blurOut2" result="blurOut3"/><feBlend in="SourceGraphic" in2="blurOut3" mode="normal"/></filter></defs><g><!--class UpdateControl--><rect fill="#FEFECE" filter="url(#fna6h2xc6rxxz)" height="48" id="UpdateControl" style="stroke: #A80036; stroke-width: 1.5;" width="123" x="88" y="8"/><ellipse cx="103" cy="24" fill="#ADD1B2" rx="11" ry="11" style="stroke: #A80036; stroke-width: 1.0;"/><path d="M105.9688,29.6406 Q105.3906,29.9375 104.75,30.0781 Q104.1094,30.2344 103.4063,30.2344 Q100.9063,30.2344 99.5781,28.5938 Q98.2656,26.9375 98.2656,23.8125 Q98.2656,20.6875 99.5781,19.0313 Q100.9063,17.375 103.4063,17.375 Q104.1094,17.375 104.75,17.5313 Q105.4063,17.6875 105.9688,17.9844 L105.9688,20.7031 Q105.3438,20.125 104.75,19.8594 Q104.1563,19.5781 103.5313,19.5781 Q102.1875,19.5781 101.5,20.6563 Q100.8125,21.7188 100.8125,23.8125 Q100.8125,25.9063 101.5,26.9844 Q102.1875,28.0469 103.5313,28.0469 Q104.1563,28.0469 104.75,27.7813 Q105.3438,27.5 105.9688,26.9219 L105.9688,29.6406 Z "/><text fill="#A80036" font-family="sans-serif" font-size="12" lengthAdjust="spacingAndGlyphs" textLength="91" x="117" y="28.1543">UpdateControl</text><line style="stroke: #A80036; stroke-width: 1.5;" x1="89" x2="210" y1="40" y2="40"/><line style="stroke: #A80036; stroke-width: 1.5;" x1="89" x2="210" y1="48" y2="48"/><!--class DFSConnector--><rect fill="#FEFECE" filter="url(#fna6h2xc6rxxz)" height="60.8047" id="DFSConnector" style="stroke: #A80036; stroke-width: 1.5;" width="121" x="6" y="125.5"/><ellipse cx="21" cy="141.5" fill="#ADD1B2" rx="11" ry="11" style="stroke: #A80036; stroke-width: 1.0;"/><path d="M23.9688,147.1406 Q23.3906,147.4375 22.75,147.5781 Q22.1094,147.7344 21.4063,147.7344 Q18.9063,147.7344 17.5781,146.0938 Q16.2656,144.4375 16.2656,141.3125 Q16.2656,138.1875 17.5781,136.5313 Q18.9063,134.875 21.4063,134.875 Q22.1094,134.875 22.75,135.0313 Q23.4063,135.1875 23.9688,135.4844 L23.9688,138.2031 Q23.3438,137.625 22.75,137.3594 Q22.1563,137.0781 21.5313,137.0781 Q20.1875,137.0781 19.5,138.1563 Q18.8125,139.2188 18.8125,141.3125 Q18.8125,143.4063 19.5,144.4844 Q20.1875,145.5469 21.5313,145.5469 Q22.1563,145.5469 22.75,145.2813 Q23.3438,145 23.9688,144.4219 L23.9688,147.1406 Z "/><text fill="#A80036" font-family="sans-serif" font-size="12" lengthAdjust="spacingAndGlyphs" textLength="89" x="35" y="145.6543">DFSConnector</text><line style="stroke: #A80036; stroke-width: 1.5;" x1="7" x2="126" y1="157.5" y2="157.5"/><line style="stroke: #A80036; stroke-width: 1.5;" x1="7" x2="126" y1="165.5" y2="165.5"/><text fill="#A80036" font-family="sans-serif" font-size="11" lengthAdjust="spacingAndGlyphs" textLength="97" x="12" y="179.7104">upload package()</text><!--class IMetadataSystem--><rect fill="#FEFECE" filter="url(#fna6h2xc6rxxz)" height="79.5469" id="IMetadataSystem" style="stroke: #A80036; stroke-width: 1.5;" width="142" x="162.5" y="116"/><ellipse cx="177.95" cy="134.9688" fill="#B4A7E5" rx="11" ry="11" style="stroke: #A80036; stroke-width: 1.0;"/><path d="M173.8719,130.7344 L173.8719,128.5781 L181.2625,128.5781 L181.2625,130.7344 L178.7938,130.7344 L178.7938,138.8125 L181.2625,138.8125 L181.2625,140.9688 L173.8719,140.9688 L173.8719,138.8125 L176.3406,138.8125 L176.3406,130.7344 L173.8719,130.7344 Z "/><text fill="#A80036" font-family="sans-serif" font-size="12" font-style="italic" lengthAdjust="spacingAndGlyphs" textLength="70" x="211.55" y="132.1387">«interface»</text><text fill="#A80036" font-family="sans-serif" font-size="12" font-style="italic" lengthAdjust="spacingAndGlyphs" textLength="109" x="192.05" y="146.1074">IMetadataSystem</text><line style="stroke: #A80036; stroke-width: 1.5;" x1="163.5" x2="303.5" y1="153.9375" y2="153.9375"/><line style="stroke: #A80036; stroke-width: 1.5;" x1="163.5" x2="303.5" y1="161.9375" y2="161.9375"/><text fill="#A80036" font-family="sans-serif" font-size="11" lengthAdjust="spacingAndGlyphs" textLength="130" x="168.5" y="176.1479">check against conflict()</text><text fill="#A80036" font-family="sans-serif" font-size="11" lengthAdjust="spacingAndGlyphs" textLength="105" x="168.5" y="188.9526">update metadata()</text><!--link UpdateControl to DFSConnector--><path d="M133.2997,56.2028 C120.0902,75.9375 101.3507,103.9339 87.0802,125.2537 " fill="none" id="UpdateControl-DFSConnector" style="stroke: #A80036; stroke-width: 1.0;"/><text fill="#A80036" font-family="sans-serif" font-size="13" lengthAdjust="spacingAndGlyphs" textLength="8" x="120.3759" y="76.0134">1</text><text fill="#A80036" font-family="sans-serif" font-size="13" lengthAdjust="spacingAndGlyphs" textLength="8" x="82.4999" y="114.4661">1</text><!--link UpdateControl to IMetadataSystem--><path d="M165.8955,56.2028 C177.3543,73.1182 192.925,96.1036 206.2349,115.7515 " fill="none" id="UpdateControl-IMetadataSystem" style="stroke: #A80036; stroke-width: 1.0;"/><text fill="#A80036" font-family="sans-serif" font-size="13" lengthAdjust="spacingAndGlyphs" textLength="8" x="160.9169" y="76.0134">1</text><text fill="#A80036" font-family="sans-serif" font-size="13" lengthAdjust="spacingAndGlyphs" textLength="8" x="193.0566" y="104.9586">1</text><!--
@startuml
skinparam defaultFontColor #a80036

class UpdateControl

class DFSConnector {
   upload package()
}

interface IMetadataSystem <<interface>> {
   check against conflict()
   update metadata()
}

UpdateControl "1" - - "1" DFSConnector
UpdateControl "1" - - "1" IMetadataSystem

@enduml

PlantUML version 1.2017.15(Mon Jul 03 16:45:34 UTC 2017)
(GPL source distribution)
Java Runtime: OpenJDK Runtime Environment
JVM: OpenJDK 64-Bit Server VM
Java Version: 1.8.0_265-b01
Operating System: Linux
OS Version: 5.4.0-1031-azure
Default Encoding: UTF-8
Language: en
Country: null
--></g></svg>