<?xml version="1.0" encoding="UTF-8" standalone="no"?><svg xmlns="http://www.w3.org/2000/svg" xmlns:xlink="http://www.w3.org/1999/xlink" contentScriptType="application/ecmascript" contentStyleType="text/css" height="489px" preserveAspectRatio="none" style="width:665px;height:489px;" version="1.1" viewBox="0 0 665 489" width="665px" zoomAndPan="magnify"><defs><filter height="300%" id="frtotp5mgkpp" width="300%" x="-1" y="-1"><feGaussianBlur result="blurOut" stdDeviation="2.0"/><feColorMatrix in="blurOut" result="blurOut2" type="matrix" values="0 0 0 0 0 0 0 0 0 0 0 0 0 0 0 0 0 0 .4 0"/><feOffset dx="4.0" dy="4.0" in="blurOut2" result="blurOut3"/><feBlend in="SourceGraphic" in2="blurOut3" mode="normal"/></filter></defs><g><!--MD5=[fee662a292a0353a69bd162820bae93b]
entity User--><ellipse cx="118" cy="17.5" fill="#FEFECE" filter="url(#frtotp5mgkpp)" rx="8" ry="8" style="stroke: #A80036; stroke-width: 1.5;"/><path d="M118,25.5 L118,52.5 M105,33.5 L131,33.5 M118,52.5 L105,67.5 M118,52.5 L131,67.5 " fill="none" filter="url(#frtotp5mgkpp)" style="stroke: #A80036; stroke-width: 1.5;"/><text fill="#000000" font-family="sans-serif" font-size="14" lengthAdjust="spacingAndGlyphs" textLength="32" x="102" y="85.9951">User</text><!--MD5=[0e386df696c8989779f0bde43ae749c6]
entity Uploader--><ellipse cx="275" cy="159.5" fill="#FEFECE" filter="url(#frtotp5mgkpp)" rx="8" ry="8" style="stroke: #A80036; stroke-width: 1.5;"/><path d="M275,167.5 L275,194.5 M262,175.5 L288,175.5 M275,194.5 L262,209.5 M275,194.5 L288,209.5 " fill="none" filter="url(#frtotp5mgkpp)" style="stroke: #A80036; stroke-width: 1.5;"/><text fill="#000000" font-family="sans-serif" font-size="14" lengthAdjust="spacingAndGlyphs" textLength="62" x="244" y="227.9951">Uploader</text><!--MD5=[b90713b5ddaea180d3429e7b1ef7c0f8]
entity Maintainer--><ellipse cx="446" cy="17.5" fill="#FEFECE" filter="url(#frtotp5mgkpp)" rx="8" ry="8" style="stroke: #A80036; stroke-width: 1.5;"/><path d="M446,25.5 L446,52.5 M433,33.5 L459,33.5 M446,52.5 L433,67.5 M446,52.5 L459,67.5 " fill="none" filter="url(#frtotp5mgkpp)" style="stroke: #A80036; stroke-width: 1.5;"/><text fill="#000000" font-family="sans-serif" font-size="14" lengthAdjust="spacingAndGlyphs" textLength="71" x="410.5" y="85.9951">Maintainer</text><!--MD5=[a74c9f7ba4e347df35943d93696ec108]
entity IPFS--><ellipse cx="531" cy="17.5" fill="#FEFECE" filter="url(#frtotp5mgkpp)" rx="8" ry="8" style="stroke: #A80036; stroke-width: 1.5;"/><path d="M531,25.5 L531,52.5 M518,33.5 L544,33.5 M531,52.5 L518,67.5 M531,52.5 L544,67.5 " fill="none" filter="url(#frtotp5mgkpp)" style="stroke: #A80036; stroke-width: 1.5;"/><text fill="#000000" font-family="sans-serif" font-size="14" lengthAdjust="spacingAndGlyphs" textLength="29" x="516.5" y="85.9951">IPFS</text><!--MD5=[fa1e3283224feb76407c84b7e90ed808]
entity Database--><ellipse cx="372" cy="407.5" fill="#FEFECE" filter="url(#frtotp5mgkpp)" rx="8" ry="8" style="stroke: #A80036; stroke-width: 1.5;"/><path d="M372,415.5 L372,442.5 M359,423.5 L385,423.5 M372,442.5 L359,457.5 M372,442.5 L385,457.5 " fill="none" filter="url(#frtotp5mgkpp)" style="stroke: #A80036; stroke-width: 1.5;"/><text fill="#000000" font-family="sans-serif" font-size="14" lengthAdjust="spacingAndGlyphs" textLength="66" x="339" y="475.9951">Database</text><ellipse cx="57.7904" cy="190.5236" fill="#FEFECE" filter="url(#frtotp5mgkpp)" rx="51.7904" ry="14.5236" style="stroke: #A80036; stroke-width: 1.5;"/><text fill="#000000" font-family="sans-serif" font-size="14" lengthAdjust="spacingAndGlyphs" textLength="69" x="23.2904" y="195.1721">Download</text><ellipse cx="176.9914" cy="190.5236" fill="#FEFECE" filter="url(#frtotp5mgkpp)" rx="31.9914" ry="14.5236" style="stroke: #A80036; stroke-width: 1.5;"/><text fill="#000000" font-family="sans-serif" font-size="14" lengthAdjust="spacingAndGlyphs" textLength="41" x="156.4914" y="195.1721">Query</text><ellipse cx="275.0122" cy="322.5236" fill="#FEFECE" filter="url(#frtotp5mgkpp)" rx="44.0122" ry="14.5236" style="stroke: #A80036; stroke-width: 1.5;"/><text fill="#000000" font-family="sans-serif" font-size="14" lengthAdjust="spacingAndGlyphs" textLength="58" x="246.0122" y="327.1721">Register</text><ellipse cx="454.163" cy="322.5236" fill="#FEFECE" filter="url(#frtotp5mgkpp)" rx="29.163" ry="14.5236" style="stroke: #A80036; stroke-width: 1.5;"/><text fill="#000000" font-family="sans-serif" font-size="14" lengthAdjust="spacingAndGlyphs" textLength="37" x="435.663" y="327.1721">Login</text><ellipse cx="617.9411" cy="48.5236" fill="#FEFECE" filter="url(#frtotp5mgkpp)" rx="36.9411" ry="14.5236" style="stroke: #A80036; stroke-width: 1.5;"/><text fill="#000000" font-family="sans-serif" font-size="14" lengthAdjust="spacingAndGlyphs" textLength="48" x="593.9411" y="53.1721">Upload</text><ellipse cx="446.211" cy="190.4422" fill="#FEFECE" filter="url(#frtotp5mgkpp)" rx="97.711" ry="21.9422" style="stroke: #A80036; stroke-width: 1.5;"/><text fill="#000000" font-family="sans-serif" font-size="14" lengthAdjust="spacingAndGlyphs" textLength="171" x="360.711" y="195.0906">Vote for New Maintainers</text><!--MD5=[fe4d1e544d1f5aae5d4d05c630db20d2]
link User to Download--><path d="M101.92,87.02 C90.29,114.16 75.07,149.68 65.94,170.98 " fill="none" id="User-&gt;Download" style="stroke: #A80036; stroke-width: 1.0;"/><polygon fill="#A80036" points="63.86,175.82,71.0894,169.1315,65.8348,171.2265,63.7398,165.9719,63.86,175.82" style="stroke: #A80036; stroke-width: 1.0;"/><!--MD5=[ed3a9acfa5b2fcf1ba972f6d55686688]
link User to Query--><path d="M134.12,87.76 C145.56,114.89 160.39,150.09 169.28,171.18 " fill="none" id="User-&gt;Query" style="stroke: #A80036; stroke-width: 1.0;"/><polygon fill="#A80036" points="171.3,175.96,171.494,166.1131,169.3597,171.3518,164.1209,169.2175,171.3,175.96" style="stroke: #A80036; stroke-width: 1.0;"/><!--MD5=[d9844137d4d16cb521dc2dc08d85e718]
link Uploader to Register--><path d="M275,231.21 C275,254.89 275,283.89 275,302.52 " fill="none" id="Uploader-&gt;Register" style="stroke: #A80036; stroke-width: 1.0;"/><polygon fill="#A80036" points="275,307.95,279,298.95,275,302.95,271,298.95,275,307.95" style="stroke: #A80036; stroke-width: 1.0;"/><!--MD5=[732dd9bf00ccbe52a5beba9c2152f385]
link Maintainer to Vote--><path d="M446,89.24 C446,112.94 446,142.37 446,163.2 " fill="none" id="Maintainer-&gt;Vote" style="stroke: #A80036; stroke-width: 1.0;"/><polygon fill="#A80036" points="446,168.3,450,159.3,446,163.3,442,159.3,446,168.3" style="stroke: #A80036; stroke-width: 1.0;"/><!--MD5=[13a77bd23520ac5923e9e69896e3dc80]
link Vote to Login--><path d="M447.3,212.68 C448.84,237.69 451.38,278.92 452.85,302.8 " fill="none" id="Vote-&gt;Login" style="stroke: #A80036; stroke-width: 1.0; stroke-dasharray: 7.0,7.0;"/><polygon fill="#A80036" points="453.16,307.91,456.5859,298.6762,452.8454,302.9199,448.6017,299.1795,453.16,307.91" style="stroke: #A80036; stroke-width: 1.0;"/><text fill="#000000" font-family="sans-serif" font-size="13" lengthAdjust="spacingAndGlyphs" textLength="61" x="452" y="274.0669">«include»</text><!--MD5=[90f0eec871badf24b26e64e95f40d1fb]
link Login to Database--><path d="M444.59,336.58 C433.91,351.43 415.96,376.39 400.58,397.76 " fill="none" id="Login-Database" style="stroke: #A80036; stroke-width: 1.0;"/><!--MD5=[d25a51d98ea9c50230c9ef23c5563995]
link Register to Database--><path d="M286.13,336.58 C298.92,351.61 320.5,376.98 338.83,398.52 " fill="none" id="Register-Database" style="stroke: #A80036; stroke-width: 1.0;"/><!--MD5=[a836fded0c80e4c409f211f3dc43a4b0]
link Vote to Database--><path d="M438.43,212.85 C430.28,236.12 417.12,274.52 407,308 C397.94,337.98 388.74,372.21 382.04,397.94 " fill="none" id="Vote-Database" style="stroke: #A80036; stroke-width: 1.0;"/><!--MD5=[e29c76076be9985bd061d5831279f999]
@startuml
actor User
actor Uploader
actor Maintainer
actor IPFS
actor Database

usecase Download
usecase Query
usecase Register
usecase Login
usecase Upload
usecase "Vote for New Maintainers" as Vote

User - -> Download
User - -> Query

Uploader - -> Register
Maintainer - -> Vote
Vote ..> Login : <<include>>

Login - - Database
Register - - Database
Vote - - Database

@enduml

PlantUML version 1.2020.02(Sun Mar 01 17:22:07 ICT 2020)
(GPL source distribution)
Java Runtime: OpenJDK Runtime Environment
JVM: OpenJDK 64-Bit Server VM
Java Version: 11.0.8+10-post-Debian-1
Operating System: Linux
Default Encoding: UTF-8
Language: en
Country: DK
--></g></svg>