<?xml version="1.0" encoding="UTF-8" standalone="no"?><svg xmlns="http://www.w3.org/2000/svg" xmlns:xlink="http://www.w3.org/1999/xlink" contentScriptType="application/ecmascript" contentStyleType="text/css" height="396px" preserveAspectRatio="none" style="width:643px;height:396px;" version="1.1" viewBox="0 0 643 396" width="643px" zoomAndPan="magnify"><defs><filter height="300%" id="f6ha7yp4efxzo" width="300%" x="-1" y="-1"><feGaussianBlur result="blurOut" stdDeviation="2.0"/><feColorMatrix in="blurOut" result="blurOut2" type="matrix" values="0 0 0 0 0 0 0 0 0 0 0 0 0 0 0 0 0 0 .4 0"/><feOffset dx="4.0" dy="4.0" in="blurOut2" result="blurOut3"/><feBlend in="SourceGraphic" in2="blurOut3" mode="normal"/></filter></defs><g><rect fill="#FFFFFF" filter="url(#f6ha7yp4efxzo)" height="269.6641" style="stroke: #A80036; stroke-width: 1.0;" width="10" x="45" y="96.2969"/><rect fill="#FFFFFF" filter="url(#f6ha7yp4efxzo)" height="65.1328" style="stroke: #A80036; stroke-width: 1.0;" width="10" x="202" y="117.2969"/><rect fill="#FFFFFF" filter="url(#f6ha7yp4efxzo)" height="28" style="stroke: #A80036; stroke-width: 1.0;" width="10" x="207" y="154.4297"/><rect fill="#FFFFFF" filter="url(#f6ha7yp4efxzo)" height="147.3984" style="stroke: #A80036; stroke-width: 1.0;" width="10" x="202" y="218.5625"/><rect fill="#FFFFFF" filter="url(#f6ha7yp4efxzo)" height="118.2656" style="stroke: #A80036; stroke-width: 1.0;" width="10" x="415" y="247.6953"/><rect fill="#FFFFFF" filter="url(#f6ha7yp4efxzo)" height="30" style="stroke: #A80036; stroke-width: 1.0;" width="10" x="578" y="276.8281"/><rect fill="#FFFFFF" filter="url(#f6ha7yp4efxzo)" height="30" style="stroke: #A80036; stroke-width: 1.0;" width="10" x="578" y="335.9609"/><line style="stroke: #A80036; stroke-width: 1.0; stroke-dasharray: 5.0,5.0;" x1="50" x2="50" y1="86.2969" y2="384.0938"/><line style="stroke: #A80036; stroke-width: 1.0; stroke-dasharray: 5.0,5.0;" x1="207" x2="207" y1="86.2969" y2="384.0938"/><line style="stroke: #A80036; stroke-width: 1.0; stroke-dasharray: 5.0,5.0;" x1="420" x2="420" y1="86.2969" y2="384.0938"/><line style="stroke: #A80036; stroke-width: 1.0; stroke-dasharray: 5.0,5.0;" x1="582.5" x2="582.5" y1="86.2969" y2="384.0938"/><text fill="#A80036" font-family="sans-serif" font-size="14" lengthAdjust="spacingAndGlyphs" textLength="78" x="8" y="82.9951">Contributor</text><ellipse cx="50" cy="13" fill="#FEFECE" filter="url(#f6ha7yp4efxzo)" rx="8" ry="8" style="stroke: #A80036; stroke-width: 2.0;"/><path d="M50,21 L50,48 M37,29 L63,29 M50,48 L37,63 M50,48 L63,63 " fill="#FEFECE" filter="url(#f6ha7yp4efxzo)" style="stroke: #A80036; stroke-width: 2.0;"/><rect fill="#FEFECE" filter="url(#f6ha7yp4efxzo)" height="30.2969" style="stroke: #A80036; stroke-width: 1.5;" width="136" x="137" y="51"/><text fill="#A80036" font-family="sans-serif" font-size="14" lengthAdjust="spacingAndGlyphs" textLength="122" x="144" y="70.9951">Registration Form</text><rect fill="#FEFECE" filter="url(#f6ha7yp4efxzo)" height="30.2969" style="stroke: #A80036; stroke-width: 1.5;" width="168" x="334" y="51"/><text fill="#A80036" font-family="sans-serif" font-size="14" lengthAdjust="spacingAndGlyphs" textLength="154" x="341" y="70.9951">Registration Controller</text><rect fill="#FEFECE" filter="url(#f6ha7yp4efxzo)" height="30.2969" style="stroke: #A80036; stroke-width: 1.5;" width="103" x="529.5" y="51"/><text fill="#A80036" font-family="sans-serif" font-size="14" lengthAdjust="spacingAndGlyphs" textLength="89" x="536.5" y="70.9951">AccountData</text><rect fill="#FFFFFF" filter="url(#f6ha7yp4efxzo)" height="269.6641" style="stroke: #A80036; stroke-width: 1.0;" width="10" x="45" y="96.2969"/><rect fill="#FFFFFF" filter="url(#f6ha7yp4efxzo)" height="65.1328" style="stroke: #A80036; stroke-width: 1.0;" width="10" x="202" y="117.2969"/><rect fill="#FFFFFF" filter="url(#f6ha7yp4efxzo)" height="28" style="stroke: #A80036; stroke-width: 1.0;" width="10" x="207" y="154.4297"/><rect fill="#FFFFFF" filter="url(#f6ha7yp4efxzo)" height="147.3984" style="stroke: #A80036; stroke-width: 1.0;" width="10" x="202" y="218.5625"/><rect fill="#FFFFFF" filter="url(#f6ha7yp4efxzo)" height="118.2656" style="stroke: #A80036; stroke-width: 1.0;" width="10" x="415" y="247.6953"/><rect fill="#FFFFFF" filter="url(#f6ha7yp4efxzo)" height="30" style="stroke: #A80036; stroke-width: 1.0;" width="10" x="578" y="276.8281"/><rect fill="#FFFFFF" filter="url(#f6ha7yp4efxzo)" height="30" style="stroke: #A80036; stroke-width: 1.0;" width="10" x="578" y="335.9609"/><polygon fill="#A80036" points="190,113.2969,200,117.2969,190,121.2969,194,117.2969" style="stroke: #A80036; stroke-width: 1.0;"/><line style="stroke: #A80036; stroke-width: 1.0;" x1="55" x2="196" y1="117.2969" y2="117.2969"/><text fill="#A80036" font-family="sans-serif" font-size="13" lengthAdjust="spacingAndGlyphs" textLength="12" x="62" y="112.3638">1:</text><text fill="#A80036" font-family="sans-serif" font-size="13" lengthAdjust="spacingAndGlyphs" textLength="112" x="78" y="112.3638">request register()</text><line style="stroke: #A80036; stroke-width: 1.0;" x1="217" x2="259" y1="146.5625" y2="146.5625"/><line style="stroke: #A80036; stroke-width: 1.0;" x1="259" x2="259" y1="146.5625" y2="159.5625"/><line style="stroke: #A80036; stroke-width: 1.0;" x1="218" x2="259" y1="159.5625" y2="159.5625"/><polygon fill="#A80036" points="228,155.5625,218,159.5625,228,163.5625,224,159.5625" style="stroke: #A80036; stroke-width: 1.0;"/><text fill="#A80036" font-family="sans-serif" font-size="13" lengthAdjust="spacingAndGlyphs" textLength="12" x="224" y="141.4966">2:</text><text fill="#A80036" font-family="sans-serif" font-size="13" lengthAdjust="spacingAndGlyphs" textLength="164" x="240" y="141.4966">prompt registration field()</text><polygon fill="#A80036" points="190,214.5625,200,218.5625,190,222.5625,194,218.5625" style="stroke: #A80036; stroke-width: 1.0;"/><line style="stroke: #A80036; stroke-width: 1.0;" x1="55" x2="196" y1="218.5625" y2="218.5625"/><text fill="#A80036" font-family="sans-serif" font-size="13" lengthAdjust="spacingAndGlyphs" textLength="12" x="62" y="213.6294">3:</text><text fill="#A80036" font-family="sans-serif" font-size="13" lengthAdjust="spacingAndGlyphs" textLength="91" x="78" y="213.6294">register(input)</text><polygon fill="#A80036" points="403,243.6953,413,247.6953,403,251.6953,407,247.6953" style="stroke: #A80036; stroke-width: 1.0;"/><line style="stroke: #A80036; stroke-width: 1.0;" x1="212" x2="409" y1="247.6953" y2="247.6953"/><text fill="#A80036" font-family="sans-serif" font-size="13" lengthAdjust="spacingAndGlyphs" textLength="12" x="219" y="242.7622">4:</text><text fill="#A80036" font-family="sans-serif" font-size="13" lengthAdjust="spacingAndGlyphs" textLength="168" x="235" y="242.7622">request input verification()</text><polygon fill="#A80036" points="566,272.8281,576,276.8281,566,280.8281,570,276.8281" style="stroke: #A80036; stroke-width: 1.0;"/><line style="stroke: #A80036; stroke-width: 1.0;" x1="425" x2="572" y1="276.8281" y2="276.8281"/><text fill="#A80036" font-family="sans-serif" font-size="13" lengthAdjust="spacingAndGlyphs" textLength="12" x="432" y="271.895">5:</text><text fill="#A80036" font-family="sans-serif" font-size="13" lengthAdjust="spacingAndGlyphs" textLength="80" x="448" y="271.895">verify input()</text><polygon fill="#A80036" points="566,331.9609,576,335.9609,566,339.9609,570,335.9609" style="stroke: #A80036; stroke-width: 1.0;"/><line style="stroke: #A80036; stroke-width: 1.0;" x1="425" x2="572" y1="335.9609" y2="335.9609"/><text fill="#A80036" font-family="sans-serif" font-size="13" lengthAdjust="spacingAndGlyphs" textLength="12" x="432" y="331.0278">6:</text><text fill="#A80036" font-family="sans-serif" font-size="13" lengthAdjust="spacingAndGlyphs" textLength="118" x="448" y="331.0278">add new account()</text><!--
@startuml
skinparam defaultFontColor #a80036
autonumber "#:"
autoactivate on
hide footbox

actor Contributor
participant "Registration Form" as RF
participant "Registration Controller" as RC
participant AccountData

activate Contributor
Contributor -> RF : request register()
RF -> RF : prompt registration field()
deactivate RF
deactivate RF

Contributor -> RF : register(input)
RF -> RC : request input verification()
RC -> AccountData : verify input()
deactivate AccountData
RC -> AccountData : add new account()
deactivate AccountData
deactivate RC
deactivate RF
deactivate Contributor

@enduml

PlantUML version 1.2017.15(Mon Jul 03 16:45:34 UTC 2017)
(GPL source distribution)
Java Runtime: OpenJDK Runtime Environment
JVM: OpenJDK 64-Bit Server VM
Java Version: 1.8.0_265-b01
Operating System: Linux
OS Version: 5.4.0-1031-azure
Default Encoding: UTF-8
Language: en
Country: null
--></g></svg>