<?xml version="1.0" encoding="UTF-8" standalone="no"?><svg xmlns="http://www.w3.org/2000/svg" xmlns:xlink="http://www.w3.org/1999/xlink" contentScriptType="application/ecmascript" contentStyleType="text/css" height="297px" preserveAspectRatio="none" style="width:1215px;height:297px;" version="1.1" viewBox="0 0 1215 297" width="1215px" zoomAndPan="magnify"><defs><filter height="300%" id="fkbs2qn4t2ckb" width="300%" x="-1" y="-1"><feGaussianBlur result="blurOut" stdDeviation="2.0"/><feColorMatrix in="blurOut" result="blurOut2" type="matrix" values="0 0 0 0 0 0 0 0 0 0 0 0 0 0 0 0 0 0 .4 0"/><feOffset dx="4.0" dy="4.0" in="blurOut2" result="blurOut3"/><feBlend in="SourceGraphic" in2="blurOut3" mode="normal"/></filter></defs><g><!--entity userInterface--><rect fill="#FEFECE" filter="url(#fkbs2qn4t2ckb)" height="52.5938" style="stroke: #000000; stroke-width: 1.5;" width="111" x="774.5" y="8"/><text fill="#000000" font-family="sans-serif" font-size="14" font-style="italic" lengthAdjust="spacingAndGlyphs" textLength="63" x="798.5" y="30.9951">«thread»</text><text fill="#000000" font-family="sans-serif" font-size="14" lengthAdjust="spacingAndGlyphs" textLength="91" x="784.5" y="47.292">userInterface</text><!--entity downloadThread--><rect fill="#FEFECE" filter="url(#fkbs2qn4t2ckb)" height="52.5938" style="stroke: #000000; stroke-width: 1.5;" width="136" x="6" y="121"/><text fill="#000000" font-family="sans-serif" font-size="14" font-style="italic" lengthAdjust="spacingAndGlyphs" textLength="63" x="42.5" y="143.9951">«thread»</text><text fill="#000000" font-family="sans-serif" font-size="14" lengthAdjust="spacingAndGlyphs" textLength="116" x="16" y="160.292">downloadThread</text><!--entity updateThread--><rect fill="#FEFECE" filter="url(#fkbs2qn4t2ckb)" height="52.5938" style="stroke: #000000; stroke-width: 1.5;" width="118" x="620" y="121"/><text fill="#000000" font-family="sans-serif" font-size="14" font-style="italic" lengthAdjust="spacingAndGlyphs" textLength="63" x="647.5" y="143.9951">«thread»</text><text fill="#000000" font-family="sans-serif" font-size="14" lengthAdjust="spacingAndGlyphs" textLength="98" x="630" y="160.292">updateThread</text><!--entity reviewThread--><rect fill="#FEFECE" filter="url(#fkbs2qn4t2ckb)" height="52.5938" style="stroke: #000000; stroke-width: 1.5;" width="113" x="773.5" y="121"/><text fill="#000000" font-family="sans-serif" font-size="14" font-style="italic" lengthAdjust="spacingAndGlyphs" textLength="63" x="798.5" y="143.9951">«thread»</text><text fill="#000000" font-family="sans-serif" font-size="14" lengthAdjust="spacingAndGlyphs" textLength="93" x="783.5" y="160.292">reviewThread</text><!--entity checkconflict--><rect fill="#FEFECE" filter="url(#fkbs2qn4t2ckb)" height="52.5938" style="stroke: #000000; stroke-width: 1.5;" width="111" x="1065.5" y="8"/><text fill="#000000" font-family="sans-serif" font-size="14" font-style="italic" lengthAdjust="spacingAndGlyphs" textLength="63" x="1089.5" y="30.9951">«thread»</text><text fill="#000000" font-family="sans-serif" font-size="14" lengthAdjust="spacingAndGlyphs" textLength="91" x="1075.5" y="47.292">checkconflict</text><!--entity DFSconnector--><rect fill="#FEFECE" filter="url(#fkbs2qn4t2ckb)" height="52.5938" style="stroke: #000000; stroke-width: 1.5;" width="119" x="166.5" y="234"/><text fill="#000000" font-family="sans-serif" font-size="14" font-style="italic" lengthAdjust="spacingAndGlyphs" textLength="63" x="194.5" y="256.9951">«thread»</text><text fill="#000000" font-family="sans-serif" font-size="14" lengthAdjust="spacingAndGlyphs" textLength="99" x="176.5" y="273.292">DFSconnector</text><!--entity metadataThread--><rect fill="#FEFECE" filter="url(#fkbs2qn4t2ckb)" height="52.5938" style="stroke: #000000; stroke-width: 1.5;" width="134" x="321" y="234"/><text fill="#000000" font-family="sans-serif" font-size="14" font-style="italic" lengthAdjust="spacingAndGlyphs" textLength="63" x="356.5" y="256.9951">«thread»</text><text fill="#000000" font-family="sans-serif" font-size="14" lengthAdjust="spacingAndGlyphs" textLength="114" x="331" y="273.292">metadataThread</text><!--entity querryThread--><rect fill="#FEFECE" filter="url(#fkbs2qn4t2ckb)" height="52.5938" style="stroke: #000000; stroke-width: 1.5;" width="113" x="490.5" y="234"/><text fill="#000000" font-family="sans-serif" font-size="14" font-style="italic" lengthAdjust="spacingAndGlyphs" textLength="63" x="515.5" y="256.9951">«thread»</text><text fill="#000000" font-family="sans-serif" font-size="14" lengthAdjust="spacingAndGlyphs" textLength="93" x="500.5" y="273.292">querryThread</text><!--entity ipppiController--><rect fill="#FEFECE" filter="url(#fkbs2qn4t2ckb)" height="52.5938" style="stroke: #000000; stroke-width: 1.5;" width="120" x="1061" y="121"/><text fill="#000000" font-family="sans-serif" font-size="14" font-style="italic" lengthAdjust="spacingAndGlyphs" textLength="83" x="1079.5" y="143.9951">«controller»</text><text fill="#000000" font-family="sans-serif" font-size="14" lengthAdjust="spacingAndGlyphs" textLength="100" x="1071" y="160.292">ipppiController</text><!--entity updateController--><rect fill="#FEFECE" filter="url(#fkbs2qn4t2ckb)" height="52.5938" style="stroke: #000000; stroke-width: 1.5;" width="136" x="639" y="234"/><text fill="#000000" font-family="sans-serif" font-size="14" font-style="italic" lengthAdjust="spacingAndGlyphs" textLength="83" x="665.5" y="256.9951">«controller»</text><text fill="#000000" font-family="sans-serif" font-size="14" lengthAdjust="spacingAndGlyphs" textLength="116" x="649" y="273.292">updateController</text><!--entity proposalForm--><rect fill="#FEFECE" filter="url(#fkbs2qn4t2ckb)" height="52.5938" style="stroke: #000000; stroke-width: 1.5;" width="115" x="810.5" y="234"/><text fill="#000000" font-family="sans-serif" font-size="14" font-style="italic" lengthAdjust="spacingAndGlyphs" textLength="84" x="826" y="256.9951">«boundary»</text><text fill="#000000" font-family="sans-serif" font-size="14" lengthAdjust="spacingAndGlyphs" textLength="95" x="820.5" y="273.292">proposalForm</text><!--entity updateForm--><rect fill="#FEFECE" filter="url(#fkbs2qn4t2ckb)" height="52.5938" style="stroke: #000000; stroke-width: 1.5;" width="104" x="961" y="234"/><text fill="#000000" font-family="sans-serif" font-size="14" font-style="italic" lengthAdjust="spacingAndGlyphs" textLength="84" x="971" y="256.9951">«boundary»</text><text fill="#000000" font-family="sans-serif" font-size="14" lengthAdjust="spacingAndGlyphs" textLength="84" x="971" y="273.292">updateForm</text><!--entity reviewForm--><rect fill="#FEFECE" filter="url(#fkbs2qn4t2ckb)" height="52.5938" style="stroke: #000000; stroke-width: 1.5;" width="104" x="1100" y="234"/><text fill="#000000" font-family="sans-serif" font-size="14" font-style="italic" lengthAdjust="spacingAndGlyphs" textLength="84" x="1110" y="256.9951">«boundary»</text><text fill="#000000" font-family="sans-serif" font-size="14" lengthAdjust="spacingAndGlyphs" textLength="79" x="1112.5" y="273.292">reviewForm</text><!--entity ipppiForm--><rect fill="#FEFECE" filter="url(#fkbs2qn4t2ckb)" height="52.5938" style="stroke: #000000; stroke-width: 1.5;" width="104" x="922" y="121"/><text fill="#000000" font-family="sans-serif" font-size="14" font-style="italic" lengthAdjust="spacingAndGlyphs" textLength="84" x="932" y="143.9951">«boundary»</text><text fill="#000000" font-family="sans-serif" font-size="14" lengthAdjust="spacingAndGlyphs" textLength="68" x="940" y="160.292">ipppiForm</text><!--entity metadatasubsystem--><rect fill="#FEFECE" filter="url(#fkbs2qn4t2ckb)" height="52.5938" style="stroke: #000000; stroke-width: 1.5;" width="161" x="367.5" y="121"/><text fill="#000000" font-family="sans-serif" font-size="14" font-style="italic" lengthAdjust="spacingAndGlyphs" textLength="135" x="380.5" y="143.9951">«subsystem proxy»</text><text fill="#000000" font-family="sans-serif" font-size="14" lengthAdjust="spacingAndGlyphs" textLength="141" x="377.5" y="160.292">metadatasubsystem</text><!--entity DFSsubsystem--><rect fill="#FEFECE" filter="url(#fkbs2qn4t2ckb)" height="52.5938" style="stroke: #000000; stroke-width: 1.5;" width="155" x="177.5" y="121"/><text fill="#000000" font-family="sans-serif" font-size="14" font-style="italic" lengthAdjust="spacingAndGlyphs" textLength="135" x="187.5" y="143.9951">«subsystem proxy»</text><text fill="#000000" font-family="sans-serif" font-size="14" lengthAdjust="spacingAndGlyphs" textLength="104" x="203" y="160.292">DFSsubsystem</text><!--link userInterface to ipppiController--><path d="M890.5339,58.0063 C938.9453,76.8052 1006.6749,103.1057 1056.1814,122.3299 " fill="none" id="userInterface-ipppiController" style="stroke: #A80036; stroke-width: 1.0;"/><polygon fill="#A80036" points="1060.9142,124.1677,1053.9725,117.181,1056.2533,122.3577,1051.0766,124.6385,1060.9142,124.1677" style="stroke: #A80036; stroke-width: 1.0;"/><polygon fill="#A80036" points="885.7634,56.1538,892.7052,63.1403,890.4243,57.9637,895.601,55.6828,885.7634,56.1538" style="stroke: #A80036; stroke-width: 1.0;"/><text fill="#000000" font-family="sans-serif" font-size="13" lengthAdjust="spacingAndGlyphs" textLength="23" x="893.5407" y="54.8884">0..*</text><text fill="#000000" font-family="sans-serif" font-size="13" lengthAdjust="spacingAndGlyphs" textLength="8" x="1045.1037" y="117.5098">1</text><!--link checkconflict to ipppiController--><path d="M1121,66.4849 C1121,81.9305 1121,100.4085 1121,115.8147 " fill="none" id="checkconflict-ipppiController" style="stroke: #A80036; stroke-width: 1.0;"/><polygon fill="#A80036" points="1121,120.9128,1125,111.9128,1121,115.9128,1117,111.9128,1121,120.9128" style="stroke: #A80036; stroke-width: 1.0;"/><polygon fill="#A80036" points="1121,61.2794,1117,70.2794,1121,66.2794,1125,70.2794,1121,61.2794" style="stroke: #A80036; stroke-width: 1.0;"/><text fill="#000000" font-family="sans-serif" font-size="13" lengthAdjust="spacingAndGlyphs" textLength="23" x="1095.6281" y="80.472">0..*</text><text fill="#000000" font-family="sans-serif" font-size="13" lengthAdjust="spacingAndGlyphs" textLength="8" x="1112.025" y="109.7366">1</text><!--link userInterface to downloadThread--><path d="M769.1237,38.8634 C650.7335,48.1168 381.6432,72.9118 160,121 C155.8299,121.9048 151.5707,122.9181 147.2889,124.0065 " fill="none" id="userInterface-downloadThread" style="stroke: #A80036; stroke-width: 1.0;"/><polygon fill="#A80036" points="142.256,125.3168,151.9735,126.92,147.0947,124.057,149.9577,119.1781,142.256,125.3168" style="stroke: #A80036; stroke-width: 1.0;"/><polygon fill="#A80036" points="774.3032,38.461,765.0204,35.1701,769.3182,38.8483,765.6401,43.1461,774.3032,38.461" style="stroke: #A80036; stroke-width: 1.0;"/><text fill="#000000" font-family="sans-serif" font-size="13" lengthAdjust="spacingAndGlyphs" textLength="23" x="743.5336" y="35.1499">0..*</text><text fill="#000000" font-family="sans-serif" font-size="13" lengthAdjust="spacingAndGlyphs" textLength="23" x="146.4588" y="118.2262">0..*</text><!--link userInterface to reviewThread--><path d="M830,66.4849 C830,81.9305 830,100.4085 830,115.8147 " fill="none" id="userInterface-reviewThread" style="stroke: #A80036; stroke-width: 1.0;"/><polygon fill="#A80036" points="830,120.9128,834,111.9128,830,115.9128,826,111.9128,830,120.9128" style="stroke: #A80036; stroke-width: 1.0;"/><polygon fill="#A80036" points="830,61.2794,826,70.2794,830,66.2794,834,70.2794,830,61.2794" style="stroke: #A80036; stroke-width: 1.0;"/><text fill="#000000" font-family="sans-serif" font-size="13" lengthAdjust="spacingAndGlyphs" textLength="23" x="804.6281" y="80.472">0..*</text><text fill="#000000" font-family="sans-serif" font-size="13" lengthAdjust="spacingAndGlyphs" textLength="23" x="804.1969" y="109.7366">0..*</text><!--link reviewThread to reviewForm--><path d="M891.4967,169.6216 C895.725,171.112 899.9236,172.5832 904,174 C982.8575,201.4076 1003.3926,205.883 1082,234 C1086.2231,235.5106 1090.5799,237.0955 1094.9576,238.7073 " fill="none" id="reviewThread-reviewForm" style="stroke: #A80036; stroke-width: 1.0;"/><polygon fill="#A80036" points="1099.7107,240.4646,1092.6563,233.5918,1095.021,238.7307,1089.8821,241.0954,1099.7107,240.4646" style="stroke: #A80036; stroke-width: 1.0;"/><polygon fill="#A80036" points="886.5249,167.8651,893.6784,174.6347,891.2393,169.5307,896.3433,167.0916,886.5249,167.8651" style="stroke: #A80036; stroke-width: 1.0;"/><text fill="#000000" font-family="sans-serif" font-size="13" lengthAdjust="spacingAndGlyphs" textLength="23" x="891.0912" y="167.1605">0..*</text><text fill="#000000" font-family="sans-serif" font-size="13" lengthAdjust="spacingAndGlyphs" textLength="8" x="1084.1468" y="233.8676">1</text><!--link userInterface to updateThread--><path d="M790.2009,64.2834 C768.0873,80.832 740.6655,101.353 718.5861,117.876 " fill="none" id="userInterface-updateThread" style="stroke: #A80036; stroke-width: 1.0;"/><polygon fill="#A80036" points="714.528,120.9128,724.1303,118.7228,718.5311,117.917,719.3369,112.3178,714.528,120.9128" style="stroke: #A80036; stroke-width: 1.0;"/><polygon fill="#A80036" points="794.2151,61.2794,784.6128,63.4692,790.2119,64.2751,789.406,69.8743,794.2151,61.2794" style="stroke: #A80036; stroke-width: 1.0;"/><text fill="#000000" font-family="sans-serif" font-size="13" lengthAdjust="spacingAndGlyphs" textLength="23" x="761.4626" y="80.472">0..*</text><text fill="#000000" font-family="sans-serif" font-size="13" lengthAdjust="spacingAndGlyphs" textLength="23" x="697.3848" y="109.7366">0..*</text><!--link updateThread to updateForm--><path d="M743.0071,169.6426 C747.4007,171.1274 751.7636,172.5915 756,174 C838.8268,201.537 860.6019,205.2056 943,234 C947.234,235.4796 951.5988,237.042 955.9822,238.6378 " fill="none" id="updateThread-updateForm" style="stroke: #A80036; stroke-width: 1.0;"/><polygon fill="#A80036" points="960.7405,240.3804,953.665,233.5294,956.0454,238.661,950.9139,241.0414,960.7405,240.3804" style="stroke: #A80036; stroke-width: 1.0;"/><polygon fill="#A80036" points="738.2319,168.0251,745.4727,174.7013,742.9675,169.6294,748.0395,167.1243,738.2319,168.0251" style="stroke: #A80036; stroke-width: 1.0;"/><text fill="#000000" font-family="sans-serif" font-size="13" lengthAdjust="spacingAndGlyphs" textLength="23" x="742.4549" y="167.2605">0..*</text><text fill="#000000" font-family="sans-serif" font-size="13" lengthAdjust="spacingAndGlyphs" textLength="8" x="944.829" y="233.6012">1</text><!--link DFSsubsystem to DFSconnector--><path d="M246.7915,179.4849 C242.8276,194.9305 238.0854,213.4085 234.1316,228.8147 " fill="none" id="DFSsubsystem-DFSconnector" style="stroke: #A80036; stroke-width: 1.0;"/><polygon fill="#A80036" points="232.8233,233.9128,238.9351,226.1898,234.0663,229.0698,231.1863,224.2009,232.8233,233.9128" style="stroke: #A80036; stroke-width: 1.0;"/><polygon fill="#A80036" points="248.1274,174.2794,242.0156,182.0024,246.8844,179.1224,249.7644,183.9913,248.1274,174.2794" style="stroke: #A80036; stroke-width: 1.0;"/><text fill="#000000" font-family="sans-serif" font-size="13" lengthAdjust="spacingAndGlyphs" textLength="8" x="237.8849" y="193.472">1</text><text fill="#000000" font-family="sans-serif" font-size="13" lengthAdjust="spacingAndGlyphs" textLength="8" x="225.5115" y="222.7366">1</text><!--link metadatasubsystem to metadataThread--><path d="M431.2525,179.0411 C422.9404,194.6956 412.9295,213.5495 404.633,229.1744 " fill="none" id="metadatasubsystem-metadataThread" style="stroke: #A80036; stroke-width: 1.0;"/><polygon fill="#A80036" points="402.1171,233.9128,409.8707,227.8397,404.4619,229.4967,402.8049,224.088,402.1171,233.9128" style="stroke: #A80036; stroke-width: 1.0;"/><polygon fill="#A80036" points="433.7808,174.2794,426.0272,180.3525,431.436,178.6955,433.093,184.1042,433.7808,174.2794" style="stroke: #A80036; stroke-width: 1.0;"/><text fill="#000000" font-family="sans-serif" font-size="13" lengthAdjust="spacingAndGlyphs" textLength="8" x="422.0231" y="193.472">1</text><text fill="#000000" font-family="sans-serif" font-size="13" lengthAdjust="spacingAndGlyphs" textLength="23" x="379.755" y="222.7366">0..*</text><!--link downloadThread to DFSconnector--><path d="M114.0626,177.2834 C136.3227,193.832 163.9261,214.353 186.1518,230.876 " fill="none" id="downloadThread-DFSconnector" style="stroke: #A80036; stroke-width: 1.0;"/><polygon fill="#A80036" points="190.2367,233.9128,185.4006,225.3331,186.2241,230.9296,180.6275,231.7532,190.2367,233.9128" style="stroke: #A80036; stroke-width: 1.0;"/><polygon fill="#A80036" points="110.0219,174.2794,114.8582,182.8591,114.0345,177.2625,119.6311,176.4388,110.0219,174.2794" style="stroke: #A80036; stroke-width: 1.0;"/><text fill="#000000" font-family="sans-serif" font-size="13" lengthAdjust="spacingAndGlyphs" textLength="23" x="92.0795" y="193.472">0..*</text><text fill="#000000" font-family="sans-serif" font-size="13" lengthAdjust="spacingAndGlyphs" textLength="8" x="172.5444" y="222.7366">1</text><!--link updateThread to metadataThread--><path d="M614.9392,172.3759 C569.115,190.1701 507.3934,214.1376 459.8866,232.5853 " fill="none" id="updateThread-metadataThread" style="stroke: #A80036; stroke-width: 1.0;"/><polygon fill="#A80036" points="455.0435,234.4659,464.8811,234.9367,459.7044,232.6559,461.9852,227.4792,455.0435,234.4659" style="stroke: #A80036; stroke-width: 1.0;"/><polygon fill="#A80036" points="619.7611,170.5034,609.9235,170.0327,615.1002,172.3134,612.8195,177.4901,619.7611,170.5034" style="stroke: #A80036; stroke-width: 1.0;"/><text fill="#000000" font-family="sans-serif" font-size="13" lengthAdjust="spacingAndGlyphs" textLength="23" x="589.024" y="185.9361">0..*</text><text fill="#000000" font-family="sans-serif" font-size="13" lengthAdjust="spacingAndGlyphs" textLength="23" x="446.2765" y="223.0087">0..*</text><!--link updateThread to updateController--><path d="M686.9255,179.4849 C690.7527,194.9305 695.3313,213.4085 699.1488,228.8147 " fill="none" id="updateThread-updateController" style="stroke: #A80036; stroke-width: 1.0;"/><polygon fill="#A80036" points="700.412,233.9128,702.1297,224.2149,699.2093,229.0596,694.3646,226.1392,700.412,233.9128" style="stroke: #A80036; stroke-width: 1.0;"/><polygon fill="#A80036" points="685.6356,174.2794,683.9179,183.9773,686.8383,179.1326,691.683,182.053,685.6356,174.2794" style="stroke: #A80036; stroke-width: 1.0;"/><text fill="#000000" font-family="sans-serif" font-size="13" lengthAdjust="spacingAndGlyphs" textLength="23" x="661.6323" y="193.472">0..*</text><text fill="#000000" font-family="sans-serif" font-size="13" lengthAdjust="spacingAndGlyphs" textLength="8" x="689.8312" y="222.7366">1</text><!--link updateThread to DFSconnector--><path d="M614.5655,160.1673 C539.2602,175.4676 411.1663,203.0381 303,234 C298.9947,235.1465 294.8912,236.3802 290.7652,237.6658 " fill="none" id="updateThread-DFSconnector" style="stroke: #A80036; stroke-width: 1.0;"/><polygon fill="#A80036" points="285.9158,239.1968,295.7025,240.3014,290.6838,237.6914,293.2938,232.6726,285.9158,239.1968" style="stroke: #A80036; stroke-width: 1.0;"/><polygon fill="#A80036" points="619.8953,159.087,610.28,156.9547,614.995,160.0803,611.8693,164.7952,619.8953,159.087" style="stroke: #A80036; stroke-width: 1.0;"/><text fill="#000000" font-family="sans-serif" font-size="13" lengthAdjust="spacingAndGlyphs" textLength="23" x="589.1729" y="156.6304">0..*</text><text fill="#000000" font-family="sans-serif" font-size="13" lengthAdjust="spacingAndGlyphs" textLength="8" x="293.3061" y="232.9645">1</text><!--link userInterface to ipppiForm--><path d="M868.2321,64.5015 C889.1901,80.9478 915.0832,101.2667 936.004,117.6837 " fill="none" id="userInterface-ipppiForm" style="stroke: #A80036; stroke-width: 1.0;"/><polygon fill="#A80036" points="940.119,120.9128,935.508,112.21,936.1855,117.8261,930.5694,118.5036,940.119,120.9128" style="stroke: #A80036; stroke-width: 1.0;"/><polygon fill="#A80036" points="864.126,61.2794,868.7368,69.9823,868.0594,64.3662,873.6756,63.6888,864.126,61.2794" style="stroke: #A80036; stroke-width: 1.0;"/><text fill="#000000" font-family="sans-serif" font-size="13" lengthAdjust="spacingAndGlyphs" textLength="23" x="845.7926" y="80.472">0..*</text><text fill="#000000" font-family="sans-serif" font-size="13" lengthAdjust="spacingAndGlyphs" textLength="8" x="922.8855" y="109.7366">1</text><!--link updateThread to querryThread--><path d="M643.6986,177.7201 C624.6868,193.9954 601.3024,214.0138 582.292,230.2879 " fill="none" id="updateThread-querryThread" style="stroke: #A80036; stroke-width: 1.0;"/><polygon fill="#A80036" points="578.0576,233.9128,587.4958,231.0986,581.8559,230.6612,582.2933,225.0213,578.0576,233.9128" style="stroke: #A80036; stroke-width: 1.0;"/><polygon fill="#A80036" points="647.7178,174.2794,638.2796,177.0936,643.9195,177.531,643.4821,183.1709,647.7178,174.2794" style="stroke: #A80036; stroke-width: 1.0;"/><text fill="#000000" font-family="sans-serif" font-size="13" lengthAdjust="spacingAndGlyphs" textLength="23" x="615.894" y="193.472">0..*</text><text fill="#000000" font-family="sans-serif" font-size="13" lengthAdjust="spacingAndGlyphs" textLength="23" x="559.8248" y="222.7366">0..*</text><!--link updateThread to proposalForm--><path d="M728.0873,176.8485 C756.1066,193.6008 791.1138,214.531 819.1017,231.2645 " fill="none" id="updateThread-proposalForm" style="stroke: #A80036; stroke-width: 1.0;"/><polygon fill="#A80036" points="823.5311,233.9128,817.8591,225.8612,819.2396,231.347,813.7538,232.7275,823.5311,233.9128" style="stroke: #A80036; stroke-width: 1.0;"/><polygon fill="#A80036" points="723.7904,174.2794,729.4623,182.3311,728.0818,176.8453,733.5677,175.4648,723.7904,174.2794" style="stroke: #A80036; stroke-width: 1.0;"/><text fill="#000000" font-family="sans-serif" font-size="13" lengthAdjust="spacingAndGlyphs" textLength="23" x="707.6565" y="193.472">0..*</text><text fill="#000000" font-family="sans-serif" font-size="13" lengthAdjust="spacingAndGlyphs" textLength="8" x="803.7168" y="222.7366">1</text><!--
@startuml
rectangle userInterface <<thread>>
rectangle downloadThread <<thread>>
rectangle updateThread <<thread>>
rectangle reviewThread <<thread>>
rectangle checkconflict <<thread>>
rectangle DFSconnector <<thread>>
rectangle metadataThread <<thread>>
rectangle querryThread <<thread>>
rectangle ipppiController <<controller>>
rectangle updateController <<controller>>
rectangle proposalForm <<boundary>>
rectangle updateForm <<boundary>>
rectangle reviewForm <<boundary>>
rectangle ipppiForm <<boundary>>
rectangle metadatasubsystem <<subsystem proxy>>
rectangle DFSsubsystem <<subsystem proxy>>

userInterface "0..*" <- -> "1" ipppiController
checkconflict "0..*" <- -> "1" ipppiController
userInterface "0..*" <- -> "0..*" downloadThread
userInterface "0..*" <- -> "0..*" reviewThread
reviewThread "0..*" <- -> "1" reviewForm
userInterface "0..*" <- -> "0..*" updateThread
updateThread "0..*" <- -> "1" updateForm
DFSsubsystem "1" <- -> "1" DFSconnector
metadatasubsystem "1" <- -> "0..*" metadataThread
downloadThread "0..*" <- -> "1" DFSconnector
updateThread "0..*" <- -> "0..*" metadataThread
updateThread "0..*" <- -> "1" updateController
updateThread "0..*" <- -> "1" DFSconnector
userInterface "0..*" <- -> "1" ipppiForm
updateThread "0..*" <- -> "0..*" querryThread
updateThread "0..*" <- -> "1" proposalForm

@enduml

PlantUML version 1.2017.15(Mon Jul 03 16:45:34 UTC 2017)
(GPL source distribution)
Java Runtime: OpenJDK Runtime Environment
JVM: OpenJDK 64-Bit Server VM
Java Version: 1.8.0_265-b01
Operating System: Linux
OS Version: 5.4.0-1031-azure
Default Encoding: UTF-8
Language: en
Country: null
--></g></svg>