<?xml version="1.0" encoding="UTF-8" standalone="no"?><svg xmlns="http://www.w3.org/2000/svg" xmlns:xlink="http://www.w3.org/1999/xlink" contentScriptType="application/ecmascript" contentStyleType="text/css" height="494px" preserveAspectRatio="none" style="width:356px;height:494px;" version="1.1" viewBox="0 0 356 494" width="356px" zoomAndPan="magnify"><defs><filter height="300%" id="f3216t8s4ebt8" width="300%" x="-1" y="-1"><feGaussianBlur result="blurOut" stdDeviation="2.0"/><feColorMatrix in="blurOut" result="blurOut2" type="matrix" values="0 0 0 0 0 0 0 0 0 0 0 0 0 0 0 0 0 0 .4 0"/><feOffset dx="4.0" dy="4.0" in="blurOut2" result="blurOut3"/><feBlend in="SourceGraphic" in2="blurOut3" mode="normal"/></filter></defs><g><line style="stroke: #A80036; stroke-width: 1.0; stroke-dasharray: 5.0,5.0;" x1="26" x2="26" y1="86.2969" y2="407.4922"/><line style="stroke: #A80036; stroke-width: 1.0; stroke-dasharray: 5.0,5.0;" x1="93.5" x2="93.5" y1="86.2969" y2="407.4922"/><line style="stroke: #A80036; stroke-width: 1.0; stroke-dasharray: 5.0,5.0;" x1="225.5" x2="225.5" y1="86.2969" y2="407.4922"/><line style="stroke: #A80036; stroke-width: 1.0; stroke-dasharray: 5.0,5.0;" x1="330" x2="330" y1="86.2969" y2="407.4922"/><text fill="#000000" font-family="sans-serif" font-size="14" lengthAdjust="spacingAndGlyphs" textLength="31" x="8" y="82.9951">user</text><ellipse cx="26.5" cy="13" fill="#FEFECE" filter="url(#f3216t8s4ebt8)" rx="8" ry="8" style="stroke: #A80036; stroke-width: 2.0;"/><path d="M26.5,21 L26.5,48 M13.5,29 L39.5,29 M26.5,48 L13.5,63 M26.5,48 L39.5,63 " fill="#FEFECE" filter="url(#f3216t8s4ebt8)" style="stroke: #A80036; stroke-width: 2.0;"/><text fill="#000000" font-family="sans-serif" font-size="14" lengthAdjust="spacingAndGlyphs" textLength="31" x="8" y="419.4873">user</text><ellipse cx="26.5" cy="432.7891" fill="#FEFECE" filter="url(#f3216t8s4ebt8)" rx="8" ry="8" style="stroke: #A80036; stroke-width: 2.0;"/><path d="M26.5,440.7891 L26.5,467.7891 M13.5,448.7891 L39.5,448.7891 M26.5,467.7891 L13.5,482.7891 M26.5,467.7891 L39.5,482.7891 " fill="#FEFECE" filter="url(#f3216t8s4ebt8)" style="stroke: #A80036; stroke-width: 2.0;"/><text fill="#000000" font-family="sans-serif" font-size="14" lengthAdjust="spacingAndGlyphs" textLength="64" x="58.5" y="82.9951">loginform</text><path d="M73,42 L73,66 M73,54 L90,54 " fill="#FEFECE" filter="url(#f3216t8s4ebt8)" style="stroke: #A80036; stroke-width: 2.0;"/><ellipse cx="102" cy="54" fill="#FEFECE" filter="url(#f3216t8s4ebt8)" rx="12" ry="12" style="stroke: #A80036; stroke-width: 2.0;"/><text fill="#000000" font-family="sans-serif" font-size="14" lengthAdjust="spacingAndGlyphs" textLength="64" x="58.5" y="419.4873">loginform</text><path d="M73,426.7891 L73,450.7891 M73,438.7891 L90,438.7891 " fill="#FEFECE" filter="url(#f3216t8s4ebt8)" style="stroke: #A80036; stroke-width: 2.0;"/><ellipse cx="102" cy="438.7891" fill="#FEFECE" filter="url(#f3216t8s4ebt8)" rx="12" ry="12" style="stroke: #A80036; stroke-width: 2.0;"/><text fill="#000000" font-family="sans-serif" font-size="14" lengthAdjust="spacingAndGlyphs" textLength="98" x="173.5" y="82.9951">logincontroller</text><ellipse cx="225.5" cy="54" fill="#FEFECE" filter="url(#f3216t8s4ebt8)" rx="12" ry="12" style="stroke: #A80036; stroke-width: 2.0;"/><polygon fill="#A80036" points="221.5,42,227.5,37,225.5,42,227.5,47,221.5,42" style="stroke: #A80036; stroke-width: 1.0;"/><text fill="#000000" font-family="sans-serif" font-size="14" lengthAdjust="spacingAndGlyphs" textLength="98" x="173.5" y="419.4873">logincontroller</text><ellipse cx="225.5" cy="438.7891" fill="#FEFECE" filter="url(#f3216t8s4ebt8)" rx="12" ry="12" style="stroke: #A80036; stroke-width: 2.0;"/><polygon fill="#A80036" points="221.5,426.7891,227.5,421.7891,225.5,426.7891,227.5,431.7891,221.5,426.7891" style="stroke: #A80036; stroke-width: 1.0;"/><text fill="#000000" font-family="sans-serif" font-size="14" lengthAdjust="spacingAndGlyphs" textLength="33" x="311" y="82.9951">login</text><ellipse cx="330.5" cy="54" fill="#FEFECE" filter="url(#f3216t8s4ebt8)" rx="12" ry="12" style="stroke: #A80036; stroke-width: 2.0;"/><line style="stroke: #A80036; stroke-width: 2.0;" x1="318.5" x2="342.5" y1="68" y2="68"/><text fill="#000000" font-family="sans-serif" font-size="14" lengthAdjust="spacingAndGlyphs" textLength="33" x="311" y="419.4873">login</text><ellipse cx="330.5" cy="438.7891" fill="#FEFECE" filter="url(#f3216t8s4ebt8)" rx="12" ry="12" style="stroke: #A80036; stroke-width: 2.0;"/><line style="stroke: #A80036; stroke-width: 2.0;" x1="318.5" x2="342.5" y1="452.7891" y2="452.7891"/><line style="stroke: #A80036; stroke-width: 1.0;" x1="93.5" x2="135.5" y1="117.4297" y2="117.4297"/><line style="stroke: #A80036; stroke-width: 1.0;" x1="135.5" x2="135.5" y1="117.4297" y2="130.4297"/><line style="stroke: #A80036; stroke-width: 1.0;" x1="94.5" x2="135.5" y1="130.4297" y2="130.4297"/><polygon fill="#A80036" points="104.5,126.4297,94.5,130.4297,104.5,134.4297,100.5,130.4297" style="stroke: #A80036; stroke-width: 1.0;"/><text fill="#000000" font-family="sans-serif" font-size="13" lengthAdjust="spacingAndGlyphs" textLength="98" x="100.5" y="112.3638">DisplayRequest</text><polygon fill="#A80036" points="81.5,155.4297,91.5,159.4297,81.5,163.4297,85.5,159.4297" style="stroke: #A80036; stroke-width: 1.0;"/><line style="stroke: #A80036; stroke-width: 1.0;" x1="26.5" x2="87.5" y1="159.4297" y2="159.4297"/><text fill="#000000" font-family="sans-serif" font-size="13" lengthAdjust="spacingAndGlyphs" textLength="34" x="33.5" y="154.4966">Login</text><polygon fill="#A80036" points="213.5,184.5625,223.5,188.5625,213.5,192.5625,217.5,188.5625" style="stroke: #A80036; stroke-width: 1.0;"/><line style="stroke: #A80036; stroke-width: 1.0;" x1="93.5" x2="219.5" y1="188.5625" y2="188.5625"/><text fill="#000000" font-family="sans-serif" font-size="13" lengthAdjust="spacingAndGlyphs" textLength="108" x="100.5" y="183.6294">SendAccountInfo</text><polygon fill="#A80036" points="318.5,213.6953,328.5,217.6953,318.5,221.6953,322.5,217.6953" style="stroke: #A80036; stroke-width: 1.0;"/><line style="stroke: #A80036; stroke-width: 1.0;" x1="225.5" x2="324.5" y1="217.6953" y2="217.6953"/><text fill="#000000" font-family="sans-serif" font-size="13" lengthAdjust="spacingAndGlyphs" textLength="36" x="232.5" y="212.7622">Verify</text><polygon fill="#A80036" points="236.5,242.8281,226.5,246.8281,236.5,250.8281,232.5,246.8281" style="stroke: #A80036; stroke-width: 1.0;"/><line style="stroke: #A80036; stroke-width: 1.0;" x1="230.5" x2="329.5" y1="246.8281" y2="246.8281"/><text fill="#000000" font-family="sans-serif" font-size="13" lengthAdjust="spacingAndGlyphs" textLength="81" x="242.5" y="241.895">isValid(false)</text><polygon fill="#A80036" points="104.5,271.9609,94.5,275.9609,104.5,279.9609,100.5,275.9609" style="stroke: #A80036; stroke-width: 1.0;"/><line style="stroke: #A80036; stroke-width: 1.0;" x1="98.5" x2="224.5" y1="275.9609" y2="275.9609"/><text fill="#000000" font-family="sans-serif" font-size="13" lengthAdjust="spacingAndGlyphs" textLength="31" x="110.5" y="271.0278">Error</text><line style="stroke: #A80036; stroke-width: 1.0;" x1="93.5" x2="135.5" y1="305.2266" y2="305.2266"/><line style="stroke: #A80036; stroke-width: 1.0;" x1="135.5" x2="135.5" y1="305.2266" y2="318.2266"/><line style="stroke: #A80036; stroke-width: 1.0;" x1="94.5" x2="135.5" y1="318.2266" y2="318.2266"/><polygon fill="#A80036" points="104.5,314.2266,94.5,318.2266,104.5,322.2266,100.5,318.2266" style="stroke: #A80036; stroke-width: 1.0;"/><text fill="#000000" font-family="sans-serif" font-size="13" lengthAdjust="spacingAndGlyphs" textLength="98" x="100.5" y="300.1606">DisplayRequest</text><line style="stroke: #A80036; stroke-width: 1.0;" x1="93.5" x2="135.5" y1="347.3594" y2="347.3594"/><line style="stroke: #A80036; stroke-width: 1.0;" x1="135.5" x2="135.5" y1="347.3594" y2="360.3594"/><line style="stroke: #A80036; stroke-width: 1.0;" x1="94.5" x2="135.5" y1="360.3594" y2="360.3594"/><polygon fill="#A80036" points="104.5,356.3594,94.5,360.3594,104.5,364.3594,100.5,360.3594" style="stroke: #A80036; stroke-width: 1.0;"/><text fill="#000000" font-family="sans-serif" font-size="13" lengthAdjust="spacingAndGlyphs" textLength="77" x="100.5" y="342.2935">DisplayError</text><polygon fill="#A80036" points="81.5,385.3594,91.5,389.3594,81.5,393.3594,85.5,389.3594" style="stroke: #A80036; stroke-width: 1.0;"/><line style="stroke: #A80036; stroke-width: 1.0;" x1="26.5" x2="87.5" y1="389.3594" y2="389.3594"/><text fill="#000000" font-family="sans-serif" font-size="13" lengthAdjust="spacingAndGlyphs" textLength="43" x="33.5" y="384.4263">Cancel</text><!--
@startuml
actor user
boundary loginform
control logincontroller
entity login

loginform -> loginform: DisplayRequest
user -> loginform: Login
loginform -> logincontroller: SendAccountInfo
logincontroller->login:Verify
login->logincontroller:isValid(false)
logincontroller->loginform:Error
loginform->loginform:DisplayRequest
loginform->loginform:DisplayError
user->loginform:Cancel

@enduml

PlantUML version 1.2017.15(Mon Jul 03 16:45:34 UTC 2017)
(GPL source distribution)
Java Runtime: OpenJDK Runtime Environment
JVM: OpenJDK 64-Bit Server VM
Java Version: 1.8.0_265-b01
Operating System: Linux
OS Version: 5.4.0-1026-azure
Default Encoding: UTF-8
Language: en
Country: null
--></g></svg>