<?xml version="1.0" encoding="UTF-8" standalone="no"?><svg xmlns="http://www.w3.org/2000/svg" xmlns:xlink="http://www.w3.org/1999/xlink" contentScriptType="application/ecmascript" contentStyleType="text/css" height="615px" preserveAspectRatio="none" style="width:786px;height:615px;" version="1.1" viewBox="0 0 786 615" width="786px" zoomAndPan="magnify"><defs><filter height="300%" id="fwc8m5lgl7ef7" width="300%" x="-1" y="-1"><feGaussianBlur result="blurOut" stdDeviation="2.0"/><feColorMatrix in="blurOut" result="blurOut2" type="matrix" values="0 0 0 0 0 0 0 0 0 0 0 0 0 0 0 0 0 0 .4 0"/><feOffset dx="4.0" dy="4.0" in="blurOut2" result="blurOut3"/><feBlend in="SourceGraphic" in2="blurOut3" mode="normal"/></filter></defs><g><rect fill="#FFFFFF" filter="url(#fwc8m5lgl7ef7)" height="489.1953" style="stroke: #A80036; stroke-width: 1.0;" width="10" x="45" y="96.2969"/><rect fill="#FFFFFF" filter="url(#fwc8m5lgl7ef7)" height="65.1328" style="stroke: #A80036; stroke-width: 1.0;" width="10" x="204" y="117.2969"/><rect fill="#FFFFFF" filter="url(#fwc8m5lgl7ef7)" height="28" style="stroke: #A80036; stroke-width: 1.0;" width="10" x="209" y="154.4297"/><rect fill="#FFFFFF" filter="url(#fwc8m5lgl7ef7)" height="30" style="stroke: #A80036; stroke-width: 1.0;" width="10" x="204" y="218.5625"/><rect fill="#FFFFFF" filter="url(#fwc8m5lgl7ef7)" height="30" style="stroke: #A80036; stroke-width: 1.0;" width="10" x="204" y="277.6953"/><rect fill="#FFFFFF" filter="url(#fwc8m5lgl7ef7)" height="248.6641" style="stroke: #A80036; stroke-width: 1.0;" width="10" x="204" y="336.8281"/><rect fill="#FFFFFF" filter="url(#fwc8m5lgl7ef7)" height="219.5313" style="stroke: #A80036; stroke-width: 1.0;" width="10" x="417" y="365.9609"/><rect fill="#FFFFFF" filter="url(#fwc8m5lgl7ef7)" height="64.1328" style="stroke: #A80036; stroke-width: 1.0;" width="10" x="422" y="521.3594"/><rect fill="#FFFFFF" filter="url(#fwc8m5lgl7ef7)" height="30" style="stroke: #A80036; stroke-width: 1.0;" width="10" x="609" y="395.0938"/><rect fill="#FFFFFF" filter="url(#fwc8m5lgl7ef7)" height="30" style="stroke: #A80036; stroke-width: 1.0;" width="10" x="609" y="454.2266"/><rect fill="#FFFFFF" filter="url(#fwc8m5lgl7ef7)" height="30" style="stroke: #A80036; stroke-width: 1.0;" width="10" x="723.5" y="555.4922"/><line style="stroke: #A80036; stroke-width: 1.0; stroke-dasharray: 5.0,5.0;" x1="50" x2="50" y1="86.2969" y2="603.625"/><line style="stroke: #A80036; stroke-width: 1.0; stroke-dasharray: 5.0,5.0;" x1="209" x2="209" y1="86.2969" y2="603.625"/><line style="stroke: #A80036; stroke-width: 1.0; stroke-dasharray: 5.0,5.0;" x1="422" x2="422" y1="86.2969" y2="603.625"/><line style="stroke: #A80036; stroke-width: 1.0; stroke-dasharray: 5.0,5.0;" x1="613.5" x2="613.5" y1="86.2969" y2="603.625"/><line style="stroke: #A80036; stroke-width: 1.0; stroke-dasharray: 5.0,5.0;" x1="728.5" x2="728.5" y1="86.2969" y2="603.625"/><text fill="#A80036" font-family="sans-serif" font-size="14" lengthAdjust="spacingAndGlyphs" textLength="78" x="8" y="82.9951">Contributor</text><ellipse cx="50" cy="13" fill="#FEFECE" filter="url(#fwc8m5lgl7ef7)" rx="8" ry="8" style="stroke: #A80036; stroke-width: 2.0;"/><path d="M50,21 L50,48 M37,29 L63,29 M50,48 L37,63 M50,48 L63,63 " fill="#FEFECE" filter="url(#fwc8m5lgl7ef7)" style="stroke: #A80036; stroke-width: 2.0;"/><rect fill="#FEFECE" filter="url(#fwc8m5lgl7ef7)" height="30.2969" style="stroke: #A80036; stroke-width: 1.5;" width="136" x="139" y="51"/><text fill="#A80036" font-family="sans-serif" font-size="14" lengthAdjust="spacingAndGlyphs" textLength="122" x="146" y="70.9951">Registration Form</text><rect fill="#FEFECE" filter="url(#fwc8m5lgl7ef7)" height="30.2969" style="stroke: #A80036; stroke-width: 1.5;" width="168" x="336" y="51"/><text fill="#A80036" font-family="sans-serif" font-size="14" lengthAdjust="spacingAndGlyphs" textLength="154" x="343" y="70.9951">Registration Controller</text><rect fill="#FEFECE" filter="url(#fwc8m5lgl7ef7)" height="30.2969" style="stroke: #A80036; stroke-width: 1.5;" width="103" x="560.5" y="51"/><text fill="#A80036" font-family="sans-serif" font-size="14" lengthAdjust="spacingAndGlyphs" textLength="89" x="567.5" y="70.9951">AccountData</text><rect fill="#FEFECE" filter="url(#fwc8m5lgl7ef7)" height="46.5938" style="stroke: #A80036; stroke-width: 1.5;" width="98" x="677.5" y="34.7031"/><text fill="#A80036" font-family="sans-serif" font-size="14" font-style="italic" lengthAdjust="spacingAndGlyphs" textLength="78" x="687.5" y="55.7031">«interface»</text><text fill="#A80036" font-family="sans-serif" font-size="14" lengthAdjust="spacingAndGlyphs" textLength="84" x="684.5" y="72">ISecureUser</text><rect fill="#FFFFFF" filter="url(#fwc8m5lgl7ef7)" height="489.1953" style="stroke: #A80036; stroke-width: 1.0;" width="10" x="45" y="96.2969"/><rect fill="#FFFFFF" filter="url(#fwc8m5lgl7ef7)" height="65.1328" style="stroke: #A80036; stroke-width: 1.0;" width="10" x="204" y="117.2969"/><rect fill="#FFFFFF" filter="url(#fwc8m5lgl7ef7)" height="28" style="stroke: #A80036; stroke-width: 1.0;" width="10" x="209" y="154.4297"/><rect fill="#FFFFFF" filter="url(#fwc8m5lgl7ef7)" height="30" style="stroke: #A80036; stroke-width: 1.0;" width="10" x="204" y="218.5625"/><rect fill="#FFFFFF" filter="url(#fwc8m5lgl7ef7)" height="30" style="stroke: #A80036; stroke-width: 1.0;" width="10" x="204" y="277.6953"/><rect fill="#FFFFFF" filter="url(#fwc8m5lgl7ef7)" height="248.6641" style="stroke: #A80036; stroke-width: 1.0;" width="10" x="204" y="336.8281"/><rect fill="#FFFFFF" filter="url(#fwc8m5lgl7ef7)" height="219.5313" style="stroke: #A80036; stroke-width: 1.0;" width="10" x="417" y="365.9609"/><rect fill="#FFFFFF" filter="url(#fwc8m5lgl7ef7)" height="64.1328" style="stroke: #A80036; stroke-width: 1.0;" width="10" x="422" y="521.3594"/><rect fill="#FFFFFF" filter="url(#fwc8m5lgl7ef7)" height="30" style="stroke: #A80036; stroke-width: 1.0;" width="10" x="609" y="395.0938"/><rect fill="#FFFFFF" filter="url(#fwc8m5lgl7ef7)" height="30" style="stroke: #A80036; stroke-width: 1.0;" width="10" x="609" y="454.2266"/><rect fill="#FFFFFF" filter="url(#fwc8m5lgl7ef7)" height="30" style="stroke: #A80036; stroke-width: 1.0;" width="10" x="723.5" y="555.4922"/><polygon fill="#A80036" points="192,113.2969,202,117.2969,192,121.2969,196,117.2969" style="stroke: #A80036; stroke-width: 1.0;"/><line style="stroke: #A80036; stroke-width: 1.0;" x1="55" x2="198" y1="117.2969" y2="117.2969"/><text fill="#A80036" font-family="sans-serif" font-size="13" lengthAdjust="spacingAndGlyphs" textLength="12" x="62" y="112.3638">1:</text><text fill="#A80036" font-family="sans-serif" font-size="13" lengthAdjust="spacingAndGlyphs" textLength="112" x="78" y="112.3638">request register()</text><line style="stroke: #A80036; stroke-width: 1.0;" x1="219" x2="261" y1="146.5625" y2="146.5625"/><line style="stroke: #A80036; stroke-width: 1.0;" x1="261" x2="261" y1="146.5625" y2="159.5625"/><line style="stroke: #A80036; stroke-width: 1.0;" x1="220" x2="261" y1="159.5625" y2="159.5625"/><polygon fill="#A80036" points="230,155.5625,220,159.5625,230,163.5625,226,159.5625" style="stroke: #A80036; stroke-width: 1.0;"/><text fill="#A80036" font-family="sans-serif" font-size="13" lengthAdjust="spacingAndGlyphs" textLength="12" x="226" y="141.4966">2:</text><text fill="#A80036" font-family="sans-serif" font-size="13" lengthAdjust="spacingAndGlyphs" textLength="164" x="242" y="141.4966">prompt registration field()</text><polygon fill="#A80036" points="192,214.5625,202,218.5625,192,222.5625,196,218.5625" style="stroke: #A80036; stroke-width: 1.0;"/><line style="stroke: #A80036; stroke-width: 1.0;" x1="55" x2="198" y1="218.5625" y2="218.5625"/><text fill="#A80036" font-family="sans-serif" font-size="13" lengthAdjust="spacingAndGlyphs" textLength="12" x="62" y="213.6294">3:</text><text fill="#A80036" font-family="sans-serif" font-size="13" lengthAdjust="spacingAndGlyphs" textLength="113" x="78" y="213.6294">enter username()</text><polygon fill="#A80036" points="192,273.6953,202,277.6953,192,281.6953,196,277.6953" style="stroke: #A80036; stroke-width: 1.0;"/><line style="stroke: #A80036; stroke-width: 1.0;" x1="55" x2="198" y1="277.6953" y2="277.6953"/><text fill="#A80036" font-family="sans-serif" font-size="13" lengthAdjust="spacingAndGlyphs" textLength="12" x="62" y="272.7622">4:</text><text fill="#A80036" font-family="sans-serif" font-size="13" lengthAdjust="spacingAndGlyphs" textLength="108" x="78" y="272.7622">enter password()</text><polygon fill="#A80036" points="192,332.8281,202,336.8281,192,340.8281,196,336.8281" style="stroke: #A80036; stroke-width: 1.0;"/><line style="stroke: #A80036; stroke-width: 1.0;" x1="55" x2="198" y1="336.8281" y2="336.8281"/><text fill="#A80036" font-family="sans-serif" font-size="13" lengthAdjust="spacingAndGlyphs" textLength="12" x="62" y="331.895">5:</text><text fill="#A80036" font-family="sans-serif" font-size="13" lengthAdjust="spacingAndGlyphs" textLength="114" x="78" y="331.895">register account()</text><polygon fill="#A80036" points="405,361.9609,415,365.9609,405,369.9609,409,365.9609" style="stroke: #A80036; stroke-width: 1.0;"/><line style="stroke: #A80036; stroke-width: 1.0;" x1="214" x2="411" y1="365.9609" y2="365.9609"/><text fill="#A80036" font-family="sans-serif" font-size="13" lengthAdjust="spacingAndGlyphs" textLength="12" x="221" y="361.0278">6:</text><text fill="#A80036" font-family="sans-serif" font-size="13" lengthAdjust="spacingAndGlyphs" textLength="168" x="237" y="361.0278">request input verification()</text><polygon fill="#A80036" points="597,391.0938,607,395.0938,597,399.0938,601,395.0938" style="stroke: #A80036; stroke-width: 1.0;"/><line style="stroke: #A80036; stroke-width: 1.0;" x1="427" x2="603" y1="395.0938" y2="395.0938"/><text fill="#A80036" font-family="sans-serif" font-size="13" lengthAdjust="spacingAndGlyphs" textLength="12" x="434" y="390.1606">7:</text><text fill="#A80036" font-family="sans-serif" font-size="13" lengthAdjust="spacingAndGlyphs" textLength="80" x="450" y="390.1606">verify input()</text><polygon fill="#A80036" points="597,450.2266,607,454.2266,597,458.2266,601,454.2266" style="stroke: #A80036; stroke-width: 1.0;"/><line style="stroke: #A80036; stroke-width: 1.0;" x1="427" x2="603" y1="454.2266" y2="454.2266"/><text fill="#A80036" font-family="sans-serif" font-size="13" lengthAdjust="spacingAndGlyphs" textLength="12" x="434" y="449.2935">8:</text><text fill="#A80036" font-family="sans-serif" font-size="13" lengthAdjust="spacingAndGlyphs" textLength="118" x="450" y="449.2935">add new account()</text><line style="stroke: #A80036; stroke-width: 1.0;" x1="427" x2="474" y1="508.4922" y2="508.4922"/><line style="stroke: #A80036; stroke-width: 1.0;" x1="474" x2="474" y1="508.4922" y2="521.4922"/><line style="stroke: #A80036; stroke-width: 1.0;" x1="433" x2="474" y1="521.4922" y2="521.4922"/><polygon fill="#A80036" points="443,517.4922,433,521.4922,443,525.4922,439,521.4922" style="stroke: #A80036; stroke-width: 1.0;"/><text fill="#A80036" font-family="sans-serif" font-size="13" lengthAdjust="spacingAndGlyphs" textLength="12" x="439" y="503.4263">9:</text><text fill="#A80036" font-family="sans-serif" font-size="13" lengthAdjust="spacingAndGlyphs" textLength="152" x="455" y="503.4263">setup security context()</text><polygon fill="#A80036" points="711.5,551.4922,721.5,555.4922,711.5,559.4922,715.5,555.4922" style="stroke: #A80036; stroke-width: 1.0;"/><line style="stroke: #A80036; stroke-width: 1.0;" x1="432" x2="717.5" y1="555.4922" y2="555.4922"/><text fill="#A80036" font-family="sans-serif" font-size="13" lengthAdjust="spacingAndGlyphs" textLength="20" x="439" y="550.5591">10:</text><text fill="#A80036" font-family="sans-serif" font-size="13" lengthAdjust="spacingAndGlyphs" textLength="78" x="463" y="550.5591">new(UserID)</text><!--
@startuml
skinparam defaultFontColor #a80036
autonumber "#:"
autoactivate on
hide footbox

actor Contributor
participant "Registration Form" as RF
participant "Registration Controller" as RC
participant AccountData
participant ISecureUser <<interface>>

activate Contributor
Contributor -> RF : request register()
RF -> RF : prompt registration field()
deactivate RF
deactivate RF
Contributor -> RF : enter username()
deactivate RF
Contributor -> RF : enter password()
deactivate RF
Contributor -> RF : register account()
RF -> RC : request input verification()
RC -> AccountData : verify input()
deactivate AccountData
RC -> AccountData : add new account()
deactivate AccountData
RC -> RC : setup security context()
RC -> ISecureUser : new(UserID)
deactivate ISecureUser
deactivate RC
deactivate RC
deactivate RF
deactivate Contributor

@enduml

PlantUML version 1.2017.15(Mon Jul 03 16:45:34 UTC 2017)
(GPL source distribution)
Java Runtime: OpenJDK Runtime Environment
JVM: OpenJDK 64-Bit Server VM
Java Version: 1.8.0_265-b01
Operating System: Linux
OS Version: 5.4.0-1026-azure
Default Encoding: UTF-8
Language: en
Country: null
--></g></svg>