<?xml version="1.0" encoding="UTF-8" standalone="no"?><svg xmlns="http://www.w3.org/2000/svg" xmlns:xlink="http://www.w3.org/1999/xlink" contentScriptType="application/ecmascript" contentStyleType="text/css" height="366px" preserveAspectRatio="none" style="width:677px;height:366px;" version="1.1" viewBox="0 0 677 366" width="677px" zoomAndPan="magnify"><defs><filter height="300%" id="fxg238z6i355y" width="300%" x="-1" y="-1"><feGaussianBlur result="blurOut" stdDeviation="2.0"/><feColorMatrix in="blurOut" result="blurOut2" type="matrix" values="0 0 0 0 0 0 0 0 0 0 0 0 0 0 0 0 0 0 .4 0"/><feOffset dx="4.0" dy="4.0" in="blurOut2" result="blurOut3"/><feBlend in="SourceGraphic" in2="blurOut3" mode="normal"/></filter></defs><g><rect fill="#FFFFFF" filter="url(#fxg238z6i355y)" height="239.6641" style="stroke: #A80036; stroke-width: 1.0;" width="10" x="45" y="96.2969"/><rect fill="#FFFFFF" filter="url(#fxg238z6i355y)" height="65.1328" style="stroke: #A80036; stroke-width: 1.0;" width="10" x="214" y="117.2969"/><rect fill="#FFFFFF" filter="url(#fxg238z6i355y)" height="28" style="stroke: #A80036; stroke-width: 1.0;" width="10" x="219" y="154.4297"/><rect fill="#FFFFFF" filter="url(#fxg238z6i355y)" height="117.3984" style="stroke: #A80036; stroke-width: 1.0;" width="10" x="214" y="218.5625"/><rect fill="#FFFFFF" filter="url(#fxg238z6i355y)" height="88.2656" style="stroke: #A80036; stroke-width: 1.0;" width="10" x="439" y="247.6953"/><rect fill="#FFFFFF" filter="url(#fxg238z6i355y)" height="68.2656" style="stroke: #A80036; stroke-width: 1.0;" width="10" x="619" y="276.8281"/><rect fill="#FFFFFF" filter="url(#fxg238z6i355y)" height="30" style="stroke: #A80036; stroke-width: 1.0;" width="10" x="624" y="305.9609"/><line style="stroke: #A80036; stroke-width: 1.0; stroke-dasharray: 5.0,5.0;" x1="50" x2="50" y1="86.2969" y2="354.0938"/><line style="stroke: #A80036; stroke-width: 1.0; stroke-dasharray: 5.0,5.0;" x1="219" x2="219" y1="86.2969" y2="354.0938"/><line style="stroke: #A80036; stroke-width: 1.0; stroke-dasharray: 5.0,5.0;" x1="444" x2="444" y1="86.2969" y2="354.0938"/><line style="stroke: #A80036; stroke-width: 1.0; stroke-dasharray: 5.0,5.0;" x1="623.5" x2="623.5" y1="86.2969" y2="354.0938"/><text fill="#A80036" font-family="sans-serif" font-size="14" lengthAdjust="spacingAndGlyphs" textLength="78" x="8" y="82.9951">Contributor</text><ellipse cx="50" cy="13" fill="#FEFECE" filter="url(#fxg238z6i355y)" rx="8" ry="8" style="stroke: #A80036; stroke-width: 2.0;"/><path d="M50,21 L50,48 M37,29 L63,29 M50,48 L37,63 M50,48 L63,63 " fill="#FEFECE" filter="url(#fxg238z6i355y)" style="stroke: #A80036; stroke-width: 2.0;"/><text fill="#A80036" font-family="sans-serif" font-size="14" lengthAdjust="spacingAndGlyphs" textLength="122" x="155" y="82.9951">Registration Form</text><path d="M198.5,42 L198.5,66 M198.5,54 L215.5,54 " fill="#FEFECE" filter="url(#fxg238z6i355y)" style="stroke: #A80036; stroke-width: 2.0;"/><ellipse cx="227.5" cy="54" fill="#FEFECE" filter="url(#fxg238z6i355y)" rx="12" ry="12" style="stroke: #A80036; stroke-width: 2.0;"/><text fill="#A80036" font-family="sans-serif" font-size="14" lengthAdjust="spacingAndGlyphs" textLength="154" x="364" y="82.9951">Registration Controller</text><ellipse cx="444" cy="54" fill="#FEFECE" filter="url(#fxg238z6i355y)" rx="12" ry="12" style="stroke: #A80036; stroke-width: 2.0;"/><polygon fill="#A80036" points="440,42,446,37,444,42,446,47,440,42" style="stroke: #A80036; stroke-width: 1.0;"/><text fill="#A80036" font-family="sans-serif" font-size="14" lengthAdjust="spacingAndGlyphs" textLength="89" x="576.5" y="82.9951">AccountData</text><ellipse cx="624" cy="54" fill="#FEFECE" filter="url(#fxg238z6i355y)" rx="12" ry="12" style="stroke: #A80036; stroke-width: 2.0;"/><line style="stroke: #A80036; stroke-width: 2.0;" x1="612" x2="636" y1="68" y2="68"/><rect fill="#FFFFFF" filter="url(#fxg238z6i355y)" height="239.6641" style="stroke: #A80036; stroke-width: 1.0;" width="10" x="45" y="96.2969"/><rect fill="#FFFFFF" filter="url(#fxg238z6i355y)" height="65.1328" style="stroke: #A80036; stroke-width: 1.0;" width="10" x="214" y="117.2969"/><rect fill="#FFFFFF" filter="url(#fxg238z6i355y)" height="28" style="stroke: #A80036; stroke-width: 1.0;" width="10" x="219" y="154.4297"/><rect fill="#FFFFFF" filter="url(#fxg238z6i355y)" height="117.3984" style="stroke: #A80036; stroke-width: 1.0;" width="10" x="214" y="218.5625"/><rect fill="#FFFFFF" filter="url(#fxg238z6i355y)" height="88.2656" style="stroke: #A80036; stroke-width: 1.0;" width="10" x="439" y="247.6953"/><rect fill="#FFFFFF" filter="url(#fxg238z6i355y)" height="68.2656" style="stroke: #A80036; stroke-width: 1.0;" width="10" x="619" y="276.8281"/><rect fill="#FFFFFF" filter="url(#fxg238z6i355y)" height="30" style="stroke: #A80036; stroke-width: 1.0;" width="10" x="624" y="305.9609"/><polygon fill="#A80036" points="202,113.2969,212,117.2969,202,121.2969,206,117.2969" style="stroke: #A80036; stroke-width: 1.0;"/><line style="stroke: #A80036; stroke-width: 1.0;" x1="55" x2="208" y1="117.2969" y2="117.2969"/><text fill="#A80036" font-family="sans-serif" font-size="13" lengthAdjust="spacingAndGlyphs" textLength="24" x="62" y="112.3638">1: //</text><text fill="#A80036" font-family="sans-serif" font-size="13" lengthAdjust="spacingAndGlyphs" textLength="112" x="90" y="112.3638">request register()</text><line style="stroke: #A80036; stroke-width: 1.0;" x1="229" x2="271" y1="146.5625" y2="146.5625"/><line style="stroke: #A80036; stroke-width: 1.0;" x1="271" x2="271" y1="146.5625" y2="159.5625"/><line style="stroke: #A80036; stroke-width: 1.0;" x1="230" x2="271" y1="159.5625" y2="159.5625"/><polygon fill="#A80036" points="240,155.5625,230,159.5625,240,163.5625,236,159.5625" style="stroke: #A80036; stroke-width: 1.0;"/><text fill="#A80036" font-family="sans-serif" font-size="13" lengthAdjust="spacingAndGlyphs" textLength="24" x="236" y="141.4966">2: //</text><text fill="#A80036" font-family="sans-serif" font-size="13" lengthAdjust="spacingAndGlyphs" textLength="164" x="264" y="141.4966">prompt registration field()</text><polygon fill="#A80036" points="202,214.5625,212,218.5625,202,222.5625,206,218.5625" style="stroke: #A80036; stroke-width: 1.0;"/><line style="stroke: #A80036; stroke-width: 1.0;" x1="55" x2="208" y1="218.5625" y2="218.5625"/><text fill="#A80036" font-family="sans-serif" font-size="13" lengthAdjust="spacingAndGlyphs" textLength="24" x="62" y="213.6294">3: //</text><text fill="#A80036" font-family="sans-serif" font-size="13" lengthAdjust="spacingAndGlyphs" textLength="91" x="90" y="213.6294">register(input)</text><polygon fill="#A80036" points="427,243.6953,437,247.6953,427,251.6953,431,247.6953" style="stroke: #A80036; stroke-width: 1.0;"/><line style="stroke: #A80036; stroke-width: 1.0;" x1="224" x2="433" y1="247.6953" y2="247.6953"/><text fill="#A80036" font-family="sans-serif" font-size="13" lengthAdjust="spacingAndGlyphs" textLength="24" x="231" y="242.7622">4: //</text><text fill="#A80036" font-family="sans-serif" font-size="13" lengthAdjust="spacingAndGlyphs" textLength="168" x="259" y="242.7622">request input verification()</text><polygon fill="#A80036" points="607,272.8281,617,276.8281,607,280.8281,611,276.8281" style="stroke: #A80036; stroke-width: 1.0;"/><line style="stroke: #A80036; stroke-width: 1.0;" x1="449" x2="613" y1="276.8281" y2="276.8281"/><text fill="#A80036" font-family="sans-serif" font-size="13" lengthAdjust="spacingAndGlyphs" textLength="24" x="456" y="271.895">5: //</text><text fill="#A80036" font-family="sans-serif" font-size="13" lengthAdjust="spacingAndGlyphs" textLength="80" x="484" y="271.895">verify input()</text><polygon fill="#A80036" points="612,301.9609,622,305.9609,612,309.9609,616,305.9609" style="stroke: #A80036; stroke-width: 1.0;"/><line style="stroke: #A80036; stroke-width: 1.0;" x1="449" x2="618" y1="305.9609" y2="305.9609"/><text fill="#A80036" font-family="sans-serif" font-size="13" lengthAdjust="spacingAndGlyphs" textLength="24" x="456" y="301.0278">6: //</text><text fill="#A80036" font-family="sans-serif" font-size="13" lengthAdjust="spacingAndGlyphs" textLength="118" x="484" y="301.0278">add new account()</text><!--
@startuml
skinparam defaultFontColor #a80036
autonumber "#: //"
autoactivate on
hide footbox

actor Contributor
boundary "Registration Form" as RF
control "Registration Controller" as RC
entity AccountData

activate Contributor
Contributor -> RF : request register()
RF -> RF : prompt registration field()
deactivate RF
deactivate RF

Contributor -> RF : register(input)
RF -> RC : request input verification()
RC -> AccountData : verify input()

RC -> AccountData : add new account()
deactivate AccountData
deactivate RC
deactivate RF
deactivate Contributor

@enduml

PlantUML version 1.2017.15(Mon Jul 03 16:45:34 UTC 2017)
(GPL source distribution)
Java Runtime: OpenJDK Runtime Environment
JVM: OpenJDK 64-Bit Server VM
Java Version: 1.8.0_265-b01
Operating System: Linux
OS Version: 5.4.0-1026-azure
Default Encoding: UTF-8
Language: en
Country: null
--></g></svg>