<?xml version="1.0" encoding="UTF-8" standalone="no"?><svg xmlns="http://www.w3.org/2000/svg" xmlns:xlink="http://www.w3.org/1999/xlink" contentScriptType="application/ecmascript" contentStyleType="text/css" height="949px" preserveAspectRatio="none" style="width:812px;height:949px;" version="1.1" viewBox="0 0 812 949" width="812px" zoomAndPan="magnify"><defs><filter height="300%" id="fpo9emskmjuvt" width="300%" x="-1" y="-1"><feGaussianBlur result="blurOut" stdDeviation="2.0"/><feColorMatrix in="blurOut" result="blurOut2" type="matrix" values="0 0 0 0 0 0 0 0 0 0 0 0 0 0 0 0 0 0 .4 0"/><feOffset dx="4.0" dy="4.0" in="blurOut2" result="blurOut3"/><feBlend in="SourceGraphic" in2="blurOut3" mode="normal"/></filter></defs><g><!--MD5=[fee662a292a0353a69bd162820bae93b]
entity User--><ellipse cx="237" cy="450.5" fill="#FEFECE" filter="url(#fpo9emskmjuvt)" rx="8" ry="8" style="stroke: #A80036; stroke-width: 1.5;"/><path d="M237,458.5 L237,485.5 M224,466.5 L250,466.5 M237,485.5 L224,500.5 M237,485.5 L250,500.5 " fill="none" filter="url(#fpo9emskmjuvt)" style="stroke: #A80036; stroke-width: 1.5;"/><text fill="#000000" font-family="sans-serif" font-size="14" lengthAdjust="spacingAndGlyphs" textLength="32" x="221" y="518.9951">User</text><!--MD5=[f3401c2d09288f830763ccde49063a6d]
entity Contributor--><ellipse cx="124" cy="17.5" fill="#FEFECE" filter="url(#fpo9emskmjuvt)" rx="8" ry="8" style="stroke: #A80036; stroke-width: 1.5;"/><path d="M124,25.5 L124,52.5 M111,33.5 L137,33.5 M124,52.5 L111,67.5 M124,52.5 L137,67.5 " fill="none" filter="url(#fpo9emskmjuvt)" style="stroke: #A80036; stroke-width: 1.5;"/><text fill="#000000" font-family="sans-serif" font-size="14" lengthAdjust="spacingAndGlyphs" textLength="78" x="85" y="85.9951">Contributor</text><!--MD5=[b90713b5ddaea180d3429e7b1ef7c0f8]
entity Maintainer--><ellipse cx="416" cy="450.5" fill="#FEFECE" filter="url(#fpo9emskmjuvt)" rx="8" ry="8" style="stroke: #A80036; stroke-width: 1.5;"/><path d="M416,458.5 L416,485.5 M403,466.5 L429,466.5 M416,485.5 L403,500.5 M416,485.5 L429,500.5 " fill="none" filter="url(#fpo9emskmjuvt)" style="stroke: #A80036; stroke-width: 1.5;"/><text fill="#000000" font-family="sans-serif" font-size="14" lengthAdjust="spacingAndGlyphs" textLength="71" x="380.5" y="518.9951">Maintainer</text><!--MD5=[a74c9f7ba4e347df35943d93696ec108]
entity IPFS--><ellipse cx="346" cy="725.5" fill="#FEFECE" filter="url(#fpo9emskmjuvt)" rx="8" ry="8" style="stroke: #A80036; stroke-width: 1.5;"/><path d="M346,733.5 L346,760.5 M333,741.5 L359,741.5 M346,760.5 L333,775.5 M346,760.5 L359,775.5 " fill="none" filter="url(#fpo9emskmjuvt)" style="stroke: #A80036; stroke-width: 1.5;"/><text fill="#000000" font-family="sans-serif" font-size="14" lengthAdjust="spacingAndGlyphs" textLength="29" x="331.5" y="793.9951">IPFS</text><!--MD5=[fa1e3283224feb76407c84b7e90ed808]
entity Database--><ellipse cx="185" cy="867.5" fill="#FEFECE" filter="url(#fpo9emskmjuvt)" rx="8" ry="8" style="stroke: #A80036; stroke-width: 1.5;"/><path d="M185,875.5 L185,902.5 M172,883.5 L198,883.5 M185,902.5 L172,917.5 M185,902.5 L198,917.5 " fill="none" filter="url(#fpo9emskmjuvt)" style="stroke: #A80036; stroke-width: 1.5;"/><text fill="#000000" font-family="sans-serif" font-size="14" lengthAdjust="spacingAndGlyphs" textLength="66" x="152" y="935.9951">Database</text><ellipse cx="289.7904" cy="605.0236" fill="#FEFECE" filter="url(#fpo9emskmjuvt)" rx="51.7904" ry="14.5236" style="stroke: #A80036; stroke-width: 1.5;"/><text fill="#000000" font-family="sans-serif" font-size="14" lengthAdjust="spacingAndGlyphs" textLength="69" x="255.2904" y="609.6721">Download</text><ellipse cx="184.9914" cy="671.5236" fill="#FEFECE" filter="url(#fpo9emskmjuvt)" rx="31.9914" ry="14.5236" style="stroke: #A80036; stroke-width: 1.5;"/><text fill="#000000" font-family="sans-serif" font-size="14" lengthAdjust="spacingAndGlyphs" textLength="41" x="164.4914" y="676.1721">Query</text><ellipse cx="50.0122" cy="239.5236" fill="#FEFECE" filter="url(#fpo9emskmjuvt)" rx="44.0122" ry="14.5236" style="stroke: #A80036; stroke-width: 1.5;"/><text fill="#000000" font-family="sans-serif" font-size="14" lengthAdjust="spacingAndGlyphs" textLength="58" x="21.0122" y="244.1721">Register</text><ellipse cx="587.163" cy="756.5236" fill="#FEFECE" filter="url(#fpo9emskmjuvt)" rx="29.163" ry="14.5236" style="stroke: #A80036; stroke-width: 1.5;"/><text fill="#000000" font-family="sans-serif" font-size="14" lengthAdjust="spacingAndGlyphs" textLength="37" x="568.663" y="761.1721">Login</text><ellipse cx="587.211" cy="604.9422" fill="#FEFECE" filter="url(#fpo9emskmjuvt)" rx="97.711" ry="21.9422" style="stroke: #A80036; stroke-width: 1.5;"/><text fill="#000000" font-family="sans-serif" font-size="14" lengthAdjust="spacingAndGlyphs" textLength="171" x="501.711" y="609.5906">Vote for New Maintainers</text><ellipse cx="284.0203" cy="172.3041" fill="#FEFECE" filter="url(#fpo9emskmjuvt)" rx="99.5203" ry="22.3041" style="stroke: #A80036; stroke-width: 1.5;"/><text fill="#000000" font-family="sans-serif" font-size="14" lengthAdjust="spacingAndGlyphs" textLength="175" x="196.5203" y="176.9525">Propose Package Update</text><ellipse cx="171.2229" cy="390.0446" fill="#FEFECE" filter="url(#fpo9emskmjuvt)" rx="93.2229" ry="21.0446" style="stroke: #A80036; stroke-width: 1.5;"/><text fill="#000000" font-family="sans-serif" font-size="14" lengthAdjust="spacingAndGlyphs" textLength="161" x="90.7229" y="394.693">Check against Conflicts</text><ellipse cx="395.0038" cy="311.4008" fill="#FEFECE" filter="url(#fpo9emskmjuvt)" rx="125.0038" ry="27.4008" style="stroke: #A80036; stroke-width: 1.5;"/><text fill="#000000" font-family="sans-serif" font-size="14" lengthAdjust="spacingAndGlyphs" textLength="230" x="280.0038" y="316.0492">Request Review from Maintainers</text><ellipse cx="415.8553" cy="605.0236" fill="#FEFECE" filter="url(#fpo9emskmjuvt)" rx="38.3553" ry="14.5236" style="stroke: #A80036; stroke-width: 1.5;"/><text fill="#000000" font-family="sans-serif" font-size="14" lengthAdjust="spacingAndGlyphs" textLength="50" x="390.8553" y="609.6721">Update</text><!--MD5=[fe4d1e544d1f5aae5d4d05c630db20d2]
link User to Download--><path d="M253.05,519.28 C262.63,541.25 274.38,568.18 282.02,585.7 " fill="none" id="User-&gt;Download" style="stroke: #A80036; stroke-width: 1.0;"/><polygon fill="#A80036" points="284.06,590.38,284.1173,580.5313,282.0559,585.7992,276.788,583.7379,284.06,590.38" style="stroke: #A80036; stroke-width: 1.0;"/><!--MD5=[5128ad341e1f5658b79b0c894c7a6c43]
link Download to IPFS--><path d="M295.07,619.53 C302.79,640.14 317.83,680.29 329.57,711.64 " fill="none" id="Download-&gt;IPFS" style="stroke: #A80036; stroke-width: 1.0;"/><polygon fill="#A80036" points="331.43,716.6,332.0152,706.7685,329.6744,711.9184,324.5246,709.5775,331.43,716.6" style="stroke: #A80036; stroke-width: 1.0;"/><!--MD5=[ed3a9acfa5b2fcf1ba972f6d55686688]
link User to Query--><path d="M225.97,522.37 C214.92,562.31 198.41,622.03 190.12,651.98 " fill="none" id="User-&gt;Query" style="stroke: #A80036; stroke-width: 1.0;"/><polygon fill="#A80036" points="188.77,656.87,195.0201,649.2584,190.1001,652.0502,187.3083,647.1302,188.77,656.87" style="stroke: #A80036; stroke-width: 1.0;"/><!--MD5=[c412ae0b98e24140cd1be0a7e2e34b30]
link Query to Database--><path d="M185,686.24 C185,719.73 185,806.59 185,857.9 " fill="none" id="Query-Database" style="stroke: #A80036; stroke-width: 1.0;"/><!--MD5=[6d660fad456c420e2c6aa0727d070b09]
link Contributor to Register--><path d="M108.49,89.12 C92.78,129.23 69.17,189.53 57.33,219.78 " fill="none" id="Contributor-&gt;Register" style="stroke: #A80036; stroke-width: 1.0;"/><polygon fill="#A80036" points="55.39,224.72,62.3841,217.7859,57.205,220.0611,54.9298,214.8819,55.39,224.72" style="stroke: #A80036; stroke-width: 1.0;"/><!--MD5=[d25a51d98ea9c50230c9ef23c5563995]
link Register to Database--><path d="M48.94,254 C46.98,280.08 43,339.19 43,389 C43,389 43,389 43,757.5 C43,818.26 109.74,861.51 151.71,882.7 " fill="none" id="Register-Database" style="stroke: #A80036; stroke-width: 1.0;"/><!--MD5=[5cef848000ed1a6021cb90ef380a2a0c]
link Contributor to Propose--><path d="M163.14,79.34 C190.71,100.37 227.14,128.15 252.77,147.69 " fill="none" id="Contributor-&gt;Propose" style="stroke: #A80036; stroke-width: 1.0;"/><polygon fill="#A80036" points="256.79,150.75,252.059,142.1118,252.8142,147.7181,247.2079,148.4732,256.79,150.75" style="stroke: #A80036; stroke-width: 1.0;"/><!--MD5=[154e7e4c74084e0a6421e695aa485c21]
link Propose to Login--><path d="M373.97,182.22 C506.32,197.58 738,235.22 738,310.5 C738,310.5 738,310.5 738,606 C738,675.59 656.02,723.79 612.87,744.35 " fill="none" id="Propose-&gt;Login" style="stroke: #A80036; stroke-width: 1.0; stroke-dasharray: 7.0,7.0;"/><polygon fill="#A80036" points="608.31,746.48,618.1572,746.2971,612.8406,744.3648,614.7728,739.0482,608.31,746.48" style="stroke: #A80036; stroke-width: 1.0;"/><text fill="#000000" font-family="sans-serif" font-size="13" lengthAdjust="spacingAndGlyphs" textLength="61" x="739" y="486.0669">«include»</text><!--MD5=[1f9418f5da9ba6df1fd8b1982b48bfc5]
link Propose to Check--><path d="M272.19,195 C267.16,204.21 261.25,215.11 256,225 C229.84,274.27 199.99,332.3 183.54,364.44 " fill="none" id="Propose-&gt;Check" style="stroke: #A80036; stroke-width: 1.0; stroke-dasharray: 7.0,7.0;"/><polygon fill="#A80036" points="181.21,368.99,188.8761,362.8069,183.4916,364.5409,181.7576,359.1564,181.21,368.99" style="stroke: #A80036; stroke-width: 1.0;"/><text fill="#000000" font-family="sans-serif" font-size="13" lengthAdjust="spacingAndGlyphs" textLength="61" x="257" y="244.0669">«include»</text><!--MD5=[8f2fb4e962bc34e9b94d529a62651e55]
link Check to Database--><path d="M158.91,411.03 C142.18,440.71 114,498.63 114,552 C114,552 114,552 114,757.5 C114,794.29 133.74,831.21 152.41,857.89 " fill="none" id="Check-Database" style="stroke: #A80036; stroke-width: 1.0;"/><!--MD5=[a019b3626b7ff293b57f13c5ab5d07d9]
link Propose to Review--><path d="M301.34,194.91 C319.86,217.77 349.37,254.19 370.31,280.03 " fill="none" id="Propose-&gt;Review" style="stroke: #A80036; stroke-width: 1.0; stroke-dasharray: 7.0,7.0;"/><polygon fill="#A80036" points="373.6,284.09,371.0502,274.5769,370.4557,280.2024,364.8301,279.6079,373.6,284.09" style="stroke: #A80036; stroke-width: 1.0;"/><text fill="#000000" font-family="sans-serif" font-size="13" lengthAdjust="spacingAndGlyphs" textLength="61" x="348" y="244.0669">«include»</text><!--MD5=[91f7c7e7779900bad58cba25269eeaf0]
link Review to Maintainer--><path d="M398.33,339.12 C401.75,366.51 407.12,409.48 411.05,440.87 " fill="none" id="Review-Maintainer" style="stroke: #A80036; stroke-width: 1.0;"/><!--MD5=[ff56b85dbaa745fb85929773f183c620]
link Maintainer to Update--><path d="M416,522.28 C416,543.42 416,568.43 416,585.16 " fill="none" id="Maintainer-&gt;Update" style="stroke: #A80036; stroke-width: 1.0;"/><polygon fill="#A80036" points="416,590.5,420,581.5,416,585.5,412,581.5,416,590.5" style="stroke: #A80036; stroke-width: 1.0;"/><!--MD5=[490bc960ec86520a13bfc100bb1ec4ab]
link Update to IPFS--><path d="M409.66,619.53 C398.66,643.03 375.74,691.98 360.62,724.28 " fill="none" id="Update-IPFS" style="stroke: #A80036; stroke-width: 1.0;"/><!--MD5=[732dd9bf00ccbe52a5beba9c2152f385]
link Maintainer to Vote--><path d="M451.85,507.97 C482.09,529.46 525.02,559.96 554.33,580.79 " fill="none" id="Maintainer-&gt;Vote" style="stroke: #A80036; stroke-width: 1.0;"/><polygon fill="#A80036" points="558.55,583.79,553.5261,575.3189,554.4727,580.896,548.8956,581.8426,558.55,583.79" style="stroke: #A80036; stroke-width: 1.0;"/><!--MD5=[a836fded0c80e4c409f211f3dc43a4b0]
link Vote to Database--><path d="M567.75,626.87 C532.59,664.19 454.54,743.48 378,797 C325.53,833.7 257.93,865.86 218.24,883.4 " fill="none" id="Vote-Database" style="stroke: #A80036; stroke-width: 1.0;"/><!--MD5=[13a77bd23520ac5923e9e69896e3dc80]
link Vote to Login--><path d="M587,627.1 C587,656.23 587,708.32 587,736.37 " fill="none" id="Vote-&gt;Login" style="stroke: #A80036; stroke-width: 1.0; stroke-dasharray: 7.0,7.0;"/><polygon fill="#A80036" points="587,741.64,591,732.64,587,736.64,583,732.64,587,741.64" style="stroke: #A80036; stroke-width: 1.0;"/><text fill="#000000" font-family="sans-serif" font-size="13" lengthAdjust="spacingAndGlyphs" textLength="61" x="588" y="676.0669">«include»</text><!--MD5=[90f0eec871badf24b26e64e95f40d1fb]
link Login to Database--><path d="M572.14,768.98 C551.32,784.53 511.75,812.18 474,828 C385.48,865.1 273.03,884.98 218.15,893.08 " fill="none" id="Login-Database" style="stroke: #A80036; stroke-width: 1.0;"/><!--MD5=[0b8582d5e422aea31734a1c1bafd4bc2]
@startuml
actor User
actor Contributor
actor Maintainer
actor IPFS
actor Database

usecase Download
usecase Query

usecase Register
usecase Login
usecase "Vote for New Maintainers" as Vote

usecase "Propose Package Update" as Propose
usecase "Check against Conflicts" as Check
usecase "Request Review from Maintainers" as Review
usecase Update

User - -> Download
Download - -> IPFS

User - -> Query
Query - - Database

Contributor - -> Register
Register - - Database

Contributor - -> Propose
Propose ..> Login : <<include>>
Propose ..> Check : <<include>>
Check - - Database
Propose ..> Review : <<include>>
Review - - Maintainer

Maintainer - -> Update
Update - - IPFS

Maintainer - -> Vote
Vote - - Database
Vote ..> Login : <<include>>
Login - - Database

@enduml

PlantUML version 1.2020.02(Sun Mar 01 17:22:07 ICT 2020)
(GPL source distribution)
Java Runtime: OpenJDK Runtime Environment
JVM: OpenJDK 64-Bit Server VM
Java Version: 11.0.8+10-post-Debian-1
Operating System: Linux
Default Encoding: UTF-8
Language: en
Country: DK
--></g></svg>