<?xml version="1.0" encoding="UTF-8" standalone="no"?><svg xmlns="http://www.w3.org/2000/svg" xmlns:xlink="http://www.w3.org/1999/xlink" contentScriptType="application/ecmascript" contentStyleType="text/css" height="615px" preserveAspectRatio="none" style="width:803px;height:615px;" version="1.1" viewBox="0 0 803 615" width="803px" zoomAndPan="magnify"><defs><filter height="300%" id="f34rw7c1rsgao" width="300%" x="-1" y="-1"><feGaussianBlur result="blurOut" stdDeviation="2.0"/><feColorMatrix in="blurOut" result="blurOut2" type="matrix" values="0 0 0 0 0 0 0 0 0 0 0 0 0 0 0 0 0 0 .4 0"/><feOffset dx="4.0" dy="4.0" in="blurOut2" result="blurOut3"/><feBlend in="SourceGraphic" in2="blurOut3" mode="normal"/></filter></defs><g><rect fill="#FFFFFF" filter="url(#f34rw7c1rsgao)" height="489.1953" style="stroke: #A80036; stroke-width: 1.0;" width="10" x="45" y="96.2969"/><rect fill="#FFFFFF" filter="url(#f34rw7c1rsgao)" height="65.1328" style="stroke: #A80036; stroke-width: 1.0;" width="10" x="216" y="117.2969"/><rect fill="#FFFFFF" filter="url(#f34rw7c1rsgao)" height="28" style="stroke: #A80036; stroke-width: 1.0;" width="10" x="221" y="154.4297"/><rect fill="#FFFFFF" filter="url(#f34rw7c1rsgao)" height="30" style="stroke: #A80036; stroke-width: 1.0;" width="10" x="216" y="218.5625"/><rect fill="#FFFFFF" filter="url(#f34rw7c1rsgao)" height="30" style="stroke: #A80036; stroke-width: 1.0;" width="10" x="216" y="277.6953"/><rect fill="#FFFFFF" filter="url(#f34rw7c1rsgao)" height="248.6641" style="stroke: #A80036; stroke-width: 1.0;" width="10" x="216" y="336.8281"/><rect fill="#FFFFFF" filter="url(#f34rw7c1rsgao)" height="219.5313" style="stroke: #A80036; stroke-width: 1.0;" width="10" x="441" y="365.9609"/><rect fill="#FFFFFF" filter="url(#f34rw7c1rsgao)" height="64.1328" style="stroke: #A80036; stroke-width: 1.0;" width="10" x="446" y="521.3594"/><rect fill="#FFFFFF" filter="url(#f34rw7c1rsgao)" height="30" style="stroke: #A80036; stroke-width: 1.0;" width="10" x="645" y="395.0938"/><rect fill="#FFFFFF" filter="url(#f34rw7c1rsgao)" height="30" style="stroke: #A80036; stroke-width: 1.0;" width="10" x="645" y="454.2266"/><rect fill="#FFFFFF" filter="url(#f34rw7c1rsgao)" height="30" style="stroke: #A80036; stroke-width: 1.0;" width="10" x="747.5" y="555.4922"/><line style="stroke: #A80036; stroke-width: 1.0; stroke-dasharray: 5.0,5.0;" x1="50" x2="50" y1="86.2969" y2="603.625"/><line style="stroke: #A80036; stroke-width: 1.0; stroke-dasharray: 5.0,5.0;" x1="221" x2="221" y1="86.2969" y2="603.625"/><line style="stroke: #A80036; stroke-width: 1.0; stroke-dasharray: 5.0,5.0;" x1="446" x2="446" y1="86.2969" y2="603.625"/><line style="stroke: #A80036; stroke-width: 1.0; stroke-dasharray: 5.0,5.0;" x1="649.5" x2="649.5" y1="86.2969" y2="603.625"/><line style="stroke: #A80036; stroke-width: 1.0; stroke-dasharray: 5.0,5.0;" x1="752.5" x2="752.5" y1="86.2969" y2="603.625"/><text fill="#A80036" font-family="sans-serif" font-size="14" lengthAdjust="spacingAndGlyphs" textLength="78" x="8" y="82.9951">Contributor</text><ellipse cx="50" cy="13" fill="#FEFECE" filter="url(#f34rw7c1rsgao)" rx="8" ry="8" style="stroke: #A80036; stroke-width: 2.0;"/><path d="M50,21 L50,48 M37,29 L63,29 M50,48 L37,63 M50,48 L63,63 " fill="#FEFECE" filter="url(#f34rw7c1rsgao)" style="stroke: #A80036; stroke-width: 2.0;"/><text fill="#A80036" font-family="sans-serif" font-size="14" lengthAdjust="spacingAndGlyphs" textLength="122" x="157" y="82.9951">Registration Form</text><path d="M200.5,42 L200.5,66 M200.5,54 L217.5,54 " fill="#FEFECE" filter="url(#f34rw7c1rsgao)" style="stroke: #A80036; stroke-width: 2.0;"/><ellipse cx="229.5" cy="54" fill="#FEFECE" filter="url(#f34rw7c1rsgao)" rx="12" ry="12" style="stroke: #A80036; stroke-width: 2.0;"/><text fill="#A80036" font-family="sans-serif" font-size="14" lengthAdjust="spacingAndGlyphs" textLength="154" x="366" y="82.9951">Registration Controller</text><ellipse cx="446" cy="54" fill="#FEFECE" filter="url(#f34rw7c1rsgao)" rx="12" ry="12" style="stroke: #A80036; stroke-width: 2.0;"/><polygon fill="#A80036" points="442,42,448,37,446,42,448,47,442,42" style="stroke: #A80036; stroke-width: 1.0;"/><text fill="#A80036" font-family="sans-serif" font-size="14" lengthAdjust="spacingAndGlyphs" textLength="89" x="602.5" y="82.9951">AccountData</text><ellipse cx="650" cy="54" fill="#FEFECE" filter="url(#f34rw7c1rsgao)" rx="12" ry="12" style="stroke: #A80036; stroke-width: 2.0;"/><line style="stroke: #A80036; stroke-width: 2.0;" x1="638" x2="662" y1="68" y2="68"/><text fill="#A80036" font-family="sans-serif" font-size="14" lengthAdjust="spacingAndGlyphs" textLength="84" x="707.5" y="82.9951">ISecureUser</text><path d="M732,42 L732,66 M732,54 L749,54 " fill="#FEFECE" filter="url(#f34rw7c1rsgao)" style="stroke: #A80036; stroke-width: 2.0;"/><ellipse cx="761" cy="54" fill="#FEFECE" filter="url(#f34rw7c1rsgao)" rx="12" ry="12" style="stroke: #A80036; stroke-width: 2.0;"/><rect fill="#FFFFFF" filter="url(#f34rw7c1rsgao)" height="489.1953" style="stroke: #A80036; stroke-width: 1.0;" width="10" x="45" y="96.2969"/><rect fill="#FFFFFF" filter="url(#f34rw7c1rsgao)" height="65.1328" style="stroke: #A80036; stroke-width: 1.0;" width="10" x="216" y="117.2969"/><rect fill="#FFFFFF" filter="url(#f34rw7c1rsgao)" height="28" style="stroke: #A80036; stroke-width: 1.0;" width="10" x="221" y="154.4297"/><rect fill="#FFFFFF" filter="url(#f34rw7c1rsgao)" height="30" style="stroke: #A80036; stroke-width: 1.0;" width="10" x="216" y="218.5625"/><rect fill="#FFFFFF" filter="url(#f34rw7c1rsgao)" height="30" style="stroke: #A80036; stroke-width: 1.0;" width="10" x="216" y="277.6953"/><rect fill="#FFFFFF" filter="url(#f34rw7c1rsgao)" height="248.6641" style="stroke: #A80036; stroke-width: 1.0;" width="10" x="216" y="336.8281"/><rect fill="#FFFFFF" filter="url(#f34rw7c1rsgao)" height="219.5313" style="stroke: #A80036; stroke-width: 1.0;" width="10" x="441" y="365.9609"/><rect fill="#FFFFFF" filter="url(#f34rw7c1rsgao)" height="64.1328" style="stroke: #A80036; stroke-width: 1.0;" width="10" x="446" y="521.3594"/><rect fill="#FFFFFF" filter="url(#f34rw7c1rsgao)" height="30" style="stroke: #A80036; stroke-width: 1.0;" width="10" x="645" y="395.0938"/><rect fill="#FFFFFF" filter="url(#f34rw7c1rsgao)" height="30" style="stroke: #A80036; stroke-width: 1.0;" width="10" x="645" y="454.2266"/><rect fill="#FFFFFF" filter="url(#f34rw7c1rsgao)" height="30" style="stroke: #A80036; stroke-width: 1.0;" width="10" x="747.5" y="555.4922"/><polygon fill="#A80036" points="204,113.2969,214,117.2969,204,121.2969,208,117.2969" style="stroke: #A80036; stroke-width: 1.0;"/><line style="stroke: #A80036; stroke-width: 1.0;" x1="55" x2="210" y1="117.2969" y2="117.2969"/><text fill="#A80036" font-family="sans-serif" font-size="13" lengthAdjust="spacingAndGlyphs" textLength="24" x="62" y="112.3638">1: //</text><text fill="#A80036" font-family="sans-serif" font-size="13" lengthAdjust="spacingAndGlyphs" textLength="112" x="90" y="112.3638">request register()</text><line style="stroke: #A80036; stroke-width: 1.0;" x1="231" x2="273" y1="146.5625" y2="146.5625"/><line style="stroke: #A80036; stroke-width: 1.0;" x1="273" x2="273" y1="146.5625" y2="159.5625"/><line style="stroke: #A80036; stroke-width: 1.0;" x1="232" x2="273" y1="159.5625" y2="159.5625"/><polygon fill="#A80036" points="242,155.5625,232,159.5625,242,163.5625,238,159.5625" style="stroke: #A80036; stroke-width: 1.0;"/><text fill="#A80036" font-family="sans-serif" font-size="13" lengthAdjust="spacingAndGlyphs" textLength="24" x="238" y="141.4966">2: //</text><text fill="#A80036" font-family="sans-serif" font-size="13" lengthAdjust="spacingAndGlyphs" textLength="164" x="266" y="141.4966">prompt registration field()</text><polygon fill="#A80036" points="204,214.5625,214,218.5625,204,222.5625,208,218.5625" style="stroke: #A80036; stroke-width: 1.0;"/><line style="stroke: #A80036; stroke-width: 1.0;" x1="55" x2="210" y1="218.5625" y2="218.5625"/><text fill="#A80036" font-family="sans-serif" font-size="13" lengthAdjust="spacingAndGlyphs" textLength="24" x="62" y="213.6294">3: //</text><text fill="#A80036" font-family="sans-serif" font-size="13" lengthAdjust="spacingAndGlyphs" textLength="113" x="90" y="213.6294">enter username()</text><polygon fill="#A80036" points="204,273.6953,214,277.6953,204,281.6953,208,277.6953" style="stroke: #A80036; stroke-width: 1.0;"/><line style="stroke: #A80036; stroke-width: 1.0;" x1="55" x2="210" y1="277.6953" y2="277.6953"/><text fill="#A80036" font-family="sans-serif" font-size="13" lengthAdjust="spacingAndGlyphs" textLength="24" x="62" y="272.7622">4: //</text><text fill="#A80036" font-family="sans-serif" font-size="13" lengthAdjust="spacingAndGlyphs" textLength="108" x="90" y="272.7622">enter password()</text><polygon fill="#A80036" points="204,332.8281,214,336.8281,204,340.8281,208,336.8281" style="stroke: #A80036; stroke-width: 1.0;"/><line style="stroke: #A80036; stroke-width: 1.0;" x1="55" x2="210" y1="336.8281" y2="336.8281"/><text fill="#A80036" font-family="sans-serif" font-size="13" lengthAdjust="spacingAndGlyphs" textLength="24" x="62" y="331.895">5: //</text><text fill="#A80036" font-family="sans-serif" font-size="13" lengthAdjust="spacingAndGlyphs" textLength="114" x="90" y="331.895">register account()</text><polygon fill="#A80036" points="429,361.9609,439,365.9609,429,369.9609,433,365.9609" style="stroke: #A80036; stroke-width: 1.0;"/><line style="stroke: #A80036; stroke-width: 1.0;" x1="226" x2="435" y1="365.9609" y2="365.9609"/><text fill="#A80036" font-family="sans-serif" font-size="13" lengthAdjust="spacingAndGlyphs" textLength="24" x="233" y="361.0278">6: //</text><text fill="#A80036" font-family="sans-serif" font-size="13" lengthAdjust="spacingAndGlyphs" textLength="168" x="261" y="361.0278">request input verification()</text><polygon fill="#A80036" points="633,391.0938,643,395.0938,633,399.0938,637,395.0938" style="stroke: #A80036; stroke-width: 1.0;"/><line style="stroke: #A80036; stroke-width: 1.0;" x1="451" x2="639" y1="395.0938" y2="395.0938"/><text fill="#A80036" font-family="sans-serif" font-size="13" lengthAdjust="spacingAndGlyphs" textLength="24" x="458" y="390.1606">7: //</text><text fill="#A80036" font-family="sans-serif" font-size="13" lengthAdjust="spacingAndGlyphs" textLength="80" x="486" y="390.1606">verify input()</text><polygon fill="#A80036" points="633,450.2266,643,454.2266,633,458.2266,637,454.2266" style="stroke: #A80036; stroke-width: 1.0;"/><line style="stroke: #A80036; stroke-width: 1.0;" x1="451" x2="639" y1="454.2266" y2="454.2266"/><text fill="#A80036" font-family="sans-serif" font-size="13" lengthAdjust="spacingAndGlyphs" textLength="24" x="458" y="449.2935">8: //</text><text fill="#A80036" font-family="sans-serif" font-size="13" lengthAdjust="spacingAndGlyphs" textLength="118" x="486" y="449.2935">add new account()</text><line style="stroke: #A80036; stroke-width: 1.0;" x1="451" x2="498" y1="508.4922" y2="508.4922"/><line style="stroke: #A80036; stroke-width: 1.0;" x1="498" x2="498" y1="508.4922" y2="521.4922"/><line style="stroke: #A80036; stroke-width: 1.0;" x1="457" x2="498" y1="521.4922" y2="521.4922"/><polygon fill="#A80036" points="467,517.4922,457,521.4922,467,525.4922,463,521.4922" style="stroke: #A80036; stroke-width: 1.0;"/><text fill="#A80036" font-family="sans-serif" font-size="13" lengthAdjust="spacingAndGlyphs" textLength="24" x="463" y="503.4263">9: //</text><text fill="#A80036" font-family="sans-serif" font-size="13" lengthAdjust="spacingAndGlyphs" textLength="152" x="491" y="503.4263">setup security context()</text><polygon fill="#A80036" points="735.5,551.4922,745.5,555.4922,735.5,559.4922,739.5,555.4922" style="stroke: #A80036; stroke-width: 1.0;"/><line style="stroke: #A80036; stroke-width: 1.0;" x1="456" x2="741.5" y1="555.4922" y2="555.4922"/><text fill="#A80036" font-family="sans-serif" font-size="13" lengthAdjust="spacingAndGlyphs" textLength="32" x="463" y="550.5591">10: //</text><text fill="#A80036" font-family="sans-serif" font-size="13" lengthAdjust="spacingAndGlyphs" textLength="78" x="499" y="550.5591">new(UserID)</text><!--
@startuml
skinparam defaultFontColor #a80036
autonumber "#: //"
autoactivate on
hide footbox

actor Contributor
boundary "Registration Form" as RF
control "Registration Controller" as RC
entity AccountData
boundary ISecureUser

activate Contributor
Contributor -> RF : request register()
RF -> RF : prompt registration field()
deactivate RF
deactivate RF
Contributor -> RF : enter username()
deactivate RF
Contributor -> RF : enter password()
deactivate RF
Contributor -> RF : register account()
RF -> RC : request input verification()
RC -> AccountData : verify input()
deactivate AccountData
RC -> AccountData : add new account()
deactivate AccountData
RC -> RC : setup security context()
RC -> ISecureUser : new(UserID)
deactivate ISecureUser
deactivate RC
deactivate RC
deactivate RF
deactivate Contributor

@enduml

PlantUML version 1.2017.15(Mon Jul 03 16:45:34 UTC 2017)
(GPL source distribution)
Java Runtime: OpenJDK Runtime Environment
JVM: OpenJDK 64-Bit Server VM
Java Version: 1.8.0_265-b01
Operating System: Linux
OS Version: 5.4.0-1026-azure
Default Encoding: UTF-8
Language: en
Country: null
--></g></svg>