<?xml version="1.0" encoding="UTF-8" standalone="no"?><svg xmlns="http://www.w3.org/2000/svg" xmlns:xlink="http://www.w3.org/1999/xlink" contentScriptType="application/ecmascript" contentStyleType="text/css" height="349px" preserveAspectRatio="none" style="width:1025px;height:349px;" version="1.1" viewBox="0 0 1025 349" width="1025px" zoomAndPan="magnify"><defs><filter height="300%" id="f1cbs0kpcuxko0" width="300%" x="-1" y="-1"><feGaussianBlur result="blurOut" stdDeviation="2.0"/><feColorMatrix in="blurOut" result="blurOut2" type="matrix" values="0 0 0 0 0 0 0 0 0 0 0 0 0 0 0 0 0 0 .4 0"/><feOffset dx="4.0" dy="4.0" in="blurOut2" result="blurOut3"/><feBlend in="SourceGraphic" in2="blurOut3" mode="normal"/></filter></defs><g><rect fill="#FFFFFF" filter="url(#f1cbs0kpcuxko0)" height="222.6641" style="stroke: #A80036; stroke-width: 1.0;" width="10" x="45" y="96.2969"/><rect fill="#FFFFFF" filter="url(#f1cbs0kpcuxko0)" height="210.7969" style="stroke: #A80036; stroke-width: 1.0;" width="10" x="319" y="117.2969"/><rect fill="#FFFFFF" filter="url(#f1cbs0kpcuxko0)" height="173.6641" style="stroke: #A80036; stroke-width: 1.0;" width="10" x="324" y="154.4297"/><rect fill="#FFFFFF" filter="url(#f1cbs0kpcuxko0)" height="122.3984" style="stroke: #A80036; stroke-width: 1.0;" width="10" x="329" y="196.5625"/><rect fill="#FFFFFF" filter="url(#f1cbs0kpcuxko0)" height="88.2656" style="stroke: #A80036; stroke-width: 1.0;" width="10" x="557" y="230.6953"/><rect fill="#FFFFFF" filter="url(#f1cbs0kpcuxko0)" height="59.1328" style="stroke: #A80036; stroke-width: 1.0;" width="10" x="790" y="259.8281"/><rect fill="#FFFFFF" filter="url(#f1cbs0kpcuxko0)" height="30" style="stroke: #A80036; stroke-width: 1.0;" width="10" x="940.5" y="288.9609"/><line style="stroke: #A80036; stroke-width: 1.0; stroke-dasharray: 5.0,5.0;" x1="50" x2="50" y1="86.2969" y2="337.0938"/><line style="stroke: #A80036; stroke-width: 1.0; stroke-dasharray: 5.0,5.0;" x1="323.5" x2="323.5" y1="86.2969" y2="337.0938"/><line style="stroke: #A80036; stroke-width: 1.0; stroke-dasharray: 5.0,5.0;" x1="561.5" x2="561.5" y1="86.2969" y2="337.0938"/><line style="stroke: #A80036; stroke-width: 1.0; stroke-dasharray: 5.0,5.0;" x1="795" x2="795" y1="86.2969" y2="337.0938"/><line style="stroke: #A80036; stroke-width: 1.0; stroke-dasharray: 5.0,5.0;" x1="945" x2="945" y1="86.2969" y2="337.0938"/><text fill="#A80036" font-family="sans-serif" font-size="14" lengthAdjust="spacingAndGlyphs" textLength="78" x="8" y="82.9951">Contributor</text><ellipse cx="50" cy="13" fill="#FEFECE" filter="url(#f1cbs0kpcuxko0)" rx="8" ry="8" style="stroke: #A80036; stroke-width: 2.0;"/><path d="M50,21 L50,48 M37,29 L63,29 M50,48 L37,63 M50,48 L63,63 " fill="#FEFECE" filter="url(#f1cbs0kpcuxko0)" style="stroke: #A80036; stroke-width: 2.0;"/><rect fill="#FEFECE" filter="url(#f1cbs0kpcuxko0)" height="30.2969" style="stroke: #A80036; stroke-width: 1.5;" width="109" x="267.5" y="51"/><text fill="#A80036" font-family="sans-serif" font-size="14" lengthAdjust="spacingAndGlyphs" textLength="95" x="274.5" y="70.9951">ProposalForm</text><rect fill="#FEFECE" filter="url(#f1cbs0kpcuxko0)" height="30.2969" style="stroke: #A80036; stroke-width: 1.5;" width="141" x="489.5" y="51"/><text fill="#A80036" font-family="sans-serif" font-size="14" lengthAdjust="spacingAndGlyphs" textLength="127" x="496.5" y="70.9951">ProposalController</text><rect fill="#FEFECE" filter="url(#f1cbs0kpcuxko0)" height="30.2969" style="stroke: #A80036; stroke-width: 1.5;" width="132" x="727" y="51"/><text fill="#A80036" font-family="sans-serif" font-size="14" lengthAdjust="spacingAndGlyphs" textLength="118" x="734" y="70.9951">IMetadataSystem</text><rect fill="#FEFECE" filter="url(#f1cbs0kpcuxko0)" height="30.2969" style="stroke: #A80036; stroke-width: 1.5;" width="141" x="873" y="51"/><text fill="#A80036" font-family="sans-serif" font-size="14" lengthAdjust="spacingAndGlyphs" textLength="127" x="880" y="70.9951">NotificationSystem</text><rect fill="#FFFFFF" filter="url(#f1cbs0kpcuxko0)" height="222.6641" style="stroke: #A80036; stroke-width: 1.0;" width="10" x="45" y="96.2969"/><rect fill="#FFFFFF" filter="url(#f1cbs0kpcuxko0)" height="210.7969" style="stroke: #A80036; stroke-width: 1.0;" width="10" x="319" y="117.2969"/><rect fill="#FFFFFF" filter="url(#f1cbs0kpcuxko0)" height="173.6641" style="stroke: #A80036; stroke-width: 1.0;" width="10" x="324" y="154.4297"/><rect fill="#FFFFFF" filter="url(#f1cbs0kpcuxko0)" height="122.3984" style="stroke: #A80036; stroke-width: 1.0;" width="10" x="329" y="196.5625"/><rect fill="#FFFFFF" filter="url(#f1cbs0kpcuxko0)" height="88.2656" style="stroke: #A80036; stroke-width: 1.0;" width="10" x="557" y="230.6953"/><rect fill="#FFFFFF" filter="url(#f1cbs0kpcuxko0)" height="59.1328" style="stroke: #A80036; stroke-width: 1.0;" width="10" x="790" y="259.8281"/><rect fill="#FFFFFF" filter="url(#f1cbs0kpcuxko0)" height="30" style="stroke: #A80036; stroke-width: 1.0;" width="10" x="940.5" y="288.9609"/><polygon fill="#A80036" points="307,113.2969,317,117.2969,307,121.2969,311,117.2969" style="stroke: #A80036; stroke-width: 1.0;"/><line style="stroke: #A80036; stroke-width: 1.0;" x1="55" x2="313" y1="117.2969" y2="117.2969"/><text fill="#A80036" font-family="sans-serif" font-size="13" lengthAdjust="spacingAndGlyphs" textLength="24" x="62" y="112.3638">1: //</text><text fill="#A80036" font-family="sans-serif" font-size="13" lengthAdjust="spacingAndGlyphs" textLength="217" x="90" y="112.3638">create package update proposal()</text><line style="stroke: #A80036; stroke-width: 1.0;" x1="329" x2="376" y1="141.5625" y2="141.5625"/><line style="stroke: #A80036; stroke-width: 1.0;" x1="376" x2="376" y1="141.5625" y2="154.5625"/><line style="stroke: #A80036; stroke-width: 1.0;" x1="335" x2="376" y1="154.5625" y2="154.5625"/><polygon fill="#A80036" points="345,150.5625,335,154.5625,345,158.5625,341,154.5625" style="stroke: #A80036; stroke-width: 1.0;"/><text fill="#A80036" font-family="sans-serif" font-size="13" lengthAdjust="spacingAndGlyphs" textLength="24" x="341" y="136.4966">2: //</text><text fill="#A80036" font-family="sans-serif" font-size="13" lengthAdjust="spacingAndGlyphs" textLength="184" x="369" y="136.4966">prompt for package names()</text><line style="stroke: #A80036; stroke-width: 1.0;" x1="334" x2="381" y1="183.6953" y2="183.6953"/><line style="stroke: #A80036; stroke-width: 1.0;" x1="381" x2="381" y1="183.6953" y2="196.6953"/><line style="stroke: #A80036; stroke-width: 1.0;" x1="340" x2="381" y1="196.6953" y2="196.6953"/><polygon fill="#A80036" points="350,192.6953,340,196.6953,350,200.6953,346,196.6953" style="stroke: #A80036; stroke-width: 1.0;"/><text fill="#A80036" font-family="sans-serif" font-size="13" lengthAdjust="spacingAndGlyphs" textLength="24" x="346" y="178.6294">3: //</text><text fill="#A80036" font-family="sans-serif" font-size="13" lengthAdjust="spacingAndGlyphs" textLength="181" x="374" y="178.6294">prompt for update(package)</text><polygon fill="#A80036" points="545,226.6953,555,230.6953,545,234.6953,549,230.6953" style="stroke: #A80036; stroke-width: 1.0;"/><line style="stroke: #A80036; stroke-width: 1.0;" x1="339" x2="551" y1="230.6953" y2="230.6953"/><text fill="#A80036" font-family="sans-serif" font-size="13" lengthAdjust="spacingAndGlyphs" textLength="24" x="346" y="225.7622">4: //</text><text fill="#A80036" font-family="sans-serif" font-size="13" lengthAdjust="spacingAndGlyphs" textLength="145" x="374" y="225.7622">add proposal(updates)</text><polygon fill="#A80036" points="778,255.8281,788,259.8281,778,263.8281,782,259.8281" style="stroke: #A80036; stroke-width: 1.0;"/><line style="stroke: #A80036; stroke-width: 1.0;" x1="567" x2="784" y1="259.8281" y2="259.8281"/><text fill="#A80036" font-family="sans-serif" font-size="13" lengthAdjust="spacingAndGlyphs" textLength="24" x="574" y="254.895">5: //</text><text fill="#A80036" font-family="sans-serif" font-size="13" lengthAdjust="spacingAndGlyphs" textLength="176" x="602" y="254.895">check for conflicts(updates)</text><polygon fill="#A80036" points="928.5,284.9609,938.5,288.9609,928.5,292.9609,932.5,288.9609" style="stroke: #A80036; stroke-width: 1.0;"/><line style="stroke: #A80036; stroke-width: 1.0;" x1="567" x2="934.5" y1="288.9609" y2="288.9609"/><text fill="#A80036" font-family="sans-serif" font-size="13" lengthAdjust="spacingAndGlyphs" textLength="24" x="574" y="284.0278">6: //</text><text fill="#A80036" font-family="sans-serif" font-size="13" lengthAdjust="spacingAndGlyphs" textLength="249" x="602" y="284.0278">notify maintainers for reviews(updates)</text><!--
@startuml
skinparam defaultFontColor #a80036
autonumber "#: //"
autoactivate on
hide footbox

actor Contributor

activate Contributor
Contributor -> ProposalForm : create package update proposal()
ProposalForm -> ProposalForm : prompt for package names()
ProposalForm -> ProposalForm : prompt for update(package)
ProposalForm -> ProposalController : add proposal(updates)
ProposalController -> IMetadataSystem : check for conflicts(updates)
ProposalController -> NotificationSystem : notify maintainers for reviews(updates)
deactivate NotificationSystem
deactivate IMetadataSystem
deactivate ProposalController
deactivate ProposalForm
deactivate Contributor

@enduml

PlantUML version 1.2017.15(Mon Jul 03 16:45:34 UTC 2017)
(GPL source distribution)
Java Runtime: OpenJDK Runtime Environment
JVM: OpenJDK 64-Bit Server VM
Java Version: 1.8.0_265-b01
Operating System: Linux
OS Version: 5.4.0-1026-azure
Default Encoding: UTF-8
Language: en
Country: null
--></g></svg>