<?xml version="1.0" encoding="UTF-8" standalone="no"?><svg xmlns="http://www.w3.org/2000/svg" xmlns:xlink="http://www.w3.org/1999/xlink" contentScriptType="application/ecmascript" contentStyleType="text/css" height="189px" preserveAspectRatio="none" style="width:505px;height:189px;" version="1.1" viewBox="0 0 505 189" width="505px" zoomAndPan="magnify"><defs><filter height="300%" id="f1663jf7jx3ba3" width="300%" x="-1" y="-1"><feGaussianBlur result="blurOut" stdDeviation="2.0"/><feColorMatrix in="blurOut" result="blurOut2" type="matrix" values="0 0 0 0 0 0 0 0 0 0 0 0 0 0 0 0 0 0 .4 0"/><feOffset dx="4.0" dy="4.0" in="blurOut2" result="blurOut3"/><feBlend in="SourceGraphic" in2="blurOut3" mode="normal"/></filter></defs><g><!--MD5=[fee662a292a0353a69bd162820bae93b]
entity User--><ellipse cx="248" cy="17.5" fill="#FEFECE" filter="url(#f1663jf7jx3ba3)" rx="8" ry="8" style="stroke: #A80036; stroke-width: 1.5;"/><path d="M248,25.5 L248,52.5 M235,33.5 L261,33.5 M248,52.5 L235,67.5 M248,52.5 L261,67.5 " fill="none" filter="url(#f1663jf7jx3ba3)" style="stroke: #A80036; stroke-width: 1.5;"/><text fill="#000000" font-family="sans-serif" font-size="14" lengthAdjust="spacingAndGlyphs" textLength="32" x="232" y="85.9951">User</text><!--MD5=[0e386df696c8989779f0bde43ae749c6]
entity Uploader--><ellipse cx="356" cy="17.5" fill="#FEFECE" filter="url(#f1663jf7jx3ba3)" rx="8" ry="8" style="stroke: #A80036; stroke-width: 1.5;"/><path d="M356,25.5 L356,52.5 M343,33.5 L369,33.5 M356,52.5 L343,67.5 M356,52.5 L369,67.5 " fill="none" filter="url(#f1663jf7jx3ba3)" style="stroke: #A80036; stroke-width: 1.5;"/><text fill="#000000" font-family="sans-serif" font-size="14" lengthAdjust="spacingAndGlyphs" textLength="62" x="325" y="85.9951">Uploader</text><!--MD5=[b90713b5ddaea180d3429e7b1ef7c0f8]
entity Maintainer--><ellipse cx="458" cy="17.5" fill="#FEFECE" filter="url(#f1663jf7jx3ba3)" rx="8" ry="8" style="stroke: #A80036; stroke-width: 1.5;"/><path d="M458,25.5 L458,52.5 M445,33.5 L471,33.5 M458,52.5 L445,67.5 M458,52.5 L471,67.5 " fill="none" filter="url(#f1663jf7jx3ba3)" style="stroke: #A80036; stroke-width: 1.5;"/><text fill="#000000" font-family="sans-serif" font-size="14" lengthAdjust="spacingAndGlyphs" textLength="71" x="422.5" y="85.9951">Maintainer</text><!--MD5=[a74c9f7ba4e347df35943d93696ec108]
entity IPFS--><ellipse cx="43" cy="17.5" fill="#FEFECE" filter="url(#f1663jf7jx3ba3)" rx="8" ry="8" style="stroke: #A80036; stroke-width: 1.5;"/><path d="M43,25.5 L43,52.5 M30,33.5 L56,33.5 M43,52.5 L30,67.5 M43,52.5 L56,67.5 " fill="none" filter="url(#f1663jf7jx3ba3)" style="stroke: #A80036; stroke-width: 1.5;"/><text fill="#000000" font-family="sans-serif" font-size="14" lengthAdjust="spacingAndGlyphs" textLength="29" x="28.5" y="85.9951">IPFS</text><!--MD5=[fa1e3283224feb76407c84b7e90ed808]
entity Database--><ellipse cx="126" cy="17.5" fill="#FEFECE" filter="url(#f1663jf7jx3ba3)" rx="8" ry="8" style="stroke: #A80036; stroke-width: 1.5;"/><path d="M126,25.5 L126,52.5 M113,33.5 L139,33.5 M126,52.5 L113,67.5 M126,52.5 L139,67.5 " fill="none" filter="url(#f1663jf7jx3ba3)" style="stroke: #A80036; stroke-width: 1.5;"/><text fill="#000000" font-family="sans-serif" font-size="14" lengthAdjust="spacingAndGlyphs" textLength="66" x="93" y="85.9951">Database</text><ellipse cx="204.7904" cy="163.5236" fill="#FEFECE" filter="url(#f1663jf7jx3ba3)" rx="51.7904" ry="14.5236" style="stroke: #A80036; stroke-width: 1.5;"/><text fill="#000000" font-family="sans-serif" font-size="14" lengthAdjust="spacingAndGlyphs" textLength="69" x="170.2904" y="168.1721">Download</text><ellipse cx="323.9914" cy="163.5236" fill="#FEFECE" filter="url(#f1663jf7jx3ba3)" rx="31.9914" ry="14.5236" style="stroke: #A80036; stroke-width: 1.5;"/><text fill="#000000" font-family="sans-serif" font-size="14" lengthAdjust="spacingAndGlyphs" textLength="41" x="303.4914" y="168.1721">Query</text><ellipse cx="439.163" cy="163.5236" fill="#FEFECE" filter="url(#f1663jf7jx3ba3)" rx="29.163" ry="14.5236" style="stroke: #A80036; stroke-width: 1.5;"/><text fill="#000000" font-family="sans-serif" font-size="14" lengthAdjust="spacingAndGlyphs" textLength="37" x="420.663" y="168.1721">Login</text><ellipse cx="42.9411" cy="163.5236" fill="#FEFECE" filter="url(#f1663jf7jx3ba3)" rx="36.9411" ry="14.5236" style="stroke: #A80036; stroke-width: 1.5;"/><text fill="#000000" font-family="sans-serif" font-size="14" lengthAdjust="spacingAndGlyphs" textLength="48" x="18.9411" y="168.1721">Upload</text><!--MD5=[fe4d1e544d1f5aae5d4d05c630db20d2]
link User to Download--><path d="M232.96,89.02 C225.82,107.78 217.64,129.28 211.98,144.16 " fill="none" id="User-&gt;Download" style="stroke: #A80036; stroke-width: 1.0;"/><polygon fill="#A80036" points="210.16,148.94,217.1099,141.9615,211.9453,144.2696,209.6373,139.105,210.16,148.94" style="stroke: #A80036; stroke-width: 1.0;"/><!--MD5=[ed3a9acfa5b2fcf1ba972f6d55686688]
link User to Query--><path d="M264.12,73.46 C278.5,94.85 299.22,125.66 312.13,144.86 " fill="none" id="User-&gt;Query" style="stroke: #A80036; stroke-width: 1.0;"/><polygon fill="#A80036" points="315.24,149.48,313.5374,139.7794,312.45,145.3308,306.8987,144.2434,315.24,149.48" style="stroke: #A80036; stroke-width: 1.0;"/><!--MD5=[e19bf40d7e0344141de5bf276f29d85b]
link Uploader to Login--><path d="M385.03,89.02 C399.18,108.29 415.46,130.45 426.41,145.36 " fill="none" id="Uploader-&gt;Login" style="stroke: #008000; stroke-width: 1.0;"/><polygon fill="#008000" points="429.63,149.74,427.5068,140.1227,426.6621,145.7162,421.0686,144.8714,429.63,149.74" style="stroke: #008000; stroke-width: 1.0;"/><!--MD5=[6be640c7dbb82f7ade64d9ecc2d766a0]
link Maintainer to Login--><path d="M451.35,89.02 C448.23,107.61 444.65,128.91 442.15,143.77 " fill="none" id="Maintainer-&gt;Login" style="stroke: #0000FF; stroke-width: 1.0;"/><polygon fill="#0000FF" points="441.28,148.94,446.7167,140.7277,442.1089,144.0092,438.8275,139.4014,441.28,148.94" style="stroke: #0000FF; stroke-width: 1.0;"/><!--MD5=[f37e3814cca1ede03ac5b388ddc33c66]
link IPFS to Database--><!--MD5=[0a8555cfc82d294909991d58d6283d44]
link IPFS to Upload--><!--MD5=[31bbb44470b2d0bf2ceecc5418c61923]
@startuml
actor User
actor Uploader
actor Maintainer
actor IPFS
actor Database

usecase Download
usecase Query
usecase Login
usecase Upload

User - -> Download
User - -> Query

Uploader -[#green]-> Login
Maintainer -[#blue]-> Login

@enduml

PlantUML version 1.2020.02(Sun Mar 01 17:22:07 ICT 2020)
(GPL source distribution)
Java Runtime: OpenJDK Runtime Environment
JVM: OpenJDK 64-Bit Server VM
Java Version: 11.0.8+10-post-Debian-1
Operating System: Linux
Default Encoding: UTF-8
Language: en
Country: DK
--></g></svg>