<?xml version="1.0" encoding="UTF-8" standalone="no"?><svg xmlns="http://www.w3.org/2000/svg" xmlns:xlink="http://www.w3.org/1999/xlink" contentScriptType="application/ecmascript" contentStyleType="text/css" height="517px" preserveAspectRatio="none" style="width:1008px;height:517px;" version="1.1" viewBox="0 0 1008 517" width="1008px" zoomAndPan="magnify"><defs><filter height="300%" id="fzj1uw0hl800p" width="300%" x="-1" y="-1"><feGaussianBlur result="blurOut" stdDeviation="2.0"/><feColorMatrix in="blurOut" result="blurOut2" type="matrix" values="0 0 0 0 0 0 0 0 0 0 0 0 0 0 0 0 0 0 .4 0"/><feOffset dx="4.0" dy="4.0" in="blurOut2" result="blurOut3"/><feBlend in="SourceGraphic" in2="blurOut3" mode="normal"/></filter></defs><g><!--MD5=[fee662a292a0353a69bd162820bae93b]
entity User--><ellipse cx="41" cy="17.5" fill="#FEFECE" filter="url(#fzj1uw0hl800p)" rx="8" ry="8" style="stroke: #A80036; stroke-width: 1.5;"/><path d="M41,25.5 L41,52.5 M28,33.5 L54,33.5 M41,52.5 L28,67.5 M41,52.5 L54,67.5 " fill="none" filter="url(#fzj1uw0hl800p)" style="stroke: #A80036; stroke-width: 1.5;"/><text fill="#000000" font-family="sans-serif" font-size="14" lengthAdjust="spacingAndGlyphs" textLength="32" x="25" y="85.9951">User</text><!--MD5=[f3401c2d09288f830763ccde49063a6d]
entity Contributor--><ellipse cx="916" cy="17.5" fill="#FEFECE" filter="url(#fzj1uw0hl800p)" rx="8" ry="8" style="stroke: #A80036; stroke-width: 1.5;"/><path d="M916,25.5 L916,52.5 M903,33.5 L929,33.5 M916,52.5 L903,67.5 M916,52.5 L929,67.5 " fill="none" filter="url(#fzj1uw0hl800p)" style="stroke: #A80036; stroke-width: 1.5;"/><text fill="#000000" font-family="sans-serif" font-size="14" lengthAdjust="spacingAndGlyphs" textLength="78" x="877" y="85.9951">Contributor</text><!--MD5=[b90713b5ddaea180d3429e7b1ef7c0f8]
entity Maintainer--><ellipse cx="399" cy="17.5" fill="#FEFECE" filter="url(#fzj1uw0hl800p)" rx="8" ry="8" style="stroke: #A80036; stroke-width: 1.5;"/><path d="M399,25.5 L399,52.5 M386,33.5 L412,33.5 M399,52.5 L386,67.5 M399,52.5 L412,67.5 " fill="none" filter="url(#fzj1uw0hl800p)" style="stroke: #A80036; stroke-width: 1.5;"/><text fill="#000000" font-family="sans-serif" font-size="14" lengthAdjust="spacingAndGlyphs" textLength="71" x="363.5" y="85.9951">Maintainer</text><!--MD5=[a74c9f7ba4e347df35943d93696ec108]
entity IPFS--><ellipse cx="180" cy="293.5" fill="#FEFECE" filter="url(#fzj1uw0hl800p)" rx="8" ry="8" style="stroke: #A80036; stroke-width: 1.5;"/><path d="M180,301.5 L180,328.5 M167,309.5 L193,309.5 M180,328.5 L167,343.5 M180,328.5 L193,343.5 " fill="none" filter="url(#fzj1uw0hl800p)" style="stroke: #A80036; stroke-width: 1.5;"/><text fill="#000000" font-family="sans-serif" font-size="14" lengthAdjust="spacingAndGlyphs" textLength="29" x="165.5" y="361.9951">IPFS</text><!--MD5=[fa1e3283224feb76407c84b7e90ed808]
entity Database--><ellipse cx="634" cy="435.5" fill="#FEFECE" filter="url(#fzj1uw0hl800p)" rx="8" ry="8" style="stroke: #A80036; stroke-width: 1.5;"/><path d="M634,443.5 L634,470.5 M621,451.5 L647,451.5 M634,470.5 L621,485.5 M634,470.5 L647,485.5 " fill="none" filter="url(#fzj1uw0hl800p)" style="stroke: #A80036; stroke-width: 1.5;"/><text fill="#000000" font-family="sans-serif" font-size="14" lengthAdjust="spacingAndGlyphs" textLength="66" x="601" y="503.9951">Database</text><ellipse cx="92.7904" cy="172.5236" fill="#FEFECE" filter="url(#fzj1uw0hl800p)" rx="51.7904" ry="14.5236" style="stroke: #A80036; stroke-width: 1.5;"/><text fill="#000000" font-family="sans-serif" font-size="14" lengthAdjust="spacingAndGlyphs" textLength="69" x="58.2904" y="177.1721">Download</text><ellipse cx="37.9914" cy="239.5236" fill="#FEFECE" filter="url(#fzj1uw0hl800p)" rx="31.9914" ry="14.5236" style="stroke: #A80036; stroke-width: 1.5;"/><text fill="#000000" font-family="sans-serif" font-size="14" lengthAdjust="spacingAndGlyphs" textLength="41" x="17.4914" y="244.1721">Query</text><ellipse cx="953.0122" cy="239.5236" fill="#FEFECE" filter="url(#fzj1uw0hl800p)" rx="44.0122" ry="14.5236" style="stroke: #A80036; stroke-width: 1.5;"/><text fill="#000000" font-family="sans-serif" font-size="14" lengthAdjust="spacingAndGlyphs" textLength="58" x="924.0122" y="244.1721">Register</text><ellipse cx="634.163" cy="324.5236" fill="#FEFECE" filter="url(#fzj1uw0hl800p)" rx="29.163" ry="14.5236" style="stroke: #A80036; stroke-width: 1.5;"/><text fill="#000000" font-family="sans-serif" font-size="14" lengthAdjust="spacingAndGlyphs" textLength="37" x="615.663" y="329.1721">Login</text><ellipse cx="570.211" cy="172.4422" fill="#FEFECE" filter="url(#fzj1uw0hl800p)" rx="97.711" ry="21.9422" style="stroke: #A80036; stroke-width: 1.5;"/><text fill="#000000" font-family="sans-serif" font-size="14" lengthAdjust="spacingAndGlyphs" textLength="171" x="484.711" y="177.0906">Vote for New Maintainers</text><ellipse cx="802.0203" cy="172.3041" fill="#FEFECE" filter="url(#fzj1uw0hl800p)" rx="99.5203" ry="22.3041" style="stroke: #A80036; stroke-width: 1.5;"/><text fill="#000000" font-family="sans-serif" font-size="14" lengthAdjust="spacingAndGlyphs" textLength="175" x="714.5203" y="176.9525">Propose Package Update</text><ellipse cx="797.2229" cy="324.5446" fill="#FEFECE" filter="url(#fzj1uw0hl800p)" rx="93.2229" ry="21.0446" style="stroke: #A80036; stroke-width: 1.5;"/><text fill="#000000" font-family="sans-serif" font-size="14" lengthAdjust="spacingAndGlyphs" textLength="161" x="716.7229" y="329.193">Check against Conflicts</text><ellipse cx="253.1576" cy="172.4315" fill="#FEFECE" filter="url(#fzj1uw0hl800p)" rx="72.6576" ry="16.9315" style="stroke: #A80036; stroke-width: 1.5;"/><text fill="#000000" font-family="sans-serif" font-size="14" lengthAdjust="spacingAndGlyphs" textLength="113" x="196.6576" y="177.0799">Review Proposal</text><ellipse cx="398.8553" cy="172.5236" fill="#FEFECE" filter="url(#fzj1uw0hl800p)" rx="38.3553" ry="14.5236" style="stroke: #A80036; stroke-width: 1.5;"/><text fill="#000000" font-family="sans-serif" font-size="14" lengthAdjust="spacingAndGlyphs" textLength="50" x="373.8553" y="177.1721">Update</text><!--MD5=[fe4d1e544d1f5aae5d4d05c630db20d2]
link User to Download--><path d="M57.03,87.1 C66.41,109.11 77.84,135.92 85.26,153.33 " fill="none" id="User-&gt;Download" style="stroke: #A80036; stroke-width: 1.0;"/><polygon fill="#A80036" points="87.24,157.98,87.3972,148.1324,85.2825,153.3791,80.0358,151.2644,87.24,157.98" style="stroke: #A80036; stroke-width: 1.0;"/><!--MD5=[5128ad341e1f5658b79b0c894c7a6c43]
link Download to IPFS--><path d="M100.87,187.08 C114.79,211.07 144.02,261.47 162.8,293.84 " fill="none" id="Download-&gt;IPFS" style="stroke: #A80036; stroke-width: 1.0;"/><polygon fill="#A80036" points="165.49,298.48,164.4284,288.6885,162.9786,294.1565,157.5107,292.7067,165.49,298.48" style="stroke: #A80036; stroke-width: 1.0;"/><!--MD5=[ed3a9acfa5b2fcf1ba972f6d55686688]
link User to Query--><path d="M29.92,89.16 C23.22,118.49 17.03,159.35 23,195 C24.42,203.45 27.28,212.45 30.13,220.07 " fill="none" id="User-&gt;Query" style="stroke: #A80036; stroke-width: 1.0;"/><polygon fill="#A80036" points="32.08,225.09,32.5402,215.2519,30.265,220.4311,25.0859,218.1559,32.08,225.09" style="stroke: #A80036; stroke-width: 1.0;"/><!--MD5=[c412ae0b98e24140cd1be0a7e2e34b30]
link Query to Database--><path d="M45.71,253.93 C61.38,279.91 99.6,336.93 148,365 C300.05,453.18 518.38,464.64 600.81,465.66 " fill="none" id="Query-Database" style="stroke: #A80036; stroke-width: 1.0;"/><!--MD5=[6d660fad456c420e2c6aa0727d070b09]
link Contributor to Register--><path d="M923.76,89.12 C931.61,129.23 943.41,189.53 949.34,219.78 " fill="none" id="Contributor-&gt;Register" style="stroke: #A80036; stroke-width: 1.0;"/><polygon fill="#A80036" points="950.3,224.72,952.5056,215.1213,949.3441,219.8122,944.6532,216.6507,950.3,224.72" style="stroke: #A80036; stroke-width: 1.0;"/><!--MD5=[d25a51d98ea9c50230c9ef23c5563995]
link Register to Database--><path d="M951.81,254.09 C948.88,279.33 939.13,333.72 908,365 C840.62,432.69 723.91,455.19 667.05,462.34 " fill="none" id="Register-Database" style="stroke: #A80036; stroke-width: 1.0;"/><!--MD5=[5cef848000ed1a6021cb90ef380a2a0c]
link Contributor to Propose--><path d="M878.99,89.11 C861.49,107.84 841.11,129.65 825.71,146.12 " fill="none" id="Contributor-&gt;Propose" style="stroke: #A80036; stroke-width: 1.0;"/><polygon fill="#A80036" points="821.91,150.19,830.9831,146.3587,825.3292,146.5419,825.1461,140.888,821.91,150.19" style="stroke: #A80036; stroke-width: 1.0;"/><!--MD5=[154e7e4c74084e0a6421e695aa485c21]
link Propose to Login--><path d="M769.64,193.96 C756.29,202.92 740.96,213.9 728,225 C697.2,251.38 665.47,286.64 647.88,307.03 " fill="none" id="Propose-&gt;Login" style="stroke: #A80036; stroke-width: 1.0; stroke-dasharray: 7.0,7.0;"/><polygon fill="#A80036" points="644.56,310.91,653.462,306.6964,647.821,307.1198,647.3977,301.4788,644.56,310.91" style="stroke: #A80036; stroke-width: 1.0;"/><text fill="#000000" font-family="sans-serif" font-size="13" lengthAdjust="spacingAndGlyphs" textLength="61" x="729" y="244.0669">«include»</text><!--MD5=[1f9418f5da9ba6df1fd8b1982b48bfc5]
link Propose to Check--><path d="M801.27,195.31 C800.37,222.54 798.82,269.05 797.85,297.93 " fill="none" id="Propose-&gt;Check" style="stroke: #A80036; stroke-width: 1.0; stroke-dasharray: 7.0,7.0;"/><polygon fill="#A80036" points="797.68,303.11,801.986,294.2523,797.8513,298.1129,793.9907,293.9782,797.68,303.11" style="stroke: #A80036; stroke-width: 1.0;"/><text fill="#000000" font-family="sans-serif" font-size="13" lengthAdjust="spacingAndGlyphs" textLength="61" x="801" y="244.0669">«include»</text><!--MD5=[8f2fb4e962bc34e9b94d529a62651e55]
link Check to Database--><path d="M774.34,344.97 C746.52,368.86 699.12,409.57 667.19,436.99 " fill="none" id="Check-Database" style="stroke: #A80036; stroke-width: 1.0;"/><!--MD5=[994034b9d75866a4c1b611139ff47f41]
link Maintainer to Review--><path d="M363.28,79.34 C335.99,102.15 299.19,132.9 275.78,152.47 " fill="none" id="Maintainer-&gt;Review" style="stroke: #A80036; stroke-width: 1.0;"/><polygon fill="#A80036" points="271.85,155.75,281.3208,153.0473,275.6864,152.5434,276.1903,146.9091,271.85,155.75" style="stroke: #A80036; stroke-width: 1.0;"/><!--MD5=[ff56b85dbaa745fb85929773f183c620]
link Maintainer to Update--><path d="M399,89.11 C399,110.36 399,135.58 399,152.47 " fill="none" id="Maintainer-&gt;Update" style="stroke: #A80036; stroke-width: 1.0;"/><polygon fill="#A80036" points="399,157.86,403,148.86,399,152.86,395,148.86,399,157.86" style="stroke: #A80036; stroke-width: 1.0;"/><!--MD5=[490bc960ec86520a13bfc100bb1ec4ab]
link Update to IPFS--><path d="M381.45,185.52 C339.43,214.3 233.65,286.75 194.7,313.43 " fill="none" id="Update-IPFS" style="stroke: #A80036; stroke-width: 1.0;"/><!--MD5=[732dd9bf00ccbe52a5beba9c2152f385]
link Maintainer to Vote--><path d="M434.85,75.08 C465.18,96.72 508.28,127.47 537.6,148.38 " fill="none" id="Maintainer-&gt;Vote" style="stroke: #A80036; stroke-width: 1.0;"/><polygon fill="#A80036" points="541.82,151.4,536.8298,142.909,537.7542,148.4898,532.1734,149.4142,541.82,151.4" style="stroke: #A80036; stroke-width: 1.0;"/><!--MD5=[a836fded0c80e4c409f211f3dc43a4b0]
link Vote to Database--><path d="M571.39,194.7 C572.5,210.94 574.17,233.9 576,254 C580.51,303.42 574.84,317.16 588,365 C593.7,385.72 603.22,407.55 612.12,425.55 " fill="none" id="Vote-Database" style="stroke: #A80036; stroke-width: 1.0;"/><!--MD5=[13a77bd23520ac5923e9e69896e3dc80]
link Vote to Login--><path d="M575.3,194.78 C579.71,211.27 586.61,234.51 595,254 C602.96,272.5 614.47,292.43 622.93,306.18 " fill="none" id="Vote-&gt;Login" style="stroke: #A80036; stroke-width: 1.0; stroke-dasharray: 7.0,7.0;"/><polygon fill="#A80036" points="625.67,310.6,624.3305,300.8427,623.0367,306.3496,617.5298,305.0559,625.67,310.6" style="stroke: #A80036; stroke-width: 1.0;"/><text fill="#000000" font-family="sans-serif" font-size="13" lengthAdjust="spacingAndGlyphs" textLength="61" x="596" y="244.0669">«include»</text><!--MD5=[90f0eec871badf24b26e64e95f40d1fb]
link Login to Database--><path d="M634,339.18 C634,359.06 634,396.75 634,425.8 " fill="none" id="Login-Database" style="stroke: #A80036; stroke-width: 1.0;"/><!--MD5=[a951c872d8fb251e55001249fc5f0753]
@startuml
actor User
actor Contributor
actor Maintainer
actor IPFS
actor Database

usecase Download
usecase Query

usecase Register
usecase Login
usecase "Vote for New Maintainers" as Vote

usecase "Propose Package Update" as Propose
usecase "Check against Conflicts" as Check
usecase "Review Proposal" as Review
usecase Update

User - -> Download
Download - -> IPFS

User - -> Query
Query - - Database

Contributor - -> Register
Register - - Database

Contributor - -> Propose
Propose ..> Login : <<include>>
Propose ..> Check : <<include>>
Check - - Database

Maintainer - -> Review

Maintainer - -> Update
Update - - IPFS

Maintainer - -> Vote
Vote - - Database
Vote ..> Login : <<include>>
Login - - Database

@enduml

PlantUML version 1.2020.02(Sun Mar 01 17:22:07 ICT 2020)
(GPL source distribution)
Java Runtime: OpenJDK Runtime Environment
JVM: OpenJDK 64-Bit Server VM
Java Version: 11.0.8+10-post-Debian-1
Operating System: Linux
Default Encoding: UTF-8
Language: en
Country: DK
--></g></svg>