<?xml version="1.0" encoding="UTF-8" standalone="no"?><svg xmlns="http://www.w3.org/2000/svg" xmlns:xlink="http://www.w3.org/1999/xlink" contentScriptType="application/ecmascript" contentStyleType="text/css" height="723px" preserveAspectRatio="none" style="width:495px;height:723px;" version="1.1" viewBox="0 0 495 723" width="495px" zoomAndPan="magnify"><defs><filter height="300%" id="f5vre47yrspc" width="300%" x="-1" y="-1"><feGaussianBlur result="blurOut" stdDeviation="2.0"/><feColorMatrix in="blurOut" result="blurOut2" type="matrix" values="0 0 0 0 0 0 0 0 0 0 0 0 0 0 0 0 0 0 .4 0"/><feOffset dx="4.0" dy="4.0" in="blurOut2" result="blurOut3"/><feBlend in="SourceGraphic" in2="blurOut3" mode="normal"/></filter></defs><g><!--class Account--><rect fill="#FEFECE" filter="url(#f5vre47yrspc)" height="86.4141" id="Account" style="stroke: #A80036; stroke-width: 1.5;" width="83" x="373.5" y="148"/><ellipse cx="388.5" cy="164" fill="#ADD1B2" rx="11" ry="11" style="stroke: #A80036; stroke-width: 1.0;"/><path d="M391.4688,169.6406 Q390.8906,169.9375 390.25,170.0781 Q389.6094,170.2344 388.9063,170.2344 Q386.4063,170.2344 385.0781,168.5938 Q383.7656,166.9375 383.7656,163.8125 Q383.7656,160.6875 385.0781,159.0313 Q386.4063,157.375 388.9063,157.375 Q389.6094,157.375 390.25,157.5313 Q390.9063,157.6875 391.4688,157.9844 L391.4688,160.7031 Q390.8438,160.125 390.25,159.8594 Q389.6563,159.5781 389.0313,159.5781 Q387.6875,159.5781 387,160.6563 Q386.3125,161.7188 386.3125,163.8125 Q386.3125,165.9063 387,166.9844 Q387.6875,168.0469 389.0313,168.0469 Q389.6563,168.0469 390.25,167.7813 Q390.8438,167.5 391.4688,166.9219 L391.4688,169.6406 Z "/><text fill="#000000" font-family="sans-serif" font-size="12" lengthAdjust="spacingAndGlyphs" textLength="51" x="402.5" y="168.1543">Account</text><line style="stroke: #A80036; stroke-width: 1.5;" x1="374.5" x2="455.5" y1="180" y2="180"/><text fill="#000000" font-family="sans-serif" font-size="11" lengthAdjust="spacingAndGlyphs" textLength="58" x="379.5" y="194.2104">username</text><text fill="#000000" font-family="sans-serif" font-size="11" lengthAdjust="spacingAndGlyphs" textLength="56" x="379.5" y="207.0151">password</text><line style="stroke: #A80036; stroke-width: 1.5;" x1="374.5" x2="455.5" y1="213.6094" y2="213.6094"/><text fill="#000000" font-family="sans-serif" font-size="11" lengthAdjust="spacingAndGlyphs" textLength="44" x="379.5" y="227.8198">create()</text><!--class LoginForm--><rect fill="#FEFECE" filter="url(#f5vre47yrspc)" height="137.6328" id="LoginForm" style="stroke: #A80036; stroke-width: 1.5;" width="253" x="231.5" y="294"/><ellipse cx="321.75" cy="310" fill="#ADD1B2" rx="11" ry="11" style="stroke: #A80036; stroke-width: 1.0;"/><path d="M324.7188,315.6406 Q324.1406,315.9375 323.5,316.0781 Q322.8594,316.2344 322.1563,316.2344 Q319.6563,316.2344 318.3281,314.5938 Q317.0156,312.9375 317.0156,309.8125 Q317.0156,306.6875 318.3281,305.0313 Q319.6563,303.375 322.1563,303.375 Q322.8594,303.375 323.5,303.5313 Q324.1563,303.6875 324.7188,303.9844 L324.7188,306.7031 Q324.0938,306.125 323.5,305.8594 Q322.9063,305.5781 322.2813,305.5781 Q320.9375,305.5781 320.25,306.6563 Q319.5625,307.7188 319.5625,309.8125 Q319.5625,311.9063 320.25,312.9844 Q320.9375,314.0469 322.2813,314.0469 Q322.9063,314.0469 323.5,313.7813 Q324.0938,313.5 324.7188,312.9219 L324.7188,315.6406 Z "/><text fill="#000000" font-family="sans-serif" font-size="12" lengthAdjust="spacingAndGlyphs" textLength="64" x="342.25" y="314.1543">LoginForm</text><line style="stroke: #A80036; stroke-width: 1.5;" x1="232.5" x2="483.5" y1="326" y2="326"/><text fill="#000000" font-family="sans-serif" font-size="11" lengthAdjust="spacingAndGlyphs" textLength="82" x="237.5" y="340.2104">usernamefield</text><text fill="#000000" font-family="sans-serif" font-size="11" lengthAdjust="spacingAndGlyphs" textLength="80" x="237.5" y="353.0151">passwordfield</text><line style="stroke: #A80036; stroke-width: 1.5;" x1="232.5" x2="483.5" y1="359.6094" y2="359.6094"/><text fill="#000000" font-family="sans-serif" font-size="11" lengthAdjust="spacingAndGlyphs" textLength="94" x="237.5" y="373.8198">start logging in()</text><text fill="#000000" font-family="sans-serif" font-size="11" lengthAdjust="spacingAndGlyphs" textLength="222" x="237.5" y="386.6245">prompt for authentication information()</text><text fill="#000000" font-family="sans-serif" font-size="11" lengthAdjust="spacingAndGlyphs" textLength="187" x="237.5" y="399.4292">enter(authentication information)</text><text fill="#000000" font-family="sans-serif" font-size="11" lengthAdjust="spacingAndGlyphs" textLength="241" x="237.5" y="412.2339">checkempty(usernamefield,passwordfield)</text><text fill="#000000" font-family="sans-serif" font-size="11" lengthAdjust="spacingAndGlyphs" textLength="118" x="237.5" y="425.0386">initate login(account)</text><!--class Security--><rect fill="#FEFECE" filter="url(#f5vre47yrspc)" height="79.5469" id="Security" style="stroke: #A80036; stroke-width: 1.5;" width="218" x="120" y="151"/><ellipse cx="167.75" cy="169.9688" fill="#ADD1B2" rx="11" ry="11" style="stroke: #A80036; stroke-width: 1.0;"/><path d="M170.7188,175.6094 Q170.1406,175.9063 169.5,176.0469 Q168.8594,176.2031 168.1563,176.2031 Q165.6563,176.2031 164.3281,174.5625 Q163.0156,172.9063 163.0156,169.7813 Q163.0156,166.6563 164.3281,165 Q165.6563,163.3438 168.1563,163.3438 Q168.8594,163.3438 169.5,163.5 Q170.1563,163.6563 170.7188,163.9531 L170.7188,166.6719 Q170.0938,166.0938 169.5,165.8281 Q168.9063,165.5469 168.2813,165.5469 Q166.9375,165.5469 166.25,166.625 Q165.5625,167.6875 165.5625,169.7813 Q165.5625,171.875 166.25,172.9531 Q166.9375,174.0156 168.2813,174.0156 Q168.9063,174.0156 169.5,173.75 Q170.0938,173.4688 170.7188,172.8906 L170.7188,175.6094 Z "/><text fill="#000000" font-family="sans-serif" font-size="12" font-style="italic" lengthAdjust="spacingAndGlyphs" textLength="118" x="186.25" y="167.1387">«subsystem proxy»</text><text fill="#000000" font-family="sans-serif" font-size="12" lengthAdjust="spacingAndGlyphs" textLength="50" x="220.25" y="181.1074">Security</text><line style="stroke: #A80036; stroke-width: 1.5;" x1="121" x2="337" y1="188.9375" y2="188.9375"/><line style="stroke: #A80036; stroke-width: 1.5;" x1="121" x2="337" y1="196.9375" y2="196.9375"/><text fill="#000000" font-family="sans-serif" font-size="11" lengthAdjust="spacingAndGlyphs" textLength="206" x="126" y="211.1479">createAccount(username,password)</text><text fill="#000000" font-family="sans-serif" font-size="11" lengthAdjust="spacingAndGlyphs" textLength="158" x="126" y="223.9526">send data for encapsulate()</text><!--class ISecurity--><rect fill="#FEFECE" filter="url(#f5vre47yrspc)" height="79.5469" id="ISecurity" style="stroke: #A80036; stroke-width: 1.5;" width="218" x="120" y="8"/><ellipse cx="191.75" cy="26.9688" fill="#B4A7E5" rx="11" ry="11" style="stroke: #A80036; stroke-width: 1.0;"/><path d="M187.6719,22.7344 L187.6719,20.5781 L195.0625,20.5781 L195.0625,22.7344 L192.5938,22.7344 L192.5938,30.8125 L195.0625,30.8125 L195.0625,32.9688 L187.6719,32.9688 L187.6719,30.8125 L190.1406,30.8125 L190.1406,22.7344 L187.6719,22.7344 Z "/><text fill="#000000" font-family="sans-serif" font-size="12" font-style="italic" lengthAdjust="spacingAndGlyphs" textLength="70" x="210.25" y="24.1387">«interface»</text><text fill="#000000" font-family="sans-serif" font-size="12" font-style="italic" lengthAdjust="spacingAndGlyphs" textLength="55" x="217.75" y="38.1074">ISecurity</text><line style="stroke: #A80036; stroke-width: 1.5;" x1="121" x2="337" y1="45.9375" y2="45.9375"/><line style="stroke: #A80036; stroke-width: 1.5;" x1="121" x2="337" y1="53.9375" y2="53.9375"/><text fill="#000000" font-family="sans-serif" font-size="11" lengthAdjust="spacingAndGlyphs" textLength="206" x="126" y="68.1479">createAccount(username,password)</text><text fill="#000000" font-family="sans-serif" font-size="11" lengthAdjust="spacingAndGlyphs" textLength="158" x="126" y="80.9526">send data for encapsulate()</text><!--class AccountDBManager--><rect fill="#FEFECE" filter="url(#f5vre47yrspc)" height="73.6094" id="AccountDBManager" style="stroke: #A80036; stroke-width: 1.5;" width="190" x="6" y="326"/><ellipse cx="36.75" cy="342" fill="#ADD1B2" rx="11" ry="11" style="stroke: #A80036; stroke-width: 1.0;"/><path d="M39.7188,347.6406 Q39.1406,347.9375 38.5,348.0781 Q37.8594,348.2344 37.1563,348.2344 Q34.6563,348.2344 33.3281,346.5938 Q32.0156,344.9375 32.0156,341.8125 Q32.0156,338.6875 33.3281,337.0313 Q34.6563,335.375 37.1563,335.375 Q37.8594,335.375 38.5,335.5313 Q39.1563,335.6875 39.7188,335.9844 L39.7188,338.7031 Q39.0938,338.125 38.5,337.8594 Q37.9063,337.5781 37.2813,337.5781 Q35.9375,337.5781 35.25,338.6563 Q34.5625,339.7188 34.5625,341.8125 Q34.5625,343.9063 35.25,344.9844 Q35.9375,346.0469 37.2813,346.0469 Q37.9063,346.0469 38.5,345.7813 Q39.0938,345.5 39.7188,344.9219 L39.7188,347.6406 Z "/><text fill="#000000" font-family="sans-serif" font-size="12" lengthAdjust="spacingAndGlyphs" textLength="123" x="54.25" y="346.1543">AccountDBManager</text><line style="stroke: #A80036; stroke-width: 1.5;" x1="7" x2="195" y1="358" y2="358"/><line style="stroke: #A80036; stroke-width: 1.5;" x1="7" x2="195" y1="366" y2="366"/><text fill="#000000" font-family="sans-serif" font-size="11" lengthAdjust="spacingAndGlyphs" textLength="89" x="12" y="380.2104">getConnection()</text><text fill="#000000" font-family="sans-serif" font-size="11" lengthAdjust="spacingAndGlyphs" textLength="178" x="12" y="393.0151">send account to verify(account)</text><!--class LoginController--><rect fill="#FEFECE" filter="url(#f5vre47yrspc)" height="60.8047" id="LoginController" style="stroke: #A80036; stroke-width: 1.5;" width="126" x="154" y="492"/><ellipse cx="169" cy="508" fill="#ADD1B2" rx="11" ry="11" style="stroke: #A80036; stroke-width: 1.0;"/><path d="M171.9688,513.6406 Q171.3906,513.9375 170.75,514.0781 Q170.1094,514.2344 169.4063,514.2344 Q166.9063,514.2344 165.5781,512.5938 Q164.2656,510.9375 164.2656,507.8125 Q164.2656,504.6875 165.5781,503.0313 Q166.9063,501.375 169.4063,501.375 Q170.1094,501.375 170.75,501.5313 Q171.4063,501.6875 171.9688,501.9844 L171.9688,504.7031 Q171.3438,504.125 170.75,503.8594 Q170.1563,503.5781 169.5313,503.5781 Q168.1875,503.5781 167.5,504.6563 Q166.8125,505.7188 166.8125,507.8125 Q166.8125,509.9063 167.5,510.9844 Q168.1875,512.0469 169.5313,512.0469 Q170.1563,512.0469 170.75,511.7813 Q171.3438,511.5 171.9688,510.9219 L171.9688,513.6406 Z "/><text fill="#000000" font-family="sans-serif" font-size="12" lengthAdjust="spacingAndGlyphs" textLength="94" x="183" y="512.1543">LoginController</text><line style="stroke: #A80036; stroke-width: 1.5;" x1="155" x2="279" y1="524" y2="524"/><line style="stroke: #A80036; stroke-width: 1.5;" x1="155" x2="279" y1="532" y2="532"/><text fill="#000000" font-family="sans-serif" font-size="11" lengthAdjust="spacingAndGlyphs" textLength="108" x="160" y="546.2104">allowlogin(account)</text><!--class AccountData--><rect fill="#FEFECE" filter="url(#f5vre47yrspc)" height="99.2188" id="AccountData" style="stroke: #A80036; stroke-width: 1.5;" width="164" x="77" y="613"/><ellipse cx="114.95" cy="629" fill="#ADD1B2" rx="11" ry="11" style="stroke: #A80036; stroke-width: 1.0;"/><path d="M117.9188,634.6406 Q117.3406,634.9375 116.7,635.0781 Q116.0594,635.2344 115.3563,635.2344 Q112.8563,635.2344 111.5281,633.5938 Q110.2156,631.9375 110.2156,628.8125 Q110.2156,625.6875 111.5281,624.0313 Q112.8563,622.375 115.3563,622.375 Q116.0594,622.375 116.7,622.5313 Q117.3563,622.6875 117.9188,622.9844 L117.9188,625.7031 Q117.2938,625.125 116.7,624.8594 Q116.1063,624.5781 115.4813,624.5781 Q114.1375,624.5781 113.45,625.6563 Q112.7625,626.7188 112.7625,628.8125 Q112.7625,630.9063 113.45,631.9844 Q114.1375,633.0469 115.4813,633.0469 Q116.1063,633.0469 116.7,632.7813 Q117.2938,632.5 117.9188,631.9219 L117.9188,634.6406 Z "/><text fill="#000000" font-family="sans-serif" font-size="12" lengthAdjust="spacingAndGlyphs" textLength="81" x="134.05" y="633.1543">AccountData</text><line style="stroke: #A80036; stroke-width: 1.5;" x1="78" x2="240" y1="645" y2="645"/><text fill="#000000" font-family="sans-serif" font-size="11" lengthAdjust="spacingAndGlyphs" textLength="58" x="83" y="659.2104">username</text><text fill="#000000" font-family="sans-serif" font-size="11" lengthAdjust="spacingAndGlyphs" textLength="56" x="83" y="672.0151">password</text><text fill="#000000" font-family="sans-serif" font-size="11" lengthAdjust="spacingAndGlyphs" textLength="69" x="83" y="684.8198">isMaintainer</text><line style="stroke: #A80036; stroke-width: 1.5;" x1="78" x2="240" y1="691.4141" y2="691.4141"/><text fill="#000000" font-family="sans-serif" font-size="11" lengthAdjust="spacingAndGlyphs" textLength="152" x="83" y="705.6245">verify(account information)</text><!--link Security to LoginForm--><path d="M271.3257,247.4342 C282.4795,262.306 294.6406,278.5208 306.2305,293.9741 " fill="none" id="Security-LoginForm" style="stroke: #A80036; stroke-width: 1.0;"/><polygon fill="none" points="265.6448,251.5264,259.2448,231.3264,276.8448,243.1264,265.6448,251.5264" style="stroke: #A80036; stroke-width: 1.0;"/><!--link ISecurity to Security--><path d="M229,108.3815 C229,122.6272 229,137.4765 229,150.5924 " fill="none" id="ISecurity-Security" style="stroke: #A80036; stroke-width: 1.0;"/><polygon fill="none" points="222.0001,108.2141,229,88.214,236.0001,108.214,222.0001,108.2141" style="stroke: #A80036; stroke-width: 1.0;"/><!--link AccountDBManager to LoginController--><path d="M140.2138,416.9189 C158.3518,441.8587 179.2376,470.5768 194.6437,491.7601 " fill="none" id="AccountDBManager-LoginController" style="stroke: #A80036; stroke-width: 1.0;"/><polygon fill="none" points="134.2992,420.6876,128.1968,400.3957,145.6215,412.4532,134.2992,420.6876" style="stroke: #A80036; stroke-width: 1.0;"/><!--link LoginForm to LoginController--><path d="M296.9754,432.0314 C278.5174,452.9112 259.1768,474.7894 244.1393,491.7999 " fill="none" id="LoginForm-LoginController" style="stroke: #A80036; stroke-width: 1.0;"/><text fill="#000000" font-family="sans-serif" font-size="13" lengthAdjust="spacingAndGlyphs" textLength="23" x="266.8363" y="451.6565">0..*</text><text fill="#000000" font-family="sans-serif" font-size="13" lengthAdjust="spacingAndGlyphs" textLength="8" x="240.9118" y="481.0219">1</text><!--link LoginController to AccountData--><path d="M204.2717,553.2236 C197.0355,570.6901 187.801,592.9804 179.5618,612.868 " fill="none" id="LoginController-AccountData" style="stroke: #A80036; stroke-width: 1.0;"/><text fill="#000000" font-family="sans-serif" font-size="13" lengthAdjust="spacingAndGlyphs" textLength="8" x="192.9783" y="572.8481">1</text><text fill="#000000" font-family="sans-serif" font-size="13" lengthAdjust="spacingAndGlyphs" textLength="8" x="173.8908" y="601.8947">1</text><!--link Security to Account--><path d="M338.3477,191 C348.2918,191 358.2359,191 368.18,191 " fill="none" id="Security-Account" style="stroke: #A80036; stroke-width: 1.0;"/><polygon fill="#A80036" points="373.3802,191,364.3802,187,368.3802,191,364.3802,195,373.3802,191" style="stroke: #A80036; stroke-width: 1.0;"/><!--link Security to AccountDBManager--><path d="M198.9897,231.3264 C177.7087,259.9227 149.3642,298.0106 128.6362,325.8639 " fill="none" id="Security-AccountDBManager" style="stroke: #A80036; stroke-width: 1.0;"/><text fill="#000000" font-family="sans-serif" font-size="13" lengthAdjust="spacingAndGlyphs" textLength="8" x="185.7819" y="250.7616">1</text><text fill="#000000" font-family="sans-serif" font-size="13" lengthAdjust="spacingAndGlyphs" textLength="8" x="124.8464" y="315.0266">1</text><!--link AccountDBManager to AccountData--><path d="M107.5682,400.1872 C114.4064,438.5281 125.5575,500.0181 136,553 C139.5366,570.9434 143.5827,590.499 147.2852,608.054 " fill="none" id="AccountDBManager-AccountData" style="stroke: #A80036; stroke-width: 1.0;"/><polygon fill="#A80036" points="148.3197,612.9494,150.3723,603.3168,147.2859,608.0575,142.5452,604.971,148.3197,612.9494" style="stroke: #A80036; stroke-width: 1.0;"/><!--
@startuml
class Account {
  username
  password
  create()
}

class LoginForm extends Security {
   usernamefield
   passwordfield
   start logging in()
   prompt for authentication information()
   enter(authentication information)
   checkempty(usernamefield,passwordfield)
   initate login(account)
}
interface ISecurity <<interface>> {
   createAccount(username,password)
   send data for encapsulate()
}
class Security <<subsystem proxy>> extends ISecurity {
   createAccount(username,password)
   send data for encapsulate()
}
class AccountDBManager {
   getConnection()
   send account to verify(account)
}
class LoginController extends AccountDBManager {
    allowlogin(account)
}

class AccountData {
    username
    password
    isMaintainer
    verify(account information)
}

LoginForm "0..*" - - "1" LoginController
LoginController "1" - - "1" AccountData
Security -> Account
Security "1" - - "1" AccountDBManager
AccountDBManager -> AccountData

@enduml

PlantUML version 1.2017.15(Mon Jul 03 16:45:34 UTC 2017)
(GPL source distribution)
Java Runtime: OpenJDK Runtime Environment
JVM: OpenJDK 64-Bit Server VM
Java Version: 1.8.0_265-b01
Operating System: Linux
OS Version: 5.4.0-1031-azure
Default Encoding: UTF-8
Language: en
Country: null
--></g></svg>