<?xml version="1.0" encoding="UTF-8" standalone="no"?><svg xmlns="http://www.w3.org/2000/svg" xmlns:xlink="http://www.w3.org/1999/xlink" contentScriptType="application/ecmascript" contentStyleType="text/css" height="390px" preserveAspectRatio="none" style="width:186px;height:390px;" version="1.1" viewBox="0 0 186 390" width="186px" zoomAndPan="magnify"><defs><filter height="300%" id="fte7fh8dfv2sb" width="300%" x="-1" y="-1"><feGaussianBlur result="blurOut" stdDeviation="2.0"/><feColorMatrix in="blurOut" result="blurOut2" type="matrix" values="0 0 0 0 0 0 0 0 0 0 0 0 0 0 0 0 0 0 .4 0"/><feOffset dx="4.0" dy="4.0" in="blurOut2" result="blurOut3"/><feBlend in="SourceGraphic" in2="blurOut3" mode="normal"/></filter></defs><g><!--class RegistrationForm--><rect fill="#FEFECE" filter="url(#fte7fh8dfv2sb)" height="92.3516" id="RegistrationForm" style="stroke: #A80036; stroke-width: 1.5;" width="159" x="11" y="8"/><ellipse cx="35" cy="26.9688" fill="#ADD1B2" rx="11" ry="11" style="stroke: #A80036; stroke-width: 1.0;"/><path d="M37.9688,32.6094 Q37.3906,32.9063 36.75,33.0469 Q36.1094,33.2031 35.4063,33.2031 Q32.9063,33.2031 31.5781,31.5625 Q30.2656,29.9063 30.2656,26.7813 Q30.2656,23.6563 31.5781,22 Q32.9063,20.3438 35.4063,20.3438 Q36.1094,20.3438 36.75,20.5 Q37.4063,20.6563 37.9688,20.9531 L37.9688,23.6719 Q37.3438,23.0938 36.75,22.8281 Q36.1563,22.5469 35.5313,22.5469 Q34.1875,22.5469 33.5,23.625 Q32.8125,24.6875 32.8125,26.7813 Q32.8125,28.875 33.5,29.9531 Q34.1875,31.0156 35.5313,31.0156 Q36.1563,31.0156 36.75,30.75 Q37.3438,30.4688 37.9688,29.8906 L37.9688,32.6094 Z "/><text fill="#000000" font-family="sans-serif" font-size="12" font-style="italic" lengthAdjust="spacingAndGlyphs" textLength="74" x="67.5" y="24.1387">«boundary»</text><text fill="#000000" font-family="sans-serif" font-size="12" lengthAdjust="spacingAndGlyphs" textLength="107" x="51" y="38.1074">RegistrationForm</text><line style="stroke: #A80036; stroke-width: 1.5;" x1="12" x2="169" y1="45.9375" y2="45.9375"/><line style="stroke: #A80036; stroke-width: 1.5;" x1="12" x2="169" y1="53.9375" y2="53.9375"/><text fill="#000000" font-family="sans-serif" font-size="11" lengthAdjust="spacingAndGlyphs" textLength="101" x="17" y="68.1479">request register()</text><text fill="#000000" font-family="sans-serif" font-size="11" lengthAdjust="spacingAndGlyphs" textLength="147" x="17" y="80.9526">prompt registration field()</text><text fill="#000000" font-family="sans-serif" font-size="11" lengthAdjust="spacingAndGlyphs" textLength="81" x="17" y="93.7573">register(input)</text><!--class RegistrationController--><rect fill="#FEFECE" filter="url(#fte7fh8dfv2sb)" height="79.5469" id="RegistrationController" style="stroke: #A80036; stroke-width: 1.5;" width="169" x="6" y="160"/><ellipse cx="21" cy="178.9688" fill="#ADD1B2" rx="11" ry="11" style="stroke: #A80036; stroke-width: 1.0;"/><path d="M23.9688,184.6094 Q23.3906,184.9063 22.75,185.0469 Q22.1094,185.2031 21.4063,185.2031 Q18.9063,185.2031 17.5781,183.5625 Q16.2656,181.9063 16.2656,178.7813 Q16.2656,175.6563 17.5781,174 Q18.9063,172.3438 21.4063,172.3438 Q22.1094,172.3438 22.75,172.5 Q23.4063,172.6563 23.9688,172.9531 L23.9688,175.6719 Q23.3438,175.0938 22.75,174.8281 Q22.1563,174.5469 21.5313,174.5469 Q20.1875,174.5469 19.5,175.625 Q18.8125,176.6875 18.8125,178.7813 Q18.8125,180.875 19.5,181.9531 Q20.1875,183.0156 21.5313,183.0156 Q22.1563,183.0156 22.75,182.75 Q23.3438,182.4688 23.9688,181.8906 L23.9688,184.6094 Z "/><text fill="#000000" font-family="sans-serif" font-size="12" font-style="italic" lengthAdjust="spacingAndGlyphs" textLength="58" x="74.5" y="176.1387">«control»</text><text fill="#000000" font-family="sans-serif" font-size="12" lengthAdjust="spacingAndGlyphs" textLength="137" x="35" y="190.1074">RegistrationController</text><line style="stroke: #A80036; stroke-width: 1.5;" x1="7" x2="174" y1="197.9375" y2="197.9375"/><line style="stroke: #A80036; stroke-width: 1.5;" x1="7" x2="174" y1="205.9375" y2="205.9375"/><text fill="#000000" font-family="sans-serif" font-size="11" lengthAdjust="spacingAndGlyphs" textLength="150" x="12" y="220.1479">request input verification()</text><text fill="#000000" font-family="sans-serif" font-size="11" lengthAdjust="spacingAndGlyphs" textLength="146" x="12" y="232.9526">return verification result()</text><!--class Database--><rect fill="#FEFECE" filter="url(#fte7fh8dfv2sb)" height="79.5469" id="Database" style="stroke: #A80036; stroke-width: 1.5;" width="116" x="32.5" y="300"/><ellipse cx="57.85" cy="318.9688" fill="#ADD1B2" rx="11" ry="11" style="stroke: #A80036; stroke-width: 1.0;"/><path d="M60.8188,324.6094 Q60.2406,324.9063 59.6,325.0469 Q58.9594,325.2031 58.2563,325.2031 Q55.7563,325.2031 54.4281,323.5625 Q53.1156,321.9063 53.1156,318.7813 Q53.1156,315.6563 54.4281,314 Q55.7563,312.3438 58.2563,312.3438 Q58.9594,312.3438 59.6,312.5 Q60.2563,312.6563 60.8188,312.9531 L60.8188,315.6719 Q60.1938,315.0938 59.6,314.8281 Q59.0063,314.5469 58.3813,314.5469 Q57.0375,314.5469 56.35,315.625 Q55.6625,316.6875 55.6625,318.7813 Q55.6625,320.875 56.35,321.9531 Q57.0375,323.0156 58.3813,323.0156 Q59.0063,323.0156 59.6,322.75 Q60.1938,322.4688 60.8188,321.8906 L60.8188,324.6094 Z "/><text fill="#000000" font-family="sans-serif" font-size="12" font-style="italic" lengthAdjust="spacingAndGlyphs" textLength="50" x="79.65" y="316.1387">«entity»</text><text fill="#000000" font-family="sans-serif" font-size="12" lengthAdjust="spacingAndGlyphs" textLength="61" x="74.15" y="330.1074">Database</text><line style="stroke: #A80036; stroke-width: 1.5;" x1="33.5" x2="147.5" y1="337.9375" y2="337.9375"/><line style="stroke: #A80036; stroke-width: 1.5;" x1="33.5" x2="147.5" y1="345.9375" y2="345.9375"/><text fill="#000000" font-family="sans-serif" font-size="11" lengthAdjust="spacingAndGlyphs" textLength="71" x="38.5" y="360.1479">verify input()</text><text fill="#000000" font-family="sans-serif" font-size="11" lengthAdjust="spacingAndGlyphs" textLength="104" x="38.5" y="372.9526">add new account()</text><!--link RegistrationForm to RegistrationController--><path d="M90.5,100.1953 C90.5,119.2429 90.5,141.1178 90.5,159.5247 " fill="none" id="RegistrationForm-RegistrationController" style="stroke: #A80036; stroke-width: 1.0;"/><text fill="#000000" font-family="sans-serif" font-size="13" lengthAdjust="spacingAndGlyphs" textLength="23" x="65.7391" y="120.4675">0..*</text><text fill="#000000" font-family="sans-serif" font-size="13" lengthAdjust="spacingAndGlyphs" textLength="8" x="81.8625" y="148.9922">1</text><!--link RegistrationController to Database--><path d="M90.5,240.1184 C90.5,258.864 90.5,281.1294 90.5,299.8758 " fill="none" id="RegistrationController-Database" style="stroke: #A80036; stroke-width: 1.0;"/><text fill="#000000" font-family="sans-serif" font-size="13" lengthAdjust="spacingAndGlyphs" textLength="8" x="81.8875" y="259.5217">1</text><text fill="#000000" font-family="sans-serif" font-size="13" lengthAdjust="spacingAndGlyphs" textLength="8" x="81.8125" y="288.8076">1</text><!--
@startuml
class RegistrationForm <<boundary>> {
   request register()
   prompt registration field()
   register(input)
}

class RegistrationController <<control>> {
   request input verification()
   return verification result()
}

class Database <<entity>> {
   verify input()
   add new account()
}

RegistrationForm "0..*" - - "1" RegistrationController
RegistrationController "1" - - "1" Database

@enduml

PlantUML version 1.2017.15(Mon Jul 03 16:45:34 UTC 2017)
(GPL source distribution)
Java Runtime: OpenJDK Runtime Environment
JVM: OpenJDK 64-Bit Server VM
Java Version: 1.8.0_265-b01
Operating System: Linux
OS Version: 5.4.0-1026-azure
Default Encoding: UTF-8
Language: en
Country: null
--></g></svg>