<?xml version="1.0" encoding="UTF-8" standalone="no"?><svg xmlns="http://www.w3.org/2000/svg" xmlns:xlink="http://www.w3.org/1999/xlink" contentScriptType="application/ecmascript" contentStyleType="text/css" height="407px" preserveAspectRatio="none" style="width:486px;height:407px;" version="1.1" viewBox="0 0 486 407" width="486px" zoomAndPan="magnify"><defs><filter height="300%" id="fz25zyd7h189y" width="300%" x="-1" y="-1"><feGaussianBlur result="blurOut" stdDeviation="2.0"/><feColorMatrix in="blurOut" result="blurOut2" type="matrix" values="0 0 0 0 0 0 0 0 0 0 0 0 0 0 0 0 0 0 .4 0"/><feOffset dx="4.0" dy="4.0" in="blurOut2" result="blurOut3"/><feBlend in="SourceGraphic" in2="blurOut3" mode="normal"/></filter></defs><g><rect fill="#FFFFFF" filter="url(#fz25zyd7h189y)" height="30" style="stroke: #A80036; stroke-width: 1.0;" width="10" x="45" y="347.2266"/><rect fill="#FFFFFF" filter="url(#fz25zyd7h189y)" height="261.0625" style="stroke: #A80036; stroke-width: 1.0;" width="10" x="147" y="125.2969"/><rect fill="#FFFFFF" filter="url(#fz25zyd7h189y)" height="226.9297" style="stroke: #A80036; stroke-width: 1.0;" width="10" x="152" y="159.4297"/><rect fill="#FFFFFF" filter="url(#fz25zyd7h189y)" height="110.3984" style="stroke: #A80036; stroke-width: 1.0;" width="10" x="157" y="275.9609"/><rect fill="#FFFFFF" filter="url(#fz25zyd7h189y)" height="64.1328" style="stroke: #A80036; stroke-width: 1.0;" width="10" x="162" y="313.0938"/><rect fill="#FFFFFF" filter="url(#fz25zyd7h189y)" height="197.7969" style="stroke: #A80036; stroke-width: 1.0;" width="10" x="317" y="188.5625"/><rect fill="#FFFFFF" filter="url(#fz25zyd7h189y)" height="130.3984" style="stroke: #A80036; stroke-width: 1.0;" width="10" x="322" y="246.8281"/><rect fill="#FFFFFF" filter="url(#fz25zyd7h189y)" height="159.5313" style="stroke: #A80036; stroke-width: 1.0;" width="10" x="456" y="217.6953"/><line style="stroke: #A80036; stroke-width: 1.0; stroke-dasharray: 5.0,5.0;" x1="50" x2="50" y1="86.2969" y2="395.3594"/><line style="stroke: #A80036; stroke-width: 1.0; stroke-dasharray: 5.0,5.0;" x1="152" x2="152" y1="86.2969" y2="395.3594"/><line style="stroke: #A80036; stroke-width: 1.0; stroke-dasharray: 5.0,5.0;" x1="322" x2="322" y1="86.2969" y2="395.3594"/><line style="stroke: #A80036; stroke-width: 1.0; stroke-dasharray: 5.0,5.0;" x1="460.5" x2="460.5" y1="86.2969" y2="395.3594"/><text fill="#000000" font-family="sans-serif" font-size="14" lengthAdjust="spacingAndGlyphs" textLength="78" x="8" y="82.9951">Contributor</text><ellipse cx="50" cy="13" fill="#FEFECE" filter="url(#fz25zyd7h189y)" rx="8" ry="8" style="stroke: #A80036; stroke-width: 2.0;"/><path d="M50,21 L50,48 M37,29 L63,29 M50,48 L37,63 M50,48 L63,63 " fill="#FEFECE" filter="url(#fz25zyd7h189y)" style="stroke: #A80036; stroke-width: 2.0;"/><text fill="#000000" font-family="sans-serif" font-size="14" lengthAdjust="spacingAndGlyphs" textLength="64" x="117" y="82.9951">loginform</text><path d="M131.5,42 L131.5,66 M131.5,54 L148.5,54 " fill="#FEFECE" filter="url(#fz25zyd7h189y)" style="stroke: #A80036; stroke-width: 2.0;"/><ellipse cx="160.5" cy="54" fill="#FEFECE" filter="url(#fz25zyd7h189y)" rx="12" ry="12" style="stroke: #A80036; stroke-width: 2.0;"/><text fill="#000000" font-family="sans-serif" font-size="14" lengthAdjust="spacingAndGlyphs" textLength="98" x="270" y="82.9951">logincontroller</text><ellipse cx="322" cy="54" fill="#FEFECE" filter="url(#fz25zyd7h189y)" rx="12" ry="12" style="stroke: #A80036; stroke-width: 2.0;"/><polygon fill="#A80036" points="318,42,324,37,322,42,324,47,318,42" style="stroke: #A80036; stroke-width: 1.0;"/><text fill="#000000" font-family="sans-serif" font-size="14" lengthAdjust="spacingAndGlyphs" textLength="33" x="441.5" y="82.9951">login</text><ellipse cx="461" cy="54" fill="#FEFECE" filter="url(#fz25zyd7h189y)" rx="12" ry="12" style="stroke: #A80036; stroke-width: 2.0;"/><line style="stroke: #A80036; stroke-width: 2.0;" x1="449" x2="473" y1="68" y2="68"/><rect fill="#FFFFFF" filter="url(#fz25zyd7h189y)" height="30" style="stroke: #A80036; stroke-width: 1.0;" width="10" x="45" y="347.2266"/><rect fill="#FFFFFF" filter="url(#fz25zyd7h189y)" height="261.0625" style="stroke: #A80036; stroke-width: 1.0;" width="10" x="147" y="125.2969"/><rect fill="#FFFFFF" filter="url(#fz25zyd7h189y)" height="226.9297" style="stroke: #A80036; stroke-width: 1.0;" width="10" x="152" y="159.4297"/><rect fill="#FFFFFF" filter="url(#fz25zyd7h189y)" height="110.3984" style="stroke: #A80036; stroke-width: 1.0;" width="10" x="157" y="275.9609"/><rect fill="#FFFFFF" filter="url(#fz25zyd7h189y)" height="64.1328" style="stroke: #A80036; stroke-width: 1.0;" width="10" x="162" y="313.0938"/><rect fill="#FFFFFF" filter="url(#fz25zyd7h189y)" height="197.7969" style="stroke: #A80036; stroke-width: 1.0;" width="10" x="317" y="188.5625"/><rect fill="#FFFFFF" filter="url(#fz25zyd7h189y)" height="130.3984" style="stroke: #A80036; stroke-width: 1.0;" width="10" x="322" y="246.8281"/><rect fill="#FFFFFF" filter="url(#fz25zyd7h189y)" height="159.5313" style="stroke: #A80036; stroke-width: 1.0;" width="10" x="456" y="217.6953"/><line style="stroke: #A80036; stroke-width: 1.0;" x1="152" x2="199" y1="112.4297" y2="112.4297"/><line style="stroke: #A80036; stroke-width: 1.0;" x1="199" x2="199" y1="112.4297" y2="125.4297"/><line style="stroke: #A80036; stroke-width: 1.0;" x1="158" x2="199" y1="125.4297" y2="125.4297"/><polygon fill="#A80036" points="168,121.4297,158,125.4297,168,129.4297,164,125.4297" style="stroke: #A80036; stroke-width: 1.0;"/><text fill="#000000" font-family="sans-serif" font-size="13" lengthAdjust="spacingAndGlyphs" textLength="24" x="164" y="107.3638">1: //</text><text fill="#000000" font-family="sans-serif" font-size="13" lengthAdjust="spacingAndGlyphs" textLength="98" x="192" y="107.3638">DisplayRequest</text><polygon fill="#A80036" points="140,155.4297,150,159.4297,140,163.4297,144,159.4297" style="stroke: #A80036; stroke-width: 1.0;"/><line style="stroke: #A80036; stroke-width: 1.0;" x1="50" x2="146" y1="159.4297" y2="159.4297"/><text fill="#000000" font-family="sans-serif" font-size="13" lengthAdjust="spacingAndGlyphs" textLength="24" x="57" y="154.4966">2: //</text><text fill="#000000" font-family="sans-serif" font-size="13" lengthAdjust="spacingAndGlyphs" textLength="34" x="85" y="154.4966">Login</text><polygon fill="#A80036" points="305,184.5625,315,188.5625,305,192.5625,309,188.5625" style="stroke: #A80036; stroke-width: 1.0;"/><line style="stroke: #A80036; stroke-width: 1.0;" x1="162" x2="311" y1="188.5625" y2="188.5625"/><text fill="#000000" font-family="sans-serif" font-size="13" lengthAdjust="spacingAndGlyphs" textLength="24" x="169" y="183.6294">3: //</text><text fill="#000000" font-family="sans-serif" font-size="13" lengthAdjust="spacingAndGlyphs" textLength="108" x="197" y="183.6294">SendAccountInfo</text><polygon fill="#A80036" points="444,213.6953,454,217.6953,444,221.6953,448,217.6953" style="stroke: #A80036; stroke-width: 1.0;"/><line style="stroke: #A80036; stroke-width: 1.0;" x1="327" x2="450" y1="217.6953" y2="217.6953"/><text fill="#000000" font-family="sans-serif" font-size="13" lengthAdjust="spacingAndGlyphs" textLength="24" x="334" y="212.7622">4: //</text><text fill="#000000" font-family="sans-serif" font-size="13" lengthAdjust="spacingAndGlyphs" textLength="36" x="362" y="212.7622">Verify</text><polygon fill="#A80036" points="343,242.8281,333,246.8281,343,250.8281,339,246.8281" style="stroke: #A80036; stroke-width: 1.0;"/><line style="stroke: #A80036; stroke-width: 1.0;" x1="337" x2="455" y1="246.8281" y2="246.8281"/><text fill="#000000" font-family="sans-serif" font-size="13" lengthAdjust="spacingAndGlyphs" textLength="24" x="349" y="241.895">5: //</text><text fill="#000000" font-family="sans-serif" font-size="13" lengthAdjust="spacingAndGlyphs" textLength="77" x="377" y="241.895">isValid(true)</text><polygon fill="#A80036" points="178,271.9609,168,275.9609,178,279.9609,174,275.9609" style="stroke: #A80036; stroke-width: 1.0;"/><line style="stroke: #A80036; stroke-width: 1.0;" x1="172" x2="321" y1="275.9609" y2="275.9609"/><text fill="#000000" font-family="sans-serif" font-size="13" lengthAdjust="spacingAndGlyphs" textLength="24" x="184" y="271.0278">6: //</text><text fill="#000000" font-family="sans-serif" font-size="13" lengthAdjust="spacingAndGlyphs" textLength="76" x="212" y="271.0278">allowAccess</text><line style="stroke: #A80036; stroke-width: 1.0;" x1="167" x2="214" y1="300.2266" y2="300.2266"/><line style="stroke: #A80036; stroke-width: 1.0;" x1="214" x2="214" y1="300.2266" y2="313.2266"/><line style="stroke: #A80036; stroke-width: 1.0;" x1="173" x2="214" y1="313.2266" y2="313.2266"/><polygon fill="#A80036" points="183,309.2266,173,313.2266,183,317.2266,179,313.2266" style="stroke: #A80036; stroke-width: 1.0;"/><text fill="#000000" font-family="sans-serif" font-size="13" lengthAdjust="spacingAndGlyphs" textLength="24" x="179" y="295.1606">7: //</text><text fill="#000000" font-family="sans-serif" font-size="13" lengthAdjust="spacingAndGlyphs" textLength="91" x="207" y="295.1606">DisplayAccess</text><polygon fill="#A80036" points="66,343.2266,56,347.2266,66,351.2266,62,347.2266" style="stroke: #A80036; stroke-width: 1.0;"/><line style="stroke: #A80036; stroke-width: 1.0;" x1="60" x2="161" y1="347.2266" y2="347.2266"/><text fill="#000000" font-family="sans-serif" font-size="13" lengthAdjust="spacingAndGlyphs" textLength="24" x="72" y="342.2935">8: //</text><text fill="#000000" font-family="sans-serif" font-size="13" lengthAdjust="spacingAndGlyphs" textLength="45" x="100" y="342.2935">Access</text><!--
@startuml
autonumber "#: //"
autoactivate on
hide footbox

actor Contributor
boundary loginform
control logincontroller
entity login

loginform -> loginform : DisplayRequest
Contributor -> loginform : Login
loginform -> logincontroller : SendAccountInfo
logincontroller -> login : Verify
login -> logincontroller : isValid(true)
logincontroller -> loginform : allowAccess
loginform -> loginform : DisplayAccess
loginform -> Contributor : Access
deactivate login
deactivate logincontroller
deactivate loginform
deactivate Contributor

@enduml

PlantUML version 1.2017.15(Mon Jul 03 16:45:34 UTC 2017)
(GPL source distribution)
Java Runtime: OpenJDK Runtime Environment
JVM: OpenJDK 64-Bit Server VM
Java Version: 1.8.0_265-b01
Operating System: Linux
OS Version: 5.4.0-1026-azure
Default Encoding: UTF-8
Language: en
Country: null
--></g></svg>