<?xml version="1.0" encoding="UTF-8" standalone="no"?><svg xmlns="http://www.w3.org/2000/svg" xmlns:xlink="http://www.w3.org/1999/xlink" contentScriptType="application/ecmascript" contentStyleType="text/css" height="238px" preserveAspectRatio="none" style="width:327px;height:238px;" version="1.1" viewBox="0 0 327 238" width="327px" zoomAndPan="magnify"><defs><filter height="300%" id="f1rlnkbm65trkp" width="300%" x="-1" y="-1"><feGaussianBlur result="blurOut" stdDeviation="2.0"/><feColorMatrix in="blurOut" result="blurOut2" type="matrix" values="0 0 0 0 0 0 0 0 0 0 0 0 0 0 0 0 0 0 .4 0"/><feOffset dx="4.0" dy="4.0" in="blurOut2" result="blurOut3"/><feBlend in="SourceGraphic" in2="blurOut3" mode="normal"/></filter></defs><g><!--class DFSConnector--><rect fill="#FEFECE" filter="url(#f1rlnkbm65trkp)" height="79.5469" id="DFSConnector" style="stroke: #A80036; stroke-width: 1.5;" width="138" x="6" y="148"/><ellipse cx="28.65" cy="166.9688" fill="#ADD1B2" rx="11" ry="11" style="stroke: #A80036; stroke-width: 1.0;"/><path d="M31.6188,172.6094 Q31.0406,172.9063 30.4,173.0469 Q29.7594,173.2031 29.0563,173.2031 Q26.5563,173.2031 25.2281,171.5625 Q23.9156,169.9063 23.9156,166.7813 Q23.9156,163.6563 25.2281,162 Q26.5563,160.3438 29.0563,160.3438 Q29.7594,160.3438 30.4,160.5 Q31.0563,160.6563 31.6188,160.9531 L31.6188,163.6719 Q30.9938,163.0938 30.4,162.8281 Q29.8063,162.5469 29.1813,162.5469 Q27.8375,162.5469 27.15,163.625 Q26.4625,164.6875 26.4625,166.7813 Q26.4625,168.875 27.15,169.9531 Q27.8375,171.0156 29.1813,171.0156 Q29.8063,171.0156 30.4,170.75 Q30.9938,170.4688 31.6188,169.8906 L31.6188,172.6094 Z "/><text fill="#000000" font-family="sans-serif" font-size="12" font-style="italic" lengthAdjust="spacingAndGlyphs" textLength="74" x="51.85" y="164.1387">«boundary»</text><text fill="#000000" font-family="sans-serif" font-size="12" lengthAdjust="spacingAndGlyphs" textLength="89" x="44.35" y="178.1074">DFSConnector</text><line style="stroke: #A80036; stroke-width: 1.5;" x1="7" x2="143" y1="185.9375" y2="185.9375"/><line style="stroke: #A80036; stroke-width: 1.5;" x1="7" x2="143" y1="193.9375" y2="193.9375"/><text fill="#000000" font-family="sans-serif" font-size="11" lengthAdjust="spacingAndGlyphs" textLength="96" x="12" y="208.1479">//update to DFS()</text><text fill="#000000" font-family="sans-serif" font-size="11" lengthAdjust="spacingAndGlyphs" textLength="126" x="12" y="220.9526">//update to Metadata()</text><!--class UpdateControl--><rect fill="#FEFECE" filter="url(#f1rlnkbm65trkp)" height="79.5469" id="UpdateControl" style="stroke: #A80036; stroke-width: 1.5;" width="150" x="86" y="8"/><ellipse cx="113.15" cy="26.9688" fill="#ADD1B2" rx="11" ry="11" style="stroke: #A80036; stroke-width: 1.0;"/><path d="M116.1188,32.6094 Q115.5406,32.9063 114.9,33.0469 Q114.2594,33.2031 113.5563,33.2031 Q111.0563,33.2031 109.7281,31.5625 Q108.4156,29.9063 108.4156,26.7813 Q108.4156,23.6563 109.7281,22 Q111.0563,20.3438 113.5563,20.3438 Q114.2594,20.3438 114.9,20.5 Q115.5563,20.6563 116.1188,20.9531 L116.1188,23.6719 Q115.4938,23.0938 114.9,22.8281 Q114.3063,22.5469 113.6813,22.5469 Q112.3375,22.5469 111.65,23.625 Q110.9625,24.6875 110.9625,26.7813 Q110.9625,28.875 111.65,29.9531 Q112.3375,31.0156 113.6813,31.0156 Q114.3063,31.0156 114.9,30.75 Q115.4938,30.4688 116.1188,29.8906 L116.1188,32.6094 Z "/><text fill="#000000" font-family="sans-serif" font-size="12" font-style="italic" lengthAdjust="spacingAndGlyphs" textLength="58" x="146.35" y="24.1387">«control»</text><text fill="#000000" font-family="sans-serif" font-size="12" lengthAdjust="spacingAndGlyphs" textLength="91" x="129.85" y="38.1074">UpdateControl</text><line style="stroke: #A80036; stroke-width: 1.5;" x1="87" x2="235" y1="45.9375" y2="45.9375"/><line style="stroke: #A80036; stroke-width: 1.5;" x1="87" x2="235" y1="53.9375" y2="53.9375"/><text fill="#000000" font-family="sans-serif" font-size="11" lengthAdjust="spacingAndGlyphs" textLength="138" x="92" y="68.1479">//check against conflict()</text><text fill="#000000" font-family="sans-serif" font-size="11" lengthAdjust="spacingAndGlyphs" textLength="106" x="92" y="80.9526">//update package()</text><!--class MetadataSystem--><rect fill="#FEFECE" filter="url(#f1rlnkbm65trkp)" height="66.7422" id="MetadataSystem" style="stroke: #A80036; stroke-width: 1.5;" width="137" x="179.5" y="154.5"/><ellipse cx="194.5" cy="173.4688" fill="#ADD1B2" rx="11" ry="11" style="stroke: #A80036; stroke-width: 1.0;"/><path d="M197.4688,179.1094 Q196.8906,179.4063 196.25,179.5469 Q195.6094,179.7031 194.9063,179.7031 Q192.4063,179.7031 191.0781,178.0625 Q189.7656,176.4063 189.7656,173.2813 Q189.7656,170.1563 191.0781,168.5 Q192.4063,166.8438 194.9063,166.8438 Q195.6094,166.8438 196.25,167 Q196.9063,167.1563 197.4688,167.4531 L197.4688,170.1719 Q196.8438,169.5938 196.25,169.3281 Q195.6563,169.0469 195.0313,169.0469 Q193.6875,169.0469 193,170.125 Q192.3125,171.1875 192.3125,173.2813 Q192.3125,175.375 193,176.4531 Q193.6875,177.5156 195.0313,177.5156 Q195.6563,177.5156 196.25,177.25 Q196.8438,176.9688 197.4688,176.3906 L197.4688,179.1094 Z "/><text fill="#000000" font-family="sans-serif" font-size="12" font-style="italic" lengthAdjust="spacingAndGlyphs" textLength="50" x="236" y="170.6387">«entity»</text><text fill="#000000" font-family="sans-serif" font-size="12" lengthAdjust="spacingAndGlyphs" textLength="105" x="208.5" y="184.6074">MetadataSystem</text><line style="stroke: #A80036; stroke-width: 1.5;" x1="180.5" x2="315.5" y1="192.4375" y2="192.4375"/><line style="stroke: #A80036; stroke-width: 1.5;" x1="180.5" x2="315.5" y1="200.4375" y2="200.4375"/><text fill="#000000" font-family="sans-serif" font-size="11" lengthAdjust="spacingAndGlyphs" textLength="97" x="185.5" y="214.6479">//store package()</text><!--link UpdateControl to DFSConnector--><path d="M136.3559,88.1184 C124.8407,106.864 111.1634,129.1294 99.6477,147.8758 " fill="none" id="UpdateControl-DFSConnector" style="stroke: #A80036; stroke-width: 1.0;"/><text fill="#000000" font-family="sans-serif" font-size="13" lengthAdjust="spacingAndGlyphs" textLength="8" x="123.9698" y="107.5217">1</text><text fill="#000000" font-family="sans-serif" font-size="13" lengthAdjust="spacingAndGlyphs" textLength="8" x="95.1965" y="136.8076">1</text><!--link UpdateControl to MetadataSystem--><path d="M185.9307,88.1184 C198.9857,109.1264 214.7878,134.555 227.1803,154.4971 " fill="none" id="UpdateControl-MetadataSystem" style="stroke: #A80036; stroke-width: 1.0;"/><text fill="#000000" font-family="sans-serif" font-size="13" lengthAdjust="spacingAndGlyphs" textLength="8" x="181.1357" y="107.5217">1</text><text fill="#000000" font-family="sans-serif" font-size="13" lengthAdjust="spacingAndGlyphs" textLength="8" x="214.2939" y="143.53">1</text><!--
@startuml
class DFSConnector <<boundary>> {
   //update to DFS()
   //update to Metadata()
}

class UpdateControl <<control>> {
   //check against conflict()
   //update package()
}

class MetadataSystem <<entity>> {
   //store package()
}

UpdateControl "1" - - "1" DFSConnector
UpdateControl "1" - - "1" MetadataSystem

@enduml

PlantUML version 1.2017.15(Mon Jul 03 16:45:34 UTC 2017)
(GPL source distribution)
Java Runtime: OpenJDK Runtime Environment
JVM: OpenJDK 64-Bit Server VM
Java Version: 1.8.0_265-b01
Operating System: Linux
OS Version: 5.4.0-1026-azure
Default Encoding: UTF-8
Language: en
Country: null
--></g></svg>