<?xml version="1.0" encoding="UTF-8" standalone="no"?><svg xmlns="http://www.w3.org/2000/svg" xmlns:xlink="http://www.w3.org/1999/xlink" contentScriptType="application/ecmascript" contentStyleType="text/css" height="240px" preserveAspectRatio="none" style="width:253px;height:240px;" version="1.1" viewBox="0 0 253 240" width="253px" zoomAndPan="magnify"><defs><filter height="300%" id="f12zx0b96g2q2i" width="300%" x="-1" y="-1"><feGaussianBlur result="blurOut" stdDeviation="2.0"/><feColorMatrix in="blurOut" result="blurOut2" type="matrix" values="0 0 0 0 0 0 0 0 0 0 0 0 0 0 0 0 0 0 .4 0"/><feOffset dx="4.0" dy="4.0" in="blurOut2" result="blurOut3"/><feBlend in="SourceGraphic" in2="blurOut3" mode="normal"/></filter></defs><g><!--MD5=[fee662a292a0353a69bd162820bae93b]
entity User--><ellipse cx="22" cy="17.5" fill="#FEFECE" filter="url(#f12zx0b96g2q2i)" rx="8" ry="8" style="stroke: #A80036; stroke-width: 1.5;"/><path d="M22,25.5 L22,52.5 M9,33.5 L35,33.5 M22,52.5 L9,67.5 M22,52.5 L35,67.5 " fill="none" filter="url(#f12zx0b96g2q2i)" style="stroke: #A80036; stroke-width: 1.5;"/><text fill="#000000" font-family="sans-serif" font-size="14" lengthAdjust="spacingAndGlyphs" textLength="32" x="6" y="85.9951">User</text><!--MD5=[0e386df696c8989779f0bde43ae749c6]
entity Uploader--><ellipse cx="104" cy="17.5" fill="#FEFECE" filter="url(#f12zx0b96g2q2i)" rx="8" ry="8" style="stroke: #A80036; stroke-width: 1.5;"/><path d="M104,25.5 L104,52.5 M91,33.5 L117,33.5 M104,52.5 L91,67.5 M104,52.5 L117,67.5 " fill="none" filter="url(#f12zx0b96g2q2i)" style="stroke: #A80036; stroke-width: 1.5;"/><text fill="#000000" font-family="sans-serif" font-size="14" lengthAdjust="spacingAndGlyphs" textLength="62" x="73" y="85.9951">Uploader</text><!--MD5=[b90713b5ddaea180d3429e7b1ef7c0f8]
entity Maintainer--><ellipse cx="206" cy="17.5" fill="#FEFECE" filter="url(#f12zx0b96g2q2i)" rx="8" ry="8" style="stroke: #A80036; stroke-width: 1.5;"/><path d="M206,25.5 L206,52.5 M193,33.5 L219,33.5 M206,52.5 L193,67.5 M206,52.5 L219,67.5 " fill="none" filter="url(#f12zx0b96g2q2i)" style="stroke: #A80036; stroke-width: 1.5;"/><text fill="#000000" font-family="sans-serif" font-size="14" lengthAdjust="spacingAndGlyphs" textLength="71" x="170.5" y="85.9951">Maintainer</text><!--MD5=[a74c9f7ba4e347df35943d93696ec108]
entity IPFS--><ellipse cx="22" cy="158.5" fill="#FEFECE" filter="url(#f12zx0b96g2q2i)" rx="8" ry="8" style="stroke: #A80036; stroke-width: 1.5;"/><path d="M22,166.5 L22,193.5 M9,174.5 L35,174.5 M22,193.5 L9,208.5 M22,193.5 L35,208.5 " fill="none" filter="url(#f12zx0b96g2q2i)" style="stroke: #A80036; stroke-width: 1.5;"/><text fill="#000000" font-family="sans-serif" font-size="14" lengthAdjust="spacingAndGlyphs" textLength="29" x="7.5" y="226.9951">IPFS</text><ellipse cx="108.9411" cy="189.5236" fill="#FEFECE" filter="url(#f12zx0b96g2q2i)" rx="36.9411" ry="14.5236" style="stroke: #A80036; stroke-width: 1.5;"/><text fill="#000000" font-family="sans-serif" font-size="14" lengthAdjust="spacingAndGlyphs" textLength="48" x="84.9411" y="194.1721">Upload</text><!--MD5=[fa61973df83b2f975d44f98d076680b6]
link User to Uploader--><!--MD5=[151d63c548ee8c788ac7028e04c1e799]
link Uploader to Maintainer--><!--MD5=[22a491b120aedc23d802643885793ad6]
link User to IPFS--><!--MD5=[0a8555cfc82d294909991d58d6283d44]
link IPFS to Upload--><!--MD5=[826dd16b2751d301aef1c8263b8d305a]
@startuml
actor User
actor Uploader
actor Maintainer
actor IPFS

usecase Upload

@enduml

PlantUML version 1.2020.02(Sun Mar 01 17:22:07 ICT 2020)
(GPL source distribution)
Java Runtime: OpenJDK Runtime Environment
JVM: OpenJDK 64-Bit Server VM
Java Version: 11.0.8+10-post-Debian-1
Operating System: Linux
Default Encoding: UTF-8
Language: en
Country: DK
--></g></svg>