<?xml version="1.0" encoding="UTF-8" standalone="no"?><svg xmlns="http://www.w3.org/2000/svg" xmlns:xlink="http://www.w3.org/1999/xlink" contentScriptType="application/ecmascript" contentStyleType="text/css" height="416px" preserveAspectRatio="none" style="width:288px;height:416px;" version="1.1" viewBox="0 0 288 416" width="288px" zoomAndPan="magnify"><defs><filter height="300%" id="f15ch4m5a99h09" width="300%" x="-1" y="-1"><feGaussianBlur result="blurOut" stdDeviation="2.0"/><feColorMatrix in="blurOut" result="blurOut2" type="matrix" values="0 0 0 0 0 0 0 0 0 0 0 0 0 0 0 0 0 0 .4 0"/><feOffset dx="4.0" dy="4.0" in="blurOut2" result="blurOut3"/><feBlend in="SourceGraphic" in2="blurOut3" mode="normal"/></filter></defs><g><!--class RegistrationForm--><rect fill="#FEFECE" filter="url(#f15ch4m5a99h09)" height="117.9609" id="RegistrationForm" style="stroke: #A80036; stroke-width: 1.5;" width="171" x="60.5" y="8"/><ellipse cx="89.9" cy="26.9688" fill="#ADD1B2" rx="11" ry="11" style="stroke: #A80036; stroke-width: 1.0;"/><path d="M92.8688,32.6094 Q92.2906,32.9063 91.65,33.0469 Q91.0094,33.2031 90.3063,33.2031 Q87.8063,33.2031 86.4781,31.5625 Q85.1656,29.9063 85.1656,26.7813 Q85.1656,23.6563 86.4781,22 Q87.8063,20.3438 90.3063,20.3438 Q91.0094,20.3438 91.65,20.5 Q92.3063,20.6563 92.8688,20.9531 L92.8688,23.6719 Q92.2438,23.0938 91.65,22.8281 Q91.0563,22.5469 90.4313,22.5469 Q89.0875,22.5469 88.4,23.625 Q87.7125,24.6875 87.7125,26.7813 Q87.7125,28.875 88.4,29.9531 Q89.0875,31.0156 90.4313,31.0156 Q91.0563,31.0156 91.65,30.75 Q92.2438,30.4688 92.8688,29.8906 L92.8688,32.6094 Z "/><text fill="#A80036" font-family="sans-serif" font-size="12" font-style="italic" lengthAdjust="spacingAndGlyphs" textLength="74" x="123.6" y="24.1387">«boundary»</text><text fill="#A80036" font-family="sans-serif" font-size="12" lengthAdjust="spacingAndGlyphs" textLength="107" x="107.1" y="38.1074">RegistrationForm</text><line style="stroke: #A80036; stroke-width: 1.5;" x1="61.5" x2="230.5" y1="45.9375" y2="45.9375"/><line style="stroke: #A80036; stroke-width: 1.5;" x1="61.5" x2="230.5" y1="53.9375" y2="53.9375"/><text fill="#A80036" font-family="sans-serif" font-size="11" lengthAdjust="spacingAndGlyphs" textLength="113" x="66.5" y="68.1479">// request register()</text><text fill="#A80036" font-family="sans-serif" font-size="11" lengthAdjust="spacingAndGlyphs" textLength="159" x="66.5" y="80.9526">// prompt registration field()</text><text fill="#A80036" font-family="sans-serif" font-size="11" lengthAdjust="spacingAndGlyphs" textLength="112" x="66.5" y="93.7573">// enter username()</text><text fill="#A80036" font-family="sans-serif" font-size="11" lengthAdjust="spacingAndGlyphs" textLength="110" x="66.5" y="106.562">// enter password()</text><text fill="#A80036" font-family="sans-serif" font-size="11" lengthAdjust="spacingAndGlyphs" textLength="113" x="66.5" y="119.3667">// register account()</text><!--class RegistrationController--><rect fill="#FEFECE" filter="url(#f15ch4m5a99h09)" height="79.5469" id="RegistrationController" style="stroke: #A80036; stroke-width: 1.5;" width="174" x="59" y="186"/><ellipse cx="76.25" cy="204.9688" fill="#ADD1B2" rx="11" ry="11" style="stroke: #A80036; stroke-width: 1.0;"/><path d="M79.2188,210.6094 Q78.6406,210.9063 78,211.0469 Q77.3594,211.2031 76.6563,211.2031 Q74.1563,211.2031 72.8281,209.5625 Q71.5156,207.9063 71.5156,204.7813 Q71.5156,201.6563 72.8281,200 Q74.1563,198.3438 76.6563,198.3438 Q77.3594,198.3438 78,198.5 Q78.6563,198.6563 79.2188,198.9531 L79.2188,201.6719 Q78.5938,201.0938 78,200.8281 Q77.4063,200.5469 76.7813,200.5469 Q75.4375,200.5469 74.75,201.625 Q74.0625,202.6875 74.0625,204.7813 Q74.0625,206.875 74.75,207.9531 Q75.4375,209.0156 76.7813,209.0156 Q77.4063,209.0156 78,208.75 Q78.5938,208.4688 79.2188,207.8906 L79.2188,210.6094 Z "/><text fill="#A80036" font-family="sans-serif" font-size="12" font-style="italic" lengthAdjust="spacingAndGlyphs" textLength="58" x="130.25" y="202.1387">«control»</text><text fill="#A80036" font-family="sans-serif" font-size="12" lengthAdjust="spacingAndGlyphs" textLength="137" x="90.75" y="216.1074">RegistrationController</text><line style="stroke: #A80036; stroke-width: 1.5;" x1="60" x2="232" y1="223.9375" y2="223.9375"/><line style="stroke: #A80036; stroke-width: 1.5;" x1="60" x2="232" y1="231.9375" y2="231.9375"/><text fill="#A80036" font-family="sans-serif" font-size="11" lengthAdjust="spacingAndGlyphs" textLength="162" x="65" y="246.1479">// request input verification()</text><text fill="#A80036" font-family="sans-serif" font-size="11" lengthAdjust="spacingAndGlyphs" textLength="146" x="65" y="258.9526">// setup security context()</text><!--class AccountData--><rect fill="#FEFECE" filter="url(#f15ch4m5a99h09)" height="79.5469" id="AccountData" style="stroke: #A80036; stroke-width: 1.5;" width="128" x="6" y="326"/><ellipse cx="27.75" cy="344.9688" fill="#ADD1B2" rx="11" ry="11" style="stroke: #A80036; stroke-width: 1.0;"/><path d="M30.7188,350.6094 Q30.1406,350.9063 29.5,351.0469 Q28.8594,351.2031 28.1563,351.2031 Q25.6563,351.2031 24.3281,349.5625 Q23.0156,347.9063 23.0156,344.7813 Q23.0156,341.6563 24.3281,340 Q25.6563,338.3438 28.1563,338.3438 Q28.8594,338.3438 29.5,338.5 Q30.1563,338.6563 30.7188,338.9531 L30.7188,341.6719 Q30.0938,341.0938 29.5,340.8281 Q28.9063,340.5469 28.2813,340.5469 Q26.9375,340.5469 26.25,341.625 Q25.5625,342.6875 25.5625,344.7813 Q25.5625,346.875 26.25,347.9531 Q26.9375,349.0156 28.2813,349.0156 Q28.9063,349.0156 29.5,348.75 Q30.0938,348.4688 30.7188,347.8906 L30.7188,350.6094 Z "/><text fill="#A80036" font-family="sans-serif" font-size="12" font-style="italic" lengthAdjust="spacingAndGlyphs" textLength="50" x="58.75" y="342.1387">«entity»</text><text fill="#A80036" font-family="sans-serif" font-size="12" lengthAdjust="spacingAndGlyphs" textLength="81" x="43.25" y="356.1074">AccountData</text><line style="stroke: #A80036; stroke-width: 1.5;" x1="7" x2="133" y1="363.9375" y2="363.9375"/><line style="stroke: #A80036; stroke-width: 1.5;" x1="7" x2="133" y1="371.9375" y2="371.9375"/><text fill="#A80036" font-family="sans-serif" font-size="11" lengthAdjust="spacingAndGlyphs" textLength="83" x="12" y="386.1479">// verify input()</text><text fill="#A80036" font-family="sans-serif" font-size="11" lengthAdjust="spacingAndGlyphs" textLength="116" x="12" y="398.9526">// add new account()</text><!--class ISecureUser--><rect fill="#FEFECE" filter="url(#f15ch4m5a99h09)" height="66.7422" id="ISecureUser" style="stroke: #A80036; stroke-width: 1.5;" width="108" x="169" y="332.5"/><ellipse cx="184" cy="351.4688" fill="#ADD1B2" rx="11" ry="11" style="stroke: #A80036; stroke-width: 1.0;"/><path d="M186.9688,357.1094 Q186.3906,357.4063 185.75,357.5469 Q185.1094,357.7031 184.4063,357.7031 Q181.9063,357.7031 180.5781,356.0625 Q179.2656,354.4063 179.2656,351.2813 Q179.2656,348.1563 180.5781,346.5 Q181.9063,344.8438 184.4063,344.8438 Q185.1094,344.8438 185.75,345 Q186.4063,345.1563 186.9688,345.4531 L186.9688,348.1719 Q186.3438,347.5938 185.75,347.3281 Q185.1563,347.0469 184.5313,347.0469 Q183.1875,347.0469 182.5,348.125 Q181.8125,349.1875 181.8125,351.2813 Q181.8125,353.375 182.5,354.4531 Q183.1875,355.5156 184.5313,355.5156 Q185.1563,355.5156 185.75,355.25 Q186.3438,354.9688 186.9688,354.3906 L186.9688,357.1094 Z "/><text fill="#A80036" font-family="sans-serif" font-size="12" font-style="italic" lengthAdjust="spacingAndGlyphs" textLength="70" x="201" y="348.6387">«interface»</text><text fill="#A80036" font-family="sans-serif" font-size="12" lengthAdjust="spacingAndGlyphs" textLength="76" x="198" y="362.6074">ISecureUser</text><line style="stroke: #A80036; stroke-width: 1.5;" x1="170" x2="276" y1="370.4375" y2="370.4375"/><line style="stroke: #A80036; stroke-width: 1.5;" x1="170" x2="276" y1="378.4375" y2="378.4375"/><text fill="#A80036" font-family="sans-serif" font-size="11" lengthAdjust="spacingAndGlyphs" textLength="43" x="175" y="392.6479">// new()</text><!--link RegistrationForm to RegistrationController--><path d="M146,126.2057 C146,145.9833 146,167.5568 146,185.5692 " fill="none" id="RegistrationForm-RegistrationController" style="stroke: #A80036; stroke-width: 1.0;"/><text fill="#A80036" font-family="sans-serif" font-size="13" lengthAdjust="spacingAndGlyphs" textLength="23" x="121.6703" y="145.9954">0..*</text><text fill="#A80036" font-family="sans-serif" font-size="13" lengthAdjust="spacingAndGlyphs" textLength="8" x="137.3625" y="175.0438">1</text><!--link RegistrationController to AccountData--><path d="M124.2215,266.1184 C114.0452,284.864 101.9583,307.1294 91.7817,325.8758 " fill="none" id="RegistrationController-AccountData" style="stroke: #A80036; stroke-width: 1.0;"/><text fill="#A80036" font-family="sans-serif" font-size="13" lengthAdjust="spacingAndGlyphs" textLength="8" x="112.2742" y="285.5217">1</text><text fill="#A80036" font-family="sans-serif" font-size="13" lengthAdjust="spacingAndGlyphs" textLength="8" x="86.8379" y="314.8076">1</text><!--link RegistrationController to ISecureUser--><path d="M168.0651,266.1184 C179.6195,287.1264 193.6053,312.555 204.5734,332.4971 " fill="none" id="RegistrationController-ISecureUser" style="stroke: #A80036; stroke-width: 1.0;"/><text fill="#A80036" font-family="sans-serif" font-size="13" lengthAdjust="spacingAndGlyphs" textLength="8" x="162.8313" y="285.5217">1</text><text fill="#A80036" font-family="sans-serif" font-size="13" lengthAdjust="spacingAndGlyphs" textLength="8" x="192.1582" y="321.53">1</text><!--
@startuml
skinparam defaultFontColor #a80036

class RegistrationForm <<boundary>> {
   // request register()
   // prompt registration field()
   // enter username()
   // enter password()
   // register account()
}

class RegistrationController <<control>> {
   // request input verification()
   // setup security context()
}

class AccountData <<entity>> {
   // verify input()
   // add new account()
}

class ISecureUser <<interface>> {
   // new()
}

RegistrationForm "0..*" - - "1" RegistrationController
RegistrationController "1" - - "1" AccountData
RegistrationController "1" - - "1" ISecureUser

@enduml

PlantUML version 1.2017.15(Mon Jul 03 16:45:34 UTC 2017)
(GPL source distribution)
Java Runtime: OpenJDK Runtime Environment
JVM: OpenJDK 64-Bit Server VM
Java Version: 1.8.0_265-b01
Operating System: Linux
OS Version: 5.4.0-1026-azure
Default Encoding: UTF-8
Language: en
Country: null
--></g></svg>