<?xml version="1.0" encoding="UTF-8" standalone="no"?><svg xmlns="http://www.w3.org/2000/svg" xmlns:xlink="http://www.w3.org/1999/xlink" contentScriptType="application/ecmascript" contentStyleType="text/css" height="675px" preserveAspectRatio="none" style="width:833px;height:675px;" version="1.1" viewBox="0 0 833 675" width="833px" zoomAndPan="magnify"><defs><filter height="300%" id="fps8bpu80qkaq" width="300%" x="-1" y="-1"><feGaussianBlur result="blurOut" stdDeviation="2.0"/><feColorMatrix in="blurOut" result="blurOut2" type="matrix" values="0 0 0 0 0 0 0 0 0 0 0 0 0 0 0 0 0 0 .4 0"/><feOffset dx="4.0" dy="4.0" in="blurOut2" result="blurOut3"/><feBlend in="SourceGraphic" in2="blurOut3" mode="normal"/></filter></defs><g><!--MD5=[fee662a292a0353a69bd162820bae93b]
entity User--><ellipse cx="50" cy="159.5" fill="#FEFECE" filter="url(#fps8bpu80qkaq)" rx="8" ry="8" style="stroke: #A80036; stroke-width: 1.5;"/><path d="M50,167.5 L50,194.5 M37,175.5 L63,175.5 M50,194.5 L37,209.5 M50,194.5 L63,209.5 " fill="none" filter="url(#fps8bpu80qkaq)" style="stroke: #A80036; stroke-width: 1.5;"/><text fill="#000000" font-family="sans-serif" font-size="14" lengthAdjust="spacingAndGlyphs" textLength="32" x="34" y="227.9951">User</text><!--MD5=[f3401c2d09288f830763ccde49063a6d]
entity Contributor--><ellipse cx="571" cy="159.5" fill="#FEFECE" filter="url(#fps8bpu80qkaq)" rx="8" ry="8" style="stroke: #A80036; stroke-width: 1.5;"/><path d="M571,167.5 L571,194.5 M558,175.5 L584,175.5 M571,194.5 L558,209.5 M571,194.5 L584,209.5 " fill="none" filter="url(#fps8bpu80qkaq)" style="stroke: #A80036; stroke-width: 1.5;"/><text fill="#000000" font-family="sans-serif" font-size="14" lengthAdjust="spacingAndGlyphs" textLength="78" x="532" y="227.9951">Contributor</text><!--MD5=[b90713b5ddaea180d3429e7b1ef7c0f8]
entity Maintainer--><ellipse cx="557" cy="17.5" fill="#FEFECE" filter="url(#fps8bpu80qkaq)" rx="8" ry="8" style="stroke: #A80036; stroke-width: 1.5;"/><path d="M557,25.5 L557,52.5 M544,33.5 L570,33.5 M557,52.5 L544,67.5 M557,52.5 L570,67.5 " fill="none" filter="url(#fps8bpu80qkaq)" style="stroke: #A80036; stroke-width: 1.5;"/><text fill="#000000" font-family="sans-serif" font-size="14" lengthAdjust="spacingAndGlyphs" textLength="71" x="521.5" y="85.9951">Maintainer</text><!--MD5=[a74c9f7ba4e347df35943d93696ec108]
entity IPFS--><ellipse cx="125" cy="451.5" fill="#FEFECE" filter="url(#fps8bpu80qkaq)" rx="8" ry="8" style="stroke: #A80036; stroke-width: 1.5;"/><path d="M125,459.5 L125,486.5 M112,467.5 L138,467.5 M125,486.5 L112,501.5 M125,486.5 L138,501.5 " fill="none" filter="url(#fps8bpu80qkaq)" style="stroke: #A80036; stroke-width: 1.5;"/><text fill="#000000" font-family="sans-serif" font-size="14" lengthAdjust="spacingAndGlyphs" textLength="29" x="110.5" y="519.9951">IPFS</text><!--MD5=[fa1e3283224feb76407c84b7e90ed808]
entity Database--><ellipse cx="443" cy="593.5" fill="#FEFECE" filter="url(#fps8bpu80qkaq)" rx="8" ry="8" style="stroke: #A80036; stroke-width: 1.5;"/><path d="M443,601.5 L443,628.5 M430,609.5 L456,609.5 M443,628.5 L430,643.5 M443,628.5 L456,643.5 " fill="none" filter="url(#fps8bpu80qkaq)" style="stroke: #A80036; stroke-width: 1.5;"/><text fill="#000000" font-family="sans-serif" font-size="14" lengthAdjust="spacingAndGlyphs" textLength="66" x="410" y="661.9951">Database</text><ellipse cx="117.7904" cy="330.5236" fill="#FEFECE" filter="url(#fps8bpu80qkaq)" rx="51.7904" ry="14.5236" style="stroke: #A80036; stroke-width: 1.5;"/><text fill="#000000" font-family="sans-serif" font-size="14" lengthAdjust="spacingAndGlyphs" textLength="69" x="83.2904" y="335.1721">Download</text><ellipse cx="37.9914" cy="397.5236" fill="#FEFECE" filter="url(#fps8bpu80qkaq)" rx="31.9914" ry="14.5236" style="stroke: #A80036; stroke-width: 1.5;"/><text fill="#000000" font-family="sans-serif" font-size="14" lengthAdjust="spacingAndGlyphs" textLength="41" x="17.4914" y="402.1721">Query</text><ellipse cx="575.0122" cy="397.5236" fill="#FEFECE" filter="url(#fps8bpu80qkaq)" rx="44.0122" ry="14.5236" style="stroke: #A80036; stroke-width: 1.5;"/><text fill="#000000" font-family="sans-serif" font-size="14" lengthAdjust="spacingAndGlyphs" textLength="58" x="546.0122" y="402.1721">Register</text><ellipse cx="502.163" cy="482.5236" fill="#FEFECE" filter="url(#fps8bpu80qkaq)" rx="29.163" ry="14.5236" style="stroke: #A80036; stroke-width: 1.5;"/><text fill="#000000" font-family="sans-serif" font-size="14" lengthAdjust="spacingAndGlyphs" textLength="37" x="483.663" y="487.1721">Login</text><ellipse cx="725.211" cy="330.4422" fill="#FEFECE" filter="url(#fps8bpu80qkaq)" rx="97.711" ry="21.9422" style="stroke: #A80036; stroke-width: 1.5;"/><text fill="#000000" font-family="sans-serif" font-size="14" lengthAdjust="spacingAndGlyphs" textLength="171" x="639.711" y="335.0906">Vote for New Maintainers</text><ellipse cx="421.0203" cy="330.3041" fill="#FEFECE" filter="url(#fps8bpu80qkaq)" rx="99.5203" ry="22.3041" style="stroke: #A80036; stroke-width: 1.5;"/><text fill="#000000" font-family="sans-serif" font-size="14" lengthAdjust="spacingAndGlyphs" textLength="175" x="333.5203" y="334.9525">Propose Package Update</text><ellipse cx="345.2229" cy="482.5446" fill="#FEFECE" filter="url(#fps8bpu80qkaq)" rx="93.2229" ry="21.0446" style="stroke: #A80036; stroke-width: 1.5;"/><text fill="#000000" font-family="sans-serif" font-size="14" lengthAdjust="spacingAndGlyphs" textLength="161" x="264.7229" y="487.193">Check against Conflicts</text><ellipse cx="421.1576" cy="190.4315" fill="#FEFECE" filter="url(#fps8bpu80qkaq)" rx="72.6576" ry="16.9315" style="stroke: #A80036; stroke-width: 1.5;"/><text fill="#000000" font-family="sans-serif" font-size="14" lengthAdjust="spacingAndGlyphs" textLength="113" x="364.6576" y="195.0799">Review Proposal</text><ellipse cx="246.8553" cy="330.5236" fill="#FEFECE" filter="url(#fps8bpu80qkaq)" rx="38.3553" ry="14.5236" style="stroke: #A80036; stroke-width: 1.5;"/><text fill="#000000" font-family="sans-serif" font-size="14" lengthAdjust="spacingAndGlyphs" textLength="50" x="221.8553" y="335.1721">Update</text><!--MD5=[fe4d1e544d1f5aae5d4d05c630db20d2]
link User to Download--><path d="M66.12,224.2 C79.48,251.32 98,288.9 108.91,311.06 " fill="none" id="User-&gt;Download" style="stroke: #A80036; stroke-width: 1.0;"/><polygon fill="#A80036" points="111.26,315.81,110.8631,305.9691,109.0468,311.3265,103.6895,309.5103,111.26,315.81" style="stroke: #A80036; stroke-width: 1.0;"/><!--MD5=[5128ad341e1f5658b79b0c894c7a6c43]
link Download to IPFS--><path d="M118.63,345.08 C119.59,365.53 121.44,405.18 122.9,436.48 " fill="none" id="Download-&gt;IPFS" style="stroke: #A80036; stroke-width: 1.0;"/><polygon fill="#A80036" points="123.15,441.83,126.7074,432.646,122.9067,436.8359,118.7169,433.0353,123.15,441.83" style="stroke: #A80036; stroke-width: 1.0;"/><!--MD5=[ed3a9acfa5b2fcf1ba972f6d55686688]
link User to Query--><path d="M47.69,231.03 C45.11,275.02 41.06,344.29 39.11,377.5 " fill="none" id="User-&gt;Query" style="stroke: #A80036; stroke-width: 1.0;"/><polygon fill="#A80036" points="38.8,382.89,43.3069,374.1329,39.0852,377.8981,35.32,373.6765,38.8,382.89" style="stroke: #A80036; stroke-width: 1.0;"/><!--MD5=[c412ae0b98e24140cd1be0a7e2e34b30]
link Query to Database--><path d="M40.44,412.08 C45.66,437.3 60.19,491.67 93,523 C182.97,608.89 341.38,622.12 409.89,623.64 " fill="none" id="Query-Database" style="stroke: #A80036; stroke-width: 1.0;"/><!--MD5=[6d660fad456c420e2c6aa0727d070b09]
link Contributor to Register--><path d="M571.77,231.03 C572.63,275.02 573.98,344.29 574.63,377.5 " fill="none" id="Contributor-&gt;Register" style="stroke: #A80036; stroke-width: 1.0;"/><polygon fill="#A80036" points="574.73,382.89,578.5492,373.8118,574.63,377.891,570.5508,373.9718,574.73,382.89" style="stroke: #A80036; stroke-width: 1.0;"/><!--MD5=[d25a51d98ea9c50230c9ef23c5563995]
link Register to Database--><path d="M574.77,412.13 C573.82,436.06 569.33,486.56 549,523 C531.27,554.78 500.11,582.51 476.15,600.74 " fill="none" id="Register-Database" style="stroke: #A80036; stroke-width: 1.0;"/><!--MD5=[5cef848000ed1a6021cb90ef380a2a0c]
link Contributor to Propose--><path d="M531.98,227.4 C505.56,251.71 471.33,283.2 447.91,304.74 " fill="none" id="Contributor-&gt;Propose" style="stroke: #A80036; stroke-width: 1.0;"/><polygon fill="#A80036" points="443.96,308.38,453.294,305.2373,447.6422,304.9975,447.882,299.3457,443.96,308.38" style="stroke: #A80036; stroke-width: 1.0;"/><!--MD5=[154e7e4c74084e0a6421e695aa485c21]
link Propose to Login--><path d="M427.24,353.04 C432.47,369.67 440.73,392.97 451,412 C461.44,431.34 476.67,451.35 487.78,464.91 " fill="none" id="Propose-&gt;Login" style="stroke: #A80036; stroke-width: 1.0; stroke-dasharray: 7.0,7.0;"/><polygon fill="#A80036" points="491.08,468.9,488.4328,459.4136,487.896,465.0449,482.2646,464.508,491.08,468.9" style="stroke: #A80036; stroke-width: 1.0;"/><text fill="#000000" font-family="sans-serif" font-size="13" lengthAdjust="spacingAndGlyphs" textLength="61" x="452" y="402.0669">«include»</text><!--MD5=[1f9418f5da9ba6df1fd8b1982b48bfc5]
link Propose to Check--><path d="M386.38,351.68 C375.21,359.95 363.93,370.53 357,383 C344.5,405.49 342.5,435.26 343.01,456.16 " fill="none" id="Propose-&gt;Check" style="stroke: #A80036; stroke-width: 1.0; stroke-dasharray: 7.0,7.0;"/><polygon fill="#A80036" points="343.18,461.28,346.8693,452.1482,343.0087,456.2829,338.874,452.4223,343.18,461.28" style="stroke: #A80036; stroke-width: 1.0;"/><text fill="#000000" font-family="sans-serif" font-size="13" lengthAdjust="spacingAndGlyphs" textLength="61" x="358" y="402.0669">«include»</text><!--MD5=[8f2fb4e962bc34e9b94d529a62651e55]
link Check to Database--><path d="M359.04,503.56 C373.65,524.43 396.9,557.65 415.24,583.84 " fill="none" id="Check-Database" style="stroke: #A80036; stroke-width: 1.0;"/><!--MD5=[994034b9d75866a4c1b611139ff47f41]
link Maintainer to Review--><path d="M521.27,86.28 C495.23,113.09 460.97,148.35 439.99,169.95 " fill="none" id="Maintainer-&gt;Review" style="stroke: #A80036; stroke-width: 1.0;"/><polygon fill="#A80036" points="436.49,173.56,445.6315,169.8948,439.9752,169.9748,439.8952,164.3185,436.49,173.56" style="stroke: #A80036; stroke-width: 1.0;"/><!--MD5=[34ee757fb2ac79744404717ec9f9a281]
link Review to Propose--><path d="M421,207.6 C421,232.34 421,279.77 421,307.61 " fill="none" id="Review-Propose" style="stroke: #A80036; stroke-width: 1.0;"/><!--MD5=[833a3866034953f76d405943b3e833be]
link Review to Update--><path d="M401.38,207.06 C368.04,233.51 300.67,286.93 267.04,313.6 " fill="none" id="Review-&gt;Update" style="stroke: #A80036; stroke-width: 1.0; stroke-dasharray: 7.0,7.0;"/><polygon fill="#A80036" points="262.72,317.03,272.2533,314.5567,266.6327,313.917,267.2724,308.2964,262.72,317.03" style="stroke: #A80036; stroke-width: 1.0;"/><text fill="#000000" font-family="sans-serif" font-size="13" lengthAdjust="spacingAndGlyphs" textLength="60" x="329" y="274.0669">«extend»</text><!--MD5=[cb9fb3bb7e14c6551523c0695b4013a3]
link Update to Check--><path d="M249.75,345.15 C253.56,361.86 261.52,390.59 275,412 C286.09,429.62 302.43,446.18 316.54,458.71 " fill="none" id="Update-&gt;Check" style="stroke: #A80036; stroke-width: 1.0; stroke-dasharray: 7.0,7.0;"/><polygon fill="#A80036" points="320.45,462.13,316.2916,453.2021,316.68,458.8456,311.0365,459.234,320.45,462.13" style="stroke: #A80036; stroke-width: 1.0;"/><text fill="#000000" font-family="sans-serif" font-size="13" lengthAdjust="spacingAndGlyphs" textLength="61" x="276" y="402.0669">«include»</text><!--MD5=[d467551e8e5528af701f3672291fc2dd]
link Update to Database--><path d="M241.25,344.87 C227.95,378.01 198.88,465.44 235,523 C273.58,584.49 361.58,609.27 409.84,618.51 " fill="none" id="Update-Database" style="stroke: #A80036; stroke-width: 1.0;"/><!--MD5=[490bc960ec86520a13bfc100bb1ec4ab]
link Update to IPFS--><path d="M227.68,343.27 C213.28,352.71 193.81,367.01 180,383 C163.23,402.42 149.22,427.76 139.54,447.87 " fill="none" id="Update-IPFS" style="stroke: #A80036; stroke-width: 1.0;"/><!--MD5=[732dd9bf00ccbe52a5beba9c2152f385]
link Maintainer to Vote--><path d="M586.8,89.34 C599.95,107.5 615.27,129.49 628,150 C661.06,203.29 694.79,268.73 712.45,304.02 " fill="none" id="Maintainer-&gt;Vote" style="stroke: #A80036; stroke-width: 1.0;"/><polygon fill="#A80036" points="714.73,308.59,714.2702,298.7519,712.4882,304.1207,707.1194,302.3387,714.73,308.59" style="stroke: #A80036; stroke-width: 1.0;"/><!--MD5=[a836fded0c80e4c409f211f3dc43a4b0]
link Vote to Database--><path d="M729.08,352.79 C731.27,369.7 731.94,393.49 723,412 C671.87,517.88 538.69,584.32 476.24,610.61 " fill="none" id="Vote-Database" style="stroke: #A80036; stroke-width: 1.0;"/><!--MD5=[13a77bd23520ac5923e9e69896e3dc80]
link Vote to Login--><path d="M697.29,351.82 C684.62,361.2 669.47,372.56 656,383 C639.76,395.59 636.9,400.31 620,412 C588.47,433.81 549.84,455.72 525.57,468.95 " fill="none" id="Vote-&gt;Login" style="stroke: #A80036; stroke-width: 1.0; stroke-dasharray: 7.0,7.0;"/><polygon fill="#A80036" points="520.91,471.48,530.7284,470.7065,525.3055,469.0967,526.9152,463.6738,520.91,471.48" style="stroke: #A80036; stroke-width: 1.0;"/><text fill="#000000" font-family="sans-serif" font-size="13" lengthAdjust="spacingAndGlyphs" textLength="61" x="657" y="402.0669">«include»</text><!--MD5=[90f0eec871badf24b26e64e95f40d1fb]
link Login to Database--><path d="M496.34,496.92 C487.98,516.77 471.98,554.74 459.67,583.94 " fill="none" id="Login-Database" style="stroke: #A80036; stroke-width: 1.0;"/><!--MD5=[9e20b686d5698d8f1ab3e59ca277d0cc]
@startuml
actor User
actor Contributor
actor Maintainer
actor IPFS
actor Database

usecase Download
usecase Query

usecase Register
usecase Login
usecase "Vote for New Maintainers" as Vote

usecase "Propose Package Update" as Propose
usecase "Check against Conflicts" as Check
usecase "Review Proposal" as Review
usecase Update

User - -> Download
Download - -> IPFS

User - -> Query
Query - - Database

Contributor - -> Register
Register - - Database

Contributor - -> Propose
Propose ..> Login : <<include>>
Propose ..> Check : <<include>>
Check - - Database

Maintainer - -> Review
Review - - Propose
Review ..> Update : <<extend>>
Update ..> Check : <<include>>
Update - - Database
Update - - IPFS

Maintainer - -> Vote
Vote - - Database
Vote ..> Login : <<include>>
Login - - Database

@enduml

PlantUML version 1.2020.02(Sun Mar 01 17:22:07 ICT 2020)
(GPL source distribution)
Java Runtime: OpenJDK Runtime Environment
JVM: OpenJDK 64-Bit Server VM
Java Version: 11.0.8+10-post-Debian-1
Operating System: Linux
Default Encoding: UTF-8
Language: en
Country: DK
--></g></svg>