<?xml version="1.0" encoding="UTF-8" standalone="no"?><svg xmlns="http://www.w3.org/2000/svg" xmlns:xlink="http://www.w3.org/1999/xlink" contentScriptType="application/ecmascript" contentStyleType="text/css" height="390px" preserveAspectRatio="none" style="width:191px;height:390px;" version="1.1" viewBox="0 0 191 390" width="191px" zoomAndPan="magnify"><defs><filter height="300%" id="flsk3cot11n7x" width="300%" x="-1" y="-1"><feGaussianBlur result="blurOut" stdDeviation="2.0"/><feColorMatrix in="blurOut" result="blurOut2" type="matrix" values="0 0 0 0 0 0 0 0 0 0 0 0 0 0 0 0 0 0 .4 0"/><feOffset dx="4.0" dy="4.0" in="blurOut2" result="blurOut3"/><feBlend in="SourceGraphic" in2="blurOut3" mode="normal"/></filter></defs><g><!--class RegistrationForm--><rect fill="#FEFECE" filter="url(#flsk3cot11n7x)" height="92.3516" id="RegistrationForm" style="stroke: #A80036; stroke-width: 1.5;" width="171" x="7.5" y="8"/><ellipse cx="36.9" cy="26.9688" fill="#ADD1B2" rx="11" ry="11" style="stroke: #A80036; stroke-width: 1.0;"/><path d="M39.8688,32.6094 Q39.2906,32.9063 38.65,33.0469 Q38.0094,33.2031 37.3063,33.2031 Q34.8063,33.2031 33.4781,31.5625 Q32.1656,29.9063 32.1656,26.7813 Q32.1656,23.6563 33.4781,22 Q34.8063,20.3438 37.3063,20.3438 Q38.0094,20.3438 38.65,20.5 Q39.3063,20.6563 39.8688,20.9531 L39.8688,23.6719 Q39.2438,23.0938 38.65,22.8281 Q38.0563,22.5469 37.4313,22.5469 Q36.0875,22.5469 35.4,23.625 Q34.7125,24.6875 34.7125,26.7813 Q34.7125,28.875 35.4,29.9531 Q36.0875,31.0156 37.4313,31.0156 Q38.0563,31.0156 38.65,30.75 Q39.2438,30.4688 39.8688,29.8906 L39.8688,32.6094 Z "/><text fill="#A80036" font-family="sans-serif" font-size="12" font-style="italic" lengthAdjust="spacingAndGlyphs" textLength="74" x="70.6" y="24.1387">«boundary»</text><text fill="#A80036" font-family="sans-serif" font-size="12" lengthAdjust="spacingAndGlyphs" textLength="107" x="54.1" y="38.1074">RegistrationForm</text><line style="stroke: #A80036; stroke-width: 1.5;" x1="8.5" x2="177.5" y1="45.9375" y2="45.9375"/><line style="stroke: #A80036; stroke-width: 1.5;" x1="8.5" x2="177.5" y1="53.9375" y2="53.9375"/><text fill="#A80036" font-family="sans-serif" font-size="11" lengthAdjust="spacingAndGlyphs" textLength="113" x="13.5" y="68.1479">// request register()</text><text fill="#A80036" font-family="sans-serif" font-size="11" lengthAdjust="spacingAndGlyphs" textLength="159" x="13.5" y="80.9526">// prompt registration field()</text><text fill="#A80036" font-family="sans-serif" font-size="11" lengthAdjust="spacingAndGlyphs" textLength="93" x="13.5" y="93.7573">// register(input)</text><!--class RegistrationController--><rect fill="#FEFECE" filter="url(#flsk3cot11n7x)" height="79.5469" id="RegistrationController" style="stroke: #A80036; stroke-width: 1.5;" width="174" x="6" y="160"/><ellipse cx="23.25" cy="178.9688" fill="#ADD1B2" rx="11" ry="11" style="stroke: #A80036; stroke-width: 1.0;"/><path d="M26.2188,184.6094 Q25.6406,184.9063 25,185.0469 Q24.3594,185.2031 23.6563,185.2031 Q21.1563,185.2031 19.8281,183.5625 Q18.5156,181.9063 18.5156,178.7813 Q18.5156,175.6563 19.8281,174 Q21.1563,172.3438 23.6563,172.3438 Q24.3594,172.3438 25,172.5 Q25.6563,172.6563 26.2188,172.9531 L26.2188,175.6719 Q25.5938,175.0938 25,174.8281 Q24.4063,174.5469 23.7813,174.5469 Q22.4375,174.5469 21.75,175.625 Q21.0625,176.6875 21.0625,178.7813 Q21.0625,180.875 21.75,181.9531 Q22.4375,183.0156 23.7813,183.0156 Q24.4063,183.0156 25,182.75 Q25.5938,182.4688 26.2188,181.8906 L26.2188,184.6094 Z "/><text fill="#A80036" font-family="sans-serif" font-size="12" font-style="italic" lengthAdjust="spacingAndGlyphs" textLength="58" x="77.25" y="176.1387">«control»</text><text fill="#A80036" font-family="sans-serif" font-size="12" lengthAdjust="spacingAndGlyphs" textLength="137" x="37.75" y="190.1074">RegistrationController</text><line style="stroke: #A80036; stroke-width: 1.5;" x1="7" x2="179" y1="197.9375" y2="197.9375"/><line style="stroke: #A80036; stroke-width: 1.5;" x1="7" x2="179" y1="205.9375" y2="205.9375"/><text fill="#A80036" font-family="sans-serif" font-size="11" lengthAdjust="spacingAndGlyphs" textLength="162" x="12" y="220.1479">// request input verification()</text><text fill="#A80036" font-family="sans-serif" font-size="11" lengthAdjust="spacingAndGlyphs" textLength="158" x="12" y="232.9526">// return verification result()</text><!--class AccountData--><rect fill="#FEFECE" filter="url(#flsk3cot11n7x)" height="79.5469" id="AccountData" style="stroke: #A80036; stroke-width: 1.5;" width="128" x="29" y="300"/><ellipse cx="50.75" cy="318.9688" fill="#ADD1B2" rx="11" ry="11" style="stroke: #A80036; stroke-width: 1.0;"/><path d="M53.7188,324.6094 Q53.1406,324.9063 52.5,325.0469 Q51.8594,325.2031 51.1563,325.2031 Q48.6563,325.2031 47.3281,323.5625 Q46.0156,321.9063 46.0156,318.7813 Q46.0156,315.6563 47.3281,314 Q48.6563,312.3438 51.1563,312.3438 Q51.8594,312.3438 52.5,312.5 Q53.1563,312.6563 53.7188,312.9531 L53.7188,315.6719 Q53.0938,315.0938 52.5,314.8281 Q51.9063,314.5469 51.2813,314.5469 Q49.9375,314.5469 49.25,315.625 Q48.5625,316.6875 48.5625,318.7813 Q48.5625,320.875 49.25,321.9531 Q49.9375,323.0156 51.2813,323.0156 Q51.9063,323.0156 52.5,322.75 Q53.0938,322.4688 53.7188,321.8906 L53.7188,324.6094 Z "/><text fill="#A80036" font-family="sans-serif" font-size="12" font-style="italic" lengthAdjust="spacingAndGlyphs" textLength="50" x="81.75" y="316.1387">«entity»</text><text fill="#A80036" font-family="sans-serif" font-size="12" lengthAdjust="spacingAndGlyphs" textLength="81" x="66.25" y="330.1074">AccountData</text><line style="stroke: #A80036; stroke-width: 1.5;" x1="30" x2="156" y1="337.9375" y2="337.9375"/><line style="stroke: #A80036; stroke-width: 1.5;" x1="30" x2="156" y1="345.9375" y2="345.9375"/><text fill="#A80036" font-family="sans-serif" font-size="11" lengthAdjust="spacingAndGlyphs" textLength="83" x="35" y="360.1479">// verify input()</text><text fill="#A80036" font-family="sans-serif" font-size="11" lengthAdjust="spacingAndGlyphs" textLength="116" x="35" y="372.9526">// add new account()</text><!--link RegistrationForm to RegistrationController--><path d="M93,100.1953 C93,119.2429 93,141.1178 93,159.5247 " fill="none" id="RegistrationForm-RegistrationController" style="stroke: #A80036; stroke-width: 1.0;"/><text fill="#A80036" font-family="sans-serif" font-size="13" lengthAdjust="spacingAndGlyphs" textLength="23" x="68.2391" y="120.4675">0..*</text><text fill="#A80036" font-family="sans-serif" font-size="13" lengthAdjust="spacingAndGlyphs" textLength="8" x="84.3625" y="148.9922">1</text><!--link RegistrationController to AccountData--><path d="M93,240.1184 C93,258.864 93,281.1294 93,299.8758 " fill="none" id="RegistrationController-AccountData" style="stroke: #A80036; stroke-width: 1.0;"/><text fill="#A80036" font-family="sans-serif" font-size="13" lengthAdjust="spacingAndGlyphs" textLength="8" x="84.3875" y="259.5217">1</text><text fill="#A80036" font-family="sans-serif" font-size="13" lengthAdjust="spacingAndGlyphs" textLength="8" x="84.3125" y="288.8076">1</text><!--
@startuml
skinparam defaultFontColor #a80036

class RegistrationForm <<boundary>> {
   // request register()
   // prompt registration field()
   // register(input)
}

class RegistrationController <<control>> {
   // request input verification()
   // return verification result()
}

class AccountData <<entity>> {
   // verify input()
   // add new account()
}

RegistrationForm "0..*" - - "1" RegistrationController
RegistrationController "1" - - "1" AccountData

@enduml

PlantUML version 1.2017.15(Mon Jul 03 16:45:34 UTC 2017)
(GPL source distribution)
Java Runtime: OpenJDK Runtime Environment
JVM: OpenJDK 64-Bit Server VM
Java Version: 1.8.0_265-b01
Operating System: Linux
OS Version: 5.4.0-1031-azure
Default Encoding: UTF-8
Language: en
Country: null
--></g></svg>