<?xml version="1.0" encoding="UTF-8" standalone="no"?><svg xmlns="http://www.w3.org/2000/svg" xmlns:xlink="http://www.w3.org/1999/xlink" contentScriptType="application/ecmascript" contentStyleType="text/css" height="911px" preserveAspectRatio="none" style="width:663px;height:911px;" version="1.1" viewBox="0 0 663 911" width="663px" zoomAndPan="magnify"><defs><filter height="300%" id="f1if2iyw0xk5tu" width="300%" x="-1" y="-1"><feGaussianBlur result="blurOut" stdDeviation="2.0"/><feColorMatrix in="blurOut" result="blurOut2" type="matrix" values="0 0 0 0 0 0 0 0 0 0 0 0 0 0 0 0 0 0 .4 0"/><feOffset dx="4.0" dy="4.0" in="blurOut2" result="blurOut3"/><feBlend in="SourceGraphic" in2="blurOut3" mode="normal"/></filter></defs><g><!--MD5=[fee662a292a0353a69bd162820bae93b]
entity User--><ellipse cx="65" cy="581.5" fill="#FEFECE" filter="url(#f1if2iyw0xk5tu)" rx="8" ry="8" style="stroke: #A80036; stroke-width: 1.5;"/><path d="M65,589.5 L65,616.5 M52,597.5 L78,597.5 M65,616.5 L52,631.5 M65,616.5 L78,631.5 " fill="none" filter="url(#f1if2iyw0xk5tu)" style="stroke: #A80036; stroke-width: 1.5;"/><text fill="#000000" font-family="sans-serif" font-size="14" lengthAdjust="spacingAndGlyphs" textLength="32" x="49" y="649.9951">User</text><!--MD5=[0e386df696c8989779f0bde43ae749c6]
entity Uploader--><ellipse cx="524" cy="17.5" fill="#FEFECE" filter="url(#f1if2iyw0xk5tu)" rx="8" ry="8" style="stroke: #A80036; stroke-width: 1.5;"/><path d="M524,25.5 L524,52.5 M511,33.5 L537,33.5 M524,52.5 L511,67.5 M524,52.5 L537,67.5 " fill="none" filter="url(#f1if2iyw0xk5tu)" style="stroke: #A80036; stroke-width: 1.5;"/><text fill="#000000" font-family="sans-serif" font-size="14" lengthAdjust="spacingAndGlyphs" textLength="62" x="493" y="85.9951">Uploader</text><!--MD5=[b90713b5ddaea180d3429e7b1ef7c0f8]
entity Maintainer--><ellipse cx="318" cy="439.5" fill="#FEFECE" filter="url(#f1if2iyw0xk5tu)" rx="8" ry="8" style="stroke: #A80036; stroke-width: 1.5;"/><path d="M318,447.5 L318,474.5 M305,455.5 L331,455.5 M318,474.5 L305,489.5 M318,474.5 L331,489.5 " fill="none" filter="url(#f1if2iyw0xk5tu)" style="stroke: #A80036; stroke-width: 1.5;"/><text fill="#000000" font-family="sans-serif" font-size="14" lengthAdjust="spacingAndGlyphs" textLength="71" x="282.5" y="507.9951">Maintainer</text><!--MD5=[a74c9f7ba4e347df35943d93696ec108]
entity IPFS--><ellipse cx="58" cy="829.5" fill="#FEFECE" filter="url(#f1if2iyw0xk5tu)" rx="8" ry="8" style="stroke: #A80036; stroke-width: 1.5;"/><path d="M58,837.5 L58,864.5 M45,845.5 L71,845.5 M58,864.5 L45,879.5 M58,864.5 L71,879.5 " fill="none" filter="url(#f1if2iyw0xk5tu)" style="stroke: #A80036; stroke-width: 1.5;"/><text fill="#000000" font-family="sans-serif" font-size="14" lengthAdjust="spacingAndGlyphs" textLength="29" x="43.5" y="897.9951">IPFS</text><!--MD5=[fa1e3283224feb76407c84b7e90ed808]
entity Database--><ellipse cx="397" cy="829.5" fill="#FEFECE" filter="url(#f1if2iyw0xk5tu)" rx="8" ry="8" style="stroke: #A80036; stroke-width: 1.5;"/><path d="M397,837.5 L397,864.5 M384,845.5 L410,845.5 M397,864.5 L384,879.5 M397,864.5 L410,879.5 " fill="none" filter="url(#f1if2iyw0xk5tu)" style="stroke: #A80036; stroke-width: 1.5;"/><text fill="#000000" font-family="sans-serif" font-size="14" lengthAdjust="spacingAndGlyphs" textLength="66" x="364" y="897.9951">Database</text><ellipse cx="57.7904" cy="744.5236" fill="#FEFECE" filter="url(#f1if2iyw0xk5tu)" rx="51.7904" ry="14.5236" style="stroke: #A80036; stroke-width: 1.5;"/><text fill="#000000" font-family="sans-serif" font-size="14" lengthAdjust="spacingAndGlyphs" textLength="69" x="23.2904" y="749.1721">Download</text><ellipse cx="198.9914" cy="744.5236" fill="#FEFECE" filter="url(#f1if2iyw0xk5tu)" rx="31.9914" ry="14.5236" style="stroke: #A80036; stroke-width: 1.5;"/><text fill="#000000" font-family="sans-serif" font-size="14" lengthAdjust="spacingAndGlyphs" textLength="41" x="178.4914" y="749.1721">Query</text><ellipse cx="608.0122" cy="228.5236" fill="#FEFECE" filter="url(#f1if2iyw0xk5tu)" rx="44.0122" ry="14.5236" style="stroke: #A80036; stroke-width: 1.5;"/><text fill="#000000" font-family="sans-serif" font-size="14" lengthAdjust="spacingAndGlyphs" textLength="58" x="579.0122" y="233.1721">Register</text><ellipse cx="311.163" cy="744.5236" fill="#FEFECE" filter="url(#f1if2iyw0xk5tu)" rx="29.163" ry="14.5236" style="stroke: #A80036; stroke-width: 1.5;"/><text fill="#000000" font-family="sans-serif" font-size="14" lengthAdjust="spacingAndGlyphs" textLength="37" x="292.663" y="749.1721">Login</text><ellipse cx="318.211" cy="612.4422" fill="#FEFECE" filter="url(#f1if2iyw0xk5tu)" rx="97.711" ry="21.9422" style="stroke: #A80036; stroke-width: 1.5;"/><text fill="#000000" font-family="sans-serif" font-size="14" lengthAdjust="spacingAndGlyphs" textLength="171" x="232.711" y="617.0906">Vote for New Maintainers</text><ellipse cx="420.8489" cy="166.7698" fill="#FEFECE" filter="url(#f1if2iyw0xk5tu)" rx="71.8489" ry="16.7698" style="stroke: #A80036; stroke-width: 1.5;"/><text fill="#000000" font-family="sans-serif" font-size="14" lengthAdjust="spacingAndGlyphs" textLength="111" x="365.3489" y="171.4182">Request Upload</text><ellipse cx="480.2229" cy="379.0446" fill="#FEFECE" filter="url(#f1if2iyw0xk5tu)" rx="93.2229" ry="21.0446" style="stroke: #A80036; stroke-width: 1.5;"/><text fill="#000000" font-family="sans-serif" font-size="14" lengthAdjust="spacingAndGlyphs" textLength="161" x="399.7229" y="383.693">Check against Conflicts</text><ellipse cx="318.0038" cy="300.4008" fill="#FEFECE" filter="url(#f1if2iyw0xk5tu)" rx="125.0038" ry="27.4008" style="stroke: #A80036; stroke-width: 1.5;"/><text fill="#000000" font-family="sans-serif" font-size="14" lengthAdjust="spacingAndGlyphs" textLength="230" x="203.0038" y="305.0492">Request Review from Maintainers</text><!--MD5=[fe4d1e544d1f5aae5d4d05c630db20d2]
link User to Download--><path d="M62.86,653.21 C61.59,676.89 60.03,705.89 59.02,724.52 " fill="none" id="User-&gt;Download" style="stroke: #A80036; stroke-width: 1.0;"/><polygon fill="#A80036" points="58.73,729.95,63.212,721.1801,59.001,724.9574,55.2237,720.7464,58.73,729.95" style="stroke: #A80036; stroke-width: 1.0;"/><!--MD5=[5128ad341e1f5658b79b0c894c7a6c43]
link Download to IPFS--><path d="M58,759.02 C58,772.78 58,794.85 58,814.81 " fill="none" id="Download-&gt;IPFS" style="stroke: #A80036; stroke-width: 1.0;"/><polygon fill="#A80036" points="58,819.83,62,810.83,58,814.83,54,810.83,58,819.83" style="stroke: #A80036; stroke-width: 1.0;"/><!--MD5=[ed3a9acfa5b2fcf1ba972f6d55686688]
link User to Query--><path d="M81.16,646.26 C90.94,663.73 104.68,684.72 121,700 C135.57,713.64 155.2,724.56 171.12,732.04 " fill="none" id="User-&gt;Query" style="stroke: #A80036; stroke-width: 1.0;"/><polygon fill="#A80036" points="175.93,734.26,169.4198,726.8696,171.386,732.1738,166.0819,734.14,175.93,734.26" style="stroke: #A80036; stroke-width: 1.0;"/><!--MD5=[c412ae0b98e24140cd1be0a7e2e34b30]
link Query to Database--><path d="M217.99,756.43 C251.57,775.77 321.86,816.24 363.67,840.31 " fill="none" id="Query-Database" style="stroke: #A80036; stroke-width: 1.0;"/><!--MD5=[d9844137d4d16cb521dc2dc08d85e718]
link Uploader to Register--><path d="M542.64,89 C560.37,126.57 586.24,181.39 599.49,209.46 " fill="none" id="Uploader-&gt;Register" style="stroke: #A80036; stroke-width: 1.0;"/><polygon fill="#A80036" points="601.66,214.06,601.4396,204.2136,599.5276,209.5375,594.2036,207.6255,601.66,214.06" style="stroke: #A80036; stroke-width: 1.0;"/><!--MD5=[d25a51d98ea9c50230c9ef23c5563995]
link Register to Database--><path d="M606.78,243 C604.55,269.07 600,328.17 600,378 C600,378 600,378 600,745.5 C600,822.5 487.59,848.03 430.07,856.05 " fill="none" id="Register-Database" style="stroke: #A80036; stroke-width: 1.0;"/><!--MD5=[e30f86edc449e57e7101458948ed51dd]
link Uploader to Request--><path d="M492.82,84.77 C475.02,104.9 453.37,129.38 438.53,146.18 " fill="none" id="Uploader-&gt;Request" style="stroke: #A80036; stroke-width: 1.0;"/><polygon fill="#A80036" points="434.91,150.27,443.8712,146.1838,438.2247,146.5267,437.8818,140.8802,434.91,150.27" style="stroke: #A80036; stroke-width: 1.0;"/><!--MD5=[fbc8791647b6f74d1a9fa8dc768018c7]
link Request to Login--><path d="M351.18,171.15 C267.96,179.1 140,206.45 140,299.5 C140,299.5 140,299.5 140,613.5 C140,683.45 231.79,720.68 280.87,735.59 " fill="none" id="Request-&gt;Login" style="stroke: #A80036; stroke-width: 1.0; stroke-dasharray: 7.0,7.0;"/><polygon fill="#A80036" points="285.77,737.05,278.2726,730.6633,280.975,735.633,276.0054,738.3353,285.77,737.05" style="stroke: #A80036; stroke-width: 1.0;"/><text fill="#000000" font-family="sans-serif" font-size="13" lengthAdjust="spacingAndGlyphs" textLength="61" x="141" y="475.0669">«include»</text><!--MD5=[afcc5643538f15b2e785c705bea68025]
link Request to Check--><path d="M436.19,183.75 C443.35,192.1 451.33,202.9 456,214 C475.47,260.33 479.55,319.78 480.17,352.88 " fill="none" id="Request-&gt;Check" style="stroke: #A80036; stroke-width: 1.0; stroke-dasharray: 7.0,7.0;"/><polygon fill="#A80036" points="480.24,357.96,484.111,348.9038,480.1686,352.9605,476.1118,349.0181,480.24,357.96" style="stroke: #A80036; stroke-width: 1.0;"/><text fill="#000000" font-family="sans-serif" font-size="13" lengthAdjust="spacingAndGlyphs" textLength="61" x="467" y="233.0669">«include»</text><!--MD5=[8f2fb4e962bc34e9b94d529a62651e55]
link Check to Database--><path d="M479.18,400.08 C478.01,430.54 476,490.25 476,541 C476,541 476,541 476,745.5 C476,779.69 451.69,811.03 430.05,832.16 " fill="none" id="Check-Database" style="stroke: #A80036; stroke-width: 1.0;"/><!--MD5=[f5dfd117e46302a71c24aee297856611]
link Request to Review--><path d="M408.58,183.86 C392.12,204.87 362.75,242.36 341.92,268.96 " fill="none" id="Request-&gt;Review" style="stroke: #A80036; stroke-width: 1.0; stroke-dasharray: 7.0,7.0;"/><polygon fill="#A80036" points="338.66,273.13,347.3568,268.5077,341.7415,269.1925,341.0568,263.5772,338.66,273.13" style="stroke: #A80036; stroke-width: 1.0;"/><text fill="#000000" font-family="sans-serif" font-size="13" lengthAdjust="spacingAndGlyphs" textLength="61" x="386" y="233.0669">«include»</text><!--MD5=[91f7c7e7779900bad58cba25269eeaf0]
link Review to Maintainer--><path d="M318,328.12 C318,355.51 318,398.48 318,429.87 " fill="none" id="Review-Maintainer" style="stroke: #A80036; stroke-width: 1.0;"/><!--MD5=[732dd9bf00ccbe52a5beba9c2152f385]
link Maintainer to Vote--><path d="M318,511.24 C318,534.94 318,564.37 318,585.2 " fill="none" id="Maintainer-&gt;Vote" style="stroke: #A80036; stroke-width: 1.0;"/><polygon fill="#A80036" points="318,590.3,322,581.3,318,585.3,314,581.3,318,590.3" style="stroke: #A80036; stroke-width: 1.0;"/><!--MD5=[a836fded0c80e4c409f211f3dc43a4b0]
link Vote to Database--><path d="M340.3,634.18 C352.65,647 367.06,664.5 375,683 C393.94,727.12 397.99,782.77 398.25,819.65 " fill="none" id="Vote-Database" style="stroke: #A80036; stroke-width: 1.0;"/><!--MD5=[13a77bd23520ac5923e9e69896e3dc80]
link Vote to Login--><path d="M314.15,634.71 C311.85,648.43 309.17,666.71 308,683 C307.46,690.54 307.74,692.45 308,700 C308.28,708.11 308.85,717.06 309.42,724.73 " fill="none" id="Vote-&gt;Login" style="stroke: #A80036; stroke-width: 1.0; stroke-dasharray: 7.0,7.0;"/><polygon fill="#A80036" points="309.81,729.8,313.1039,720.5183,309.4243,724.8149,305.1277,721.1353,309.81,729.8" style="stroke: #A80036; stroke-width: 1.0;"/><text fill="#000000" font-family="sans-serif" font-size="13" lengthAdjust="spacingAndGlyphs" textLength="61" x="309" y="696.0669">«include»</text><!--MD5=[90f0eec871badf24b26e64e95f40d1fb]
link Login to Database--><path d="M320.87,758.58 C332.07,773.43 350.9,798.39 367.02,819.76 " fill="none" id="Login-Database" style="stroke: #A80036; stroke-width: 1.0;"/><!--MD5=[5e7b1d731e03121bcad9323e2cabb323]
@startuml
actor User
actor Uploader
actor Maintainer
actor IPFS
actor Database

usecase Download
usecase Query

usecase Register
usecase Login
usecase "Vote for New Maintainers" as Vote

usecase "Request Upload" as Request
usecase "Check against Conflicts" as Check
usecase "Request Review from Maintainers" as Review

User - -> Download
Download - -> IPFS

User - -> Query
Query - - Database

Uploader - -> Register
Register - - Database

Uploader - -> Request
Request ..> Login : <<include>>
Request ..> Check : <<include>>
Check - - Database
Request ..> Review : <<include>>
Review - - Maintainer

Maintainer - -> Vote
Vote - - Database
Vote ..> Login : <<include>>
Login - - Database

@enduml

PlantUML version 1.2020.02(Sun Mar 01 17:22:07 ICT 2020)
(GPL source distribution)
Java Runtime: OpenJDK Runtime Environment
JVM: OpenJDK 64-Bit Server VM
Java Version: 11.0.8+10-post-Debian-1
Operating System: Linux
Default Encoding: UTF-8
Language: en
Country: DK
--></g></svg>