<?xml version="1.0" encoding="UTF-8" standalone="no"?><svg xmlns="http://www.w3.org/2000/svg" xmlns:xlink="http://www.w3.org/1999/xlink" contentScriptType="application/ecmascript" contentStyleType="text/css" height="398px" preserveAspectRatio="none" style="width:276px;height:398px;" version="1.1" viewBox="0 0 276 398" width="276px" zoomAndPan="magnify"><defs><filter height="300%" id="f1deq3a5lx634c" width="300%" x="-1" y="-1"><feGaussianBlur result="blurOut" stdDeviation="2.0"/><feColorMatrix in="blurOut" result="blurOut2" type="matrix" values="0 0 0 0 0 0 0 0 0 0 0 0 0 0 0 0 0 0 .4 0"/><feOffset dx="4.0" dy="4.0" in="blurOut2" result="blurOut3"/><feBlend in="SourceGraphic" in2="blurOut3" mode="normal"/></filter></defs><g><!--class RegistrationForm--><rect fill="#FEFECE" filter="url(#f1deq3a5lx634c)" height="112.0234" id="RegistrationForm" style="stroke: #A80036; stroke-width: 1.5;" width="159" x="57.5" y="8"/><ellipse cx="81.5" cy="24" fill="#ADD1B2" rx="11" ry="11" style="stroke: #A80036; stroke-width: 1.0;"/><path d="M84.4688,29.6406 Q83.8906,29.9375 83.25,30.0781 Q82.6094,30.2344 81.9063,30.2344 Q79.4063,30.2344 78.0781,28.5938 Q76.7656,26.9375 76.7656,23.8125 Q76.7656,20.6875 78.0781,19.0313 Q79.4063,17.375 81.9063,17.375 Q82.6094,17.375 83.25,17.5313 Q83.9063,17.6875 84.4688,17.9844 L84.4688,20.7031 Q83.8438,20.125 83.25,19.8594 Q82.6563,19.5781 82.0313,19.5781 Q80.6875,19.5781 80,20.6563 Q79.3125,21.7188 79.3125,23.8125 Q79.3125,25.9063 80,26.9844 Q80.6875,28.0469 82.0313,28.0469 Q82.6563,28.0469 83.25,27.7813 Q83.8438,27.5 84.4688,26.9219 L84.4688,29.6406 Z "/><text fill="#A80036" font-family="sans-serif" font-size="12" lengthAdjust="spacingAndGlyphs" textLength="107" x="97.5" y="28.1543">RegistrationForm</text><line style="stroke: #A80036; stroke-width: 1.5;" x1="58.5" x2="215.5" y1="40" y2="40"/><line style="stroke: #A80036; stroke-width: 1.5;" x1="58.5" x2="215.5" y1="48" y2="48"/><text fill="#A80036" font-family="sans-serif" font-size="11" lengthAdjust="spacingAndGlyphs" textLength="101" x="63.5" y="62.2104">request register()</text><text fill="#A80036" font-family="sans-serif" font-size="11" lengthAdjust="spacingAndGlyphs" textLength="147" x="63.5" y="75.0151">prompt registration field()</text><text fill="#A80036" font-family="sans-serif" font-size="11" lengthAdjust="spacingAndGlyphs" textLength="100" x="63.5" y="87.8198">enter username()</text><text fill="#A80036" font-family="sans-serif" font-size="11" lengthAdjust="spacingAndGlyphs" textLength="98" x="63.5" y="100.6245">enter password()</text><text fill="#A80036" font-family="sans-serif" font-size="11" lengthAdjust="spacingAndGlyphs" textLength="101" x="63.5" y="113.4292">register account()</text><!--class RegistrationController--><rect fill="#FEFECE" filter="url(#f1deq3a5lx634c)" height="73.6094" id="RegistrationController" style="stroke: #A80036; stroke-width: 1.5;" width="169" x="52.5" y="180"/><ellipse cx="67.5" cy="196" fill="#ADD1B2" rx="11" ry="11" style="stroke: #A80036; stroke-width: 1.0;"/><path d="M70.4688,201.6406 Q69.8906,201.9375 69.25,202.0781 Q68.6094,202.2344 67.9063,202.2344 Q65.4063,202.2344 64.0781,200.5938 Q62.7656,198.9375 62.7656,195.8125 Q62.7656,192.6875 64.0781,191.0313 Q65.4063,189.375 67.9063,189.375 Q68.6094,189.375 69.25,189.5313 Q69.9063,189.6875 70.4688,189.9844 L70.4688,192.7031 Q69.8438,192.125 69.25,191.8594 Q68.6563,191.5781 68.0313,191.5781 Q66.6875,191.5781 66,192.6563 Q65.3125,193.7188 65.3125,195.8125 Q65.3125,197.9063 66,198.9844 Q66.6875,200.0469 68.0313,200.0469 Q68.6563,200.0469 69.25,199.7813 Q69.8438,199.5 70.4688,198.9219 L70.4688,201.6406 Z "/><text fill="#A80036" font-family="sans-serif" font-size="12" lengthAdjust="spacingAndGlyphs" textLength="137" x="81.5" y="200.1543">RegistrationController</text><line style="stroke: #A80036; stroke-width: 1.5;" x1="53.5" x2="220.5" y1="212" y2="212"/><line style="stroke: #A80036; stroke-width: 1.5;" x1="53.5" x2="220.5" y1="220" y2="220"/><text fill="#A80036" font-family="sans-serif" font-size="11" lengthAdjust="spacingAndGlyphs" textLength="150" x="58.5" y="234.2104">request input verification()</text><text fill="#A80036" font-family="sans-serif" font-size="11" lengthAdjust="spacingAndGlyphs" textLength="134" x="58.5" y="247.0151">setup security context()</text><!--class AccountData--><rect fill="#FEFECE" filter="url(#f1deq3a5lx634c)" height="73.6094" id="AccountData" style="stroke: #A80036; stroke-width: 1.5;" width="116" x="6" y="314"/><ellipse cx="22.35" cy="330" fill="#ADD1B2" rx="11" ry="11" style="stroke: #A80036; stroke-width: 1.0;"/><path d="M25.3188,335.6406 Q24.7406,335.9375 24.1,336.0781 Q23.4594,336.2344 22.7563,336.2344 Q20.2563,336.2344 18.9281,334.5938 Q17.6156,332.9375 17.6156,329.8125 Q17.6156,326.6875 18.9281,325.0313 Q20.2563,323.375 22.7563,323.375 Q23.4594,323.375 24.1,323.5313 Q24.7563,323.6875 25.3188,323.9844 L25.3188,326.7031 Q24.6938,326.125 24.1,325.8594 Q23.5063,325.5781 22.8813,325.5781 Q21.5375,325.5781 20.85,326.6563 Q20.1625,327.7188 20.1625,329.8125 Q20.1625,331.9063 20.85,332.9844 Q21.5375,334.0469 22.8813,334.0469 Q23.5063,334.0469 24.1,333.7813 Q24.6938,333.5 25.3188,332.9219 L25.3188,335.6406 Z "/><text fill="#A80036" font-family="sans-serif" font-size="12" lengthAdjust="spacingAndGlyphs" textLength="81" x="36.65" y="334.1543">AccountData</text><line style="stroke: #A80036; stroke-width: 1.5;" x1="7" x2="121" y1="346" y2="346"/><line style="stroke: #A80036; stroke-width: 1.5;" x1="7" x2="121" y1="354" y2="354"/><text fill="#A80036" font-family="sans-serif" font-size="11" lengthAdjust="spacingAndGlyphs" textLength="71" x="12" y="368.2104">verify input()</text><text fill="#A80036" font-family="sans-serif" font-size="11" lengthAdjust="spacingAndGlyphs" textLength="104" x="12" y="381.0151">add new account()</text><!--class ISecureUser--><rect fill="#FEFECE" filter="url(#f1deq3a5lx634c)" height="66.7422" id="ISecureUser" style="stroke: #A80036; stroke-width: 1.5;" width="108" x="157" y="317.5"/><ellipse cx="172" cy="336.4688" fill="#B4A7E5" rx="11" ry="11" style="stroke: #A80036; stroke-width: 1.0;"/><path d="M167.9219,332.2344 L167.9219,330.0781 L175.3125,330.0781 L175.3125,332.2344 L172.8438,332.2344 L172.8438,340.3125 L175.3125,340.3125 L175.3125,342.4688 L167.9219,342.4688 L167.9219,340.3125 L170.3906,340.3125 L170.3906,332.2344 L167.9219,332.2344 Z "/><text fill="#A80036" font-family="sans-serif" font-size="12" font-style="italic" lengthAdjust="spacingAndGlyphs" textLength="70" x="189" y="333.6387">«interface»</text><text fill="#A80036" font-family="sans-serif" font-size="12" font-style="italic" lengthAdjust="spacingAndGlyphs" textLength="76" x="186" y="347.6074">ISecureUser</text><line style="stroke: #A80036; stroke-width: 1.5;" x1="158" x2="264" y1="355.4375" y2="355.4375"/><line style="stroke: #A80036; stroke-width: 1.5;" x1="158" x2="264" y1="363.4375" y2="363.4375"/><text fill="#A80036" font-family="sans-serif" font-size="11" lengthAdjust="spacingAndGlyphs" textLength="31" x="163" y="377.6479">new()</text><!--link RegistrationForm to RegistrationController--><path d="M137,120.1028 C137,140.0596 137,162.0143 137,179.9721 " fill="none" id="RegistrationForm-RegistrationController" style="stroke: #A80036; stroke-width: 1.0;"/><text fill="#A80036" font-family="sans-serif" font-size="13" lengthAdjust="spacingAndGlyphs" textLength="23" x="112.5984" y="139.928">0..*</text><text fill="#A80036" font-family="sans-serif" font-size="13" lengthAdjust="spacingAndGlyphs" textLength="8" x="128.2625" y="168.8774">1</text><!--link RegistrationController to AccountData--><path d="M116.6654,254.3265 C106.5404,272.9122 94.3356,295.3155 84.2255,313.8737 " fill="none" id="RegistrationController-AccountData" style="stroke: #A80036; stroke-width: 1.0;"/><text fill="#A80036" font-family="sans-serif" font-size="13" lengthAdjust="spacingAndGlyphs" textLength="8" x="104.7871" y="273.5793">1</text><text fill="#A80036" font-family="sans-serif" font-size="13" lengthAdjust="spacingAndGlyphs" textLength="8" x="79.1157" y="303.0382">1</text><!--link RegistrationController to ISecureUser--><path d="M157.6131,254.3265 C168.4756,273.9963 181.6994,297.9422 192.2684,317.0806 " fill="none" id="RegistrationController-ISecureUser" style="stroke: #A80036; stroke-width: 1.0;"/><text fill="#A80036" font-family="sans-serif" font-size="13" lengthAdjust="spacingAndGlyphs" textLength="8" x="152.2608" y="273.5793">1</text><text fill="#A80036" font-family="sans-serif" font-size="13" lengthAdjust="spacingAndGlyphs" textLength="8" x="180.0773" y="306.5468">1</text><!--
@startuml
skinparam defaultFontColor #a80036

class RegistrationForm {
   request register()
   prompt registration field()
   enter username()
   enter password()
   register account()
}

class RegistrationController {
   request input verification()
   setup security context()
}

class AccountData {
   verify input()
   add new account()
}

interface ISecureUser <<interface>> {
   new()
}

RegistrationForm "0..*" - - "1" RegistrationController
RegistrationController "1" - - "1" AccountData
RegistrationController "1" - - "1" ISecureUser

@enduml

PlantUML version 1.2017.15(Mon Jul 03 16:45:34 UTC 2017)
(GPL source distribution)
Java Runtime: OpenJDK Runtime Environment
JVM: OpenJDK 64-Bit Server VM
Java Version: 1.8.0_265-b01
Operating System: Linux
OS Version: 5.4.0-1031-azure
Default Encoding: UTF-8
Language: en
Country: null
--></g></svg>