<?xml version="1.0" encoding="UTF-8" standalone="no"?><svg xmlns="http://www.w3.org/2000/svg" xmlns:xlink="http://www.w3.org/1999/xlink" contentScriptType="application/ecmascript" contentStyleType="text/css" height="364px" preserveAspectRatio="none" style="width:458px;height:364px;" version="1.1" viewBox="0 0 458 364" width="458px" zoomAndPan="magnify"><defs><filter height="300%" id="fs0d6jthfm7po" width="300%" x="-1" y="-1"><feGaussianBlur result="blurOut" stdDeviation="2.0"/><feColorMatrix in="blurOut" result="blurOut2" type="matrix" values="0 0 0 0 0 0 0 0 0 0 0 0 0 0 0 0 0 0 .4 0"/><feOffset dx="4.0" dy="4.0" in="blurOut2" result="blurOut3"/><feBlend in="SourceGraphic" in2="blurOut3" mode="normal"/></filter></defs><g><!--class ProposalForm--><rect fill="#FEFECE" filter="url(#fs0d6jthfm7po)" height="92.3516" id="ProposalForm" style="stroke: #A80036; stroke-width: 1.5;" width="204" x="107.5" y="8"/><ellipse cx="162.25" cy="26.9688" fill="#ADD1B2" rx="11" ry="11" style="stroke: #A80036; stroke-width: 1.0;"/><path d="M165.2188,32.6094 Q164.6406,32.9063 164,33.0469 Q163.3594,33.2031 162.6563,33.2031 Q160.1563,33.2031 158.8281,31.5625 Q157.5156,29.9063 157.5156,26.7813 Q157.5156,23.6563 158.8281,22 Q160.1563,20.3438 162.6563,20.3438 Q163.3594,20.3438 164,20.5 Q164.6563,20.6563 165.2188,20.9531 L165.2188,23.6719 Q164.5938,23.0938 164,22.8281 Q163.4063,22.5469 162.7813,22.5469 Q161.4375,22.5469 160.75,23.625 Q160.0625,24.6875 160.0625,26.7813 Q160.0625,28.875 160.75,29.9531 Q161.4375,31.0156 162.7813,31.0156 Q163.4063,31.0156 164,30.75 Q164.5938,30.4688 165.2188,29.8906 L165.2188,32.6094 Z "/><text fill="#000000" font-family="sans-serif" font-size="12" font-style="italic" lengthAdjust="spacingAndGlyphs" textLength="74" x="188.75" y="24.1387">«boundary»</text><text fill="#000000" font-family="sans-serif" font-size="12" lengthAdjust="spacingAndGlyphs" textLength="86" x="182.75" y="38.1074">ProposalForm</text><line style="stroke: #A80036; stroke-width: 1.5;" x1="108.5" x2="310.5" y1="45.9375" y2="45.9375"/><line style="stroke: #A80036; stroke-width: 1.5;" x1="108.5" x2="310.5" y1="53.9375" y2="53.9375"/><text fill="#000000" font-family="sans-serif" font-size="11" lengthAdjust="spacingAndGlyphs" textLength="192" x="113.5" y="68.1479">create package update proposal()</text><text fill="#000000" font-family="sans-serif" font-size="11" lengthAdjust="spacingAndGlyphs" textLength="163" x="113.5" y="80.9526">prompt for package names()</text><text fill="#000000" font-family="sans-serif" font-size="11" lengthAdjust="spacingAndGlyphs" textLength="159" x="113.5" y="93.7573">prompt for update(package)</text><!--class ProposalController--><rect fill="#FEFECE" filter="url(#fs0d6jthfm7po)" height="66.7422" id="ProposalController" style="stroke: #A80036; stroke-width: 1.5;" width="148" x="135.5" y="160"/><ellipse cx="150.5" cy="178.9688" fill="#ADD1B2" rx="11" ry="11" style="stroke: #A80036; stroke-width: 1.0;"/><path d="M153.4688,184.6094 Q152.8906,184.9063 152.25,185.0469 Q151.6094,185.2031 150.9063,185.2031 Q148.4063,185.2031 147.0781,183.5625 Q145.7656,181.9063 145.7656,178.7813 Q145.7656,175.6563 147.0781,174 Q148.4063,172.3438 150.9063,172.3438 Q151.6094,172.3438 152.25,172.5 Q152.9063,172.6563 153.4688,172.9531 L153.4688,175.6719 Q152.8438,175.0938 152.25,174.8281 Q151.6563,174.5469 151.0313,174.5469 Q149.6875,174.5469 149,175.625 Q148.3125,176.6875 148.3125,178.7813 Q148.3125,180.875 149,181.9531 Q149.6875,183.0156 151.0313,183.0156 Q151.6563,183.0156 152.25,182.75 Q152.8438,182.4688 153.4688,181.8906 L153.4688,184.6094 Z "/><text fill="#000000" font-family="sans-serif" font-size="12" font-style="italic" lengthAdjust="spacingAndGlyphs" textLength="58" x="193.5" y="176.1387">«control»</text><text fill="#000000" font-family="sans-serif" font-size="12" lengthAdjust="spacingAndGlyphs" textLength="116" x="164.5" y="190.1074">ProposalController</text><line style="stroke: #A80036; stroke-width: 1.5;" x1="136.5" x2="282.5" y1="197.9375" y2="197.9375"/><line style="stroke: #A80036; stroke-width: 1.5;" x1="136.5" x2="282.5" y1="205.9375" y2="205.9375"/><text fill="#000000" font-family="sans-serif" font-size="11" lengthAdjust="spacingAndGlyphs" textLength="129" x="141.5" y="220.1479">add proposal(updates)</text><!--class MetadataSystem--><rect fill="#FEFECE" filter="url(#fs0d6jthfm7po)" height="66.7422" id="MetadataSystem" style="stroke: #A80036; stroke-width: 1.5;" width="169" x="6" y="287"/><ellipse cx="35.4" cy="305.9688" fill="#ADD1B2" rx="11" ry="11" style="stroke: #A80036; stroke-width: 1.0;"/><path d="M38.3688,311.6094 Q37.7906,311.9063 37.15,312.0469 Q36.5094,312.2031 35.8063,312.2031 Q33.3063,312.2031 31.9781,310.5625 Q30.6656,308.9063 30.6656,305.7813 Q30.6656,302.6563 31.9781,301 Q33.3063,299.3438 35.8063,299.3438 Q36.5094,299.3438 37.15,299.5 Q37.8063,299.6563 38.3688,299.9531 L38.3688,302.6719 Q37.7438,302.0938 37.15,301.8281 Q36.5563,301.5469 35.9313,301.5469 Q34.5875,301.5469 33.9,302.625 Q33.2125,303.6875 33.2125,305.7813 Q33.2125,307.875 33.9,308.9531 Q34.5875,310.0156 35.9313,310.0156 Q36.5563,310.0156 37.15,309.75 Q37.7438,309.4688 38.3688,308.8906 L38.3688,311.6094 Z "/><text fill="#000000" font-family="sans-serif" font-size="12" font-style="italic" lengthAdjust="spacingAndGlyphs" textLength="50" x="80.1" y="303.1387">«entity»</text><text fill="#000000" font-family="sans-serif" font-size="12" lengthAdjust="spacingAndGlyphs" textLength="105" x="52.6" y="317.1074">MetadataSystem</text><line style="stroke: #A80036; stroke-width: 1.5;" x1="7" x2="174" y1="324.9375" y2="324.9375"/><line style="stroke: #A80036; stroke-width: 1.5;" x1="7" x2="174" y1="332.9375" y2="332.9375"/><text fill="#000000" font-family="sans-serif" font-size="11" lengthAdjust="spacingAndGlyphs" textLength="157" x="12" y="347.1479">check for conflicts(updates)</text><!--class NotificationSystem--><rect fill="#FEFECE" filter="url(#fs0d6jthfm7po)" height="66.7422" id="NotificationSystem" style="stroke: #A80036; stroke-width: 1.5;" width="237" x="210" y="287"/><ellipse cx="266.25" cy="305.9688" fill="#ADD1B2" rx="11" ry="11" style="stroke: #A80036; stroke-width: 1.0;"/><path d="M269.2188,311.6094 Q268.6406,311.9063 268,312.0469 Q267.3594,312.2031 266.6563,312.2031 Q264.1563,312.2031 262.8281,310.5625 Q261.5156,308.9063 261.5156,305.7813 Q261.5156,302.6563 262.8281,301 Q264.1563,299.3438 266.6563,299.3438 Q267.3594,299.3438 268,299.5 Q268.6563,299.6563 269.2188,299.9531 L269.2188,302.6719 Q268.5938,302.0938 268,301.8281 Q267.4063,301.5469 266.7813,301.5469 Q265.4375,301.5469 264.75,302.625 Q264.0625,303.6875 264.0625,305.7813 Q264.0625,307.875 264.75,308.9531 Q265.4375,310.0156 266.7813,310.0156 Q267.4063,310.0156 268,309.75 Q268.5938,309.4688 269.2188,308.8906 L269.2188,311.6094 Z "/><text fill="#000000" font-family="sans-serif" font-size="12" font-style="italic" lengthAdjust="spacingAndGlyphs" textLength="74" x="307.75" y="303.1387">«boundary»</text><text fill="#000000" font-family="sans-serif" font-size="12" lengthAdjust="spacingAndGlyphs" textLength="116" x="286.75" y="317.1074">NotificationSystem</text><line style="stroke: #A80036; stroke-width: 1.5;" x1="211" x2="446" y1="324.9375" y2="324.9375"/><line style="stroke: #A80036; stroke-width: 1.5;" x1="211" x2="446" y1="332.9375" y2="332.9375"/><text fill="#000000" font-family="sans-serif" font-size="11" lengthAdjust="spacingAndGlyphs" textLength="225" x="216" y="347.1479">notify maintainers for reviews(updates)</text><!--link ProposalForm to ProposalController--><path d="M209.5,100.0641 C209.5,119.5871 209.5,141.9195 209.5,159.8546 " fill="none" id="ProposalForm-ProposalController" style="stroke: #A80036; stroke-width: 1.0;"/><text fill="#000000" font-family="sans-serif" font-size="13" lengthAdjust="spacingAndGlyphs" textLength="23" x="184.7391" y="120.3162">0..*</text><text fill="#000000" font-family="sans-serif" font-size="13" lengthAdjust="spacingAndGlyphs" textLength="8" x="200.7125" y="148.8594">1</text><!--link ProposalController to MetadataSystem--><path d="M177.9226,227.2002 C160.7086,245.5715 139.4619,268.2465 122.225,286.6423 " fill="none" id="ProposalController-MetadataSystem" style="stroke: #A80036; stroke-width: 1.0;"/><text fill="#000000" font-family="sans-serif" font-size="13" lengthAdjust="spacingAndGlyphs" textLength="8" x="163.363" y="246.8994">1</text><text fill="#000000" font-family="sans-serif" font-size="13" lengthAdjust="spacingAndGlyphs" textLength="8" x="119.5101" y="275.8626">1</text><!--link ProposalController to NotificationSystem--><path d="M241.0774,227.2002 C258.2914,245.5715 279.5381,268.2465 296.775,286.6423 " fill="none" id="ProposalController-NotificationSystem" style="stroke: #A80036; stroke-width: 1.0;"/><text fill="#000000" font-family="sans-serif" font-size="13" lengthAdjust="spacingAndGlyphs" textLength="8" x="238.162" y="246.8994">1</text><text fill="#000000" font-family="sans-serif" font-size="13" lengthAdjust="spacingAndGlyphs" textLength="8" x="281.9649" y="275.8626">1</text><!--
@startuml
class ProposalForm <<boundary>> {
   create package update proposal()
   prompt for package names()
   prompt for update(package)
}

class ProposalController <<control>> {
   add proposal(updates)
}

class MetadataSystem <<entity>> {
   check for conflicts(updates)
}

class NotificationSystem <<boundary>> {
   notify maintainers for reviews(updates)
}

ProposalForm "0..*" - - "1" ProposalController
ProposalController "1" - - "1" MetadataSystem
ProposalController "1" - - "1" NotificationSystem

@enduml

PlantUML version 1.2017.15(Mon Jul 03 16:45:34 UTC 2017)
(GPL source distribution)
Java Runtime: OpenJDK Runtime Environment
JVM: OpenJDK 64-Bit Server VM
Java Version: 1.8.0_265-b01
Operating System: Linux
OS Version: 5.4.0-1026-azure
Default Encoding: UTF-8
Language: en
Country: null
--></g></svg>