<?xml version="1.0" encoding="UTF-8" standalone="no"?><svg xmlns="http://www.w3.org/2000/svg" xmlns:xlink="http://www.w3.org/1999/xlink" contentScriptType="application/ecmascript" contentStyleType="text/css" height="359px" preserveAspectRatio="none" style="width:186px;height:359px;" version="1.1" viewBox="0 0 186 359" width="186px" zoomAndPan="magnify"><defs><filter height="300%" id="f1lpuzn33l3wut" width="300%" x="-1" y="-1"><feGaussianBlur result="blurOut" stdDeviation="2.0"/><feColorMatrix in="blurOut" result="blurOut2" type="matrix" values="0 0 0 0 0 0 0 0 0 0 0 0 0 0 0 0 0 0 .4 0"/><feOffset dx="4.0" dy="4.0" in="blurOut2" result="blurOut3"/><feBlend in="SourceGraphic" in2="blurOut3" mode="normal"/></filter></defs><g><!--class RegistrationForm--><rect fill="#FEFECE" filter="url(#f1lpuzn33l3wut)" height="86.4141" id="RegistrationForm" style="stroke: #A80036; stroke-width: 1.5;" width="159" x="11" y="8"/><ellipse cx="35" cy="24" fill="#ADD1B2" rx="11" ry="11" style="stroke: #A80036; stroke-width: 1.0;"/><path d="M37.9688,29.6406 Q37.3906,29.9375 36.75,30.0781 Q36.1094,30.2344 35.4063,30.2344 Q32.9063,30.2344 31.5781,28.5938 Q30.2656,26.9375 30.2656,23.8125 Q30.2656,20.6875 31.5781,19.0313 Q32.9063,17.375 35.4063,17.375 Q36.1094,17.375 36.75,17.5313 Q37.4063,17.6875 37.9688,17.9844 L37.9688,20.7031 Q37.3438,20.125 36.75,19.8594 Q36.1563,19.5781 35.5313,19.5781 Q34.1875,19.5781 33.5,20.6563 Q32.8125,21.7188 32.8125,23.8125 Q32.8125,25.9063 33.5,26.9844 Q34.1875,28.0469 35.5313,28.0469 Q36.1563,28.0469 36.75,27.7813 Q37.3438,27.5 37.9688,26.9219 L37.9688,29.6406 Z "/><text fill="#A80036" font-family="sans-serif" font-size="12" lengthAdjust="spacingAndGlyphs" textLength="107" x="51" y="28.1543">RegistrationForm</text><line style="stroke: #A80036; stroke-width: 1.5;" x1="12" x2="169" y1="40" y2="40"/><line style="stroke: #A80036; stroke-width: 1.5;" x1="12" x2="169" y1="48" y2="48"/><text fill="#A80036" font-family="sans-serif" font-size="11" lengthAdjust="spacingAndGlyphs" textLength="101" x="17" y="62.2104">request register()</text><text fill="#A80036" font-family="sans-serif" font-size="11" lengthAdjust="spacingAndGlyphs" textLength="147" x="17" y="75.0151">prompt registration field()</text><text fill="#A80036" font-family="sans-serif" font-size="11" lengthAdjust="spacingAndGlyphs" textLength="81" x="17" y="87.8198">register(input)</text><!--class RegistrationController--><rect fill="#FEFECE" filter="url(#f1lpuzn33l3wut)" height="60.8047" id="RegistrationController" style="stroke: #A80036; stroke-width: 1.5;" width="169" x="6" y="154"/><ellipse cx="21" cy="170" fill="#ADD1B2" rx="11" ry="11" style="stroke: #A80036; stroke-width: 1.0;"/><path d="M23.9688,175.6406 Q23.3906,175.9375 22.75,176.0781 Q22.1094,176.2344 21.4063,176.2344 Q18.9063,176.2344 17.5781,174.5938 Q16.2656,172.9375 16.2656,169.8125 Q16.2656,166.6875 17.5781,165.0313 Q18.9063,163.375 21.4063,163.375 Q22.1094,163.375 22.75,163.5313 Q23.4063,163.6875 23.9688,163.9844 L23.9688,166.7031 Q23.3438,166.125 22.75,165.8594 Q22.1563,165.5781 21.5313,165.5781 Q20.1875,165.5781 19.5,166.6563 Q18.8125,167.7188 18.8125,169.8125 Q18.8125,171.9063 19.5,172.9844 Q20.1875,174.0469 21.5313,174.0469 Q22.1563,174.0469 22.75,173.7813 Q23.3438,173.5 23.9688,172.9219 L23.9688,175.6406 Z "/><text fill="#A80036" font-family="sans-serif" font-size="12" lengthAdjust="spacingAndGlyphs" textLength="137" x="35" y="174.1543">RegistrationController</text><line style="stroke: #A80036; stroke-width: 1.5;" x1="7" x2="174" y1="186" y2="186"/><line style="stroke: #A80036; stroke-width: 1.5;" x1="7" x2="174" y1="194" y2="194"/><text fill="#A80036" font-family="sans-serif" font-size="11" lengthAdjust="spacingAndGlyphs" textLength="150" x="12" y="208.2104">request input verification()</text><!--class AccountData--><rect fill="#FEFECE" filter="url(#f1lpuzn33l3wut)" height="73.6094" id="AccountData" style="stroke: #A80036; stroke-width: 1.5;" width="116" x="32.5" y="275"/><ellipse cx="48.85" cy="291" fill="#ADD1B2" rx="11" ry="11" style="stroke: #A80036; stroke-width: 1.0;"/><path d="M51.8188,296.6406 Q51.2406,296.9375 50.6,297.0781 Q49.9594,297.2344 49.2563,297.2344 Q46.7563,297.2344 45.4281,295.5938 Q44.1156,293.9375 44.1156,290.8125 Q44.1156,287.6875 45.4281,286.0313 Q46.7563,284.375 49.2563,284.375 Q49.9594,284.375 50.6,284.5313 Q51.2563,284.6875 51.8188,284.9844 L51.8188,287.7031 Q51.1938,287.125 50.6,286.8594 Q50.0063,286.5781 49.3813,286.5781 Q48.0375,286.5781 47.35,287.6563 Q46.6625,288.7188 46.6625,290.8125 Q46.6625,292.9063 47.35,293.9844 Q48.0375,295.0469 49.3813,295.0469 Q50.0063,295.0469 50.6,294.7813 Q51.1938,294.5 51.8188,293.9219 L51.8188,296.6406 Z "/><text fill="#A80036" font-family="sans-serif" font-size="12" lengthAdjust="spacingAndGlyphs" textLength="81" x="63.15" y="295.1543">AccountData</text><line style="stroke: #A80036; stroke-width: 1.5;" x1="33.5" x2="147.5" y1="307" y2="307"/><line style="stroke: #A80036; stroke-width: 1.5;" x1="33.5" x2="147.5" y1="315" y2="315"/><text fill="#A80036" font-family="sans-serif" font-size="11" lengthAdjust="spacingAndGlyphs" textLength="71" x="38.5" y="329.2104">verify input()</text><text fill="#A80036" font-family="sans-serif" font-size="11" lengthAdjust="spacingAndGlyphs" textLength="104" x="38.5" y="342.0151">add new account()</text><!--link RegistrationForm to RegistrationController--><path d="M90.5,94.3436 C90.5,113.6819 90.5,136.0213 90.5,153.6248 " fill="none" id="RegistrationForm-RegistrationController" style="stroke: #A80036; stroke-width: 1.0;"/><text fill="#A80036" font-family="sans-serif" font-size="13" lengthAdjust="spacingAndGlyphs" textLength="23" x="65.6672" y="114.4913">0..*</text><text fill="#A80036" font-family="sans-serif" font-size="13" lengthAdjust="spacingAndGlyphs" textLength="8" x="81.675" y="142.8106">1</text><!--link RegistrationController to AccountData--><path d="M90.5,215.0394 C90.5,233.0152 90.5,255.8788 90.5,274.8888 " fill="none" id="RegistrationController-AccountData" style="stroke: #A80036; stroke-width: 1.0;"/><text fill="#A80036" font-family="sans-serif" font-size="13" lengthAdjust="spacingAndGlyphs" textLength="8" x="81.675" y="234.9858">1</text><text fill="#A80036" font-family="sans-serif" font-size="13" lengthAdjust="spacingAndGlyphs" textLength="8" x="81.7875" y="264.0559">1</text><!--
@startuml
skinparam defaultFontColor #a80036

class RegistrationForm {
   request register()
   prompt registration field()
   register(input)
}

class RegistrationController {
   request input verification()
}

class AccountData {
   verify input()
   add new account()
}

RegistrationForm "0..*" - - "1" RegistrationController
RegistrationController "1" - - "1" AccountData

@enduml

PlantUML version 1.2017.15(Mon Jul 03 16:45:34 UTC 2017)
(GPL source distribution)
Java Runtime: OpenJDK Runtime Environment
JVM: OpenJDK 64-Bit Server VM
Java Version: 1.8.0_265-b01
Operating System: Linux
OS Version: 5.4.0-1031-azure
Default Encoding: UTF-8
Language: en
Country: null
--></g></svg>