<?xml version="1.0" encoding="UTF-8" standalone="no"?><svg xmlns="http://www.w3.org/2000/svg" xmlns:xlink="http://www.w3.org/1999/xlink" contentScriptType="application/ecmascript" contentStyleType="text/css" height="675px" preserveAspectRatio="none" style="width:852px;height:675px;" version="1.1" viewBox="0 0 852 675" width="852px" zoomAndPan="magnify"><defs><filter height="300%" id="f178lhwsgkcglu" width="300%" x="-1" y="-1"><feGaussianBlur result="blurOut" stdDeviation="2.0"/><feColorMatrix in="blurOut" result="blurOut2" type="matrix" values="0 0 0 0 0 0 0 0 0 0 0 0 0 0 0 0 0 0 .4 0"/><feOffset dx="4.0" dy="4.0" in="blurOut2" result="blurOut3"/><feBlend in="SourceGraphic" in2="blurOut3" mode="normal"/></filter></defs><g><!--MD5=[fee662a292a0353a69bd162820bae93b]
entity User--><ellipse cx="51" cy="159.5" fill="#FEFECE" filter="url(#f178lhwsgkcglu)" rx="8" ry="8" style="stroke: #A80036; stroke-width: 1.5;"/><path d="M51,167.5 L51,194.5 M38,175.5 L64,175.5 M51,194.5 L38,209.5 M51,194.5 L64,209.5 " fill="none" filter="url(#f178lhwsgkcglu)" style="stroke: #A80036; stroke-width: 1.5;"/><text fill="#000000" font-family="sans-serif" font-size="14" lengthAdjust="spacingAndGlyphs" textLength="32" x="35" y="227.9951">User</text><!--MD5=[f3401c2d09288f830763ccde49063a6d]
entity Contributor--><ellipse cx="572" cy="159.5" fill="#FEFECE" filter="url(#f178lhwsgkcglu)" rx="8" ry="8" style="stroke: #A80036; stroke-width: 1.5;"/><path d="M572,167.5 L572,194.5 M559,175.5 L585,175.5 M572,194.5 L559,209.5 M572,194.5 L585,209.5 " fill="none" filter="url(#f178lhwsgkcglu)" style="stroke: #A80036; stroke-width: 1.5;"/><text fill="#000000" font-family="sans-serif" font-size="14" lengthAdjust="spacingAndGlyphs" textLength="78" x="533" y="227.9951">Contributor</text><!--MD5=[b90713b5ddaea180d3429e7b1ef7c0f8]
entity Maintainer--><ellipse cx="567" cy="17.5" fill="#FEFECE" filter="url(#f178lhwsgkcglu)" rx="8" ry="8" style="stroke: #A80036; stroke-width: 1.5;"/><path d="M567,25.5 L567,52.5 M554,33.5 L580,33.5 M567,52.5 L554,67.5 M567,52.5 L580,67.5 " fill="none" filter="url(#f178lhwsgkcglu)" style="stroke: #A80036; stroke-width: 1.5;"/><text fill="#000000" font-family="sans-serif" font-size="14" lengthAdjust="spacingAndGlyphs" textLength="71" x="531.5" y="85.9951">Maintainer</text><!--MD5=[a74c9f7ba4e347df35943d93696ec108]
entity IPFS--><ellipse cx="125" cy="451.5" fill="#FEFECE" filter="url(#f178lhwsgkcglu)" rx="8" ry="8" style="stroke: #A80036; stroke-width: 1.5;"/><path d="M125,459.5 L125,486.5 M112,467.5 L138,467.5 M125,486.5 L112,501.5 M125,486.5 L138,501.5 " fill="none" filter="url(#f178lhwsgkcglu)" style="stroke: #A80036; stroke-width: 1.5;"/><text fill="#000000" font-family="sans-serif" font-size="14" lengthAdjust="spacingAndGlyphs" textLength="29" x="110.5" y="519.9951">IPFS</text><!--MD5=[fa1e3283224feb76407c84b7e90ed808]
entity Database--><ellipse cx="504" cy="593.5" fill="#FEFECE" filter="url(#f178lhwsgkcglu)" rx="8" ry="8" style="stroke: #A80036; stroke-width: 1.5;"/><path d="M504,601.5 L504,628.5 M491,609.5 L517,609.5 M504,628.5 L491,643.5 M504,628.5 L517,643.5 " fill="none" filter="url(#f178lhwsgkcglu)" style="stroke: #A80036; stroke-width: 1.5;"/><text fill="#000000" font-family="sans-serif" font-size="14" lengthAdjust="spacingAndGlyphs" textLength="66" x="471" y="661.9951">Database</text><ellipse cx="118.7904" cy="330.5236" fill="#FEFECE" filter="url(#f178lhwsgkcglu)" rx="51.7904" ry="14.5236" style="stroke: #A80036; stroke-width: 1.5;"/><text fill="#000000" font-family="sans-serif" font-size="14" lengthAdjust="spacingAndGlyphs" textLength="69" x="84.2904" y="335.1721">Download</text><ellipse cx="37.9914" cy="397.5236" fill="#FEFECE" filter="url(#f178lhwsgkcglu)" rx="31.9914" ry="14.5236" style="stroke: #A80036; stroke-width: 1.5;"/><text fill="#000000" font-family="sans-serif" font-size="14" lengthAdjust="spacingAndGlyphs" textLength="41" x="17.4914" y="402.1721">Query</text><ellipse cx="575.0122" cy="397.5236" fill="#FEFECE" filter="url(#f178lhwsgkcglu)" rx="44.0122" ry="14.5236" style="stroke: #A80036; stroke-width: 1.5;"/><text fill="#000000" font-family="sans-serif" font-size="14" lengthAdjust="spacingAndGlyphs" textLength="58" x="546.0122" y="402.1721">Register</text><ellipse cx="641.163" cy="482.5236" fill="#FEFECE" filter="url(#f178lhwsgkcglu)" rx="29.163" ry="14.5236" style="stroke: #A80036; stroke-width: 1.5;"/><text fill="#000000" font-family="sans-serif" font-size="14" lengthAdjust="spacingAndGlyphs" textLength="37" x="622.663" y="487.1721">Login</text><ellipse cx="744.211" cy="330.4422" fill="#FEFECE" filter="url(#f178lhwsgkcglu)" rx="97.711" ry="21.9422" style="stroke: #A80036; stroke-width: 1.5;"/><text fill="#000000" font-family="sans-serif" font-size="14" lengthAdjust="spacingAndGlyphs" textLength="171" x="658.711" y="335.0906">Vote for New Maintainers</text><ellipse cx="422.0203" cy="330.3041" fill="#FEFECE" filter="url(#f178lhwsgkcglu)" rx="99.5203" ry="22.3041" style="stroke: #A80036; stroke-width: 1.5;"/><text fill="#000000" font-family="sans-serif" font-size="14" lengthAdjust="spacingAndGlyphs" textLength="175" x="334.5203" y="334.9525">Propose Package Update</text><ellipse cx="360.2229" cy="482.5446" fill="#FEFECE" filter="url(#f178lhwsgkcglu)" rx="93.2229" ry="21.0446" style="stroke: #A80036; stroke-width: 1.5;"/><text fill="#000000" font-family="sans-serif" font-size="14" lengthAdjust="spacingAndGlyphs" textLength="161" x="279.7229" y="487.193">Check against Conflicts</text><ellipse cx="422.1576" cy="190.4315" fill="#FEFECE" filter="url(#f178lhwsgkcglu)" rx="72.6576" ry="16.9315" style="stroke: #A80036; stroke-width: 1.5;"/><text fill="#000000" font-family="sans-serif" font-size="14" lengthAdjust="spacingAndGlyphs" textLength="113" x="365.6576" y="195.0799">Review Proposal</text><ellipse cx="247.8553" cy="330.5236" fill="#FEFECE" filter="url(#f178lhwsgkcglu)" rx="38.3553" ry="14.5236" style="stroke: #A80036; stroke-width: 1.5;"/><text fill="#000000" font-family="sans-serif" font-size="14" lengthAdjust="spacingAndGlyphs" textLength="50" x="222.8553" y="335.1721">Update</text><!--MD5=[fe4d1e544d1f5aae5d4d05c630db20d2]
link User to Download--><path d="M67.12,224.2 C80.48,251.32 99,288.9 109.91,311.06 " fill="none" id="User-&gt;Download" style="stroke: #A80036; stroke-width: 1.0;"/><polygon fill="#A80036" points="112.26,315.81,111.8631,305.9691,110.0468,311.3265,104.6895,309.5103,112.26,315.81" style="stroke: #A80036; stroke-width: 1.0;"/><!--MD5=[5128ad341e1f5658b79b0c894c7a6c43]
link Download to IPFS--><path d="M119.54,345.08 C120.36,365.53 121.95,405.18 123.2,436.48 " fill="none" id="Download-&gt;IPFS" style="stroke: #A80036; stroke-width: 1.0;"/><polygon fill="#A80036" points="123.41,441.83,127.0471,432.6773,123.2102,436.834,119.0535,432.9971,123.41,441.83" style="stroke: #A80036; stroke-width: 1.0;"/><!--MD5=[ed3a9acfa5b2fcf1ba972f6d55686688]
link User to Query--><path d="M48.49,231.03 C45.7,275.02 41.31,344.29 39.2,377.5 " fill="none" id="User-&gt;Query" style="stroke: #A80036; stroke-width: 1.0;"/><polygon fill="#A80036" points="38.86,382.89,43.4167,374.1587,39.1737,377.8998,35.4325,373.6568,38.86,382.89" style="stroke: #A80036; stroke-width: 1.0;"/><!--MD5=[c412ae0b98e24140cd1be0a7e2e34b30]
link Query to Database--><path d="M40.44,412.08 C45.66,437.3 60.19,491.67 93,523 C148.06,575.56 383.34,608.89 470.95,619.67 " fill="none" id="Query-Database" style="stroke: #A80036; stroke-width: 1.0;"/><!--MD5=[6d660fad456c420e2c6aa0727d070b09]
link Contributor to Register--><path d="M572.58,231.03 C573.22,275.02 574.24,344.29 574.72,377.5 " fill="none" id="Contributor-&gt;Register" style="stroke: #A80036; stroke-width: 1.0;"/><polygon fill="#A80036" points="574.8,382.89,578.671,373.8338,574.7286,377.8905,570.6718,373.9481,574.8,382.89" style="stroke: #A80036; stroke-width: 1.0;"/><!--MD5=[d25a51d98ea9c50230c9ef23c5563995]
link Register to Database--><path d="M570.67,412.24 C560.1,445.73 532.69,532.59 516.5,583.9 " fill="none" id="Register-Database" style="stroke: #A80036; stroke-width: 1.0;"/><!--MD5=[5cef848000ed1a6021cb90ef380a2a0c]
link Contributor to Propose--><path d="M532.98,227.4 C506.56,251.71 472.33,283.2 448.91,304.74 " fill="none" id="Contributor-&gt;Propose" style="stroke: #A80036; stroke-width: 1.0;"/><polygon fill="#A80036" points="444.96,308.38,454.294,305.2373,448.6422,304.9975,448.882,299.3457,444.96,308.38" style="stroke: #A80036; stroke-width: 1.0;"/><!--MD5=[154e7e4c74084e0a6421e695aa485c21]
link Propose to Login--><path d="M424.65,352.99 C427.93,370.95 435.18,396.1 451,412 C493.97,455.18 565.93,471.75 607.88,477.95 " fill="none" id="Propose-&gt;Login" style="stroke: #A80036; stroke-width: 1.0; stroke-dasharray: 7.0,7.0;"/><polygon fill="#A80036" points="612.84,478.66,604.4877,473.4409,607.8891,477.9609,603.3691,481.3623,612.84,478.66" style="stroke: #A80036; stroke-width: 1.0;"/><text fill="#000000" font-family="sans-serif" font-size="13" lengthAdjust="spacingAndGlyphs" textLength="61" x="452" y="402.0669">«include»</text><!--MD5=[1f9418f5da9ba6df1fd8b1982b48bfc5]
link Propose to Check--><path d="M385.3,351.62 C374.11,359.77 363.14,370.3 357,383 C345.88,406 348.75,435.69 353.08,456.43 " fill="none" id="Propose-&gt;Check" style="stroke: #A80036; stroke-width: 1.0; stroke-dasharray: 7.0,7.0;"/><polygon fill="#A80036" points="354.2,461.5,356.1524,451.8466,353.1153,456.6191,348.3429,453.582,354.2,461.5" style="stroke: #A80036; stroke-width: 1.0;"/><text fill="#000000" font-family="sans-serif" font-size="13" lengthAdjust="spacingAndGlyphs" textLength="61" x="358" y="402.0669">«include»</text><!--MD5=[8f2fb4e962bc34e9b94d529a62651e55]
link Check to Database--><path d="M380.33,503.26 C403.82,526.1 442.82,564.02 470.74,591.17 " fill="none" id="Check-Database" style="stroke: #A80036; stroke-width: 1.0;"/><!--MD5=[994034b9d75866a4c1b611139ff47f41]
link Maintainer to Review--><path d="M531.16,84.11 C503.09,111.2 465.08,147.9 442.12,170.08 " fill="none" id="Maintainer-&gt;Review" style="stroke: #A80036; stroke-width: 1.0;"/><polygon fill="#A80036" points="438.29,173.77,447.5451,170.4022,441.8892,170.2993,441.9921,164.6434,438.29,173.77" style="stroke: #A80036; stroke-width: 1.0;"/><!--MD5=[34ee757fb2ac79744404717ec9f9a281]
link Review to Propose--><path d="M422,207.6 C422,232.34 422,279.77 422,307.61 " fill="none" id="Review-Propose" style="stroke: #A80036; stroke-width: 1.0;"/><!--MD5=[13a77bd23520ac5923e9e69896e3dc80]
link Vote to Login--><path d="M742.02,352.73 C739.62,369.83 734.38,393.91 723,412 C707.98,435.88 682.1,455.8 663.43,468.1 " fill="none" id="Vote-&gt;Login" style="stroke: #A80036; stroke-width: 1.0; stroke-dasharray: 7.0,7.0;"/><polygon fill="#A80036" points="658.85,471.06,668.58,469.5345,663.0494,468.3461,664.2378,462.8155,658.85,471.06" style="stroke: #A80036; stroke-width: 1.0;"/><text fill="#000000" font-family="sans-serif" font-size="13" lengthAdjust="spacingAndGlyphs" textLength="61" x="735" y="402.0669">«include»</text><!--MD5=[13a77bd23520ac5923e9e69896e3dc80]
link Vote to Login--><path d="M692.98,349.3 C677.4,357.23 661.82,368.21 652,383 C636.13,406.92 636.27,441.51 638.3,462.69 " fill="none" id="Vote-&gt;Login-1" style="stroke: #A80036; stroke-width: 1.0; stroke-dasharray: 7.0,7.0;"/><polygon fill="#A80036" points="638.85,467.77,641.8494,458.389,638.3072,462.7995,633.8967,459.2574,638.85,467.77" style="stroke: #A80036; stroke-width: 1.0;"/><text fill="#000000" font-family="sans-serif" font-size="13" lengthAdjust="spacingAndGlyphs" textLength="61" x="653" y="402.0669">«include»</text><!--MD5=[833a3866034953f76d405943b3e833be]
link Review to Update--><path d="M402.38,207.06 C369.04,233.51 301.67,286.93 268.04,313.6 " fill="none" id="Review-&gt;Update" style="stroke: #A80036; stroke-width: 1.0; stroke-dasharray: 7.0,7.0;"/><polygon fill="#A80036" points="263.72,317.03,273.2533,314.5567,267.6327,313.917,268.2724,308.2964,263.72,317.03" style="stroke: #A80036; stroke-width: 1.0;"/><text fill="#000000" font-family="sans-serif" font-size="13" lengthAdjust="spacingAndGlyphs" textLength="60" x="330" y="274.0669">«extend»</text><!--MD5=[cb9fb3bb7e14c6551523c0695b4013a3]
link Update to Check--><path d="M250.81,345.03 C254.78,361.88 263.26,391.01 278,412 C290.95,430.44 309.93,446.95 326.37,459.25 " fill="none" id="Update-&gt;Check" style="stroke: #A80036; stroke-width: 1.0; stroke-dasharray: 7.0,7.0;"/><polygon fill="#A80036" points="330.49,462.28,325.6018,453.7299,326.4593,459.3213,320.8679,460.1789,330.49,462.28" style="stroke: #A80036; stroke-width: 1.0;"/><text fill="#000000" font-family="sans-serif" font-size="13" lengthAdjust="spacingAndGlyphs" textLength="61" x="279" y="402.0669">«include»</text><!--MD5=[d467551e8e5528af701f3672291fc2dd]
link Update to Database--><path d="M243.46,345.08 C233.12,378.69 211.58,467.11 250,523 C300.64,596.67 414.42,616.34 470.9,621.59 " fill="none" id="Update-Database" style="stroke: #A80036; stroke-width: 1.0;"/><!--MD5=[490bc960ec86520a13bfc100bb1ec4ab]
link Update to IPFS--><path d="M228.38,343.21 C213.76,352.63 194,366.91 180,383 C163.29,402.21 149.37,427.31 139.71,447.37 " fill="none" id="Update-IPFS" style="stroke: #A80036; stroke-width: 1.0;"/><!--MD5=[732dd9bf00ccbe52a5beba9c2152f385]
link Maintainer to Vote--><path d="M591.98,89.02 C628.98,147.56 697.29,255.61 728.14,304.42 " fill="none" id="Maintainer-&gt;Vote" style="stroke: #A80036; stroke-width: 1.0;"/><polygon fill="#A80036" points="730.83,308.67,729.4048,298.9248,728.1595,304.4429,722.6414,303.1976,730.83,308.67" style="stroke: #A80036; stroke-width: 1.0;"/><!--MD5=[a836fded0c80e4c409f211f3dc43a4b0]
link Vote to Database--><path d="M777.52,351.31 C788.36,359.61 799.1,370.3 805,383 C810.43,394.69 810.09,400.16 805,412 C755.45,527.3 604.63,590.21 537.19,613.22 " fill="none" id="Vote-Database" style="stroke: #A80036; stroke-width: 1.0;"/><!--MD5=[90f0eec871badf24b26e64e95f40d1fb]
link Login to Database--><path d="M628.84,495.92 C608.48,516.74 566.79,559.34 537.2,589.58 " fill="none" id="Login-Database" style="stroke: #A80036; stroke-width: 1.0;"/><!--MD5=[3e513001b01e0d227d9f8797fd18a332]
@startuml
actor User
actor Contributor
actor Maintainer
actor IPFS
actor Database

usecase Download
usecase Query

usecase Register
usecase Login
usecase "Vote for New Maintainers" as Vote

usecase "Propose Package Update" as Propose
usecase "Check against Conflicts" as Check
usecase "Review Proposal" as Review
usecase Update

User - -> Download
Download - -> IPFS

User - -> Query
Query - - Database

Contributor - -> Register
Register - - Database

Contributor - -> Propose
Propose ..> Login : <<include>>
Propose ..> Check : <<include>>
Check - - Database

Maintainer - -> Review
Review - - Propose
Vote ..> Login : <<include>>
Review ..> Update : <<extend>>
Update ..> Check : <<include>>
Update - - Database
Update - - IPFS

Maintainer - -> Vote
Vote - - Database
Vote ..> Login : <<include>>
Login - - Database

@enduml

PlantUML version 1.2020.02(Sun Mar 01 17:22:07 ICT 2020)
(GPL source distribution)
Java Runtime: OpenJDK Runtime Environment
JVM: OpenJDK 64-Bit Server VM
Java Version: 11.0.8+10-post-Debian-1
Operating System: Linux
Default Encoding: UTF-8
Language: en
Country: DK
--></g></svg>